<?xml version="1.0" standalone="no"?>
<!DOCTYPE svg PUBLIC "-//W3C//DTD SVG 1.1//EN" "http://www.w3.org/Graphics/SVG/1.1/DTD/svg11.dtd" >
<svg xmlns="http://www.w3.org/2000/svg">
<metadata></metadata>
<defs>
<font id="officinaserifblackcregular" horiz-adv-x="1089" >
<font-face units-per-em="2048" ascent="1477" descent="-571" />
<missing-glyph horiz-adv-x="477" />
<glyph horiz-adv-x="0" />
<glyph horiz-adv-x="682" />
<glyph unicode=" "  horiz-adv-x="477" />
<glyph unicode="&#x09;" horiz-adv-x="477" />
<glyph unicode="&#xa0;" horiz-adv-x="477" />
<glyph unicode="!" horiz-adv-x="757" d="M143 166q0 97 69.5 166t166.5 69t166 -69t69 -166t-69 -166.5t-166 -69.5t-166.5 69.5t-69.5 166.5zM158 1384q-2 29 4.5 36t36.5 7h352q30 0 37.5 -8t5.5 -35l-51 -804q-2 -27 -8.5 -34t-32.5 -7h-252q-26 0 -32.5 7t-8.5 34z" />
<glyph unicode="&#x22;" horiz-adv-x="903" d="M49 1364q-3 26 5 33.5t38 7.5h283q29 0 36.5 -7.5t4.5 -33.5l-49 -481q-3 -28 -10 -35.5t-33 -7.5h-183q-27 0 -33.5 7t-9.5 36zM492 1364q-3 26 5 33.5t38 7.5h282q29 0 36.5 -7.5t4.5 -33.5l-49 -481q-3 -28 -10 -35.5t-33 -7.5h-182q-27 0 -33.5 7t-9.5 36z" />
<glyph unicode="#" horiz-adv-x="1552" d="M63 240l29 233q3 27 10 34t35 7h158l27 240h-152q-29 0 -33.5 6.5t-1.5 36.5l23 233q3 28 11 34.5t38 6.5h151l35 293q3 28 10.5 34.5t34.5 6.5h301q29 0 34.5 -6t2.5 -35l-33 -293h175l32 289q3 29 11.5 37t35.5 8h303q29 0 34.5 -6t2.5 -35l-32 -293h153q28 0 33 -6.5 t2 -34.5l-29 -233q-3 -29 -10.5 -36t-36.5 -7h-149l-27 -240h152q29 0 35.5 -7t3.5 -34l-29 -233q-3 -29 -10.5 -36t-36.5 -7h-156l-39 -318q-3 -29 -10.5 -36t-36.5 -7h-303q-27 0 -33.5 7t-3.5 36l39 318h-174l-39 -318q-3 -29 -10.5 -36t-36.5 -7h-301q-27 0 -34.5 8 t-4.5 35l41 318h-154q-29 0 -34.5 6.5t-2.5 36.5zM678 514h174l29 240h-172z" />
<glyph unicode="$" horiz-adv-x="1134" d="M79 97q-5 10 1 28l84 266q7 21 37 10q260 -108 358 -108q63 0 95 26.5t32 73.5q0 15 -3.5 27.5t-7.5 22t-14.5 19t-16 15t-21.5 14t-22.5 11t-26 11.5t-25.5 11q-178 81 -211 99q-26 13 -40 20.5t-44.5 27.5t-48.5 38t-42.5 50t-38.5 66t-24 83t-10 104q0 139 98 243 t261 136v98q0 27 7 35t33 8h170q28 0 34.5 -7.5t6.5 -35.5v-90q198 -17 304 -96q41 -32 32 -54l-100 -243q-11 -24 -33 -11q-205 105 -317 105q-65 0 -97 -21t-32 -69q0 -47 30 -74t107 -62q137 -61 237 -118q58 -34 97 -65.5t72 -73.5t49 -95.5t16 -120.5 q0 -158 -98.5 -271t-266.5 -148v-97q0 -29 -6 -35t-35 -6h-170q-27 0 -33.5 6t-6.5 35v86q-212 25 -347 105q-18 11 -23 21z" />
<glyph unicode="%" horiz-adv-x="1908" d="M61 965q0 170 98.5 280.5t268.5 110.5q172 0 270.5 -107t98.5 -282q0 -76 -23 -145t-67 -125.5t-116.5 -90t-162.5 -33.5q-174 0 -270.5 111t-96.5 281zM342 965q0 -162 86 -162t86 164q0 52 -7 86.5t-20 51t-27 22.5t-32 6q-86 0 -86 -168zM530 -31l578 1387 q13 30 47 30h188q31 0 38 -12.5t-5 -38.5l-573 -1382q-14 -35 -49 -35h-191q-55 0 -33 51zM1114 354q0 170 98.5 280.5t268.5 110.5q172 0 270 -107t98 -282q0 -76 -23 -145.5t-67 -126t-116 -90t-162 -33.5q-174 0 -270.5 111.5t-96.5 281.5zM1397 354q0 -161 84 -161 q86 0 86 163q0 52 -7 86.5t-20 51t-27 22.5t-32 6q-84 0 -84 -168z" />
<glyph unicode="&#x26;" horiz-adv-x="1388" d="M76 365q0 71 22 131.5t63 108t83 81.5t98 68q-86 96 -122 167.5t-36 147.5q0 163 131 271t320 108q185 0 302.5 -100t117.5 -261q0 -47 -15 -92t-36 -79t-56 -71.5t-61.5 -61t-67.5 -56.5l150 -156q6 16 12 42t8.5 45t6.5 49t5 36q2 14 8 20t14.5 6t20.5 -1l238 -33 q27 -3 27 -33q0 -68 -30 -177t-73 -183l131 -131q18 -19 17.5 -30.5t-19.5 -30.5l-178 -183q-16 -15 -26 -13.5t-31 19.5l-109 99q-42 -30 -73 -48t-79.5 -38t-109.5 -29.5t-137 -9.5q-238 0 -377 109t-139 309zM446 385q0 -62 45 -103.5t115 -41.5q53 0 89.5 16t80.5 49 l-225 242q-105 -77 -105 -162zM524 1081q0 -19 5 -36t18.5 -36.5t20.5 -28.5t28.5 -32t24.5 -26q53 49 73.5 84t20.5 75q0 45 -25 67.5t-67 22.5q-44 0 -71.5 -25t-27.5 -65z" />
<glyph unicode="'" horiz-adv-x="460" d="M49 1364q-3 26 5 33.5t38 7.5h283q29 0 36.5 -7.5t4.5 -33.5l-49 -481q-3 -28 -10 -35.5t-33 -7.5h-183q-27 0 -33.5 7t-9.5 36z" />
<glyph unicode="(" horiz-adv-x="948" d="M152 500q0 154 36.5 302.5t103.5 278.5t148 241t181 214q19 19 27 25t20 7t28 -9l191 -119q14 -8 16 -19.5t-2 -20t-14 -24.5q-144 -209 -191 -291q-114 -201 -140 -416q-9 -80 -9 -169q0 -116 19.5 -224.5t47 -186.5t74.5 -164t82 -137.5t90 -125.5q5 -7 13 -16.5 t12 -15t9.5 -13t8 -12t5 -10t1.5 -9.5t-2.5 -9t-6 -9t-11.5 -8l-197 -123q-8 -6 -17 -6.5t-15.5 1t-15.5 8t-13 10.5t-13 13.5t-12 12.5q-102 110 -180 219.5t-142 237t-98 271t-34 296.5z" />
<glyph unicode=")" horiz-adv-x="968" d="M62 -403q3 12 33 50q7 10 11 15q56 74 90.5 125.5t82 137.5t74.5 164t47 186.5t20 224.5q0 114 -16.5 214t-39.5 173t-71 162t-85.5 146t-109.5 161q-9 13 -14 20q-10 16 -14 24.5t-2 20t16 19.5l186 119q16 10 28.5 9t20.5 -7t27 -25q100 -102 181.5 -213t148.5 -241 t104 -279t37 -303q0 -152 -34.5 -296t-99 -271.5t-143 -237t-180.5 -219.5q-2 -2 -13.5 -14.5t-16.5 -16.5t-15 -10.5t-19.5 -5.5t-19.5 8l-194 123q-23 25 -20 37z" />
<glyph unicode="*" horiz-adv-x="1144" d="M114.5 946q-6.5 9 2.5 35l80 231q9 27 20.5 31.5t34.5 -8.5l201 -109l-33 232q-3 28 4 37.5t35 9.5h243q28 0 36.5 -9t2.5 -38l-45 -238l201 113q23 13 35.5 8.5t21.5 -31.5l80 -231q9 -26 2.5 -35t-35.5 -14l-221 -41l150 -156q20 -20 20 -31t-24 -28l-199 -142 q-23 -15 -34 -12t-23 29l-97 211l-102 -213q-12 -26 -23 -29t-34 12l-199 142q-24 17 -24 28t20 31l162 168l-223 33q-29 5 -35.5 14z" />
<glyph unicode="+" d="M68 590v252q0 27 7 34t36 7h245v247q0 29 7 36.5t34 7.5h295q29 0 36 -8t7 -38v-245h246q29 0 36 -7t7 -34v-252q0 -29 -7 -36t-36 -7h-246v-250q0 -29 -7 -36t-36 -7h-295q-27 0 -34 7t-7 36v250h-247q-29 0 -35 6.5t-6 36.5z" />
<glyph unicode="," horiz-adv-x="653" d="M49.5 -294.5q-4.5 7.5 1.5 34.5l156 524q6 20 16 26.5t31 6.5h332q34 0 39.5 -12.5t-9.5 -38.5l-313 -594q-13 -23 -23.5 -26.5t-31.5 5.5l-168 58q-26 9 -30.5 16.5z" />
<glyph unicode="-" horiz-adv-x="856" d="M61 401v246q0 27 6.5 34t34.5 7h652q29 0 36 -7t7 -34v-246q0 -29 -6.5 -35t-36.5 -6h-652q-29 0 -35 6t-6 35z" />
<glyph unicode="." horiz-adv-x="643" d="M66 205q0 107 74.5 181.5t181.5 74.5t182.5 -74.5t75.5 -181.5t-75.5 -182.5t-182.5 -75.5t-181.5 75.5t-74.5 182.5z" />
<glyph unicode="/" horiz-adv-x="946" d="M-63 -527q-3 12 8 38l667 1980q15 37 54 37h227q30 0 35.5 -14t-4.5 -37l-666 -1981q-9 -35 -53 -35h-234q-31 0 -34 12z" />
<glyph unicode="0" horiz-adv-x="1153" d="M27 672q0 118 17 221t58.5 198.5t105 164t162 109t224.5 40.5q118 0 211 -39t152 -104t98 -156t55 -188t16 -207q0 -126 -13.5 -228t-50.5 -201.5t-97.5 -167t-161 -108.5t-234.5 -41q-267 0 -404.5 188.5t-137.5 518.5zM397 676q0 -121 13.5 -205t39.5 -129t57 -64.5 t73 -19.5q61 0 98.5 32t59.5 120t22 241q0 185 -20 286.5t-56 137t-98 35.5q-43 0 -76 -20.5t-59 -68t-40 -134t-14 -211.5z" />
<glyph unicode="1" horiz-adv-x="1161" d="M81.5 1053.5q1.5 8.5 27.5 25.5l436 291h221q27 0 35 -8t8 -35v-1040h131q28 0 35.5 -7t7.5 -36v-201q0 -29 -7.5 -36t-35.5 -7h-686q-29 0 -35 6.5t-6 36.5v201q0 30 6 36.5t35 6.5h174v653l-176 -100q-25 -13 -34 -9.5t-23 27.5l-99 164q-16 23 -14.5 31.5z" />
<glyph unicode="2" horiz-adv-x="1153" d="M96 1012q0 28 12 61.5t56 110.5q61 107 174.5 164t263.5 57q200 0 325.5 -105t125.5 -276q0 -97 -18.5 -162.5t-57.5 -120.5q-66 -94 -227 -215q-2 -1 -71.5 -49.5t-108.5 -84.5t-54 -68h485q27 0 35 -7.5t8 -33.5v-240q0 -30 -5 -36.5t-31 -6.5h-871q-17 0 -22.5 6.5 t-5.5 28.5q0 69 1 82.5t1 25.5q0 85 21 159t60.5 133t81.5 102.5t97 87.5q17 14 98 79t117 93q56 43 81 85.5t25 106.5q0 117 -119 117q-17 0 -33 -3.5t-28 -7.5t-24.5 -14.5t-20.5 -16t-18.5 -21t-15 -21.5t-13.5 -24.5t-11 -23t-10.5 -24.5t-9.5 -22q-7 -15 -21 -25 t-30 -4l-219 82q-23 9 -23 31z" />
<glyph unicode="3" horiz-adv-x="1159" d="M75.5 103q-2.5 5 0.5 20l65 225q1 4 3 6.5t3.5 4t4 2.5t4.5 1t5.5 -0.5t5.5 -1.5t5.5 -2.5t5.5 -2.5l5 -2.5l5 -2.5q86 -40 173.5 -65t138.5 -25q184 0 184 160q0 79 -44.5 115t-164.5 36h-67q-28 0 -35.5 6.5t-7.5 34.5v205q0 27 7.5 35t33.5 8h71q87 0 131.5 30.5 t44.5 110.5q0 53 -33 82t-88 29q-32 0 -59 -8t-47.5 -23.5t-33.5 -28t-28.5 -32t-21.5 -25.5q-3 -3 -8 -9.5t-8.5 -10.5t-8 -7.5t-9.5 -2.5t-11 6l-180 157q-18 16 4 52q1 2 29 41q65 90 168.5 137t226.5 47q204 0 333.5 -107.5t129.5 -285.5q0 -157 -148 -273 q91 -55 144 -139t53 -188q0 -131 -69.5 -233t-190.5 -157t-273 -55q-31 0 -79 5t-114.5 17t-132.5 37.5t-108 61.5q-12 10 -14.5 15z" />
<glyph unicode="4" horiz-adv-x="1153" d="M31 287v268l538 838q15 23 22.5 25.5t33.5 -7.5l260 -102q29 -10 33 -22.5t-13 -35.5l-514 -702h236l45 258q5 27 11.5 34t31.5 7h215q26 0 34.5 -8.5t8.5 -34.5v-258h100q29 0 36 -8t7 -43v-209q0 -27 -7.5 -35t-35.5 -8h-100v-238q0 -28 -7.5 -34.5t-35.5 -6.5h-271 q-29 0 -36 7t-7 34v238h-542q-26 0 -34.5 8.5t-8.5 34.5z" />
<glyph unicode="5" horiz-adv-x="1157" d="M88 68q-2 8 0 20l43 231q1 5 3 9t4.5 6t6.5 2.5t6 1t7 -0.5t7 -2t8 -3t7 -2q10 -3 39.5 -12t40 -12t36 -10t38.5 -9.5t36 -7t40 -6.5t39.5 -3.5t44.5 -1.5q117 0 181 57.5t64 163.5q0 166 -155 166q-64 0 -104 -21.5t-87 -70.5q-21 -21 -45 -14l-203 65q-23 7 -28.5 15.5 t-3.5 32.5l65 667q3 27 10 34t35 7h713q21 0 28.5 -1.5t12 -10t4.5 -27.5v-244q0 -28 -7 -34t-36 -6h-442l-21 -152q58 41 156 41q203 0 326.5 -121.5t123.5 -322.5q0 -242 -162 -386.5t-427 -144.5q-78 0 -193.5 21t-185.5 65q-23 14 -25 21z" />
<glyph unicode="6" horiz-adv-x="1153" d="M84 580q0 242 79 428.5t229 291.5t351 105q111 0 192 -35.5t81 -71.5q0 -10 -2 -14l-62 -205q-4 -14 -16.5 -17.5t-24.5 3.5q-88 45 -168 45q-191 0 -305 -227q109 80 203 80q75 0 149 -22t125 -67q81 -72 119.5 -165t38.5 -230q0 -228 -137.5 -371t-360.5 -143 q-240 0 -365.5 161.5t-125.5 453.5zM440 483q0 -227 146 -227q76 0 112.5 55.5t36.5 175.5q0 112 -34.5 162.5t-106.5 50.5q-71 0 -112.5 -53.5t-41.5 -163.5z" />
<glyph unicode="7" horiz-adv-x="1153" d="M80 1075v252q0 29 7 36t34 7h868q26 0 34.5 -8.5t8.5 -34.5v-137l-485 -1198q-9 -24 -18 -29.5t-33 -1.5l-297 59q-31 6 -36 18t7 36l422 960h-471q-27 0 -34 6.5t-7 34.5z" />
<glyph unicode="8" horiz-adv-x="1153" d="M41 385q0 105 62.5 192t170.5 148q-180 119 -180 299q0 172 139 280.5t345 108.5q137 0 247.5 -47t175 -136t64.5 -204q0 -171 -184 -297q231 -137 231 -338q0 -106 -46.5 -190t-124 -134t-171 -76t-195.5 -26q-242 0 -388 111.5t-146 308.5zM403 393q0 -63 46 -101 t129 -38q75 0 118 38t43 101q0 74 -45 115.5t-127 73.5q-74 -36 -119 -80t-45 -109zM453 1010q0 -56 35.5 -89t99.5 -59q112 44 112 144q0 55 -31.5 84.5t-90.5 29.5q-57 0 -91 -29.5t-34 -80.5z" />
<glyph unicode="9" horiz-adv-x="1153" d="M80 887q0 228 138.5 373t361.5 145q239 0 364 -164t125 -457q0 -243 -76.5 -428t-227 -290t-355.5 -105q-113 0 -184.5 24t-71.5 54q0 2 1 6.5t1 7.5l43 228q3 13 14.5 15t24.5 -3q115 -31 172 -31q96 0 169.5 48.5t135.5 172.5q-48 -39 -105 -60.5t-98 -21.5 q-74 0 -147.5 23t-124.5 68q-82 73 -121 166t-39 229zM420 879q0 -112 33.5 -162.5t105.5 -50.5q70 0 110 53.5t40 163.5q0 227 -142 227q-76 0 -111.5 -55t-35.5 -176z" />
<glyph unicode=":" horiz-adv-x="659" d="M82 205q0 107 74.5 181.5t181.5 74.5t182.5 -74.5t75.5 -181.5t-75.5 -182.5t-182.5 -75.5t-181.5 75.5t-74.5 182.5zM82 831q0 108 74.5 183.5t181.5 75.5t182.5 -76t75.5 -183t-75.5 -181.5t-182.5 -74.5t-181.5 74.5t-74.5 181.5z" />
<glyph unicode=";" horiz-adv-x="647" d="M16.5 -294.5q-4.5 7.5 1.5 34.5l156 524q6 20 16 26.5t31 6.5h332q34 0 40 -12.5t-9 -38.5l-314 -594q-13 -23 -23.5 -26.5t-31.5 5.5l-168 58q-26 9 -30.5 16.5zM104 831q0 107 75.5 183t182.5 76t181.5 -75.5t74.5 -183.5q0 -107 -74.5 -181.5t-181.5 -74.5 t-182.5 74.5t-75.5 181.5z" />
<glyph unicode="&#x3c;" d="M25 586v233q0 15 6.5 22.5t25.5 16.5l967 492q20 8 25 8q16 0 16 -37v-313q0 -18 -5 -26t-26 -17l-561 -258l561 -265q21 -10 27 -18.5t6 -26.5v-313q0 -37 -16 -37q-5 0 -25 8l-965 490q-23 11 -29.5 18t-6.5 23z" />
<glyph unicode="=" d="M45 322v245q0 27 7 34t36 7h913q29 0 36 -7t7 -34v-245q0 -29 -6.5 -35t-36.5 -6h-913q-30 0 -36.5 6t-6.5 35zM45 799v243q0 27 7.5 35t35.5 8h913q28 0 35.5 -8t7.5 -35v-243q0 -29 -7 -36t-36 -7h-913q-29 0 -36 7t-7 36z" />
<glyph unicode="&#x3e;" d="M25 84v313q0 18 6.5 26.5t27.5 18.5l557 265l-557 258q-21 9 -26.5 17t-5.5 26v313q0 37 18 37q5 0 25 -8l966 -492q19 -9 25 -16.5t6 -22.5v-233q0 -17 -6 -23.5t-29 -17.5l-964 -490q-20 -8 -25 -8q-18 0 -18 37z" />
<glyph unicode="?" horiz-adv-x="1105" d="M108.5 1307q-0.5 4 1.5 8t3 6.5t5.5 6.5t6.5 5.5t9.5 7t10.5 7.5q68 48 203.5 75t206.5 27q209 0 340 -114t131 -300q0 -268 -338 -383l-2 -69q-2 -28 -9.5 -36.5t-33.5 -8.5h-270q-29 0 -36 7.5t-7 37.5v235q0 22 8 30t39 17q24 7 64.5 18.5t57.5 16.5t45 14.5 t39.5 16.5t28 18.5t22 23.5t10.5 28.5t5 37.5q0 86 -135 86q-36 0 -77 -9t-66.5 -18.5t-66 -26.5t-52.5 -21q-3 -1 -11.5 -5t-12 -5t-9.5 -2t-9.5 1t-7.5 6.5t-7 12.5l-82 227q-2 7 -3 12t-1.5 9zM279 168q0 97 70 166t167 69t166.5 -69t69.5 -166t-69.5 -166.5 t-166.5 -69.5t-167 69.5t-70 166.5z" />
<glyph unicode="@" horiz-adv-x="2121" d="M188 387q0 212 79 397t214.5 314t320 202.5t390.5 73.5q221 0 388 -76t260 -222.5t93 -344.5q0 -146 -47 -269.5t-126.5 -206.5t-185.5 -129t-224 -46q-168 0 -199 117q-62 -61 -114.5 -89t-125.5 -28q-111 0 -167 73t-56 197q0 142 49.5 269t135 204.5t182.5 77.5 q143 0 207 -67q1 3 5.5 12.5t7.5 14.5t8 11.5t11.5 9.5t14.5 3h161q19 0 22.5 -13t-1.5 -28l-96 -465q-10 -51 1 -72.5t54 -21.5q58 0 113.5 64.5t90 165t34.5 202.5q0 92 -32.5 171t-94.5 138.5t-159.5 93t-219.5 33.5q-161 0 -299 -60.5t-232.5 -164.5t-148 -246 t-53.5 -301q0 -115 31.5 -205t85 -148t129.5 -96t158 -53.5t177 -15.5q315 0 569 117q38 17 50 9q5 -4 8 -12l53 -149q7 -26 3.5 -34t-25.5 -23q-98 -63 -284 -104.5t-368 -41.5q-185 0 -337.5 46.5t-267.5 138t-179 239t-64 338.5zM963 369q0 -44 10.5 -62t46.5 -18 q44 0 91 53.5t63 138.5l30 160q-51 51 -102 51q-33 0 -61 -38.5t-44 -93.5t-25 -106.5t-9 -84.5z" />
<glyph unicode="A" horiz-adv-x="1316" d="M23 35v229q0 20 7 26.5t27 6.5h54l350 1073q8 24 14.5 29.5t30.5 5.5h305q25 0 32.5 -5.5t14.5 -29.5l350 -1073h49q21 0 29 -6.5t8 -26.5v-229q0 -21 -8 -28t-29 -7h-352q-25 0 -32 5.5t-13 29.5l-78 293h-268l-84 -293q-8 -25 -13.5 -30t-29.5 -5h-330q-22 0 -28 6.5 t-6 28.5zM559 604h166l-41 240q-26 145 -37 233q-10 -110 -35 -233z" />
<glyph unicode="B" horiz-adv-x="1243" d="M53 43v211q0 29 7 36t36 7h64v811h-64q-28 0 -35.5 8t-7.5 35v213q0 27 7 34t36 7h508q172 0 255 -18.5t147 -75.5q58 -52 90 -128t32 -159q0 -98 -38 -166.5t-127 -116.5q217 -97 217 -323q0 -138 -81 -251.5t-208 -143.5q-62 -14 -111.5 -18.5t-156.5 -4.5h-527 q-29 0 -36 7t-7 36zM543 297h84q100 0 140 35t40 104q0 53 -14 82.5t-57.5 46.5t-125.5 17h-67v-285zM543 852h84q73 0 105 34t32 105t-30.5 101t-115.5 30h-75v-270z" />
<glyph unicode="C" horiz-adv-x="1150" d="M63 717q0 189 40 323.5t133 231.5q157 168 401 168q267 0 407 -131q32 -32 27 -52v-268q0 -20 -6.5 -26.5t-28.5 -6.5h-254q-20 0 -26 6.5t-6 26.5v125q-58 4 -103 4q-188 0 -188 -360q0 -183 26.5 -288.5t72 -144t120.5 -38.5q42 0 88 4v129q0 20 6.5 26.5t26.5 6.5h254 q21 0 27.5 -6.5t6.5 -26.5v-285q0 -31 -73 -80q-63 -45 -168 -67.5t-197 -22.5q-291 0 -438.5 198t-147.5 554z" />
<glyph unicode="D" horiz-adv-x="1300" d="M53 43v211q0 29 7 36t36 7h64v811h-64q-28 0 -35.5 8t-7.5 35v213q0 27 7 34t36 7l469 2h9q352 0 506 -157q156 -159 157 -535q0 -134 -18.5 -240.5t-61.5 -197t-111 -150.5t-170.5 -93.5t-236.5 -33.5h-543q-29 0 -36 7t-7 36zM557 317h59q59 0 100 15.5t65.5 43t38 77 t18 104t4.5 137.5q0 79 -1.5 120t-13.5 102.5t-34.5 92t-67.5 54.5t-111 24h-57v-770z" />
<glyph unicode="E" horiz-adv-x="1101" d="M53 43v211q0 29 7 36t36 7h64v811h-64q-28 0 -35.5 8t-7.5 35v213q0 27 7 34t36 7h903q21 0 28 -7t7 -28v-338q0 -21 -7 -28t-28 -7h-254q-21 0 -27.5 6.5t-6.5 28.5v58h-154v-220h309q27 0 35 -7.5t8 -35.5v-215q0 -26 -8 -33.5t-35 -7.5h-309v-254h158v72 q0 22 7.5 29.5t27.5 7.5h254q20 0 27 -7.5t7 -29.5v-354q0 -21 -7 -28t-27 -7h-908q-29 0 -36 7t-7 36z" />
<glyph unicode="F" horiz-adv-x="1087" d="M53 43v211q0 29 7 36t36 7h64v811h-64q-28 0 -35.5 8t-7.5 35v213q0 27 7 34t36 7h903q21 0 28 -7t7 -28v-338q0 -21 -7 -28t-28 -7h-254q-21 0 -27.5 6.5t-6.5 28.5v58h-154v-240h309q27 0 35 -7.5t8 -35.5v-215q0 -26 -8.5 -34.5t-34.5 -8.5h-309v-252h96q29 0 35 -6.5 t6 -36.5v-211q0 -30 -6 -36.5t-35 -6.5h-557q-29 0 -36 7t-7 36z" />
<glyph unicode="G" horiz-adv-x="1257" d="M63 717q0 189 40 323.5t133 231.5q157 168 401 168q121 0 242 -32.5t196 -102.5q29 -29 29 -52v-264q0 -20 -7.5 -26.5t-29.5 -6.5h-258q-21 0 -28 6.5t-7 26.5v127q-41 14 -115 14q-84 0 -142 -90.5t-58 -281.5q0 -118 8.5 -200.5t24.5 -137t43.5 -85t61 -42.5t81.5 -12 q38 0 90 12v215h-106q-30 0 -37 6t-7 35v199q0 29 7.5 36t36.5 7h520q20 0 26 -7.5t6 -29.5v-213q0 -21 -6 -27t-26 -6h-52v-369q0 -8 -1.5 -14t-2.5 -9.5t-6 -8.5t-7.5 -6.5t-10.5 -7.5l-12 -9q-70 -56 -195 -87.5t-246 -31.5q-305 0 -445.5 189.5t-140.5 562.5z" />
<glyph unicode="H" horiz-adv-x="1390" d="M53 43v211q0 29 7 36t36 7h64v811h-64q-28 0 -35.5 8t-7.5 35v213q0 27 7 34t36 7h424q26 0 33.5 -7.5t7.5 -33.5v-483h268v483q0 26 8 33.5t35 7.5h422q29 0 36 -7t7 -34v-213q0 -27 -7.5 -35t-35.5 -8h-63v-811h63q29 0 36 -7t7 -36v-211q0 -29 -7 -36t-36 -7h-422 q-27 0 -35 7.5t-8 35.5v514h-268v-514q0 -29 -7 -36t-34 -7h-424q-29 0 -36 7t-7 36z" />
<glyph unicode="I" horiz-adv-x="735" d="M53 43v211q0 29 7 36t36 7h68v809h-68q-29 0 -36 7t-7 36v215q0 27 7 34t36 7h543q29 0 36 -7t7 -34v-215q0 -29 -7 -36t-36 -7h-78v-809h78q28 0 35.5 -8t7.5 -35v-211q0 -29 -7 -36t-36 -7h-543q-29 0 -36 7t-7 36z" />
<glyph unicode="J" horiz-adv-x="978" d="M2 442q0 29 6 40.5t21 11.5h293q24 0 24 -29q0 -128 11 -161.5t59 -33.5q42 0 54.5 30.5t12.5 100.5v703h-272q-29 0 -36 7t-7 36v217q0 27 7 34t36 7h627q27 0 35 -7.5t8 -33.5v-932q0 -115 -24 -197.5t-83 -144.5q-119 -125 -342 -125q-167 0 -263.5 61.5t-143.5 196.5 q-15 42 -19 83.5t-4 135.5z" />
<glyph unicode="K" horiz-adv-x="1335" d="M53 43v211q0 29 7 36t36 7h64v811h-64q-28 0 -35.5 8t-7.5 35v213q0 27 7 34t36 7h422q26 0 32.5 -7t6.5 -34v-434l348 454q4 6 6.5 9t5.5 6t4.5 4t5.5 1.5t5.5 0.5h7.5h10h244q28 0 34.5 -7t6.5 -34v-213q0 -28 -6.5 -35.5t-34.5 -7.5h-51l-320 -389l367 -424l49 2 q29 1 36 -6t7 -37v-211q0 -29 -7 -36t-36 -7h-266q-36 0 -51 20l-365 453v-430q0 -29 -7 -36t-34 -7h-420q-29 0 -36 7t-7 36z" />
<glyph unicode="L" horiz-adv-x="1140" d="M53 43v211q0 29 7 36t36 7h64v811h-64q-28 0 -35.5 8t-7.5 35v213q0 27 7 34t36 7h533q29 0 36 -7t7 -34v-213q0 -27 -7.5 -35t-35.5 -8h-72v-760h195l30 107q8 29 18.5 33.5t37.5 -3.5l227 -47q27 -6 33 -16q3 -5 3 -13q0 -10 -3 -24l-78 -350q-4 -22 -14 -28.5 t-35 -6.5h-875q-29 0 -36 7t-7 36z" />
<glyph unicode="M" horiz-adv-x="1568" d="M53 43v211q0 30 6 36.5t35 6.5h45l51 811h-53q-28 0 -35.5 8t-7.5 35v213q0 27 7 34t36 7h428q24 0 31 -5t14 -28l127 -401q10 -30 49 -195q16 66 54 193l131 403q7 23 15.5 28t33.5 5h412q29 0 36 -7t7 -34v-213q0 -27 -7.5 -35t-35.5 -8h-54l43 -811h52q29 0 36 -7 t7 -36v-211q0 -29 -7 -36t-36 -7h-365q-30 0 -41.5 8.5t-11.5 34.5l-6 465q0 46 6 177.5t12 195.5q-15 -57 -50 -181.5t-38 -138.5l-66 -239q-6 -24 -12.5 -28.5t-32.5 -4.5h-184q-26 0 -32.5 5t-12.5 30l-59 237q-15 64 -78 320q8 -123 8 -373l-4 -465q0 -27 -8 -35t-35 -8 h-369q-29 0 -35 6.5t-6 36.5z" />
<glyph unicode="N" horiz-adv-x="1396" d="M53 43v211q0 29 7 36t36 7h64v811h-64q-28 0 -35.5 8t-7.5 35v213q0 27 7 34t36 7h369q26 0 35 -5t22 -30l297 -510q14 -24 27 -54.5t32.5 -81t32.5 -81.5q-26 186 -26 240v481q0 27 6.5 34t34.5 7h372q29 0 37 -7.5t8 -33.5v-213q0 -27 -7.5 -35t-35.5 -8h-63v-1065 q0 -30 -6 -36.5t-35 -6.5h-235q-25 0 -34.5 7t-25.5 34l-321 569q-40 69 -97 213q5 -30 12.5 -74.5t11 -66t6.5 -48.5t3 -48v-543q0 -28 -8 -35.5t-35 -7.5h-381q-28 0 -33.5 6.5t-5.5 36.5z" />
<glyph unicode="O" horiz-adv-x="1259" d="M63 721q0 72 6.5 139t24 140.5t44.5 135.5t72 119.5t102.5 97.5t139 63.5t179.5 23.5q285 0 425 -186t140 -533q0 -366 -141 -561t-432 -195q-560 0 -560 756zM463 696q3 -434 166 -434q164 0 164 443q0 440 -164 440q-73 1 -120 -107q-46 -105 -46 -332v-10z" />
<glyph unicode="P" horiz-adv-x="1173" d="M53 43v211q0 29 7 36t36 7h64v811h-64q-28 0 -35.5 8t-7.5 35v213q0 26 8 33.5t37 7.5h506q154 0 244 -21t153 -75q60 -52 94.5 -135.5t34.5 -174.5q0 -214 -139.5 -344.5t-369.5 -130.5h-64v-227h96q29 0 35 -6.5t6 -36.5v-211q0 -31 -4.5 -37t-32.5 -6h-565 q-28 0 -33.5 6.5t-5.5 36.5zM557 823h47q94 0 131 35t37 121q0 76 -39 107.5t-119 31.5h-57v-295z" />
<glyph unicode="Q" horiz-adv-x="1259" d="M63 721q0 72 6.5 139t24 140t45 135.5t72.5 120t103 97.5t139.5 63.5t179.5 23.5q285 0 425 -186t140 -533q0 -363 -135 -555q29 -20 82.5 -52.5t83.5 -52.5q22 -16 22 -30q0 -7 -6 -13l-190 -190q-14 -14 -29 -14q-37 0 -100.5 46t-134.5 122q-89 -21 -166 -21 q-562 0 -562 760zM465 696q3 -434 166 -434q164 0 164 443q0 440 -164 440q-73 0 -120 -107q-46 -106 -46 -332v-10z" />
<glyph unicode="R" horiz-adv-x="1280" d="M53 43v211q0 29 7 36t36 7h64v811h-64q-28 0 -35.5 8t-7.5 35v213q0 26 8 33.5t37 7.5h506q154 0 244 -21t153 -75q60 -52 94.5 -135.5t34.5 -174.5q0 -128 -56 -230t-150 -163l194 -311l68 2q28 1 34.5 -6t6.5 -37v-211q0 -31 -4.5 -37t-32.5 -6h-303h-9.5h-8.5 t-6.5 0.5t-6 1.5t-5 3t-5.5 5t-4.5 7t-5.5 10l-267 518h-18v-502q0 -29 -7 -36t-34 -7h-418q-28 0 -33.5 6.5t-5.5 36.5zM551 825h51q94 0 130 34t36 120q0 77 -38 108t-118 31h-61v-293z" />
<glyph unicode="S" horiz-adv-x="1085" d="M53 1012q0 195 138 307.5t368 112.5q90 0 214 -30.5t200 -86.5q7 -5 11.5 -9t6.5 -10l2.5 -7.5t0 -10.5t-0.5 -12v-254q0 -22 -7 -29.5t-28 -7.5h-243q-21 0 -28 7.5t-7 29.5v92q-50 16 -111 16q-68 0 -98.5 -25t-30.5 -65t32.5 -66.5t121.5 -66.5q150 -69 201 -98 q58 -34 97.5 -66.5t73 -77t50 -101.5t16.5 -130q0 -203 -140 -327t-368 -124q-108 0 -235 34.5t-209 96.5q-17 13 -21 21.5t-4 28.5v274q0 21 7.5 28t29.5 7h242q22 0 29.5 -7t7.5 -28v-106q77 -31 153 -31q62 0 94.5 30t32.5 78q0 23 -3 39t-16.5 32.5t-26.5 27.5t-48 29.5 t-63.5 32.5t-90.5 42q-139 65 -178 92q-86 60 -129 133.5t-43 184.5z" />
<glyph unicode="T" horiz-adv-x="1210" d="M43 950v420q0 21 9 28t32 7h1051q21 0 26.5 -6.5t5.5 -28.5v-420q0 -22 -6.5 -29.5t-27.5 -7.5h-185q-21 0 -28 7.5t-7 29.5v115h-108v-768h119q29 0 36 -7t7 -36v-211q0 -30 -5.5 -36.5t-33.5 -6.5h-645q-28 0 -32.5 6t-4.5 37v211q0 30 6 36.5t35 6.5h119v768h-109 v-115q0 -22 -7 -29.5t-28 -7.5h-184q-21 0 -28 7.5t-7 29.5z" />
<glyph unicode="U" horiz-adv-x="1411" d="M43 1151v213q0 27 7 34t36 7h416q27 0 35 -7.5t8 -33.5v-854q0 -135 34.5 -182t122.5 -47q91 0 131.5 51.5t40.5 175.5v856q0 26 8.5 33.5t35.5 7.5h409q28 0 34.5 -7t6.5 -34v-213q0 -28 -6.5 -35.5t-34.5 -7.5h-63v-616q0 -135 -42 -237t-119.5 -165t-183 -94 t-237.5 -31q-147 0 -251 34t-165 101t-88.5 158.5t-27.5 216.5v633h-64q-28 0 -35.5 8t-7.5 35z" />
<glyph unicode="V" horiz-adv-x="1288" d="M23 1151v213q0 27 7 34t36 7h352q26 0 35.5 -6t13.5 -27l135 -663q5 -28 21 -143t20 -142q6 29 20.5 142t20.5 141l158 663q1 7 3 12.5t3 9.5t4 6.5t3.5 4t4.5 2t4.5 0.5h6h6.5h348q28 0 34.5 -7t6.5 -34v-213q0 -28 -6.5 -35.5t-34.5 -7.5h-51l-332 -1102 q-6 -22 -13.5 -27.5t-31.5 -5.5h-326q-25 0 -31 5t-12 28l-313 1102h-49q-28 0 -35.5 8t-7.5 35z" />
<glyph unicode="W" horiz-adv-x="1757" d="M23 1151v213q0 27 7 34t36 7h305q25 0 36 -7t15 -28l100 -575q13 -71 33 -295q5 52 10.5 123t9.5 108t9 62l127 571q5 23 12 29t33 6h250q26 0 32.5 -6t12.5 -33l129 -565q5 -22 8.5 -52.5t5 -58.5t5.5 -87.5t7 -107.5q24 224 37 304l94 575q3 22 13.5 29.5t35.5 7.5h306 q29 0 36 -7t7 -34v-213q0 -27 -7.5 -35t-35.5 -8h-29l-254 -1100q-6 -23 -14 -29t-31 -6h-289q-27 0 -35 5.5t-12 29.5l-121 590q-2 9 -28 305q-23 -254 -35 -307l-135 -588q-6 -24 -13 -29.5t-32 -5.5h-291q-26 0 -31.5 5t-11.5 30l-244 1100h-20q-27 0 -35 8t-8 35z" />
<glyph unicode="X" horiz-adv-x="1239" d="M23 43v213q0 28 6 35.5t34 7.5h68l277 444l-238 365h-74q-28 0 -35.5 8t-7.5 35v213q0 27 7 34t36 7h310q10 0 14 -0.5t8 -0.5t5.5 -2.5t3 -4t4.5 -8t5 -11.5l132 -243q28 -54 45 -109q18 62 36 102l123 250q9 21 14 24t29 3h310q28 0 34.5 -7t6.5 -34v-213 q0 -28 -6.5 -35.5t-34.5 -7.5h-68l-227 -369l260 -440h74q28 0 35.5 -8t7.5 -35v-213q0 -27 -7.5 -35t-35.5 -8h-304q-14 0 -19.5 4t-14.5 21l-170 313q-26 51 -41 104q-16 -61 -39 -102l-174 -315q-9 -18 -15 -21.5t-24 -3.5h-310q-28 0 -34 7.5t-6 35.5z" />
<glyph unicode="Y" horiz-adv-x="1169" d="M23 1151v213q0 27 6 34t34 7h302q24 0 30 -4t15 -25l145 -340q7 -18 17.5 -58t13.5 -52q24 81 37 110l161 344q9 19 14.5 22t30.5 3h275q29 0 36 -7t7 -34v-213q0 -27 -7.5 -35t-35.5 -8h-33l-287 -533v-278h101q29 0 36 -7t7 -36v-211q0 -30 -5.5 -36.5t-33.5 -6.5h-606 q-28 0 -32.5 6t-4.5 37v211q0 30 6 36.5t35 6.5h104v281l-287 530h-41q-28 0 -34 7.5t-6 35.5z" />
<glyph unicode="Z" horiz-adv-x="1130" d="M43 43v195l539 837h-222l-22 -86q-1 -3 -2.5 -9.5t-2 -8l-2 -6t-3 -5t-3.5 -3t-5 -2.5t-7 -0.5t-10 -0.5h-205q-22 0 -28.5 6.5t-6.5 28.5v381q0 21 8.5 28t30.5 7h881q29 0 36 -7t7 -34v-217l-514 -801h229l29 105q7 29 18.5 33.5t38.5 -3.5l228 -47q27 -6 33 -16 q3 -5 2 -13q0 -10 -3 -24l-77 -346q-4 -22 -14 -28.5t-35 -6.5h-875q-29 0 -36 7t-7 36z" />
<glyph unicode="[" horiz-adv-x="985" d="M219 -377v1798q0 30 6 36.5t35 6.5h528q27 0 35 -7.5t8 -35.5v-231q0 -26 -8 -33.5t-35 -7.5h-184v-1251h184q26 0 34.5 -8.5t8.5 -34.5v-232q0 -28 -8 -35.5t-35 -7.5h-528q-29 0 -35 6.5t-6 36.5z" />
<glyph unicode="\" horiz-adv-x="1101" d="M69 1566q5 13 35 13h248q40 0 54 -35l624 -1669q11 -26 6.5 -37.5t-35.5 -11.5h-251q-44 0 -56 35l-620 1669q-10 23 -5 36z" />
<glyph unicode="]" horiz-adv-x="985" d="M154 -145q0 27 7.5 35t33.5 8h186v1251h-186q-26 0 -33.5 7.5t-7.5 33.5v231q0 29 7 36t34 7h530q29 0 35 -6.5t6 -36.5v-1798q0 -30 -6 -36.5t-35 -6.5h-530q-27 0 -34 7t-7 36v232z" />
<glyph unicode="^" horiz-adv-x="1126" d="M26 728.5q-5 9.5 7 31.5l313 616q11 23 17.5 29t23.5 6h365q14 0 19.5 -4.5t14.5 -24.5l316 -622q11 -22 5 -31.5t-34 -9.5h-307q-18 0 -25.5 5t-17.5 26l-156 335l-157 -333q-11 -22 -17.5 -27.5t-23.5 -5.5h-310q-28 0 -33 9.5z" />
<glyph unicode="_" horiz-adv-x="1216" d="M18 -104q0 27 7 34t36 7h1094q29 0 36 -7t7 -34v-236q0 -29 -6.5 -35t-36.5 -6h-1094q-30 0 -36.5 6t-6.5 35v236z" />
<glyph unicode="`" horiz-adv-x="825" d="M111 1331q0 9 10 29l106 211q14 28 25 28t29 -12l417 -254q25 -14 25 -26q0 -7 -10 -27l-64 -127q-13 -27 -31 -27q-12 0 -22 4l-455 175q-30 12 -30 26z" />
<glyph unicode="a" horiz-adv-x="1093" d="M59 297q0 84 32 148t84 103t125 64t147 34t159 9v60q0 30 -23.5 45.5t-95.5 15.5q-88 0 -245 -63q-27 -12 -37 12l-74 203q-4 20 -0.5 25t25.5 16q140 78 379 78q153 0 258 -55t139 -163q14 -48 14 -135v-356q0 -17 4 -36.5t4 -20.5h62q17 0 22.5 -6.5t5.5 -22.5v-225 q0 -17 -5.5 -22t-22.5 -5h-301h-6.5h-6.5t-5 0.5t-5 1t-4 1.5t-4 3t-3 4.5t-3 5.5q-3 7 -21 52q-120 -97 -243 -97q-167 0 -261 87.5t-94 238.5zM379 311q0 -51 28.5 -80.5t69.5 -29.5q64 0 129 65v174q-123 0 -175 -33.5t-52 -95.5z" />
<glyph unicode="b" horiz-adv-x="1179" d="M39 1204v238q0 15 6 20.5t23 5.5h411q18 0 24.5 -4.5t6.5 -19.5v-457q99 62 195 62q198 0 306.5 -134t108.5 -366q0 -144 -28 -244.5t-97 -181.5q-64 -74 -160.5 -116t-199.5 -42q-51 0 -93 18t-93 56q-20 -44 -32.5 -55t-33.5 -11q-3 0 -5.5 0.5t-4 1t-6 1t-11.5 1.5 l-241 29q-17 1 -21 11.5t4 33.5q13 39 19.5 62t13 68.5t6.5 99.5v897h-69q-18 0 -23.5 4.5t-5.5 21.5zM510 240q18 -9 52 -16t52 -7q66 0 111 83t45 232q0 140 -34 211.5t-83 71.5q-75 0 -143 -47v-528z" />
<glyph unicode="c" horiz-adv-x="964" d="M59 489q0 254 140.5 406t390.5 152q98 0 170 -18.5t137 -72.5q8 -6 12 -14.5t4.5 -13.5t0.5 -14l-1 -9v-254q0 -18 -4.5 -23t-21.5 -5h-246q-15 0 -21 5.5t-6 22.5v125q-5 0 -11 1t-11 1q-87 0 -126.5 -63t-39.5 -215q0 -142 42.5 -201t125.5 -59q19 0 38.5 3t43.5 10.5 t36 12t42.5 17t36.5 14.5q25 13 37 12.5t22 -24.5l65 -164q8 -19 8 -28q0 -10 -14 -25q-46 -51 -154 -77t-198 -26q-240 0 -369 140.5t-129 383.5z" />
<glyph unicode="d" horiz-adv-x="1185" d="M59 487q0 163 26 260.5t97 176.5q57 63 145 94t187 31q63 0 152 -35v164h-86q-17 0 -22 4.5t-5 21.5v238q0 15 5 20.5t22 5.5h428q17 0 23.5 -6.5t6.5 -21.5v-1110q0 -5 9 -41h63q17 0 22 -5.5t5 -21.5v-235q0 -17 -5 -22t-22 -5h-332q-19 0 -27.5 9.5t-19.5 51.5 q-131 -96 -266 -96q-129 0 -222 69t-138.5 186t-45.5 267zM403 514q0 -297 117 -297q32 0 77 14t69 33v527q-58 20 -131 20q-43 0 -70.5 -23.5t-44.5 -91t-17 -182.5z" />
<glyph unicode="e" horiz-adv-x="1075" d="M59 498q0 158 59.5 282t175 195.5t269.5 71.5q238 0 348.5 -149t110.5 -439q0 -15 -5 -21.5t-10.5 -7t-23.5 -0.5h-571q9 -105 51.5 -152t120.5 -47q58 0 107.5 11.5t78.5 24.5t78 40q21 10 30.5 7t18.5 -21l92 -172q8 -13 5.5 -21t-19.5 -18q-173 -117 -402 -117 q-251 0 -382.5 140t-131.5 393zM412 649h266q-6 97 -35.5 134.5t-91.5 37.5q-64 0 -94 -37.5t-45 -134.5z" />
<glyph unicode="f" horiz-adv-x="866" d="M49 782v197q0 20 6.5 26.5t30.5 6.5h104v80q0 189 102 290t292 101q68 0 149.5 -18.5t143.5 -53.5q13 -7 15 -14q1 -2 1 -5q0 -8 -4 -22l-53 -192q-7 -25 -28 -25q-10 0 -24 6q-5 2 -30 12.5t-37.5 14.5t-37.5 9t-50 5q-39 0 -56.5 -25t-17.5 -79v-84h231q26 0 32 -7.5 t1 -35.5l-37 -209q-3 -14 -8.5 -17.5t-23.5 -3.5h-195v-450h113q17 0 22.5 -6t5.5 -21v-235q0 -17 -5.5 -22t-22.5 -5h-576q-17 0 -21.5 5t-4.5 22v235q0 16 4.5 21.5t21.5 5.5h98v450h-108q-22 0 -27.5 6.5t-5.5 36.5z" />
<glyph unicode="g" horiz-adv-x="1107" d="M49 492q0 161 46.5 284.5t145.5 197t238 73.5q119 0 219 -80q9 18 25.5 41.5t19.5 29.5q9 15 33 15q9 0 21 -2l235 -50q5 -1 8 -2t5 -3t3 -4q2 -4 2 -9q0 -3 -2 -10q-2 -5 -3 -8.5l-3 -10.5t-4 -12q-45 -130 -45 -250v-301q0 -71 5.5 -210.5t5.5 -209.5q0 -191 -119 -295 t-332 -104q-108 0 -241.5 31.5t-215.5 87.5q-13 9 -15 14.5t3 22.5l66 209q5 15 21 15q14 0 36 -11q182 -84 325 -84q58 0 78.5 20t20.5 84q0 4 -4 49.5t-4 50.5q-90 -49 -183 -49q-192 0 -291.5 128.5t-99.5 351.5zM391 508q0 -133 32.5 -198.5t76.5 -65.5q70 0 121 45v463 q-51 30 -105 30q-51 0 -88 -69.5t-37 -204.5z" />
<glyph unicode="h" horiz-adv-x="1224" d="M49 1204v238q0 15 6 20.5t23 5.5h405q17 0 24 -6.5t7 -21.5v-479q46 40 112.5 64t127.5 24q177 0 253 -84.5t76 -243.5v-432h62q17 0 24 -6t7 -21v-235q0 -17 -6.5 -22t-24.5 -5h-400q-17 0 -22.5 5t-5.5 22v665q0 101 -72 101q-60 0 -131 -56v-712q0 -17 -5.5 -21 t-23.5 -4h-401q-18 0 -23.5 5t-5.5 22v235q0 15 6 21t23 6h63v889h-69q-18 0 -23.5 4.5t-5.5 21.5z" />
<glyph unicode="i" horiz-adv-x="724" d="M49 27v235q0 15 6 21t23 6h100v432h-96q-21 0 -27 4t-6 23v233q0 21 6.5 26t26.5 5h440h10t7 -1t5 -1t3.5 -2t2 -3t1 -4t0.5 -5v-7v-8v-692h96q17 0 23 -6t6 -21v-235q0 -17 -5.5 -22t-23.5 -5h-569q-18 0 -23.5 5t-5.5 22zM133 1350q0 89 63.5 153t157.5 64 q92 0 155.5 -64.5t63.5 -152.5q0 -90 -64 -156t-157 -66t-156 66t-63 156z" />
<glyph unicode="j" horiz-adv-x="657" d="M-151 -404q-1 3 -1 7q0 8 5 20l69 223q5 20 33 11q9 -4 30.5 -12.5t29 -11.5t23.5 -8.5t25.5 -7t23 -3.5t26.5 -2q45 0 57 43t12 174v692h-110q-20 0 -24.5 4t-4.5 23v233q0 21 5 26t24 5h454h10t7 -1t5 -1t3.5 -2t2 -3t1 -4t0.5 -5v-7v-8v-952q0 -176 -18 -255t-78 -143 q-108 -114 -318 -114q-136 0 -270 61q-19 8 -22 18zM137 1350q0 89 63.5 153t157.5 64q92 0 156 -64.5t64 -152.5q0 -90 -64 -156t-158 -66q-93 0 -156 66t-63 156z" />
<glyph unicode="k" horiz-adv-x="1173" d="M49 1204v238q0 15 6 20.5t23 5.5h414q17 0 22.5 -6t5.5 -22v-707l287 293q5 5 8.5 10t5.5 6.5t6.5 3t12.5 1.5h223q17 0 22 -5.5t5 -21.5v-234q0 -17 -5 -22.5t-22 -5.5h-80l-201 -195l244 -274h72q17 0 21.5 -5t4.5 -22v-235q0 -16 -4.5 -21.5t-21.5 -5.5h-264 q-15 0 -20.5 2t-12.5 12l-281 340v-327q0 -22 -2.5 -24.5t-25.5 -2.5h-408q-18 0 -23.5 5t-5.5 22v235q0 15 6 21t23 6h63v889h-69q-18 0 -23.5 4.5t-5.5 21.5z" />
<glyph unicode="l" horiz-adv-x="745" d="M49 1204v238q0 15 5 20.5t22 5.5h420q16 0 21 -6t5 -22v-1121q0 -20 9.5 -32.5t21.5 -12.5q47 0 94 21q26 9 31 -10l49 -211q3 -7 3 -13q0 -3 -1 -5q-2 -7 -16 -17q-42 -33 -116 -53.5t-134 -20.5q-71 0 -135.5 22t-104.5 64q-28 28 -45 63t-23.5 79t-8 73t-1.5 82v830 h-69q-17 0 -22 4.5t-5 21.5z" />
<glyph unicode="m" horiz-adv-x="1726" d="M49 760v227q0 16 6 22.5t23 6.5h362q14 0 24 -18t23 -62q65 54 127 82.5t140 28.5q145 0 245 -123q136 123 295 123q74 0 129 -20.5t86.5 -53t50.5 -81.5t25 -96.5t6 -107.5v-399h60q17 0 22.5 -6t5.5 -21v-235q0 -17 -5.5 -22t-22.5 -5h-391q-26 0 -30.5 5t-4.5 36v672 q0 90 -51 90q-33 0 -58 -13.5t-65 -46.5v-702q0 -30 -4 -35.5t-27 -5.5h-289q-26 0 -30.5 5.5t-4.5 35.5v672q0 47 -10.5 65.5t-40.5 18.5q-34 0 -59 -11.5t-64 -42.5v-702q0 -30 -5 -35.5t-34 -5.5h-391q-17 0 -21.5 5t-4.5 22v235q0 16 4.5 21.5t21.5 5.5h64v389 q0 13 -6 55h-72q-18 0 -23.5 5t-5.5 22z" />
<glyph unicode="n" horiz-adv-x="1232" d="M49 760v227q0 16 6 22.5t23 6.5h352q34 0 57 -80q125 111 281 111q330 0 330 -345v-413h57q17 0 23 -6t6 -21v-235q0 -17 -5.5 -22t-23.5 -5h-399q-21 0 -25 5t-4 26v663q0 99 -70 99q-62 0 -135 -54v-712q0 -18 -4.5 -22.5t-28.5 -4.5h-397q-17 0 -21.5 5t-4.5 22v235 q0 16 4.5 21.5t21.5 5.5h64v385q0 35 -6 59h-72q-18 0 -23.5 5t-5.5 22z" />
<glyph unicode="o" horiz-adv-x="1120" d="M59 508q0 244 133 391.5t371 147.5t368 -147.5t130 -395.5q0 -241 -133.5 -390t-366.5 -149q-242 0 -372 146t-130 397zM424 504q0 -162 33 -225.5t102 -63.5t103 64.5t34 226.5t-34 226.5t-103 64.5t-102 -64t-33 -229z" />
<glyph unicode="p" horiz-adv-x="1153" d="M18 752v235q0 16 6 22.5t23 6.5h348q16 0 24 -11t21 -47q57 49 112 69t124 20q207 0 312.5 -144.5t105.5 -394.5q0 -271 -106.5 -409t-332.5 -138q-65 0 -157 41v-129h61q17 0 23 -6t6 -21v-233q0 -17 -6 -23t-23 -6h-498q-17 0 -22.5 6t-5.5 23v233q0 15 5.5 21t22.5 6 h64v799q0 29 -6 53h-72q-18 0 -23.5 5t-5.5 22zM498 215q47 -20 104 -20q47 0 75 23.5t44 92t16 191.5q0 286 -119 286q-58 0 -120 -49v-524z" />
<glyph unicode="q" horiz-adv-x="1138" d="M59 471q0 169 47.5 297t147 203.5t240.5 75.5q66 0 117.5 -16.5t109.5 -63.5q14 25 21.5 37.5t26.5 28.5t40 16q6 0 31 -5l231 -43q22 -3 14 -28q-53 -141 -53 -281v-819h58q17 0 23.5 -6t6.5 -21v-233q0 -17 -6.5 -23t-23.5 -6h-496q-17 0 -23 6t-6 23v233q0 15 6 21 t23 6h65v139q-71 -47 -178 -47q-206 0 -314 133.5t-108 372.5zM420 475q0 -146 32 -214t78 -68q77 0 129 49v495q-49 35 -120 35q-51 0 -85 -71t-34 -226z" />
<glyph unicode="r" horiz-adv-x="892" d="M49 752v235q0 16 6 22.5t23 6.5h313q27 0 42.5 -18.5t35.5 -77.5q59 64 109 95.5t118 31.5q116 0 176 -78q5 -6 5 -16q0 -8 -3 -17l-88 -219q-12 -28 -30 -19q-1 0 -23.5 13.5t-43 19.5t-48.5 6q-34 0 -54 -10.5t-57 -48.5v-389h80q17 0 23 -6t6 -21v-235q0 -17 -5.5 -22 t-23.5 -5h-518q-17 0 -21.5 5t-4.5 22v235q0 16 4.5 21.5t21.5 5.5h64v375q0 43 -4 61h-74q-18 0 -23.5 5t-5.5 22z" />
<glyph unicode="s" horiz-adv-x="925" d="M49 125v168q0 17 6.5 23t22.5 6h215q16 0 19.5 -4.5t6.5 -24.5l11 -47q71 -23 114 -23q48 0 75.5 13t27.5 51q0 12 -3.5 21.5t-12.5 18t-17.5 14.5t-26.5 13.5t-31 12.5t-39.5 14t-43.5 16q-162 62 -219 117q-45 43 -63.5 85.5t-18.5 137.5q0 139 117.5 224.5t295.5 85.5 q211 0 332 -103q14 -12 14 -47v-156q0 -17 -5.5 -22.5t-20.5 -5.5h-215q-17 0 -21.5 5t-7.5 23l-10 58q-15 6 -47 6q-22 0 -36.5 -1.5t-33.5 -7.5t-29 -21.5t-10 -39.5q0 -12 3 -21t11 -17t15 -13.5t23 -12.5t26 -11t33 -12t35 -13q60 -22 96.5 -37.5t87 -43.5t78.5 -56 q74 -74 74 -224q0 -148 -112 -228.5t-290 -80.5q-118 0 -226 30t-179 79q-21 15 -21 51z" />
<glyph unicode="t" horiz-adv-x="886" d="M31 780v193q0 30 4.5 34.5t34.5 4.5h129v266q0 19 5 25.5t25 7.5l303 22h12q14 0 18 -2q4 -3 5 -22v-297h242q19 0 26.5 -3t8 -10t-1.5 -18l-35 -211q-3 -18 -11 -23.5t-26 -5.5h-203v-415q0 -60 54 -60q57 0 159 45q32 14 39 -16l49 -209q5 -15 5 -25q1 -5 -1 -9 q-4 -10 -28 -21q-58 -27 -147.5 -46.5t-155.5 -19.5q-342 0 -342 352v424h-136q-25 0 -28.5 4t-3.5 35z" />
<glyph unicode="u" horiz-adv-x="1216" d="M49 752v231q0 16 6 22.5t23 6.5h391h11.5h9.5t7 -0.5t6 -1t3.5 -2t3 -3.5l1.5 -6t1 -8v-10v-653q0 -59 17 -85t61 -26q67 0 125 55v703q0 24 4.5 30.5t23.5 6.5h297q32 0 36.5 -3.5t4.5 -29.5v-633q0 -9 6 -63h54q16 0 21 -6.5t5 -22.5v-227q0 -17 -4.5 -22t-21.5 -5 h-328q-6 0 -11 1t-8.5 1.5t-6.5 4t-5 5.5t-5 9t-5 11.5t-6.5 15t-7.5 18.5q-107 -101 -254 -101q-188 0 -279 98q-55 57 -69.5 117.5t-14.5 198.5v346h-63q-18 0 -23.5 5t-5.5 22z" />
<glyph unicode="v" horiz-adv-x="1093" d="M18 752v231q0 16 5.5 22.5t21.5 6.5h344q23 0 29 -4t10 -25l96 -424q13 -54 29 -221q23 178 33 221l108 422q6 22 12 26.5t27 4.5h316q16 0 21 -6.5t5 -22.5v-231q0 -17 -4.5 -22t-21.5 -5h-56l-262 -737q-6 -20 -11.5 -24.5t-25.5 -4.5h-301q-19 0 -26 5t-13 24 l-256 737h-53q-17 0 -22 5t-5 22z" />
<glyph unicode="w" horiz-adv-x="1497" d="M18 752v231q0 16 5.5 22.5t21.5 6.5h311h8.5h7.5t6 -0.5t5 -1t3.5 -2t3.5 -3.5l2.5 -5t2.5 -7t2 -10l66 -387q4 -19 7.5 -55t8 -82.5t6.5 -63.5q11 149 21 201l80 385q5 21 10 26t25 5h266q20 0 26 -6t9 -27l71 -385q3 -16 21 -199q23 195 24 199l78 389q4 20 10.5 24.5 t28.5 4.5h295q17 0 23 -6.5t6 -22.5v-231q0 -17 -5.5 -22t-23.5 -5h-51l-225 -713q-4 -14 -8.5 -19t-9.5 -6t-21 -1h-269q-22 0 -28 4t-9 24l-67 435q-2 14 -9 89.5t-10 100.5q-11 -131 -22 -193l-92 -432q-4 -21 -9 -24.5t-26 -3.5h-268q-21 0 -27 4t-10 22l-197 713h-47 q-17 0 -22 5t-5 22z" />
<glyph unicode="x" horiz-adv-x="1101" d="M49 27v233q0 17 5.5 22t23.5 5h78l176 223l-164 215h-80q-18 0 -23.5 5t-5.5 22v231q0 16 6 22.5t23 6.5h274q32 0 46 -21l106 -164q14 -22 37 -75q2 3 16.5 33.5t22.5 41.5l125 170q7 10 16 12.5t31 2.5h252q17 0 22.5 -6.5t5.5 -22.5v-231q0 -17 -5.5 -22t-22.5 -5h-66 l-172 -215l170 -223h78q18 0 23.5 -5t5.5 -22v-233q0 -15 -6 -21t-23 -6h-254q-22 0 -31 3t-16 13l-129 181q-8 12 -15.5 28t-15 33t-10.5 23q-2 -4 -9.5 -21.5t-15.5 -34.5t-16 -28l-129 -179q-13 -18 -49 -18h-256q-17 0 -23 6t-6 21z" />
<glyph unicode="y" horiz-adv-x="1116" d="M27 752v231q0 16 5 22.5t21 6.5h320q20 0 28.5 -5t12.5 -24l121 -489q8 -31 14.5 -70.5t9 -63t6 -66.5t4.5 -50q28 210 37 250l109 489q3 17 11.5 23t27.5 6h317q16 0 21.5 -6.5t5.5 -22.5v-231q0 -17 -5 -22t-22 -5h-51l-189 -643q-7 -23 -19 -69q-50 -179 -90 -256 q-85 -165 -250 -200q-50 -10 -107 -10q-63 0 -175 32t-155 77q-11 12 -11 27q0 9 5 20l98 195q11 23 37 8q1 -1 32.5 -17t47.5 -23t43.5 -15.5t46.5 -8.5q47 0 72 14.5t38 57.5l27 86h-70q-21 0 -27.5 4t-13.5 23l-258 698h-49q-17 0 -21.5 5t-4.5 22z" />
<glyph unicode="z" horiz-adv-x="1032" d="M49 35v188l359 418q21 26 56 53t60 41q-58 -14 -137 -14h-260q-25 0 -30 5t-5 30v219q0 24 6 30.5t29 6.5h772q21 0 27 -6.5t6 -30.5v-193l-363 -420q-37 -43 -104 -77q66 16 125 16h117l41 84q7 13 15 14t25 -6l193 -80q11 -3 15 -9q3 -4 3.5 -9t-6.5 -23l-108 -247 q-11 -25 -39 -25h-760q-24 0 -30.5 6t-6.5 29z" />
<glyph unicode="{" d="M217 401v230q0 22 7 28.5t36 14.5q26 7 38.5 13.5t23 26.5t10.5 54v313q0 179 92.5 259.5t290.5 80.5q77 0 164 -6q29 -3 35 -9t6 -32v-231q0 -30 -6 -36.5t-35 -6.5h-58q-68 0 -89 -15.5t-21 -74.5v-258q0 -85 -29.5 -140.5t-97.5 -103.5q59 -38 93 -101.5t34 -144.5 v-258q0 -60 20 -75t88 -15h60q29 0 35 -6.5t6 -36.5v-231q0 -26 -6 -32t-35 -9q-113 -9 -164 -9q-198 0 -290.5 83.5t-92.5 263.5v307q0 45 -11 69.5t-23.5 31.5t-39.5 15q-28 8 -34.5 13.5t-6.5 27.5z" />
<glyph unicode="|" d="M356 -485v2023q0 27 6.5 34t34.5 7h295q29 0 36 -7t7 -34v-2023q0 -29 -6.5 -35t-36.5 -6h-295q-29 0 -35 6t-6 35z" />
<glyph unicode="}" d="M215 -129q0 30 6 36.5t35 6.5h59q68 0 87.5 15t19.5 75v258q0 80 35.5 144t95.5 102q-69 49 -100 104.5t-31 139.5v258q0 59 -20.5 74.5t-88.5 15.5h-57q-29 0 -35 6.5t-6 36.5v231q0 26 6 32t35 9q87 6 162 6q198 0 291.5 -81t93.5 -259v-313q0 -26 5 -43t16.5 -27 t22 -14t30.5 -10q29 -7 35 -14t6 -29v-230q0 -22 -6.5 -27.5t-34.5 -13.5q-27 -8 -39.5 -15t-23.5 -31.5t-11 -69.5v-307q0 -180 -93.5 -263.5t-291.5 -83.5q-48 0 -160 9q-30 3 -36.5 9t-6.5 32v231z" />
<glyph unicode="~" horiz-adv-x="1456" d="M198 663q-3 10 7 35q47 104 73 142q91 133 261 133q65 0 143.5 -27.5t148.5 -55.5t113 -28q29 0 55.5 13.5t39.5 26.5t30 34q18 23 25.5 25.5t31.5 -9.5l123 -69q22 -12 24 -20.5t-11 -33.5q-5 -9 -19.5 -34.5t-21 -37t-21.5 -35t-25 -35t-28 -31t-33.5 -29.5t-38 -23 t-46 -19.5t-53 -11t-61.5 -4.5q-56 0 -135 27.5t-150.5 55.5t-109.5 28q-65 0 -119 -92q-13 -24 -22.5 -26.5t-34.5 11.5l-121 68q-22 12 -25 22z" />
<glyph unicode="&#xa3;" horiz-adv-x="1212" d="M18 602v184q0 28 7.5 34.5t35.5 6.5h103q-17 83 -17 129q0 197 146.5 315t382.5 118q74 0 137 -10.5t110.5 -30t75 -34.5t58.5 -36q21 -13 27 -24t-1 -31l-100 -203q-9 -18 -21 -18t-42 14q-144 67 -240 67q-76 0 -117 -39.5t-41 -105.5q0 -53 15 -107h286q28 0 35.5 -6 t7.5 -34v-189q0 -27 -7 -34t-36 -7h-229q20 -40 22.5 -117.5t-6.5 -124.5h512q31 0 37.5 -8.5t1.5 -36.5l-41 -239q-5 -35 -47 -35h-991q-27 0 -35 7.5t-8 35.5v236q0 28 7.5 34t35.5 6h149q14 79 12 121t-20 121h-162q-29 0 -36 7t-7 34z" />
<glyph unicode="&#xa7;" horiz-adv-x="1196" d="M135 592q0 200 193 299q-4 4 -28 24.5t-31 27.5t-24.5 28t-24 37t-13 41.5t-6.5 54.5q0 101 61 182t160.5 123.5t216.5 42.5q184 0 369 -117q24 -14 12 -43l-90 -192q-8 -16 -14.5 -19t-20.5 4q-173 99 -238 99q-88 0 -88 -58q0 -8 2 -15t8 -13.5t10 -11t16 -11t18 -10 t22.5 -11.5t24.5 -12q192 -93 215 -106q196 -108 196 -272q0 -88 -45 -164t-127 -127q66 -49 96.5 -104.5t30.5 -143.5q0 -96 -57.5 -180t-151.5 -132.5t-198 -48.5q-252 0 -461 130q-19 11 -21.5 21.5t5.5 31.5l77 217q10 25 39 12q242 -121 330 -121q39 0 58.5 11t19.5 40 q0 11 -2.5 20t-10 17t-13 13.5t-19.5 12.5t-20.5 10.5t-25.5 12t-26 11.5q-18 8 -78 34.5t-106.5 49t-77.5 43.5q-162 111 -162 262zM475 633q0 -27 23 -50t50.5 -36.5t77.5 -34.5l15 -6q6 4 21 12.5t20 11.5t16 10.5t14.5 11t11 10.5t10 12.5t6 13t4.5 15.5t1 18 q0 18 -7.5 32t-26.5 27.5t-32.5 21t-45.5 22.5t-45 21q-9 -5 -25.5 -14t-22.5 -12t-17.5 -10t-15.5 -10.5t-11.5 -10t-9.5 -11.5t-5.5 -12t-4.5 -14.5t-1 -17.5z" />
<glyph unicode="&#xa8;" horiz-adv-x="1019" d="M82 1296q0 82 57 139.5t137 57.5t136.5 -57.5t56.5 -139.5q0 -80 -57 -137t-136 -57q-80 0 -137 57t-57 137zM551 1296q0 82 56 139.5t136 57.5t137.5 -58t57.5 -139q0 -79 -57.5 -136.5t-137.5 -57.5q-79 0 -135.5 57t-56.5 137z" />
<glyph unicode="&#xa9;" horiz-adv-x="1650" d="M88 702q0 151 58 288t157 235.5t235.5 156.5t286.5 58q202 0 371.5 -98.5t268 -268t98.5 -371.5q0 -150 -58 -286.5t-156.5 -235.5t-235.5 -157t-288 -58q-150 0 -286.5 58t-235.5 157t-157 235.5t-58 286.5zM254 702q0 -159 76.5 -294t208 -213t286.5 -78q156 0 288 78 t209 213t77 294t-77 294.5t-209 214.5t-288 79q-155 0 -286.5 -78.5t-208 -214t-76.5 -295.5zM502 711q0 113 23.5 193t78.5 138q98 103 240 103q159 0 246 -80q18 -18 16 -29v-162q0 -12 -4.5 -15t-18.5 -3h-151q-13 0 -17 3t-4 15v74q-9 0 -30 2t-31 2q-113 0 -113 -217 q0 -161 32 -221.5t101 -60.5q38 0 52 2v77q0 12 4.5 15.5t17.5 3.5h152q13 0 16.5 -3.5t3.5 -15.5v-170q0 -4 -1.5 -8t-5 -8t-6 -7t-8 -7.5t-8.5 -6.5t-9 -6.5t-7 -5.5q-38 -27 -101 -40t-118 -13q-175 0 -262.5 118.5t-87.5 332.5z" />
<glyph unicode="&#xab;" horiz-adv-x="1392" d="M72 514q0 7 12 25l330 458q15 21 26 21q8 0 31 -10l236 -99q24 -11 24 -26q0 -12 -12 -33l-215 -350l223 -350q14 -21 14 -33q0 -18 -26 -27l-244 -88q-28 -8 -31 -8q-12 0 -26 20l-328 471q-14 24 -14 29zM639 514q0 7 12 25l332 458q15 21 27 21q7 0 30 -10l236 -99 q24 -11 24 -26q0 -12 -12 -33l-215 -350l223 -350q15 -22 15 -33q0 -18 -27 -27l-244 -88q-28 -8 -30 -8q-13 0 -27 20l-330 471q-14 24 -14 29z" />
<glyph unicode="&#xac;" d="M25 322v247q0 27 7 34t36 7h956q28 0 34.5 -7t6.5 -34v-524q0 -30 -6.5 -37.5t-34.5 -7.5h-295q-29 0 -36 7t-7 36v238h-618q-30 0 -36.5 6t-6.5 35z" />
<glyph unicode="&#xad;" horiz-adv-x="856" d="M61 401v246q0 27 6.5 34t34.5 7h652q29 0 36 -7t7 -34v-246q0 -29 -6.5 -35t-36.5 -6h-652q-29 0 -35 6t-6 35z" />
<glyph unicode="&#xae;" horiz-adv-x="1650" d="M88 702q0 151 58 288t157 235.5t235.5 156.5t286.5 58q202 0 371.5 -98.5t268 -268t98.5 -371.5q0 -150 -58 -286.5t-156.5 -235.5t-235.5 -157t-288 -58q-150 0 -286.5 58t-235.5 157t-157 235.5t-58 286.5zM254 702q0 -159 76.5 -294t208 -213t286.5 -78q156 0 288 78 t209 213t77 294t-77 294.5t-209 214.5t-288 79q-155 0 -286.5 -78.5t-208 -214t-76.5 -295.5zM479 305v129q0 17 4.5 21t22.5 4h37v487h-37q-17 0 -22 5t-5 20v129q0 15 5.5 19.5t23.5 4.5h303q92 0 146.5 -13t91.5 -46q36 -30 55.5 -79.5t19.5 -104.5q0 -77 -33.5 -138 t-89.5 -98l117 -186h39q18 0 22.5 -4t4.5 -21v-129q0 -17 -4 -20.5t-21 -3.5h-180q-18 0 -22 5q-3 3 -7 11l-162 311h-10v-303q0 -17 -4 -20.5t-20 -3.5h-250q-17 0 -21 3.5t-4 20.5zM778 778h31q57 0 77.5 19.5t20.5 70.5q0 46 -22.5 65t-69.5 19h-37v-174z" />
<glyph unicode="&#xb0;" d="M225 1081q0 129 94 221.5t226 92.5t226.5 -92.5t94.5 -221.5q0 -130 -94.5 -223.5t-226.5 -93.5t-226 93t-94 224zM446 1081q0 -41 30 -71.5t71 -30.5t70.5 30.5t29.5 71.5t-29.5 70t-70.5 29t-71 -29t-30 -70z" />
<glyph unicode="&#xb1;" d="M25 49v242q0 27 7.5 35t35.5 8h956q28 0 34.5 -7.5t6.5 -35.5v-242q0 -30 -6 -36.5t-35 -6.5h-956q-29 0 -36 7t-7 36zM68 797v252q0 27 7 34t36 7h245v247q0 29 7 36t34 7h295q29 0 36 -7.5t7 -37.5v-245h246q29 0 36 -7t7 -34v-252q0 -29 -7 -36t-36 -7h-246v-250 q0 -29 -7 -36t-36 -7h-295q-27 0 -34 7t-7 36v250h-247q-29 0 -35 6.5t-6 36.5z" />
<glyph unicode="&#xb4;" horiz-adv-x="823" d="M109 1307q0 12 26 26l416 254q18 12 29 12q7 0 11.5 -5.5t12.5 -22.5l107 -211q10 -20 10 -29q0 -14 -31 -26l-454 -175q-10 -4 -23 -4q-17 0 -31 27l-63 127q-10 20 -10 27z" />
<glyph unicode="&#xb6;" horiz-adv-x="1523" d="M16 829q0 395 256 519q72 35 145.5 46t217.5 11h831q26 0 32.5 -7t6.5 -34v-207q0 -27 -6.5 -35t-32.5 -8h-53v-1454q0 -29 -6.5 -35t-36.5 -6h-194q-18 0 -28.5 1t-22 5t-16.5 12.5t-5 22.5v1454h-201v-1454q0 -29 -6.5 -35t-36.5 -6h-233q-27 0 -34 6.5t-7 34.5v641 q-34 -10 -74 -10q-230 0 -363 142.5t-133 395.5zM391 862q0 -91 12 -153t33.5 -92.5t44 -42t51.5 -11.5q30 0 54 8v541q-109 0 -152 -56t-43 -194z" />
<glyph unicode="&#xbb;" horiz-adv-x="1382" d="M90 117q0 12 14 33l224 350l-215 350q-13 23 -13 33q0 15 25 26l237 99q23 10 31 10q10 0 25 -21l332 -458q12 -18 12 -25q0 -5 -14 -29l-330 -471q-14 -20 -27 -20q-1 0 -29 8l-245 88q-27 9 -27 27zM659 117q0 11 15 33l223 350l-215 350q-12 21 -12 33q0 15 24 26 l236 99q23 10 31 10q11 0 26 -21l332 -458q12 -18 12 -25q0 -5 -14 -29l-330 -471q-14 -20 -26 -20q-3 0 -31 8l-244 88q-27 9 -27 27z" />
<glyph unicode="&#xf7;" d="M25 594v235q0 27 7.5 35t35.5 8h956q28 0 34.5 -7.5t6.5 -35.5v-235q0 -30 -6 -36.5t-35 -6.5h-956q-29 0 -36 7t-7 36zM334 266q0 88 61.5 148.5t149.5 60.5t149.5 -60.5t61.5 -148.5t-61.5 -149.5t-149.5 -61.5t-149.5 61.5t-61.5 149.5zM334 1161q0 88 61.5 149.5 t149.5 61.5t149.5 -61.5t61.5 -149.5t-61.5 -149.5t-149.5 -61.5t-149.5 61.5t-61.5 149.5z" />
<glyph unicode="&#x131;" horiz-adv-x="724" d="M49 27v235q0 15 6 21t23 6h100v432h-96q-21 0 -27 4t-6 23v233q0 21 6.5 26t26.5 5h440h10t7 -1t5 -1t3.5 -2t2 -3t1 -4t0.5 -5v-7v-8v-692h96q17 0 23 -6t6 -21v-235q0 -17 -5.5 -22t-23.5 -5h-569q-18 0 -23.5 5t-5.5 22z" />
<glyph unicode="&#x192;" horiz-adv-x="1144" d="M-47.5 -344q-2.5 8 4.5 29l53 192q7 28 15 32.5t36 -3.5q53 -12 97 -12q29 0 43 3t33 18t32.5 50.5t26.5 95.5l143 676h-125q-29 0 -36 7.5t-3 35.5l37 195q5 29 10.5 36t30.5 7h144l10 55q10 53 18.5 90t25 82.5t36.5 76t52 61.5t72.5 49t98 29.5t127.5 11.5 q156 0 244 -60q18 -12 20.5 -19t-4.5 -28l-64 -205q-7 -26 -18 -30t-35 6q-8 3 -35 14.5t-47.5 17t-44.5 5.5q-18 0 -32 -6.5t-22 -13.5t-15 -24.5t-8.5 -24.5t-5.5 -30t-5 -26l-6 -31h205q29 0 35.5 -8t1.5 -35l-37 -195q-4 -27 -12.5 -35t-30.5 -8h-221l-152 -729 q-16 -79 -38.5 -141t-59 -117.5t-85.5 -91.5t-118.5 -57t-157.5 -21q-139 0 -213 55q-18 13 -20.5 21z" />
<glyph unicode="&#x2d9;" horiz-adv-x="1040" d="M309 1319q0 88 61.5 149.5t149.5 61.5t149.5 -61.5t61.5 -149.5q0 -86 -62.5 -147.5t-148.5 -61.5q-88 0 -149.5 60.5t-61.5 148.5z" />
<glyph unicode="&#x401;" horiz-adv-x="1101" d="M53 43v211q0 29 7 36t36 7h64v811h-64q-28 0 -35.5 8t-7.5 35v213q0 27 7 34t36 7h903q21 0 28 -7t7 -28v-338q0 -21 -7 -28t-28 -7h-254q-21 0 -27.5 6.5t-6.5 28.5v58h-154v-220h309q27 0 35 -7.5t8 -35.5v-215q0 -26 -8 -33.5t-35 -7.5h-309v-254h158v72 q0 22 7.5 29.5t27.5 7.5h254q20 0 27 -7.5t7 -29.5v-354q0 -21 -7 -28t-27 -7h-908q-29 0 -36 7t-7 36zM137 1694q0 77 54.5 131.5t130.5 54.5t129 -54t53 -132q0 -76 -53 -130.5t-129 -54.5q-75 0 -130 55t-55 130zM602 1694q0 78 53.5 132t128.5 54q77 0 131 -54t54 -132 q0 -75 -54.5 -130t-130.5 -55q-75 0 -128.5 55t-53.5 130z" />
<glyph unicode="&#x402;" horiz-adv-x="1482" d="M25 1100v276q0 29 30 29h1024q37 0 31 -37l-49 -270q-5 -22 -10.5 -27.5t-24.5 -5.5h-328v-231q139 55 289 55q223 0 330 -111q62 -65 82 -150.5t20 -193.5q0 -71 -5 -125.5t-31 -127t-72 -118.5q-98 -98 -301 -98q-132 0 -203 31q-19 8 -22 20t1 23l31 223q1 10 8 16 t13 3l14 -7q35 -14 70 -14q31 0 50.5 15t28.5 32q17 31 17 113q0 100 -37 137t-115 37q-79 0 -168 -39v-514q0 -25 -8 -33t-33 -8h-436q-26 0 -26 27v243q0 27 26 27h80v768h-246q-30 0 -30 35z" />
<glyph unicode="&#x403;" horiz-adv-x="1067" d="M53 43v211q0 29 7 36t36 7h64v811h-64q-28 0 -35.5 8t-7.5 35v213q0 27 7 34t36 7h903q21 0 28 -7t7 -28v-422q0 -21 -7 -28t-28 -7h-254q-21 0 -27.5 6.5t-6.5 28.5v142h-154v-793h96q29 0 35 -6.5t6 -36.5v-211q0 -30 -6 -36.5t-35 -6.5h-557q-29 0 -36 7t-7 36z M242 1698q0 14 28 31l437 266q25 14 30 14q11 0 27 -31l113 -223q10 -20 10 -29q0 -17 -33 -28l-479 -182q-17 -7 -25 -7q-16 0 -31 29l-67 133q-10 20 -10 27z" />
<glyph unicode="&#x404;" horiz-adv-x="1153" d="M63 721q0 360 138 532q148 187 438 187q142 0 258 -45q114 -43 164 -101q26 -30 26 -61v-244q0 -22 -6.5 -27.5t-27.5 -5.5h-234q-20 0 -26.5 6.5t-6.5 26.5v127q-58 21 -118 21q-113 0 -166 -90q-35 -65 -35 -177v-10h283q30 0 30 -33v-225q0 -41 -28 -41h-285v-12 q0 -140 41 -201q55 -80 162 -80q61 0 118 23v129q0 33 33 33h234q35 0 35 -33v-238q0 -33 -7.5 -51.5t-33.5 -40.5q-73 -63 -191.5 -94t-226.5 -31q-281 0 -430 187q-138 177 -138 569z" />
<glyph unicode="&#x405;" horiz-adv-x="1085" d="M53 1012q0 195 138 307.5t368 112.5q90 0 214 -30.5t200 -86.5q7 -5 11.5 -9t6.5 -10l2.5 -7.5t0 -10.5t-0.5 -12v-254q0 -22 -7 -29.5t-28 -7.5h-243q-21 0 -28 7.5t-7 29.5v92q-50 16 -111 16q-68 0 -98.5 -25t-30.5 -65t32.5 -66.5t121.5 -66.5q150 -69 201 -98 q58 -34 97.5 -66.5t73 -77t50 -101.5t16.5 -130q0 -203 -140 -327t-368 -124q-108 0 -235 34.5t-209 96.5q-17 13 -21 21.5t-4 28.5v274q0 21 7.5 28t29.5 7h242q22 0 29.5 -7t7.5 -28v-106q77 -31 153 -31q62 0 94.5 30t32.5 78q0 23 -3 39t-16.5 32.5t-26.5 27.5t-48 29.5 t-63.5 32.5t-90.5 42q-139 65 -178 92q-86 60 -129 133.5t-43 184.5z" />
<glyph unicode="&#x406;" horiz-adv-x="735" d="M53 43v211q0 29 7 36t36 7h68v809h-68q-29 0 -36 7t-7 36v215q0 27 7 34t36 7h543q29 0 36 -7t7 -34v-215q0 -29 -7 -36t-36 -7h-78v-809h78q28 0 35.5 -8t7.5 -35v-211q0 -29 -7 -36t-36 -7h-543q-29 0 -36 7t-7 36z" />
<glyph unicode="&#x407;" horiz-adv-x="735" d="M16 1714q0 86 49 146.5t117 60.5t115 -60.5t47 -146.5q0 -85 -47.5 -145t-114.5 -60q-68 0 -117 60.5t-49 144.5zM53 43v211q0 29 7 36t36 7h68v809h-68q-29 0 -36 7t-7 36v215q0 27 7 34t36 7h543q29 0 36 -7t7 -34v-215q0 -29 -7 -36t-36 -7h-78v-809h78q28 0 35.5 -8 t7.5 -35v-211q0 -29 -7 -36t-36 -7h-543q-29 0 -36 7t-7 36zM393 1714q0 86 47.5 146.5t114.5 60.5q68 0 116 -60.5t48 -146.5q0 -85 -48 -145t-116 -60q-67 0 -114.5 60t-47.5 145z" />
<glyph unicode="&#x408;" horiz-adv-x="978" d="M2 442q0 29 6 40.5t21 11.5h293q24 0 24 -29q0 -128 11 -161.5t59 -33.5q42 0 54.5 30.5t12.5 100.5v703h-272q-29 0 -36 7t-7 36v217q0 27 7 34t36 7h627q27 0 35 -7.5t8 -33.5v-932q0 -115 -24 -197.5t-83 -144.5q-119 -125 -342 -125q-167 0 -263.5 61.5t-143.5 196.5 q-15 42 -19 83.5t-4 135.5z" />
<glyph unicode="&#x409;" horiz-adv-x="1861" d="M10 217q-6 20 2 37t25 20l26 7q31 7 47.5 12t44 18.5t46.5 32.5q40 40 57.5 114t22.5 199q10 265 10 385v66h-72q-22 0 -28.5 7.5t-6.5 27.5v221q0 24 7.5 32.5t35.5 8.5h953q26 0 26 -29v-497h111q48 0 72.5 -0.5t77 -6t89 -16.5t81 -34t79.5 -56q115 -108 115 -311 q0 -223 -127 -340q-53 -49 -128.5 -76.5t-132 -33t-132.5 -5.5h-455q-13 0 -18.5 1t-11 7.5t-5.5 20.5v1052h-176v-116q0 -192 -16 -414q-9 -142 -41.5 -254t-112.5 -195q-56 -57 -119.5 -84t-150.5 -43q-57 -12 -87 -11t-36 20zM1206 297h56q108 0 149 33q47 34 47 125 q0 82 -41 118q-18 16 -50.5 24.5t-55.5 9.5t-64 1h-41v-311z" />
<glyph unicode="&#x40a;" horiz-adv-x="1869" d="M53 43v211q0 31 6 37t37 6h64v811h-64q-29 0 -36 7.5t-7 35.5v213q0 27 7.5 34t35.5 7h424q25 0 33 -8t8 -33v-485h268v485q0 24 7.5 32.5t35.5 8.5h316q26 0 26 -29v-497h111q48 0 72.5 -0.5t77 -6t89 -16.5t81 -34t79.5 -56q115 -108 115 -311q0 -223 -127 -340 q-53 -49 -128.5 -76.5t-132 -33t-132.5 -5.5h-455q-13 0 -18.5 1t-11 7.5t-5.5 20.5v544h-268v-530q0 -28 -7 -35.5t-34 -7.5h-424q-31 0 -37 6t-6 37zM1214 297h56q104 0 151 33q45 36 45 112q0 74 -49 107q-39 24 -162 24h-41v-276z" />
<glyph unicode="&#x40b;" horiz-adv-x="1521" d="M25 1100v276q0 29 30 29h1024q37 0 31 -37l-49 -270q-5 -22 -10.5 -27.5t-24.5 -5.5h-328v-231q129 55 279 55q180 0 287 -96q58 -54 78 -116.5t20 -137.5v-242h63q31 0 37 -6t6 -37v-211q0 -31 -6 -37t-37 -6h-421q-39 0 -39 39v418q0 71 -33 104t-94 33q-63 0 -140 -39 v-514q0 -25 -8 -33t-33 -8h-436q-26 0 -26 27v243q0 27 26 27h80v768h-246q-30 0 -30 35z" />
<glyph unicode="&#x40c;" horiz-adv-x="1310" d="M53 29v237q0 20 7 25.5t28 5.5h72v811h-72q-22 0 -28.5 7.5t-6.5 27.5v221q0 24 7.5 32.5t35.5 8.5h436q25 0 25 -25v-508h49q80 0 115 39q32 36 45 127l16 109q19 114 88 186q53 53 134 80t147 27q46 0 55 -27l64 -217q9 -32 -21 -39l-49 -14q-43 -14 -63 -37 q-24 -24 -39 -102l-17 -76q-20 -90 -63 -135q-44 -44 -100 -56v-6q71 -22 114 -65q57 -57 74 -152l22 -117q9 -59 31 -84q23 -25 72 -37l41 -10q36 -10 28 -39l-73 -231q-4 -11 -6.5 -16t-13 -10t-27.5 -5q-218 0 -308 92q-65 65 -86 201l-24 154q-15 99 -49 133 q-32 30 -109 30h-47v-550q0 -12 -6.5 -18.5t-15.5 -6.5h-447q-13 0 -18.5 1t-11 7.5t-5.5 20.5zM385 1698q0 14 29 31l436 266q25 14 31 14q11 0 26 -31l113 -223q10 -20 10 -29q0 -17 -33 -28l-479 -182q-17 -7 -24 -7q-16 0 -31 29l-68 133q-10 20 -10 27z" />
<glyph unicode="&#x40e;" horiz-adv-x="1155" d="M20 1151v213q0 16 1 22.5t7.5 11.5t20.5 5h293q16 0 24 -0.5t18 -4t16 -12t10 -22.5l104 -373q14 -49 74 -293h10q14 64 38.5 174t29.5 134l77 344q9 38 20 45.5t48 7.5h285q26 0 32.5 -6.5t6.5 -32.5v-213q0 -28 -6.5 -35.5t-34.5 -7.5h-58l-164 -700 q-27 -113 -60.5 -193.5t-92.5 -138.5q-113 -111 -307 -111q-155 0 -256 55l-31 17q-32 16 -21 45l84 217q9 23 39 10l23 -10q79 -37 139 -37q56 0 90 29q40 34 58 106l14 60h-191q-27 0 -34 24l-209 627h-56q-28 0 -34.5 7.5t-6.5 35.5zM186 1788q0 24 23 29l197 38 q13 3 24 -5t14 -19l5 -14q16 -57 40 -78q33 -29 86 -29q54 0 87 29q24 21 40 78l5 14q3 11 14 19t24 5l197 -38q23 -5 23 -29q0 -44 -25.5 -95.5t-62.5 -86.5q-108 -103 -302 -103q-195 0 -303 103q-88 88 -86 182z" />
<glyph unicode="&#x40f;" horiz-adv-x="1380" d="M53 43v211q0 31 6 37t37 6h64v811h-64q-29 0 -36 7.5t-7 35.5v213q0 27 7.5 34t35.5 7h428q16 0 24.5 -5t8.5 -22v-1054h266v1048q0 18 7 25.5t26 7.5h428q28 0 35.5 -7t7.5 -34v-213q0 -28 -7 -35.5t-36 -7.5h-63v-811h63q31 0 37 -6t6 -37v-211q0 -31 -6 -37t-37 -6 h-414v-344q0 -19 -7.5 -24t-24.5 -5h-293q-20 0 -27.5 6.5t-7.5 26.5v340h-414q-31 0 -37 6t-6 37z" />
<glyph unicode="&#x410;" horiz-adv-x="1316" d="M23 35v229q0 20 7 26.5t27 6.5h54l350 1073q8 24 14.5 29.5t30.5 5.5h305q25 0 32.5 -5.5t14.5 -29.5l350 -1073h49q21 0 29 -6.5t8 -26.5v-229q0 -21 -8 -28t-29 -7h-352q-25 0 -32 5.5t-13 29.5l-78 293h-268l-84 -293q-8 -25 -13.5 -30t-29.5 -5h-330q-22 0 -28 6.5 t-6 28.5zM559 604h166l-41 240q-26 145 -37 233q-10 -110 -35 -233z" />
<glyph unicode="&#x411;" horiz-adv-x="1232" d="M53 29v237q0 20 7 25.5t28 5.5h72v811h-72q-22 0 -28.5 7.5t-6.5 27.5v221q0 24 7.5 32.5t35.5 8.5h944q22 0 28.5 -7.5t6.5 -27.5v-356q0 -23 -7 -30t-28 -7h-254q-20 0 -27 6.5t-7 28.5v78h-207v-222h121q117 0 212 -21.5t169 -88.5q122 -113 122 -316 q0 -210 -125 -327q-77 -71 -179 -93t-240 -22h-537q-13 0 -18.5 1t-11 7.5t-5.5 20.5zM545 297h37q41 0 64 1t55.5 9t50.5 23q45 37 45 121t-45 118q-37 29 -156 29h-51v-301z" />
<glyph unicode="&#x412;" horiz-adv-x="1243" d="M53 43v211q0 29 7 36t36 7h64v811h-64q-28 0 -35.5 8t-7.5 35v213q0 27 7 34t36 7h508q172 0 255 -18.5t147 -75.5q58 -52 90 -128t32 -159q0 -98 -38 -166.5t-127 -116.5q217 -97 217 -323q0 -138 -81 -251.5t-208 -143.5q-62 -14 -111.5 -18.5t-156.5 -4.5h-527 q-29 0 -36 7t-7 36zM543 297h84q100 0 140 35t40 104q0 53 -14 82.5t-57.5 46.5t-125.5 17h-67v-285zM543 852h84q73 0 105 34t32 105t-30.5 101t-115.5 30h-75v-270z" />
<glyph unicode="&#x413;" horiz-adv-x="1067" d="M53 43v211q0 29 7 36t36 7h64v811h-64q-28 0 -35.5 8t-7.5 35v213q0 27 7 34t36 7h903q21 0 28 -7t7 -28v-422q0 -21 -7 -28t-28 -7h-254q-21 0 -27.5 6.5t-6.5 28.5v142h-154v-793h96q29 0 35 -6.5t6 -36.5v-211q0 -30 -6 -36.5t-35 -6.5h-557q-29 0 -36 7t-7 36z" />
<glyph unicode="&#x414;" horiz-adv-x="1323" d="M10 281q0 36 35 36h90q83 153 117 330q29 151 29 414v47h-72q-22 0 -28.5 7.5t-6.5 27.5v221q0 24 7.5 32.5t35.5 8.5h1022q28 0 35.5 -7t7.5 -34v-213q0 -28 -7 -35.5t-36 -7.5h-63v-791h102q35 0 35 -36v-590q0 -25 -25 -25h-268q-16 0 -23.5 6.5t-7.5 24.5v303h-655 v-305q0 -18 -7.5 -23.5t-23.5 -5.5h-260q-18 0 -25.5 6.5t-7.5 24.5v584zM496 317h299v770h-172v-139q0 -182 -25 -325q-29 -172 -102 -306z" />
<glyph unicode="&#x415;" horiz-adv-x="1101" d="M53 43v211q0 29 7 36t36 7h64v811h-64q-28 0 -35.5 8t-7.5 35v213q0 27 7 34t36 7h903q21 0 28 -7t7 -28v-338q0 -21 -7 -28t-28 -7h-254q-21 0 -27.5 6.5t-6.5 28.5v58h-154v-220h309q27 0 35 -7.5t8 -35.5v-215q0 -26 -8 -33.5t-35 -7.5h-309v-254h158v72 q0 22 7.5 29.5t27.5 7.5h254q20 0 27 -7.5t7 -29.5v-354q0 -21 -7 -28t-27 -7h-908q-29 0 -36 7t-7 36z" />
<glyph unicode="&#x416;" horiz-adv-x="1802" d="M12 240q-7 22 23 26l37 6q58 12 80 31q7 6 12.5 13t9.5 19t6 17t6 22t4 19l31 135q24 98 64 142q43 46 106 61v6q-52 12 -94 60q-19 22 -32 49.5t-17.5 44.5t-11.5 49l-21 90q-12 61 -37 86q-27 27 -76 33l-36 6q-33 7 -25 39l68 219q3 14 11 19.5t32 5.5 q65 0 143.5 -25.5t130.5 -77.5q70 -70 92 -196l14 -82q7 -40 10 -56.5t15 -48t29 -47.5q33 -33 100 -33h31v502q0 18 7.5 24.5t25.5 6.5h305q30 0 30 -25v-508h31q68 0 101 33q6 6 11 12.5t9.5 15.5l8 16t6.5 18.5t5 17.5t4 19t3 17.5t3.5 19t2.5 16.5l14 82q22 126 92 196 q52 52 131 77.5t144 25.5q24 0 32 -5.5t11 -19.5l67 -219q8 -32 -24 -39l-37 -6q-49 -6 -76 -33q-25 -25 -37 -86l-20 -90q-20 -95 -62 -143t-94 -60v-6q64 -15 107 -61q39 -43 63 -142l31 -135q1 -3 3.5 -14t3.5 -15t3.5 -13.5t5 -14.5l6 -12t8 -12t9.5 -9q22 -19 80 -31 l36 -6q30 -4 23 -26l-76 -244q-4 -12 -7 -17t-12 -9.5t-26 -4.5q-87 0 -167.5 24.5t-125.5 69.5q-60 62 -78 187l-28 178q-13 89 -47 123q-32 28 -99 28h-39v-542q0 -11 -1 -17t-7 -11t-18 -5h-307q-35 0 -35 29v546h-39q-66 0 -98 -28q-35 -35 -48 -123l-28 -178 q-18 -125 -78 -187q-45 -45 -125.5 -69.5t-167.5 -24.5q-17 0 -26 4.5t-12 9.5t-7 17z" />
<glyph unicode="&#x417;" horiz-adv-x="1157" d="M63 174v250q0 20 9 27.5t28 7.5h228q11 0 18 -1.5t13 -10t6 -23.5v-113q60 -28 137 -28q99 0 141 34q49 38 49 117q0 84 -59 121q-42 27 -144 27h-63q-41 0 -41 41v188q0 41 41 41h31q106 0 149 25q53 32 53 110q0 75 -49 109q-41 30 -116 30q-66 0 -129 -24v-123 q0 -23 -8.5 -29t-28.5 -6h-228q-20 0 -28.5 6t-8.5 29v240q0 23 5.5 35.5t21.5 31.5q66 71 178 109q120 45 269 45q234 0 370 -105q146 -114 146 -307q0 -108 -49 -182q-55 -83 -150 -103q103 -36 166 -112q74 -93 74 -234q0 -224 -158 -336q-134 -96 -401 -96 q-149 0 -267 39q-114 36 -172 94q-33 33 -33 76z" />
<glyph unicode="&#x418;" horiz-adv-x="1406" d="M53 29v237q0 20 7 25.5t28 5.5h72v811h-72q-22 0 -28.5 7.5t-6.5 27.5v221q0 24 7.5 32.5t35.5 8.5h400q24 0 24 -25v-432q0 -55 -4 -146.5t-8.5 -158t-5.5 -76.5h16q15 59 57 170q8 21 36 95t36 94l164 438q15 41 59 41h441q28 0 35.5 -7t7.5 -34v-213q0 -28 -7 -35.5 t-36 -7.5h-64v-811h64q31 0 37 -6t6 -37v-211q0 -31 -6 -37t-37 -6h-391q-18 0 -25.5 6.5t-7.5 24.5v540q0 132 18 342h-16q-14 -55 -31 -107.5t-27.5 -81.5t-33 -86.5l-31.5 -80.5l-197 -516q-15 -41 -57 -41h-424q-13 0 -18.5 1t-11 7.5t-5.5 20.5z" />
<glyph unicode="&#x419;" horiz-adv-x="1406" d="M53 29v237q0 20 7 25.5t28 5.5h72v811h-72q-22 0 -28.5 7.5t-6.5 27.5v221q0 24 7.5 32.5t35.5 8.5h400q24 0 24 -25v-432q0 -55 -4 -146.5t-8.5 -158t-5.5 -76.5h16q15 59 57 170q8 21 36 95t36 94l164 438q15 41 59 41h441q28 0 35.5 -7t7.5 -34v-213q0 -28 -7 -35.5 t-36 -7.5h-64v-811h64q31 0 37 -6t6 -37v-211q0 -31 -6 -37t-37 -6h-391q-18 0 -25.5 6.5t-7.5 24.5v540q0 132 18 342h-16q-14 -55 -31 -107.5t-27.5 -81.5t-33 -86.5l-31.5 -80.5l-197 -516q-15 -41 -57 -41h-424q-13 0 -18.5 1t-11 7.5t-5.5 20.5zM303 1788q0 24 23 29 l196 38q13 3 24.5 -5t14.5 -19l4 -14q15 -56 41 -78q33 -29 86 -29t86 29q26 22 41 78l4 14q3 11 14.5 19t24.5 5l197 -38q22 -4 22 -29q0 -44 -25.5 -95.5t-62.5 -86.5q-108 -103 -301 -103q-195 0 -303 103q-88 88 -86 182z" />
<glyph unicode="&#x41a;" horiz-adv-x="1310" d="M53 29v237q0 20 7 25.5t28 5.5h72v811h-72q-22 0 -28.5 7.5t-6.5 27.5v221q0 24 7.5 32.5t35.5 8.5h436q25 0 25 -25v-508h49q80 0 115 39q32 36 45 127l16 109q19 114 88 186q53 53 134 80t147 27q46 0 55 -27l64 -217q9 -32 -21 -39l-49 -14q-43 -14 -63 -37 q-24 -24 -39 -102l-17 -76q-20 -90 -63 -135q-44 -44 -100 -56v-6q71 -22 114 -65q57 -57 74 -152l22 -117q9 -59 31 -84q23 -25 72 -37l41 -10q36 -10 28 -39l-73 -231q-4 -11 -6.5 -16t-13 -10t-27.5 -5q-218 0 -308 92q-65 65 -86 201l-24 154q-15 99 -49 133 q-32 30 -109 30h-47v-550q0 -12 -6.5 -18.5t-15.5 -6.5h-447q-13 0 -18.5 1t-11 7.5t-5.5 20.5z" />
<glyph unicode="&#x41b;" horiz-adv-x="1366" d="M10 217q-6 20 2 37t25 20l26 7q31 7 47.5 12t44 18.5t46.5 32.5q40 40 57.5 114t22.5 199q10 265 10 385v66h-72q-22 0 -28.5 7.5t-6.5 27.5v221q0 24 7.5 32.5t35.5 8.5h1043q28 0 35.5 -7t7.5 -34v-213q0 -28 -7 -35.5t-36 -7.5h-64v-811h64q31 0 37 -6t6 -37v-211 q0 -31 -6 -37t-37 -6h-412q-23 0 -30 7t-7 28v1046h-176v-116q0 -192 -16 -414q-9 -142 -41.5 -254t-112.5 -195q-56 -57 -119.5 -84t-150.5 -43q-57 -12 -87 -11t-36 20z" />
<glyph unicode="&#x41c;" horiz-adv-x="1568" d="M53 43v211q0 30 6 36.5t35 6.5h45l51 811h-53q-28 0 -35.5 8t-7.5 35v213q0 27 7 34t36 7h428q24 0 31 -5t14 -28l127 -401q10 -30 49 -195q16 66 54 193l131 403q7 23 15.5 28t33.5 5h412q29 0 36 -7t7 -34v-213q0 -27 -7.5 -35t-35.5 -8h-54l43 -811h52q29 0 36 -7 t7 -36v-211q0 -29 -7 -36t-36 -7h-365q-30 0 -41.5 8.5t-11.5 34.5l-6 465q0 46 6 177.5t12 195.5q-15 -57 -50 -181.5t-38 -138.5l-66 -239q-6 -24 -12.5 -28.5t-32.5 -4.5h-184q-26 0 -32.5 5t-12.5 30l-59 237q-15 64 -78 320q8 -123 8 -373l-4 -465q0 -27 -8 -35t-35 -8 h-369q-29 0 -35 6.5t-6 36.5z" />
<glyph unicode="&#x41d;" horiz-adv-x="1390" d="M53 43v211q0 29 7 36t36 7h64v811h-64q-28 0 -35.5 8t-7.5 35v213q0 27 7 34t36 7h424q26 0 33.5 -7.5t7.5 -33.5v-483h268v483q0 26 8 33.5t35 7.5h422q29 0 36 -7t7 -34v-213q0 -27 -7.5 -35t-35.5 -8h-63v-811h63q29 0 36 -7t7 -36v-211q0 -29 -7 -36t-36 -7h-422 q-27 0 -35 7.5t-8 35.5v514h-268v-514q0 -29 -7 -36t-34 -7h-424q-29 0 -36 7t-7 36z" />
<glyph unicode="&#x41e;" horiz-adv-x="1259" d="M63 721q0 72 6.5 139t24 140.5t44.5 135.5t72 119.5t102.5 97.5t139 63.5t179.5 23.5q285 0 425 -186t140 -533q0 -366 -141 -561t-432 -195q-560 0 -560 756zM463 696q3 -434 166 -434q164 0 164 443q0 440 -164 440q-73 0 -120 -107.5t-46 -341.5z" />
<glyph unicode="&#x41f;" horiz-adv-x="1359" d="M53 43v211q0 29 7 36t36 7h64v811h-64q-28 0 -35.5 8t-7.5 35v213q0 27 7 34t36 7h1168q29 0 36 -7t7 -34v-213q0 -27 -7.5 -35t-35.5 -8h-64v-811h64q29 0 36 -7t7 -36v-211q0 -29 -7 -36t-36 -7h-422q-27 0 -35 7.5t-8 35.5v1038h-238v-1038q0 -29 -7 -36t-34 -7h-424 q-29 0 -36 7t-7 36z" />
<glyph unicode="&#x420;" horiz-adv-x="1173" d="M53 43v211q0 29 7 36t36 7h64v811h-64q-28 0 -35.5 8t-7.5 35v213q0 26 8 33.5t37 7.5h506q154 0 244 -21t153 -75q60 -52 94.5 -135.5t34.5 -174.5q0 -214 -139.5 -344.5t-369.5 -130.5h-64v-227h96q29 0 35 -6.5t6 -36.5v-211q0 -31 -4.5 -37t-32.5 -6h-565 q-28 0 -33.5 6.5t-5.5 36.5zM557 823h47q94 0 131 35t37 121q0 76 -39 107.5t-119 31.5h-57v-295z" />
<glyph unicode="&#x421;" horiz-adv-x="1150" d="M63 717q0 189 40 323.5t133 231.5q157 168 401 168q267 0 407 -131q32 -32 27 -52v-268q0 -20 -6.5 -26.5t-28.5 -6.5h-254q-20 0 -26 6.5t-6 26.5v125q-58 4 -103 4q-188 0 -188 -360q0 -183 26.5 -288.5t72 -144t120.5 -38.5q42 0 88 4v129q0 20 6.5 26.5t26.5 6.5h254 q21 0 27.5 -6.5t6.5 -26.5v-285q0 -31 -73 -80q-63 -45 -168 -67.5t-197 -22.5q-291 0 -438.5 198t-147.5 554z" />
<glyph unicode="&#x422;" horiz-adv-x="1210" d="M43 950v420q0 21 9 28t32 7h1051q21 0 26.5 -6.5t5.5 -28.5v-420q0 -22 -6.5 -29.5t-27.5 -7.5h-185q-21 0 -28 7.5t-7 29.5v115h-108v-768h119q29 0 36 -7t7 -36v-211q0 -30 -5.5 -36.5t-33.5 -6.5h-645q-28 0 -32.5 6t-4.5 37v211q0 30 6 36.5t35 6.5h119v768h-109 v-115q0 -22 -7 -29.5t-28 -7.5h-184q-21 0 -28 7.5t-7 29.5z" />
<glyph unicode="&#x423;" horiz-adv-x="1155" d="M20 1151v213q0 16 1 22.5t7.5 11.5t20.5 5h293q16 0 24 -0.5t18 -4t16 -12t10 -22.5l104 -373q14 -49 74 -293h10q14 64 38.5 174t29.5 134l77 344q9 38 20 45.5t48 7.5h285q26 0 32.5 -6.5t6.5 -32.5v-213q0 -28 -6.5 -35.5t-34.5 -7.5h-58l-164 -700 q-27 -113 -60.5 -193.5t-92.5 -138.5q-113 -111 -307 -111q-155 0 -256 55l-31 17q-32 16 -21 45l84 217q9 23 39 10l23 -10q79 -37 139 -37q56 0 90 29q40 34 58 106l14 60h-191q-27 0 -34 24l-209 627h-56q-28 0 -34.5 7.5t-6.5 35.5z" />
<glyph unicode="&#x424;" horiz-adv-x="1540" d="M31 748q0 282 129 415q131 135 379 135h32v213q0 20 6.5 27.5t28.5 7.5h332q17 0 24 -5t7 -21v-222h32q248 0 379 -135q129 -133 129 -415q0 -52 -3.5 -93.5t-15 -99.5t-39.5 -112t-71 -99q-78 -82 -170.5 -108.5t-212.5 -26.5h-28v-178q0 -19 -6 -25t-25 -6h-334 q-19 0 -26 7.5t-7 25.5v176h-28q-120 0 -212.5 26.5t-170.5 108.5q-43 45 -71 99t-39.5 112t-15 99.5t-3.5 93.5zM375 758q0 -59 2 -94t12.5 -76.5t30.5 -65.5q43 -51 135 -51h31v565h-27q-88 0 -129 -41q-20 -19 -32.5 -47t-16.5 -68t-5 -60t-1 -62zM954 471h31 q92 0 135 51q29 34 37 90t8 146q0 42 -1 62t-5 60t-16.5 68t-32.5 47q-41 41 -129 41h-27v-565z" />
<glyph unicode="&#x425;" horiz-adv-x="1239" d="M23 43v213q0 28 6 35.5t34 7.5h68l277 444l-238 365h-74q-28 0 -35.5 8t-7.5 35v213q0 27 7 34t36 7h310q10 0 14 -0.5t8 -0.5t5.5 -2.5t3 -4t4.5 -8t5 -11.5l132 -243q28 -54 45 -109q18 62 36 102l123 250q9 21 14 24t29 3h310q28 0 34.5 -7t6.5 -34v-213 q0 -28 -6.5 -35.5t-34.5 -7.5h-68l-227 -369l260 -440h74q28 0 35.5 -8t7.5 -35v-213q0 -27 -7.5 -35t-35.5 -8h-304q-14 0 -19.5 4t-14.5 21l-170 313q-26 51 -41 104q-16 -61 -39 -102l-174 -315q-9 -18 -15 -21.5t-24 -3.5h-310q-28 0 -34 7.5t-6 35.5z" />
<glyph unicode="&#x426;" horiz-adv-x="1374" d="M53 29v237q0 20 7 25.5t28 5.5h72v811h-72q-22 0 -28.5 7.5t-6.5 27.5v221q0 24 7.5 32.5t35.5 8.5h430q31 0 31 -25v-1056h256v1050q0 31 29 31h432q28 0 35.5 -7t7.5 -34v-213q0 -28 -7 -35.5t-36 -7.5h-64v-784h93q40 0 40 -41v-582q0 -18 -5.5 -26.5t-24.5 -8.5h-260 q-33 0 -33 31v303h-932q-13 0 -18.5 1t-11 7.5t-5.5 20.5z" />
<glyph unicode="&#x427;" horiz-adv-x="1347" d="M31 1143v221q0 24 7.5 32.5t35.5 8.5h434q27 0 27 -27v-411q0 -104 22 -136q29 -40 107 -40q65 0 127 34v547q0 11 1.5 17t8.5 11t20 5h430q28 0 35.5 -7t7.5 -34v-213q0 -28 -7 -35.5t-36 -7.5h-63v-811h63q31 0 37 -6t6 -37v-211q0 -31 -6 -37t-37 -6h-432 q-28 0 -28 31v508q-125 -56 -267 -56q-188 0 -288 97q-99 94 -99 266v262h-71q-22 0 -28.5 7.5t-6.5 27.5z" />
<glyph unicode="&#x428;" horiz-adv-x="1916" d="M53 29v237q0 20 7 25.5t28 5.5h72v811h-72q-22 0 -28.5 7.5t-6.5 27.5v221q0 24 7.5 32.5t35.5 8.5h428q25 0 25 -25v-1056h215v1052q0 29 27 29h339q9 0 16 -6.5t7 -18.5v-1056h215v1052q0 29 27 29h426q28 0 35.5 -7t7.5 -34v-213q0 -28 -7 -35.5t-36 -7.5h-64v-811h64 q31 0 37 -6t6 -37v-211q0 -31 -6 -37t-37 -6h-1733q-13 0 -18.5 1t-11 7.5t-5.5 20.5z" />
<glyph unicode="&#x429;" horiz-adv-x="1921" d="M53 29v237q0 20 7 25.5t28 5.5h72v811h-72q-22 0 -28.5 7.5t-6.5 27.5v221q0 24 7.5 32.5t35.5 8.5h428q25 0 25 -25v-1056h215v1052q0 29 27 29h339q9 0 16 -6.5t7 -18.5v-1056h215v1052q0 29 27 29h426q28 0 35.5 -7t7.5 -34v-213q0 -28 -7 -35.5t-36 -7.5h-64v-784h92 q41 0 41 -41v-588q0 -29 -22 -29h-271q-30 0 -30 29v305h-1479q-13 0 -18.5 1t-11 7.5t-5.5 20.5z" />
<glyph unicode="&#x42a;" horiz-adv-x="1433" d="M31 950v416q0 25 8.5 32t30.5 7h675q15 0 22.5 -5t9 -11.5t1.5 -18.5v-491h154q242 0 360 -113q111 -109 111 -311q0 -225 -123 -340q-53 -49 -128 -76.5t-133 -33t-136 -5.5h-559q-15 0 -21.5 1t-11 7.5t-4.5 20.5v237q0 20 7 25.5t28 5.5h71v768h-108v-115 q0 -19 -6 -28t-25 -9h-191q-21 0 -26.5 8.5t-5.5 28.5zM778 297h56q104 0 149 33q47 37 47 121q0 87 -41 122q-18 16 -50.5 24.5t-55.5 9.5t-64 1h-41v-311z" />
<glyph unicode="&#x42b;" horiz-adv-x="1816" d="M53 29v237q0 20 7 25.5t28 5.5h72v811h-72q-22 0 -28.5 7.5t-6.5 27.5v221q0 24 7.5 32.5t35.5 8.5h422q27 0 27 -29v-497h135q105 0 194 -21.5t162 -87.5q121 -109 121 -311q0 -231 -127 -344q-55 -49 -135 -76.5t-139.5 -33t-137.5 -5.5h-528q-15 0 -21.5 1t-11 7.5 t-4.5 20.5zM545 297h55q109 0 150 33q47 34 47 125q0 82 -41 118q-18 16 -50.5 24.5t-55.5 9.5t-64 1h-41v-311zM1260 37v1337q0 31 26 31h434q28 0 35.5 -7t7.5 -34v-213q0 -28 -7 -35.5t-36 -7.5h-63v-811h63q31 0 37 -6t6 -37v-211q0 -31 -6 -37t-37 -6h-422 q-23 0 -30.5 8t-7.5 29z" />
<glyph unicode="&#x42c;" horiz-adv-x="1200" d="M53 29v237q0 20 7 25.5t28 5.5h72v811h-72q-22 0 -28.5 7.5t-6.5 27.5v221q0 24 7.5 32.5t35.5 8.5h422q27 0 27 -29v-497h110q48 0 72.5 -0.5t77.5 -6t89 -16.5t81 -34t80 -56q114 -108 114 -311q0 -223 -127 -340q-53 -49 -128.5 -76.5t-132 -33t-132.5 -5.5h-561 q-13 0 -18.5 1t-11 7.5t-5.5 20.5zM545 297h55q109 0 150 33q47 34 47 125q0 82 -41 118q-18 16 -50.5 24.5t-55.5 9.5t-64 1h-41v-311z" />
<glyph unicode="&#x42d;" horiz-adv-x="1153" d="M63 178v242q0 33 35 33h240q33 0 33 -33v-133q47 -19 110 -19q54 0 96 16.5t72 67.5q37 62 37 197v12h-285q-28 0 -28 41v225q0 33 30 33h283q0 173 -68 234q-47 43 -139 43q-52 0 -106 -13v-135q0 -20 -6.5 -26.5t-26.5 -6.5h-240q-21 0 -27.5 5.5t-6.5 27.5v244 q0 31 26 61q50 58 164 101q116 45 260 45q125 0 226 -35.5t182 -122.5q67 -72 105.5 -172.5t49.5 -193t11 -214.5q0 -369 -146 -550q-85 -106 -196.5 -146.5t-249.5 -40.5q-256 0 -394 121q-27 24 -34 41t-7 51z" />
<glyph unicode="&#x42e;" horiz-adv-x="1873" d="M53 29v237q0 20 7 25.5t28 5.5h72v811h-72q-22 0 -28.5 7.5t-6.5 27.5v221q0 24 7.5 32.5t35.5 8.5h434q27 0 27 -25v-506h148q19 286 165 429q139 137 377 137q241 0 383 -137q185 -179 185 -601q0 -421 -185 -600q-142 -137 -383 -137q-231 0 -368 127q-65 60 -106 154 t-53.5 166.5t-14.5 146.5h-148v-534q0 -25 -31 -25h-438q-13 0 -18.5 1t-11 7.5t-5.5 20.5zM1083 705q0 -330 86 -412q34 -31 80 -31q45 0 76 31q88 88 88 412q0 321 -88 409q-31 31 -76 31q-47 0 -78 -31q-88 -85 -88 -409z" />
<glyph unicode="&#x42f;" horiz-adv-x="1357" d="M53 207q-13 39 29 49l16 4q55 14 78 33q33 31 45 88l21 86q7 31 11.5 47.5t17 43.5t30.5 50q44 55 109 74v4q-100 23 -160 86q-38 40 -60 100.5t-22 126.5q0 101 38.5 183.5t100.5 130.5q119 92 369 92h577q28 0 35.5 -7t7.5 -34v-213q0 -28 -7 -35.5t-36 -7.5h-63v-811 h63q31 0 37 -6t6 -37v-211q0 -31 -6 -37t-37 -6h-419q-26 0 -33.5 6.5t-7.5 30.5v502h-41q-78 0 -119 -43q-9 -9 -16 -21.5t-11.5 -21.5t-9 -25t-6 -22.5t-4.5 -24.5t-4 -21l-17 -88q-24 -141 -90 -209q-52 -53 -133 -75.5t-164 -22.5q-17 0 -25.5 1t-17.5 8t-14 22z M547 969q0 -75 43 -109q39 -35 135 -35h68v293h-64q-34 0 -52.5 -1t-46 -9.5t-44.5 -24.5q-39 -36 -39 -114z" />
<glyph unicode="&#x430;" horiz-adv-x="1093" d="M59 297q0 84 32 148t84 103t125 64t147 34t159 9v60q0 30 -23.5 45.5t-95.5 15.5q-88 0 -245 -63q-27 -12 -37 12l-74 203q-4 20 -0.5 25t25.5 16q140 78 379 78q153 0 258 -55t139 -163q14 -48 14 -135v-356q0 -17 4 -36.5t4 -20.5h62q17 0 22.5 -6.5t5.5 -22.5v-225 q0 -17 -5.5 -22t-22.5 -5h-301h-6.5h-6.5t-5 0.5t-5 1t-4 1.5t-4 3t-3 4.5t-3 5.5q-3 7 -21 52q-120 -97 -243 -97q-167 0 -261 87.5t-94 238.5zM379 311q0 -51 28.5 -80.5t69.5 -29.5q64 0 129 65v174q-123 0 -175 -33.5t-52 -95.5z" />
<glyph unicode="&#x431;" horiz-adv-x="1120" d="M59 666q0 206 35.5 349t143.5 253q103 103 299 188l348 150q15 6 31 2t20 -17l84 -207q14 -36 -27 -51l-342 -133q-72 -27 -141 -67t-107 -78q-89 -89 -94 -213h13q99 157 311 157q187 0 297 -112q131 -133 131 -381q0 -257 -141 -402q-137 -139 -371 -139 q-224 0 -350 131q-87 92 -113.5 227.5t-26.5 342.5zM422 496q0 -139 24 -199q36 -82 113 -82q80 0 113 82q24 63 24 184q0 130 -28 193q-34 76 -109 76q-65 0 -102 -62q-35 -60 -35 -192z" />
<glyph unicode="&#x432;" horiz-adv-x="1132" d="M49 752v231q0 29 29 29h502q91 0 129 -1t99 -10t103 -28q75 -34 108.5 -88.5t33.5 -145.5q0 -84 -43 -137q-38 -52 -111 -65q74 -15 121 -62q63 -60 63 -170q0 -158 -112 -235q-61 -42 -145.5 -56t-194.5 -14h-463q-18 0 -23.5 5t-5.5 24v696h-61q-15 0 -22 5.5t-7 21.5z M502 219h112q57 0 88 31q23 23 23 67q0 47 -27 70q-27 25 -88 25h-108v-193zM502 616h98q50 0 76 23q24 24 24 70q0 37 -22 59q-25 25 -72 25h-104v-177z" />
<glyph unicode="&#x433;" horiz-adv-x="944" d="M49 27v231q0 17 6 23t23 6h63v438h-63q-15 0 -22 5t-7 22v231q0 17 6 23t23 6h799q15 0 21 -1t10.5 -8t4.5 -22v-387q0 -15 -5.5 -20t-20.5 -5h-197q-16 0 -21 7t-5 22v123h-154v-432h80q15 0 21.5 -5.5t6.5 -21.5v-235q0 -16 -6.5 -21.5t-21.5 -5.5h-512q-11 0 -16 1 t-9 7t-4 19z" />
<glyph unicode="&#x434;" horiz-adv-x="1189" d="M20 221q0 15 3.5 22t17.5 7h88q66 119 90 225q28 122 25 250h-62q-15 0 -21.5 5.5t-6.5 21.5v231q0 29 28 29h842q17 0 23 -6t6 -23v-733h96q20 0 20 -25v-483q0 -18 -4.5 -23.5t-23.5 -5.5h-242q-17 0 -23 6t-6 23v258h-551v-258q0 -18 -4.5 -23.5t-23.5 -5.5h-242 q-17 0 -23 6t-6 23v479zM461 250h252v512h-166v-68q0 -109 -17 -221q-19 -117 -69 -223z" />
<glyph unicode="&#x435;" horiz-adv-x="1075" d="M59 498q0 158 59.5 282t175 195.5t269.5 71.5q238 0 348.5 -149t110.5 -439q0 -15 -5 -21.5t-10.5 -7t-23.5 -0.5h-571q9 -105 51.5 -152t120.5 -47q58 0 107.5 11.5t78.5 24.5t78 40q21 10 30.5 7t18.5 -21l92 -172q8 -13 5.5 -21t-19.5 -18q-173 -117 -402 -117 q-251 0 -382.5 140t-131.5 393zM412 649h266q-6 97 -35.5 134.5t-91.5 37.5q-64 0 -94 -37.5t-45 -134.5z" />
<glyph unicode="&#x436;" horiz-adv-x="1560" d="M20 184q-3 16 4.5 28t24.5 15l29 4q34 5 55 23q13 13 29 61l16 56q22 72 64 112q33 33 82 45v7q-51 11 -82 45q-31 35 -39 73l-13 49q-10 42 -22 56q-16 18 -72 28l-24 5q-34 4 -25 40l49 191q7 25 54 25q153 0 229 -82q42 -44 61 -131l15 -70q13 -63 37 -82 q29 -23 86 -23h38v328q0 25 29 25h273q15 0 20.5 -5t5.5 -20v-328h39q57 0 86 23q24 19 37 82l14 70q18 85 62 131q76 82 229 82q46 0 53 -25l49 -191q9 -36 -24 -40l-25 -5q-55 -9 -71 -28q-13 -16 -23 -56l-12 -49q-8 -38 -39 -73q-31 -34 -82 -45v-7q49 -12 82 -45 q41 -39 63 -112l17 -56q17 -50 28 -61q21 -17 56 -23l28 -4q17 -3 24.5 -15t4.5 -28l-41 -188q-4 -20 -16.5 -25.5t-38.5 -5.5q-178 0 -260 82q-55 55 -72 146l-18 92q-15 68 -37 88q-24 24 -86 24h-27v-381q0 -8 -2 -11.5t-4.5 -4t-9.5 -0.5h-2h-2h-289q-19 0 -19 27v370 h-28q-60 0 -84 -24q-22 -20 -37 -88l-18 -92q-17 -91 -72 -146q-82 -82 -260 -82q-26 0 -39 5.5t-17 25.5z" />
<glyph unicode="&#x437;" horiz-adv-x="987" d="M51 690v176q0 29 27 56q49 52 147 88q105 39 246 39q185 0 297 -74q135 -88 135 -252q0 -84 -39 -135q-31 -46 -92 -64v-10q60 -15 107 -68q57 -65 57 -167q0 -125 -84 -209q-61 -61 -150.5 -83t-203.5 -22q-145 0 -256 27q-104 25 -166 74q-10 9 -15 15t-9.5 18.5 t3.5 23.5l76 156q5 10 8 14.5t9.5 11.5t12.5 6t17 -2l15 -6q81 -35 106 -43q71 -22 143 -22q70 0 97 18q34 19 34 63q0 53 -47 66q-16 8 -100 8h-53q-21 0 -30 7.5t-9 29.5v162q0 31 35 31h22q101 0 129 14q41 21 41 72q0 42 -37 65q-34 21 -90 21q-58 0 -112 -25v-78 q0 -30 -27 -30h-217q-16 0 -21.5 6.5t-5.5 21.5z" />
<glyph unicode="&#x438;" horiz-adv-x="1255" d="M49 752v231q0 29 29 29h373q8 0 11 -0.5t6 -3.5t3 -11v-364q0 -79 -8 -197h6q8 20 16 39.5t13.5 32t18.5 37.5t18 34.5t24 46t27 50.5l155 293q21 43 64 43h285h6h6t4.5 -0.5t4.5 -2.5t2.5 -4.5t2 -7t0.5 -10.5v-698h62q15 0 21.5 -5.5t6.5 -21.5v-235q0 -13 -4 -19 t-8.5 -7t-15.5 -1h-369h-3q-10 0 -13.5 1t-6 7t-2.5 19v360q0 73 11 191h-9q-8 -21 -15.5 -40t-17 -41t-15 -34.5t-19 -39t-18 -36t-22 -43t-22.5 -43.5l-141 -270q-16 -31 -55 -31h-293q-18 0 -23.5 5t-5.5 24v696h-61q-15 0 -22 5.5t-7 21.5z" />
<glyph unicode="&#x439;" horiz-adv-x="1255" d="M49 752v231q0 29 29 29h373q8 0 11 -0.5t6 -3.5t3 -11v-364q0 -79 -8 -197h6q8 20 16 39.5t13.5 32t18.5 37.5t18 34.5t24 46t27 50.5l155 293q21 43 64 43h285h6h6t4.5 -0.5t4.5 -2.5t2.5 -4.5t2 -7t0.5 -10.5v-698h62q15 0 21.5 -5.5t6.5 -21.5v-235q0 -13 -4 -19 t-8.5 -7t-15.5 -1h-369h-3q-10 0 -13.5 1t-6 7t-2.5 19v360q0 73 11 191h-9q-8 -21 -15.5 -40t-17 -41t-15 -34.5t-19 -39t-18 -36t-22 -43t-22.5 -43.5l-141 -270q-16 -31 -55 -31h-293q-18 0 -23.5 5t-5.5 24v696h-61q-15 0 -22 5.5t-7 21.5zM238.5 1402.5 q5.5 13.5 23.5 16.5l168 29q36 6 47 -29l4 -12q1 -2 6 -19t7.5 -24t9.5 -19.5t16 -21.5q31 -31 86 -31t86 31q9 9 16 21.5t9.5 19.5t7.5 24t6 19l4 12q13 35 45 31l170 -31q27 -5 27 -39t-21 -84q-34 -79 -96 -125q-101 -73 -256 -73q-153 0 -252 73q-86 63 -112 181 q-7 37 -1.5 50.5z" />
<glyph unicode="&#x43a;" horiz-adv-x="1157" d="M49 752v231q0 29 29 29h389q16 0 22 -0.5t12.5 -7t6.5 -21.5v-319h74q47 0 71 22q25 23 39 90l17 70q21 83 65 129q83 88 252 88q44 0 51 -25l47 -192q3 -13 -2 -25.5t-18 -13.5l-37 -6q-33 -5 -55 -27q-9 -9 -25 -51l-24 -74q-14 -47 -43 -76q-26 -26 -70 -38v-7 q40 -11 76 -47q36 -39 51 -100l14 -55q13 -52 31 -70q16 -16 61 -25l25 -4q37 -7 29 -51l-41 -180q-3 -18 -14.5 -24.5t-47.5 -6.5q-188 0 -266 78q-53 53 -74 156l-18 94q-12 57 -33 78q-25 22 -74 22h-61v-364q0 -21 -3 -25t-18 -4h-317q-12 0 -17.5 1t-9.5 7t-4 19v698 h-61q-15 0 -22 5.5t-7 21.5z" />
<glyph unicode="&#x43b;" horiz-adv-x="1228" d="M10 190q-4 17 2.5 31t20.5 17l18 4q74 14 107 43q42 37 57.5 110t17.5 185l3 145h-60q-15 0 -22 5.5t-7 21.5v231q0 29 29 29h887q7 0 11.5 -0.5t7.5 -2.5l4.5 -3t2.5 -6t1 -6v-8v-9v-688h61q15 0 22 -5.5t7 -21.5v-235q0 -13 -4 -19t-9 -7t-16 -1h-399q-16 0 -23.5 5.5 t-7.5 21.5v714h-166v-22q0 -186 -14 -326q-21 -217 -125 -321q-107 -107 -305 -107q-18 0 -29 6t-14 13t-7 22z" />
<glyph unicode="&#x43c;" horiz-adv-x="1417" d="M49 27v235q0 16 7 21.5t22 5.5h53l55 692q1 21 9 26t30 5h305q34 0 41 -23l82 -276q40 -126 49 -211h13q2 15 4 28.5t5 28.5t5.5 25t7.5 27.5t7 25t8.5 29.5t9.5 30l86 293q7 23 41 23h305q22 0 30 -5t9 -26l53 -692h53q15 0 22 -5.5t7 -21.5v-235q0 -13 -4 -19t-9 -7 t-16 -1h-327q-15 0 -21.5 1t-12 8t-5.5 22l-10 561h-13q-13 -75 -57 -236l-57 -198q-5 -17 -12 -22t-29 -5h-174q-22 0 -29 5t-12 22l-62 213q-5 16 -14 47.5t-13 46.5t-10 38.5t-10.5 44.5t-7.5 44h-10l-9 -561q0 -15 -5.5 -22t-12 -8t-20.5 -1h-328q-11 0 -16 1t-9 7 t-4 19z" />
<glyph unicode="&#x43d;" horiz-adv-x="1220" d="M49 27v231q0 17 6 23t23 6h61v438h-61q-15 0 -22 5.5t-7 21.5v231q0 29 29 29h397q33 0 33 -29v-330h205v330q0 29 35 29h395q28 0 28 -29v-231q0 -16 -6.5 -21.5t-21.5 -5.5h-62v-438h62q17 0 22.5 -6t5.5 -23v-231q0 -13 -4 -19t-8.5 -7t-15.5 -1h-408q-14 0 -18 6 t-4 21v364h-205v-375q0 -6 -1 -9.5t-3.5 -5t-4.5 -1.5h-8h-2h-2h-409q-11 0 -16 1t-9 7t-4 19z" />
<glyph unicode="&#x43e;" horiz-adv-x="1120" d="M59 508q0 244 133 391.5t371 147.5t368 -147.5t130 -395.5q0 -241 -133.5 -390t-366.5 -149q-242 0 -372 146t-130 397zM424 504q0 -162 33 -225.5t102 -63.5t103 64.5t34 226.5t-34 226.5t-103 64.5t-102 -64t-33 -229z" />
<glyph unicode="&#x43f;" horiz-adv-x="1193" d="M49 27v231q0 17 6 23t23 6h61v438h-61q-15 0 -22 5.5t-7 21.5v231q0 29 29 29h1038q29 0 29 -29v-231q0 -16 -7 -21.5t-22 -5.5h-61v-438h61q17 0 23 -6t6 -23v-231q0 -13 -4 -19t-9 -7t-16 -1h-391q-12 0 -17.5 1t-9.5 7t-4 19v694h-194v-692q0 -22 -3 -25.5t-20 -3.5 h-399q-11 0 -16 1t-9 7t-4 19z" />
<glyph unicode="&#x440;" horiz-adv-x="1153" d="M18 752v235q0 16 6 22.5t23 6.5h348q16 0 24 -11t21 -47q57 49 112 69t124 20q207 0 312.5 -144.5t105.5 -394.5q0 -271 -106.5 -409t-332.5 -138q-65 0 -157 41v-129h61q17 0 23 -6t6 -21v-233q0 -17 -6 -23t-23 -6h-498q-17 0 -22.5 6t-5.5 23v233q0 15 5.5 21t22.5 6 h64v799q0 29 -6 53h-72q-18 0 -23.5 5t-5.5 22zM498 215q47 -20 104 -20q47 0 75 23.5t44 92t16 191.5q0 286 -119 286q-58 0 -120 -49v-524z" />
<glyph unicode="&#x441;" horiz-adv-x="964" d="M59 489q0 254 140.5 406t390.5 152q98 0 170 -18.5t137 -72.5q8 -6 12 -14.5t4.5 -13.5t0.5 -14l-1 -9v-254q0 -18 -4.5 -23t-21.5 -5h-246q-15 0 -21 5.5t-6 22.5v125q-5 0 -11 1t-11 1q-87 0 -126.5 -63t-39.5 -215q0 -142 42.5 -201t125.5 -59q19 0 38.5 3t43.5 10.5 t36 12t42.5 17t36.5 14.5q25 13 37 12.5t22 -24.5l65 -164q8 -20 7.5 -29.5t-13.5 -23.5q-46 -51 -154 -77t-198 -26q-240 0 -369 140.5t-129 383.5z" />
<glyph unicode="&#x442;" d="M31 592v389q0 15 4.5 22t11 8t21.5 1h954q15 0 21.5 -1t11 -8t4.5 -22v-389q0 -15 -6 -20t-21 -5h-172q-16 0 -21 7t-5 22v125h-109v-432h61q15 0 22 -5.5t7 -21.5v-235q0 -16 -7 -21.5t-22 -5.5h-483q-11 0 -16 1t-9 7t-4 19v231q0 17 6 23t23 6h62v434h-109v-125 q0 -15 -5.5 -22t-21.5 -7h-172q-15 0 -20.5 5t-5.5 20z" />
<glyph unicode="&#x443;" horiz-adv-x="1116" d="M27 752v231q0 16 5 22.5t21 6.5h320q20 0 28.5 -5t12.5 -24l121 -489q8 -31 14.5 -70.5t9 -63t6 -66.5t4.5 -50q28 210 37 250l109 489q3 17 11.5 23t27.5 6h317q16 0 21.5 -6.5t5.5 -22.5v-231q0 -17 -5 -22t-22 -5h-51l-189 -643q-7 -23 -19 -69q-50 -179 -90 -256 q-85 -165 -250 -200q-50 -10 -107 -10q-63 0 -175 32t-155 77q-18 20 -6 47l98 195q11 23 37 8q1 -1 32.5 -17t47.5 -23t43.5 -15.5t46.5 -8.5q47 0 72 14.5t38 57.5l27 86h-70q-21 0 -27.5 4t-13.5 23l-258 698h-49q-17 0 -21.5 5t-4.5 22z" />
<glyph unicode="&#x444;" horiz-adv-x="1474" d="M59 526q0 273 129 404q88 92 226 92q76 0 139 -37v225h-61q-15 0 -22 5.5t-7 21.5v231q0 29 29 29h407q23 0 23 -27v-485q65 37 153 37q143 0 228 -90q112 -122 112 -406q0 -282 -86 -413q-50 -76 -115 -106t-155 -30q-70 0 -137 25v-133h63q15 0 22 -5.5t7 -21.5v-233 q0 -17 -6 -23t-23 -6h-498q-17 0 -22.5 6t-5.5 23v233q0 16 6.5 21.5t21.5 5.5h66v133q-67 -25 -131 -25q-87 0 -157 31.5t-122 114.5q-84 139 -84 403zM375 518q0 -157 20 -221q27 -82 107 -82q32 0 76 21v516q-44 28 -91 28q-68 0 -92 -61q-20 -50 -20 -201zM897 236 q48 -21 86 -21q41 0 62.5 21t33.5 61q21 80 21 229q0 133 -21 193q-12 32 -32.5 46.5t-55.5 14.5q-51 0 -94 -28v-516z" />
<glyph unicode="&#x445;" horiz-adv-x="1101" d="M49 27v233q0 17 5.5 22t23.5 5h78l176 223l-164 215h-80q-18 0 -23.5 5t-5.5 22v231q0 16 6 22.5t23 6.5h274q32 0 46 -21l106 -164q14 -22 37 -75q2 3 16.5 33.5t22.5 41.5l125 170q7 10 16 12.5t31 2.5h252q17 0 22.5 -6.5t5.5 -22.5v-231q0 -17 -5.5 -22t-22.5 -5h-66 l-172 -215l170 -223h78q18 0 23.5 -5t5.5 -22v-233q0 -15 -6 -21t-23 -6h-254q-22 0 -31 3t-16 13l-129 181q-8 12 -15.5 28t-15 33t-10.5 23q-2 -4 -9.5 -21.5t-15.5 -34.5t-16 -28l-129 -179q-13 -18 -49 -18h-256q-17 0 -23 6t-6 21z" />
<glyph unicode="&#x446;" horiz-adv-x="1228" d="M49 27v231q0 17 6 23t23 6h61v438h-61q-15 0 -22 5.5t-7 21.5v231q0 29 29 29h409q8 0 11 -0.5t6.5 -3.5t3.5 -11v-727h184v723q0 7 5.5 13t11.5 6h413q29 0 29 -29v-231q0 -16 -7 -21.5t-22 -5.5h-61v-455h117q20 0 20 -24v-504q0 -18 -5 -23.5t-24 -5.5h-241 q-17 0 -23 6t-6 23v258h-821q-11 0 -16 1t-9 7t-4 19z" />
<glyph unicode="&#x447;" horiz-adv-x="1169" d="M20 752v231q0 29 29 29h389q15 0 21.5 -1t13 -7.5t6.5 -20.5v-328q0 -58 27 -80q23 -20 65 -20q48 0 91 27v399q0 31 28 31h402q28 0 28 -29v-231q0 -16 -6.5 -21.5t-21.5 -5.5h-62v-438h62q17 0 22.5 -6t5.5 -23v-231q0 -13 -4 -19t-8.5 -7t-15.5 -1h-400q-2 0 -7 -0.5 t-7 0t-6 2t-5.5 4t-3 8t-1.5 13.5v317q-111 -43 -234 -43q-70 0 -134.5 20.5t-105.5 59.5q-77 75 -77 231v113h-62q-15 0 -22 5.5t-7 21.5z" />
<glyph unicode="&#x448;" horiz-adv-x="1683" d="M49 27v231q0 17 6 23t23 6h61v438h-61q-15 0 -22 5.5t-7 21.5v231q0 29 29 29h391q23 0 23 -29v-713h174v711q0 31 24 31h301q27 0 27 -27v-715h174v713q0 29 29 29h385q28 0 28 -29v-231q0 -16 -6.5 -21.5t-21.5 -5.5h-62v-438h62q17 0 22.5 -6t5.5 -23v-231 q0 -13 -4 -19t-8.5 -7t-15.5 -1h-1528q-11 0 -16 1t-9 7t-4 19z" />
<glyph unicode="&#x449;" horiz-adv-x="1716" d="M49 27v231q0 17 6 23t23 6h61v438h-61q-15 0 -22 5.5t-7 21.5v231q0 29 29 29h391q23 0 23 -29v-713h174v711q0 31 24 31h301q27 0 27 -27v-715h174v713q0 29 29 29h385q28 0 28 -29v-231q0 -16 -6.5 -21.5t-21.5 -5.5h-62v-455h117q16 0 20.5 -5t4.5 -23v-500 q0 -18 -5 -23.5t-24 -5.5h-250q-17 0 -23 6t-6 23v258h-1300q-11 0 -16 1t-9 7t-4 19z" />
<glyph unicode="&#x44a;" horiz-adv-x="1280" d="M20 594v387q0 15 4.5 22t11 8t21.5 1h625q26 0 32.5 -4t6.5 -25v-311h115q43 0 71 -1.5t75.5 -8t89 -24t75.5 -44.5q113 -92 113 -260q0 -165 -107 -250q-102 -84 -303 -84h-551q-11 0 -16 1t-9 7t-4 19v231q0 17 6 23t23 6h61v434h-112v-123q0 -15 -5.5 -22t-21.5 -7 h-174q-15 0 -21 5t-6 20zM721 219h67q76 0 107 33q29 29 29 86q0 62 -35 90q-29 25 -103 25h-65v-234z" />
<glyph unicode="&#x44b;" horiz-adv-x="1593" d="M49 27v231q0 17 6 23t23 6h61v438h-61q-15 0 -22 5.5t-7 21.5v231q0 29 29 29h395q16 0 21.5 -4.5t5.5 -22.5v-313h106q60 0 99 -2.5t104 -21t109 -54.5q112 -92 112 -260q0 -166 -106 -250q-102 -84 -303 -84h-543q-11 0 -16 1t-9 7t-4 19zM500 219h67q76 0 107 33 q28 28 28 86q0 63 -34 90q-29 25 -103 25h-65v-234zM1085 29v954q0 29 25 29h406q28 0 28 -29v-231q0 -16 -6.5 -21.5t-21.5 -5.5h-62v-438h62q17 0 22.5 -6t5.5 -23v-231q0 -13 -4 -19t-8.5 -7t-15.5 -1h-402q-17 0 -23 6t-6 23z" />
<glyph unicode="&#x44c;" horiz-adv-x="1058" d="M49 27v231q0 17 6 23t23 6h61v438h-61q-15 0 -22 5.5t-7 21.5v231q0 29 29 29h393q15 0 22 -5.5t7 -21.5v-313h114q44 0 72.5 -1.5t76 -8t88.5 -24t75 -44.5q112 -89 112 -262q0 -160 -106 -248q-102 -84 -303 -84h-551q-11 0 -16 1t-9 7t-4 19zM500 219h67q76 0 107 33 q28 28 28 86q0 63 -34 90q-29 25 -103 25h-65v-234z" />
<glyph unicode="&#x44d;" horiz-adv-x="1021" d="M39 700v166q0 28 18 49q47 60 154 95q106 37 238 37q238 0 372 -134q142 -142 142 -419q0 -268 -132 -400q-129 -129 -391 -129q-123 0 -235 35q-85 28 -137 66l-9 6q-11 8 -14 24.5t4 30.5l84 168q12 24 33 16l12 -4q21 -7 51 -22q39 -17 58 -23q68 -22 131 -22 q96 0 137 43q39 42 39 108h-229q-17 0 -23 6t-6 23v172q0 17 6 23t23 6h223q0 76 -45 118q-39 39 -125 39q-49 0 -94 -20v-60q0 -39 -37 -39h-219q-20 0 -24.5 9.5t-4.5 31.5z" />
<glyph unicode="&#x44e;" horiz-adv-x="1640" d="M49 27v231q0 17 6 23t23 6h61v438h-61q-15 0 -22 5.5t-7 21.5v231q0 29 29 29h393q29 0 29 -29v-328h112q17 161 125 269q123 123 344 123q222 0 353 -129q147 -143 147 -412t-147 -412q-129 -129 -355 -129q-219 0 -344 125q-56 56 -91 139.5t-38 176.5h-106v-377 q0 -18 -5 -23.5t-24 -5.5h-393q-11 0 -16 1t-9 7t-4 19zM942 506q0 -197 51 -254q32 -37 86 -37t86 37q52 58 52 254t-52 254q-32 37 -86 37t-86 -37q-51 -57 -51 -254z" />
<glyph unicode="&#x44f;" horiz-adv-x="1165" d="M20 182q-4 19 4 31.5t25 15.5l25 4q28 3 51 23q19 16 33 55l10 33q15 54 49 88q25 25 70 43v4q-67 17 -113 70q-55 63 -55 158q0 146 98 227q59 48 137 63t178 15h465q18 0 23.5 -5t5.5 -24v-696h61q17 0 23 -6t6 -23v-231q0 -13 -4 -19t-9 -7t-16 -1h-397 q-15 0 -19.5 5.5t-4.5 21.5v333h-45q-58 0 -93 -24q-33 -25 -51 -94l-16 -68q-21 -87 -70 -133q-78 -76 -262 -76q-45 0 -51 23zM463 688q0 -56 31 -82q30 -26 118 -26h54v213h-62q-74 0 -104 -21q-37 -27 -37 -84z" />
<glyph unicode="&#x451;" horiz-adv-x="1075" d="M59 498q0 158 59.5 282t175 195.5t269.5 71.5q238 0 348.5 -149t110.5 -439q0 -15 -5 -21.5t-10.5 -7t-23.5 -0.5h-571q9 -105 51.5 -152t120.5 -47q58 0 107.5 11.5t78.5 24.5t78 40q21 10 30.5 7t18.5 -21l92 -172q8 -13 5.5 -21t-19.5 -18q-173 -117 -402 -117 q-251 0 -382.5 140t-131.5 393zM162 1309q0 76 53.5 129t128.5 53q74 0 125 -53t51 -129q0 -74 -51.5 -127.5t-124.5 -53.5q-75 0 -128.5 53.5t-53.5 127.5zM412 649h266q-6 97 -35.5 134.5t-91.5 37.5q-64 0 -94 -37.5t-45 -134.5zM618 1309q0 76 52 129t125 53 q77 0 129.5 -52.5t52.5 -129.5q0 -74 -53 -127.5t-129 -53.5q-72 0 -124.5 53.5t-52.5 127.5z" />
<glyph unicode="&#x452;" horiz-adv-x="1171" d="M-41 1153v123q0 29 25 29h157v110q0 23 27 27l291 39q32 5 40.5 -1.5t8.5 -35.5v-139h268q25 0 25 -29v-123q0 -17 -6 -23t-23 -6h-264v-163q109 88 254 88q157 0 237 -80q113 -105 113 -447q0 -319 -70 -542q-43 -141 -127 -263t-170 -190q-14 -11 -22 -12t-29 6 q-31 13 -84.5 47t-77.5 55q-25 21 -25 33.5t19 36.5q102 127 150 272q12 36 20.5 73t14 79t9 71t4.5 77.5t1.5 68.5t0 73t-0.5 64q0 129 -3 179t-17 87q-10 27 -26 41.5t-46 14.5q-49 0 -125 -56v-719q0 -12 -5 -15t-18 -3h-411q-15 0 -20 6t-5 21v235q0 16 7 21.5t22 5.5 h63v835h-153q-17 0 -23 6t-6 23z" />
<glyph unicode="&#x453;" horiz-adv-x="944" d="M49 27v231q0 17 6 23t23 6h63v438h-63q-15 0 -22 5t-7 22v231q0 17 6 23t23 6h799q15 0 21 -1t10.5 -8t4.5 -22v-387q0 -15 -5.5 -20t-20.5 -5h-197q-16 0 -21 7t-5 22v123h-154v-432h80q15 0 21.5 -5.5t6.5 -21.5v-235q0 -16 -6.5 -21.5t-21.5 -5.5h-512q-11 0 -16 1 t-9 7t-4 19zM190 1307q0 11 27 26l416 254q18 12 29 12q7 0 11.5 -5.5t12.5 -22.5l107 -211q10 -20 10 -29q0 -14 -31 -26l-455 -175q-10 -4 -22 -4q-17 0 -31 27l-63 127q-11 22 -11 27z" />
<glyph unicode="&#x454;" horiz-adv-x="1019" d="M59 494q0 253 152 405q144 148 385 148q121 0 213 -39q34 -15 72 -41.5t61 -55.5q19 -24 19 -53v-170q0 -11 -1 -16t-7 -9t-19 -4h-209q-16 0 -23.5 6.5t-7.5 24.5v74q-56 18 -98 18q-79 0 -119 -47q-39 -45 -39 -117h209q17 0 23 -5.5t6 -22.5v-172q0 -17 -6 -23t-23 -6 h-209q0 -33 12.5 -67.5t34.5 -53.5q34 -32 109 -32q64 0 123 22q29 11 82 39l8 4q18 9 28.5 1.5t20.5 -26.5l74 -139q22 -38 -12 -63l-9 -6q-37 -29 -68 -45.5t-79 -30.5q-94 -27 -207 -27q-110 0 -198 26.5t-160 102.5q-59 61 -98.5 161.5t-39.5 238.5z" />
<glyph unicode="&#x455;" horiz-adv-x="925" d="M49 125v168q0 17 6.5 23t22.5 6h215q16 0 19.5 -4.5t6.5 -24.5l11 -47q71 -23 114 -23q48 0 75.5 13t27.5 51q0 12 -3.5 21.5t-12.5 18t-17.5 14.5t-26.5 13.5t-31 12.5t-39.5 14t-43.5 16q-162 62 -219 117q-45 43 -63.5 85.5t-18.5 137.5q0 139 117.5 224.5t295.5 85.5 q211 0 332 -103q14 -12 14 -47v-156q0 -17 -5.5 -22.5t-20.5 -5.5h-215q-17 0 -21.5 5t-7.5 23l-10 58q-15 6 -47 6q-22 0 -36.5 -1.5t-33.5 -7.5t-29 -21.5t-10 -39.5q0 -12 3 -21t11 -17t15 -13.5t23 -12.5t26 -11t33 -12t35 -13q60 -22 96.5 -37.5t87 -43.5t78.5 -56 q74 -74 74 -224q0 -148 -112 -228.5t-290 -80.5q-118 0 -226 30t-179 79q-21 15 -21 51z" />
<glyph unicode="&#x456;" horiz-adv-x="724" d="M49 27v235q0 15 6 21t23 6h100v432h-96q-21 0 -27 4t-6 23v233q0 21 6.5 26t26.5 5h440h10t7 -1t5 -1t3.5 -2t2 -3t1 -4t0.5 -5v-7v-8v-692h96q17 0 23 -6t6 -21v-235q0 -17 -5.5 -22t-23.5 -5h-569q-18 0 -23.5 5t-5.5 22zM133 1350q0 89 63.5 153t157.5 64 q92 0 155.5 -64.5t63.5 -152.5q0 -90 -64 -156t-157 -66t-156 66t-63 156z" />
<glyph unicode="&#x457;" horiz-adv-x="724" d="M-31 1296q0 82 45.5 139.5t110.5 57.5q63 0 108.5 -58t45.5 -139q0 -79 -45.5 -136.5t-108.5 -57.5q-64 0 -110 57t-46 137zM49 27v235q0 15 6 21t23 6h100v432h-96q-21 0 -27 4t-6 23v233q0 21 6.5 26t26.5 5h440h10t7 -1t5 -1t3.5 -2t2 -3t1 -4t0.5 -5v-7v-8v-692h96 q17 0 23 -6t6 -21v-235q0 -17 -5.5 -22t-23.5 -5h-569q-18 0 -23.5 5t-5.5 22zM344 1296q0 81 45.5 139t108.5 58q64 0 109.5 -57.5t45.5 -139.5q0 -80 -45.5 -137t-109.5 -57q-63 0 -108.5 57.5t-45.5 136.5z" />
<glyph unicode="&#x458;" horiz-adv-x="657" d="M-151 -404q-3 10 4 27l69 223q5 20 33 11q9 -4 30.5 -12.5t29 -11.5t23.5 -8.5t25.5 -7t23 -3.5t26.5 -2q45 0 57 43t12 174v692h-110q-20 0 -24.5 4t-4.5 23v233q0 21 5 26t24 5h454h10t7 -1t5 -1t3.5 -2t2 -3t1 -4t0.5 -5v-7v-8v-952q0 -176 -18 -255t-78 -143 q-108 -114 -318 -114q-136 0 -270 61q-19 8 -22 18zM137 1350q0 89 63.5 153t157.5 64q92 0 156 -64.5t64 -152.5q0 -90 -64 -156t-158 -66q-93 0 -156 66t-63 156z" />
<glyph unicode="&#x459;" horiz-adv-x="1640" d="M10 190q-4 17 2.5 31t20.5 17l18 4q74 14 107 43q42 37 57.5 110t17.5 185l3 145h-60q-15 0 -22 5.5t-7 21.5v231q0 29 29 29h877q15 0 21.5 -5.5t6.5 -21.5v-313h115q44 0 72 -1.5t75.5 -8t88.5 -24t75 -44.5q113 -90 113 -262q0 -159 -107 -248q-102 -84 -303 -84h-460 q-11 0 -16 1t-9 7t-4 19v714h-166v-22q0 -186 -14 -326q-21 -217 -125 -321q-107 -107 -305 -107q-18 0 -29 6t-14 13t-7 22zM1081 219h68q75 0 106 33q29 29 29 86q0 62 -35 90q-29 25 -102 25h-66v-234z" />
<glyph unicode="&#x45a;" horiz-adv-x="1640" d="M49 27v231q0 17 6 23t23 6h61v438h-61q-15 0 -22 5.5t-7 21.5v231q0 29 29 29h397q33 0 33 -29v-311h213v311q0 29 29 29h303q15 0 21.5 -5.5t6.5 -21.5v-313h115q44 0 72 -1.5t75.5 -8t88.5 -24t75 -44.5q113 -90 113 -262q0 -159 -107 -248q-102 -84 -303 -84h-460 q-11 0 -16 1t-9 7t-4 19v407h-213v-418q0 -6 -1 -9.5t-3.5 -5t-4.5 -1.5h-8h-2h-2h-409q-11 0 -16 1t-9 7t-4 19zM1081 219h68q77 0 108 33q27 27 27 76q0 56 -31 82q-28 24 -106 24h-66v-215z" />
<glyph unicode="&#x45b;" horiz-adv-x="1222" d="M-41 1153v123q0 29 25 29h157v110q0 23 27 27l291 39q32 5 40.5 -1.5t8.5 -35.5v-139h268q25 0 25 -29v-123q0 -17 -6 -23t-23 -6h-264v-163q114 88 254 88q159 0 239 -80t80 -248v-432h68q25 0 25 -27v-235q0 -15 -4.5 -21t-18.5 -6h-418q-11 0 -14.5 2.5t-3.5 11.5v678 q0 59 -27 84q-19 17 -49 17q-59 0 -131 -56v-719q0 -12 -5 -15t-18 -3h-413q-23 0 -23 25v237q0 16 7 21.5t22 5.5h63v835h-153q-17 0 -23 6t-6 23z" />
<glyph unicode="&#x45c;" horiz-adv-x="1157" d="M49 752v231q0 29 29 29h389q16 0 22 -0.5t12.5 -7t6.5 -21.5v-319h74q47 0 71 22q25 23 39 90l17 70q21 83 65 129q83 88 252 88q44 0 51 -25l47 -192q3 -13 -2 -25.5t-18 -13.5l-37 -6q-33 -5 -55 -27q-9 -9 -25 -51l-24 -74q-14 -47 -43 -76q-26 -26 -70 -38v-7 q40 -11 76 -47q36 -39 51 -100l14 -55q13 -52 31 -70q16 -16 61 -25l25 -4q37 -7 29 -51l-41 -180q-3 -18 -14.5 -24.5t-47.5 -6.5q-188 0 -266 78q-53 53 -74 156l-18 94q-12 57 -33 78q-25 22 -74 22h-61v-364q0 -21 -3 -25t-18 -4h-317q-12 0 -17.5 1t-9.5 7t-4 19v698 h-61q-15 0 -22 5.5t-7 21.5zM293 1307q0 12 26 26l416 254q18 12 29 12q7 0 11.5 -5.5t12.5 -22.5l107 -211q10 -20 10 -29q0 -14 -31 -26l-454 -175q-10 -4 -23 -4q-17 0 -30 27l-64 127q-10 20 -10 27z" />
<glyph unicode="&#x45e;" horiz-adv-x="1116" d="M27 752v231q0 16 5 22.5t21 6.5h320q20 0 28.5 -5t12.5 -24l121 -489q8 -31 14.5 -70.5t9 -63t6 -66.5t4.5 -50q28 210 37 250l109 489q3 17 11.5 23t27.5 6h317q16 0 21.5 -6.5t5.5 -22.5v-231q0 -17 -5 -22t-22 -5h-51l-189 -643q-7 -23 -19 -69q-50 -179 -90 -256 q-85 -165 -250 -200q-50 -10 -107 -10q-63 0 -175 32t-155 77q-18 20 -6 47l98 195q11 23 37 8q1 -1 32.5 -17t47.5 -23t43.5 -15.5t46.5 -8.5q47 0 72 14.5t38 57.5l27 86h-70q-21 0 -27.5 4t-13.5 23l-258 698h-49q-17 0 -21.5 5t-4.5 22zM189.5 1402.5 q5.5 13.5 23.5 16.5l168 29q36 6 47 -29l4 -12q1 -2 6 -19t7.5 -24t9.5 -19.5t16 -21.5q31 -31 86 -31t86 31q9 9 16 21.5t9.5 19.5t7.5 24t6 19l4 12q13 35 45 31l170 -31q27 -5 27 -39t-21 -84q-34 -79 -96 -125q-101 -73 -256 -73q-153 0 -252 73q-87 64 -113 181 q-6 37 -0.5 50.5z" />
<glyph unicode="&#x45f;" horiz-adv-x="1210" d="M49 27v231q0 17 6 23t23 6h61v438h-61q-15 0 -22 5.5t-7 21.5v231q0 29 29 29h409q8 0 11 -0.5t6.5 -3.5t3.5 -11v-727h194v719q0 23 17 23h414q28 0 28 -29v-231q0 -16 -6.5 -21.5t-21.5 -5.5h-62v-438h62q17 0 22.5 -6t5.5 -23v-231q0 -13 -4 -19t-8.5 -7t-15.5 -1h-89 h-274v-299q0 -18 -5 -23.5t-24 -5.5h-270q-17 0 -23 6t-6 23v299h-364q-11 0 -16 1t-9 7t-4 19z" />
<glyph unicode="&#x490;" horiz-adv-x="1064" d="M53 27v243q0 27 25 27h82v811h-76q-18 0 -24.5 7.5t-6.5 23.5v237q0 29 31 29h623v281q0 16 5.5 24t22.5 8h283q16 0 21 -6.5t5 -21.5v-562q0 -43 -43 -43h-444v-788h107q16 0 23 -5.5t7 -23.5v-239q0 -15 -5 -22t-21 -7h-586q-15 0 -22 5.5t-7 21.5z" />
<glyph unicode="&#x491;" horiz-adv-x="933" d="M49 27v231q0 17 6 23t23 6h63v438h-63q-15 0 -22 5t-7 22v231q0 17 6 23t23 6h575v194q0 15 5.5 22t21.5 7h197q15 0 20.5 -5t5.5 -20v-465q0 -15 -5.5 -19.5t-20.5 -4.5h-367v-432h80q15 0 21.5 -5.5t6.5 -21.5v-235q0 -16 -6.5 -21.5t-21.5 -5.5h-512q-11 0 -16 1t-9 7 t-4 19z" />
<glyph unicode="&#x2000;" horiz-adv-x="1004" />
<glyph unicode="&#x2001;" horiz-adv-x="2009" />
<glyph unicode="&#x2002;" horiz-adv-x="1004" />
<glyph unicode="&#x2003;" horiz-adv-x="2009" />
<glyph unicode="&#x2004;" horiz-adv-x="669" />
<glyph unicode="&#x2005;" horiz-adv-x="502" />
<glyph unicode="&#x2006;" horiz-adv-x="334" />
<glyph unicode="&#x2007;" horiz-adv-x="334" />
<glyph unicode="&#x2008;" horiz-adv-x="251" />
<glyph unicode="&#x2009;" horiz-adv-x="401" />
<glyph unicode="&#x200a;" horiz-adv-x="111" />
<glyph unicode="&#x2010;" horiz-adv-x="856" d="M61 401v246q0 27 6.5 34t34.5 7h652q29 0 36 -7t7 -34v-246q0 -29 -6.5 -35t-36.5 -6h-652q-29 0 -35 6t-6 35z" />
<glyph unicode="&#x2011;" horiz-adv-x="856" d="M61 401v246q0 27 6.5 34t34.5 7h652q29 0 36 -7t7 -34v-246q0 -29 -6.5 -35t-36.5 -6h-652q-29 0 -35 6t-6 35z" />
<glyph unicode="&#x2012;" horiz-adv-x="856" d="M61 401v246q0 27 6.5 34t34.5 7h652q29 0 36 -7t7 -34v-246q0 -29 -6.5 -35t-36.5 -6h-652q-29 0 -35 6t-6 35z" />
<glyph unicode="&#x2013;" horiz-adv-x="1167" d="M63 410v227q0 27 7.5 35t35.5 8h957q28 0 34.5 -7.5t6.5 -35.5v-227q0 -30 -6 -36.5t-35 -6.5h-957q-29 0 -36 7t-7 36z" />
<glyph unicode="&#x2014;" horiz-adv-x="1822" d="M63 410v229q0 27 7 34t36 7h1612q28 0 34.5 -7t6.5 -34v-229q0 -30 -6 -36.5t-35 -6.5h-1612q-29 0 -36 7t-7 36z" />
<glyph unicode="&#x2018;" horiz-adv-x="649" d="M45.5 952.5q-6.5 12.5 7.5 38.5l223 459q11 23 21.5 25.5t34.5 -5.5l198 -43q27 -6 31 -16.5t-4 -34.5l-102 -403q-8 -33 -45 -33h-324q-34 0 -40.5 12.5z" />
<glyph unicode="&#x2019;" horiz-adv-x="616" d="M40 986.5q-5 11.5 3 35.5l104 401q8 35 43 35h326q34 0 40 -13.5t-9 -39.5q-154 -310 -223 -457q-9 -22 -20.5 -24.5t-35.5 4.5l-196 41q-27 6 -32 17.5z" />
<glyph unicode="&#x201c;" horiz-adv-x="1067" d="M45.5 952.5q-6.5 12.5 7.5 38.5l223 459q11 23 21.5 25.5t34.5 -5.5l198 -43q27 -6 31 -16.5t-4 -34.5l-102 -403q-8 -33 -45 -33h-324q-34 0 -40.5 12.5zM530.5 952.5q-5.5 12.5 8.5 38.5l223 459q11 23 21 25.5t34 -5.5l197 -43q27 -6 31.5 -16.5t-3.5 -34.5l-104 -403 q-4 -18 -14 -25.5t-29 -7.5h-326q-33 0 -38.5 12.5z" />
<glyph unicode="&#x201d;" horiz-adv-x="1071" d="M40 986.5q-5 11.5 3 35.5l104 401q8 35 43 35h326q34 0 40 -13.5t-9 -39.5q-154 -310 -223 -457q-9 -22 -20.5 -24.5t-35.5 4.5l-196 41q-27 6 -32 17.5zM524 986.5q-4 11.5 4 35.5l103 401q8 35 45 35h323q34 0 40.5 -13.5t-7.5 -39.5l-223 -457q-11 -22 -21 -24.5 t-34 4.5l-199 41q-27 6 -31 17.5z" />
<glyph unicode="&#x201e;" horiz-adv-x="1071" d="M40 -215.5q-5 11.5 3 35.5l104 401q4 18 14 25.5t29 7.5h326q33 0 39 -12.5t-8 -38.5l-223 -457q-11 -23 -21.5 -26t-34.5 4l-196 43q-27 6 -32 17.5zM524 -215.5q-4 11.5 4 35.5l103 401q8 33 45 33h323q34 0 40.5 -12.5t-7.5 -38.5l-223 -457q-11 -23 -21 -26t-34 4 l-199 43q-27 6 -31 17.5z" />
<glyph unicode="&#x2020;" horiz-adv-x="1136" d="M109 743v218q0 29 7.5 36t37.5 7h237v360q0 26 8 33.5t35 7.5h268q27 0 35 -7.5t8 -33.5v-360h240q27 0 35 -7.5t8 -35.5v-218q0 -28 -7.5 -34.5t-35.5 -6.5h-240v-1093q0 -26 -8.5 -34.5t-34.5 -8.5h-268q-27 0 -35 7.5t-8 35.5v1093h-237q-30 0 -37.5 6.5t-7.5 34.5z " />
<glyph unicode="&#x2022;" horiz-adv-x="1368" d="M428 717q0 123 87 211t210 88t211 -88t88 -211t-88 -210t-211 -87t-210 87t-87 210z" />
<glyph unicode="&#x2026;" horiz-adv-x="1906" d="M66 205q0 107 74.5 181.5t181.5 74.5t182.5 -74.5t75.5 -181.5t-75.5 -182.5t-182.5 -75.5t-181.5 75.5t-74.5 182.5zM696 205q0 107 75.5 181.5t182.5 74.5t181.5 -74.5t74.5 -181.5t-74.5 -182.5t-181.5 -75.5t-182.5 75.5t-75.5 182.5zM1329 205q0 107 74.5 181.5 t181.5 74.5t182.5 -74.5t75.5 -181.5t-75.5 -182.5t-182.5 -75.5t-181.5 75.5t-74.5 182.5z" />
<glyph unicode="&#x202f;" horiz-adv-x="401" />
<glyph unicode="&#x205f;" horiz-adv-x="502" />
<glyph unicode="&#x20ac;" horiz-adv-x="1253" d="M0 514l39 107q0 1 2 6t2.5 6l2.5 5t3 4.5t3.5 3.5t4.5 3.5t5 1.5t7 1.5t9 0.5h65v72h-116q-20 0 -26 10.5t-1 24.5l39 106q1 2 2.5 6.5l2 6t2.5 5t3 4.5l3.5 3.5t4.5 3.5t5 2t7 1.5t9 0.5h80q6 97 40.5 193.5t84.5 160.5q146 187 432 187q129 0 244.5 -39t183.5 -107 q26 -26 26 -61v-234q0 -22 -6 -27t-28 -5h-234q-20 0 -26.5 6t-6.5 26v117q-69 21 -120 21q-116 0 -166 -90q-28 -50 -33 -148h356q51 0 37 -39l-39 -106q0 -1 -1 -4.5t-1.5 -4.5t-1.5 -4.5t-2 -4.5t-2.5 -3.5t-3.5 -3.5t-4.5 -2t-5.5 -1.5t-7 -0.5h-329v-72h270q12 0 20 -1 t15 -9t2 -22l-41 -113q-5 -15 -13.5 -22t-27.5 -7h-219q4 -87 43 -141q50 -70 151 -70q63 0 125 23v129q0 33 33 33h234q34 0 34 -33v-238q0 -43 -7 -56q-8 -16 -34 -36q-19 -16 -45 -31.5t-78 -39.5t-129 -39t-165 -15q-254 0 -398 148q-61 63 -104 161.5t-55 204.5h-127 q-20 0 -27 11.5t-2 23.5z" />
<glyph unicode="&#x2122;" horiz-adv-x="1693" d="M37 1133v251q0 13 6 17t20 4h629q14 0 17.5 -3.5t3.5 -17.5v-251q0 -13 -4.5 -18t-18.5 -5h-108q-14 0 -18.5 5t-4.5 18v67h-65v-461h71q18 0 22.5 -3.5t4.5 -20.5v-127q0 -17 -4 -21t-21 -4h-385q-17 0 -19.5 3.5t-2.5 21.5v127q0 17 3.5 20.5t20.5 3.5h70v461h-64v-67 q0 -14 -3.5 -18.5t-16.5 -4.5h-111q-13 0 -17.5 4.5t-4.5 18.5zM760 588v127q0 17 3.5 20.5t20.5 3.5h29l29 488h-31q-17 0 -22 4.5t-5 19.5v129q0 15 5 20t22 5h256q14 0 19.5 -3t9.5 -16l75 -241q9 -30 29 -117q8 33 33 117l80 241q4 13 8.5 16t19.5 3h246q17 0 22 -5 t5 -20v-129q0 -15 -5 -19.5t-22 -4.5h-31l27 -488h31q17 0 20.5 -3.5t3.5 -20.5v-127q0 -17 -3.5 -21t-20.5 -4h-219q-18 0 -25.5 5t-7.5 20l-4 280q0 59 12 224q-38 -151 -53 -195l-39 -141q-3 -10 -5.5 -13.5t-7 -5.5t-14.5 -2h-112q-15 0 -18.5 3t-8.5 18l-37 143 q-2 6 -10 42t-18.5 81.5t-16.5 69.5q6 -82 6 -224l-4 -280q0 -16 -5 -20.5t-21 -4.5h-222q-17 0 -20.5 4t-3.5 21z" />
<glyph unicode="&#x221a;" horiz-adv-x="1146" d="M31 838v145q0 17 5.5 23t22.5 6h344q25 0 31 -31l178 -737h11l299 1165q3 11 4.5 16t8.5 10t19 5h146q34 0 26 -35l-399 -1524q-4 -20 -29 -20h-227q-23 0 -27 22l-233 926h-152q-17 0 -22.5 6t-5.5 23z" />
<glyph unicode="&#x221e;" horiz-adv-x="1839" d="M102 602q0 157 101 256q51 50 125 77.5t151 27.5q167 0 326 -125q55 -46 115 -109q63 67 114 109q159 125 326 125q77 0 151 -27.5t125 -77.5q101 -99 101 -256q0 -165 -101 -270q-102 -105 -276 -105q-171 0 -326 125q-51 42 -114 109q-60 -63 -115 -109 q-155 -125 -326 -125q-174 0 -276 105q-101 105 -101 270zM328 598q0 -59 39 -98q48 -45 125 -45q81 0 165 53q69 44 113 88q-44 44 -113 88q-86 53 -165 53q-77 0 -125 -45q-39 -36 -39 -94zM1061 596q44 -44 113 -88q84 -53 165 -53q77 0 125 45q39 39 39 98q0 58 -39 94 q-48 45 -125 45q-79 0 -165 -53q-69 -44 -113 -88z" />
<glyph unicode="&#x2248;" horiz-adv-x="1196" d="M61 344q-3 10 7 35q47 104 72 141q90 133 261 133q65 0 144 -27.5t149 -55t113 -27.5q66 0 125 73q19 23 25.5 26t31.5 -9l123 -70q22 -12 23.5 -20t-11.5 -33q-6 -10 -19.5 -35t-20.5 -36.5t-22 -34.5t-25 -35.5t-27.5 -31.5t-33.5 -29t-38.5 -23t-45.5 -19.5t-52.5 -11 t-61.5 -4.5q-56 0 -135 27.5t-150.5 55t-109.5 27.5q-65 0 -119 -92q-13 -24 -23 -26t-34 12l-121 68q-22 12 -25 22zM61 806.5q-3 10.5 7 35.5q47 104 72 141q90 133 261 133q65 0 144 -27.5t149 -55t113 -27.5q66 0 125 73q19 23 25.5 26t31.5 -9l123 -70q22 -12 23.5 -20 t-11.5 -33q-6 -10 -19.5 -35t-20.5 -36.5t-22 -34.5t-25 -35.5t-27.5 -31.5t-33.5 -29t-38.5 -23t-45.5 -19.5t-52.5 -11t-61.5 -4.5q-57 0 -135.5 27.5t-150 55t-109.5 27.5q-65 0 -119 -92q-13 -24 -23 -26t-34 12l-121 67q-22 12 -25 22.5z" />
<glyph unicode="&#x2260;" d="M45 305v270q0 18 7 25.5t26 7.5h293l63 148h-358q-20 0 -25.5 6.5t-5.5 25.5v267q0 18 7.5 24t25.5 6h502l96 218q7 17 12.5 20.5t28.5 -2.5l184 -82q35 -14 19 -47l-50 -107h140q20 0 27 -6t7 -26v-267q0 -20 -6 -25t-26 -5h-285l-65 -148h350q18 0 25 -6t7 -24v-269 q0 -19 -7 -23.5t-25 -4.5h-494l-100 -230q-9 -18 -27 -10l-198 86q-29 13 -17 43l49 111h-153q-27 0 -27 24z" />
<glyph unicode="&#x2264;" horiz-adv-x="1105" d="M33 367v254q0 28 20 28q5 0 17 -4l972 -498q27 -15 27 -43v-247q0 -35 -22 -35q-1 0 -19 6l-969 496q-19 8 -22 15q-4 10 -4 28zM33 813v234q0 23 20 32l987 502q6 4 17 4q16 0 16 -37v-323q0 -21 -31 -33l-561 -258l576 -272q18 -8 18 -37v-324q0 -27 -16 -27 q-7 0 -17 5l-987 501q-17 10 -20 17q-2 6 -2 16z" />
<glyph unicode="&#x2265;" horiz-adv-x="1105" d="M33 301v324q0 29 18 37l576 272l-561 258q-31 12 -31 33v323q0 37 16 37q11 0 17 -4l987 -502q20 -9 20 -32v-234q0 -4 -0.5 -7.5t-1 -6t-2 -5t-2 -3.5t-3.5 -3t-3.5 -2.5t-4.5 -2.5t-5 -3l-987 -501q-10 -5 -17 -5q-16 0 -16 27zM39 104q0 28 27 43l972 498q12 4 17 4 q20 0 20 -28v-254q0 -5 -0.5 -9.5t-0.5 -7.5t-1 -6t-1.5 -5t-2.5 -4t-3 -2.5t-3.5 -2t-3.5 -2t-4.5 -2t-5.5 -2.5l-969 -496q-18 -6 -19 -6q-22 0 -22 35v247z" />
<glyph unicode="&#x25fc;" horiz-adv-x="1013" d="M0 0v1014h1014v-1014h-1014z" />
</font>
</defs>
</svg>
