<?xml version="1.0" standalone="no"?>
<!DOCTYPE svg PUBLIC "-//W3C//DTD SVG 1.1//EN" "http://www.w3.org/Graphics/SVG/1.1/DTD/svg11.dtd" >
<svg>
<metadata>
Created by FontForge 20090914 at Fri Nov  7 19:28:19 2014
 By www-data
 
</metadata>
<defs>
<font id="Palatino-Bold-Italic" horiz-adv-x="0" >
  <font-face 
    font-family="Palatino-Bold-Italic"
    font-weight="400"
    font-style="italic"
    font-stretch="normal"
    units-per-em="1000"
    panose-1="0 0 0 0 0 0 0 0 0 0"
    ascent="800"
    descent="-200"
    x-height="413.002"
    cap-height="593"
    bbox="-48.999 -253 919 845.994"
    underline-thickness="50"
    underline-position="-55"
    unicode-range="U+0020-U+2219"
  />
<missing-glyph 
 />
    <glyph glyph-name=".notdef" 
 />
    <glyph glyph-name="space" unicode=" " horiz-adv-x="369" 
 />
    <glyph glyph-name="exclam" unicode="!" horiz-adv-x="384" 
d="M52 50c0 17.333 5.16797 30.666 15.501 39.999s21.833 14.333 34.5 15h1.5h1.5h1.5h1.5c13.333 -0.666992 25.666 -5.66699 36.999 -15s17 -22.666 17 -39.999c0 -16.667 -5.66699 -29.167 -17 -37.5s-24 -12.5 -38 -12.5s-26.667 4.16699 -38 12.5s-17 20.833 -17 37.5
v0zM151.001 191l-31 -18.999l-13 3l34 274c0.666992 6.66699 1.5 13.334 2.5 20.001s1.83301 13.334 2.5 20.001c2 13.333 4.33301 26.666 7 39.999s5.66699 26.666 9 39.999l7 6c17.333 3.33301 34.5 7.16602 51.5 11.499l50.5 13.5l13 -8l-133 -401v0z" />
    <glyph glyph-name="quotedbl" unicode="&#x22;" horiz-adv-x="357" 
d="M109 361l-17 0.000976562l-30 195c0 0.666992 -0.166992 1.66699 -0.5 3s-0.5 2.66602 -0.5 3.99902c0 0.666992 -0.166992 1.66699 -0.5 3s-0.5 2.33301 -0.5 3c0 14 3.33301 25 10 33s14 13 22 15c1.33301 0.666992 2.5 1 3.5 1h3.5h2.5h2.5
c8.66699 -1.33301 16.667 -6 24 -14s11 -19 11 -33v-15l-30 -195v0zM282 556.001l-31 -194.998h-16l-32 195c0 0.666992 -0.166992 1.5 -0.5 2.5s-0.5 2.16699 -0.5 3.5c0 0.666992 -0.166992 1.5 -0.5 2.5s-0.5 1.83301 -0.5 2.5c0 14 3.66699 25.5 11 34.5
s15.333 14.5 24 16.5h2.5h2.5h1.5h1.5c9.33301 -0.666992 18 -5.33398 26 -14.001s12 -20.334 12 -35.001v-13v0z" />
    <glyph glyph-name="numbersign" unicode="#" horiz-adv-x="776" 
d="M370 618h76l-65 -185h113l65 185h78l-66 -185h123l-26 -70h-122l-39 -112h130l-26 -69h-130l-64 -182h-78l65 182h-112l-65 -182h-78l65 182h-126l24 69h128l39 112h-136l26 70h134l67 185v0zM429 251l41 112h-115l-41 -112h115v0z" />
    <glyph glyph-name="dollar" unicode="$" horiz-adv-x="486" 
d="M152 -78l16.9971 74.999c-2 0.666992 -4 1.16699 -6 1.5s-4.33301 0.5 -7 0.5c-20.667 1.33301 -41.167 4.83301 -61.5 10.5s-38.833 14.5 -55.5 26.5l8 31.5c2.66699 10.333 5 20.5 7 30.5c2.66699 10 4.83398 20.167 6.50098 30.5s3.16699 20.833 4.5 31.5h26
c-0.666992 -6.66699 -1.16699 -13.667 -1.5 -21s-0.5 -15 -0.5 -23c0 -4 -0.166992 -8 -0.5 -12s-0.5 -8 -0.5 -12c11.333 -14.667 24.5 -26.667 39.5 -36s31.5 -15.666 49.5 -18.999l45 211c-35.333 7.33301 -66 20.833 -92 40.5s-39 49.5 -39 89.5v1
c0 0.666992 0.333008 1.66699 1 3v0v0v2v2c2 54 23.167 98.167 63.5 132.5s85.833 54.833 136.5 61.5l11 62h34l-13 -62c18.667 -1.33301 36.167 -3.33301 52.5 -6s32.5 -7.66699 48.5 -15c3.33301 -1.33301 6.83301 -3 10.5 -5l10.5 -6l-7.5 -29
c-2.33301 -9.33301 -4.5 -18.666 -6.5 -27.999c-2 -10 -3.83301 -19.667 -5.5 -29s-3.5 -19 -5.5 -29h-22c0 4.66699 -0.166992 9.66699 -0.5 15s-0.5 10.666 -0.5 15.999c-0.666992 4.66699 -1.16699 9.66699 -1.5 15s-0.833008 10.333 -1.5 15
c-9.33301 13.333 -20.666 23.833 -33.999 31.5s-27.666 12.5 -42.999 14.5l-42 -201c40.667 -6.66699 75 -19.667 103 -39s42 -49.666 42 -90.999c0 -2.66699 -0.166992 -5.83398 -0.5 -9.50098s-0.5 -7.16699 -0.5 -10.5c0 -2.66699 -0.166992 -5.16699 -0.5 -7.5
s-0.833008 -4.5 -1.5 -6.5c-9.33301 -50.667 -35 -92 -77 -124s-88 -49.667 -138 -53l-17 -76h-34v0zM330.997 140.999l0.00195312 15c0 24 -7 42.333 -21 55s-32.667 21.667 -56 27l-42 -202c33.333 0 60.666 9 81.999 27s33.666 44 36.999 78v0zM284.999 540.999
c-28 -1.33301 -52.5 -10.502 -73.5 -27.502s-34.833 -39.5 -41.5 -67.5c0 -0.666992 -0.166992 -1.66699 -0.5 -3s-0.5 -2.66602 -0.5 -3.99902v-0.5c0 -0.333008 -0.333008 -0.5 -1 -0.5c0 -1.33301 -0.166992 -2.66602 -0.5 -3.99902s-0.5 -2.33301 -0.5 -3
c0 -3.33301 0.333008 -6.83301 1 -10.5l2 -10.5c5.33301 -15.333 14.5 -29.5 27.5 -42.5s27.5 -19.5 43.5 -19.5l44 193v0z" />
    <glyph glyph-name="percent" unicode="%" horiz-adv-x="731" 
d="M131 -78l323.002 589.002c-7.33301 -2.66699 -14.833 -5.16699 -22.5 -7.5s-15.167 -4.5 -22.5 -6.5c-6 -1.33301 -12 -2.33301 -18 -3s-11.667 -1 -17 -1c-4 0 -8.16699 0.333008 -12.5 1l-12.5 2c-5.33301 1.33301 -10.5 3 -15.5 5l-14.5 6
c2 -4.66699 3.5 -9.66699 4.5 -15s1.5 -11 1.5 -17c0.666992 -2.66699 1 -5.33398 1 -8.00098v-8c0 -4.66699 -0.166992 -9.16699 -0.5 -13.5s-0.833008 -8.83301 -1.5 -13.5c-6.66699 -38.667 -24.167 -74.334 -52.5 -107.001s-59.833 -49 -94.5 -49
c-6 0 -11.833 0.5 -17.5 1.5s-11.5 2.83301 -17.5 5.5c-6 2 -11.833 4.66699 -17.5 8s-11.5 7.33301 -17.5 12c-10.667 8.66699 -18.667 18.667 -24 30s-9 23.333 -11 36c0 2.66699 -0.166992 5.66699 -0.5 9s-0.5 6.33301 -0.5 9v6c0 2 0.333008 3.66699 1 5
c0 2.66699 0.166992 5.16699 0.5 7.5s0.833008 4.83301 1.5 7.5c0 3.33301 0.333008 6.5 1 9.5s1 5.83301 1 8.5c7.33301 39.333 25.5 74 54.5 104s60.5 45 94.5 45c5.33301 0 11 -0.5 17 -1.5s12 -2.5 18 -4.5c7.33301 -2 14.666 -5.16699 21.999 -9.5
s14.333 -9.5 21 -15.5c4.66699 -4 9.66699 -7.66699 15 -11s10.666 -6.33301 15.999 -9c6.66699 -3.33301 13.5 -5.83301 20.5 -7.5s13.5 -2.5 19.5 -2.5c28.667 0 55.667 11.167 81 33.5s45.333 46.833 60 73.5h51l-384 -704h-51v0zM259.002 541.002l-12.999 0.00390625
c-15.333 0 -28.333 -6.5 -39 -19.5s-19.667 -27.167 -27 -42.5c-3.33301 -7.33301 -6.16602 -14.5 -8.49902 -21.5s-4.5 -13.167 -6.5 -18.5l-7.5 -35.5c-2.33301 -11 -3.5 -21.167 -3.5 -30.5c0 -20.667 4 -36.334 12 -47.001s17.333 -16 28 -16
c5.33301 0 10.666 1 15.999 3s11 5 17 9c11.333 8.66699 22.166 21 32.499 37s18.5 35.333 24.5 58c0.666992 3.33301 1.5 6.83301 2.5 10.5s1.83301 7.5 2.5 11.5c1.33301 5.33301 2.5 10.666 3.5 15.999s1.5 10.666 1.5 15.999c0.666992 2 1 4 1 6v6
c0 13.333 -2.5 25.666 -7.5 36.999s-14.5 18.333 -28.5 21v0zM558.003 6.00586c-6 -3.33301 -13.0059 -5.99902 -21.0059 -7.99902s-16 -3.66699 -24 -5c-3.33301 -0.666992 -6.66602 -1.16699 -9.99902 -1.5s-6.66602 -0.5 -9.99902 -0.5
c-18.667 0 -36.667 3.83301 -54 11.5s-30.666 19.834 -39.999 36.501c-4 8 -7.5 17 -10.5 27s-4.5 20.333 -4.5 31c0 6 0.333008 12 1 18s1.66699 12 3 18c4.66699 24.667 13.334 48.167 26.001 70.5s26.334 39.833 41.001 52.5c10 8 21.5 14.667 34.5 20
s25.833 8.66602 38.5 9.99902c3.33301 0 6.5 0.166992 9.5 0.5s5.83301 0.5 8.5 0.5h4.5h5.5c16.667 -1.33301 32.834 -6.16602 48.501 -14.499s27.5 -20.833 35.5 -37.5c2 -5.33301 3.66699 -11.833 5 -19.5s2.33301 -15.167 3 -22.5v-4v-4c0 -8 -0.5 -16 -1.5 -24
s-2.5 -16.333 -4.5 -25c-7.33301 -26.667 -18.5 -52.334 -33.5 -77.001s-31.833 -42.334 -50.5 -53.001v0zM574.997 254.007l-11 -0.000976562c-14.667 0 -27.5 -6.33301 -38.5 -19s-20.167 -26.667 -27.5 -42c-4 -8 -7.33301 -15.833 -10 -23.5l-7 -20.5
c-0.666992 -1.33301 -1.16699 -2.83301 -1.5 -4.5s-0.5 -3.5 -0.5 -5.5l-7.5 -31c-2.33301 -10 -3.5 -19 -3.5 -27c0 -19.333 4.16699 -33.833 12.5 -43.5s17.833 -14.5 28.5 -14.5c4.66699 0 9.66699 0.833008 15 2.5s10.666 4.5 15.999 8.5
c12 7.33301 23.5 18.833 34.5 34.5s19.5 34.834 25.5 57.501c0.666992 2.66699 1.33398 5.83398 2.00098 9.50098l2 10.5l2 14l2 14c0 4 0.166992 7.83301 0.5 11.5s0.5 7.16699 0.5 10.5c0 13.333 -2.33301 25.666 -7 36.999s-13.667 18.333 -27 21v0z" />
    <glyph glyph-name="ampersand" unicode="&#x26;" horiz-adv-x="776" 
d="M543 266c16 -6.66699 28.165 -15.9951 36.498 -27.9951s12.5 -25 12.5 -39c0 -10.667 -2 -21.667 -6 -33s-10 -22.666 -18 -33.999c-23.333 -35.333 -61.333 -67.666 -114 -96.999s-113.334 -44 -182.001 -44l-13 -1c-47.333 1.33301 -90.5 14.666 -129.5 39.999
s-58.5 64 -58.5 116l0.5 1c0.333008 0.666992 0.5 1.33398 0.5 2.00098s0.166992 1.33398 0.5 2.00098l0.5 1c1.33301 53.333 19.666 93.666 54.999 120.999s75.333 49.333 120 66c-23.333 6.66699 -41.333 18 -54 34s-19 33.333 -19 52c0 5.33301 0.5 10.833 1.5 16.5
s2.5 11.167 4.5 16.5s4.33301 10.833 7 16.5s6 11.167 10 16.5c25.333 31.333 55.333 56.666 90 75.999s71 29 109 29c8 0 16 -0.333008 24 -1s16 -2 24 -4c8 -1.33301 16 -3.33301 24 -6s16 -6 24 -10c-4 -16.667 -7.33301 -33.667 -10 -51l-8 -54h-24v13
c0 2.66699 -0.166992 5.66699 -0.5 9s-0.5 6.66602 -0.5 9.99902c0 2.66699 -0.166992 5.66699 -0.5 9s-0.5 6.33301 -0.5 9c-8.66699 8 -18.667 14.667 -30 20s-23 9 -35 11c-4 0.666992 -8 1.16699 -12 1.5s-8 0.5 -12 0.5h-2.5h-2.5
c-17.333 -0.666992 -34.166 -5.5 -50.499 -14.5s-28.166 -22.5 -35.499 -40.5l-4 -12c-1.33301 -4 -2.66602 -8.33301 -3.99902 -13c-0.666992 -3.33301 -1.16699 -6.5 -1.5 -9.5s-0.5 -6.16699 -0.5 -9.5c0 -2 0.166992 -4.16699 0.5 -6.5s0.5 -4.83301 0.5 -7.5
c1.33301 -7.33301 3.5 -14.833 6.5 -22.5s7.16699 -14.5 12.5 -20.5c6 -7.33301 13.333 -13 22 -17s18 -6.66699 28 -8c2.66699 -0.666992 5.66699 -1.16699 9 -1.5s6.33301 -0.5 9 -0.5c2 0 4.33301 0.166992 7 0.5s5.33398 0.833008 8.00098 1.5
c2 0 4.33301 0.166992 7 0.5s5 0.5 7 0.5c-2 -6.66699 -4 -13 -6 -19s-3.66699 -12 -5 -18c-0.666992 -2 -1.16699 -4 -1.5 -6s-0.5 -4 -0.5 -6h-19c-19.333 0 -38.5 -1.83301 -57.5 -5.5s-36.833 -10.834 -53.5 -21.501s-30 -25.334 -40 -44.001s-16.333 -38 -19 -58
c-0.666992 -4 -1.16699 -7.83301 -1.5 -11.5s-0.5 -7.5 -0.5 -11.5v-2.5c0 -1 0.333008 -2.16699 1 -3.5v-0.5v-1.5v-2v-2c2.66699 -42.667 20.5 -74 53.5 -94s68.833 -30 107.5 -30c4.66699 0 9.33398 0.166992 14.001 0.5s9.33398 0.833008 14.001 1.5
c14.667 1.33301 28.834 4 42.501 8s25.834 9.33301 36.501 16c16 8 29.833 19.5 41.5 34.5s20.167 30.833 25.5 47.5c2 6 3.5 12 4.5 18s1.5 12 1.5 18c0 15.333 -4.16699 29.166 -12.5 41.499s-21.5 20.166 -39.5 23.499h-4.5c-1.66699 0 -3.16699 0.333008 -4.5 1h-4.5
h-4.5c-18.667 0 -33.667 -7.16699 -45 -21.5s-19 -30.833 -23 -49.5h-21l2 14l2 14c1.33301 13.333 2.33301 27 3 41s1 28.333 1 43c18 13.333 39.5 22 64.5 26s51.167 7 78.5 9c2 0 4 0.166992 6 0.5s4 0.5 6 0.5c24.667 2 48.667 5 72 9s44.333 11.667 63 23
c5.33301 3.33301 9.66602 7.16602 12.999 11.499s5.66602 8.83301 6.99902 13.5c1.33301 2.66699 2.16602 5.16699 2.49902 7.5s0.5 4.5 0.5 6.5c0 2.66699 -0.333008 5.5 -1 8.5s-1.33398 5.83301 -2.00098 8.5c-2.66699 6 -6 11.833 -10 17.5s-9 10.167 -15 13.5l17 17
c14.667 -8.66699 26.167 -19.667 34.5 -33s12.5 -27.333 12.5 -42c0 -6.66699 -1 -13.834 -3 -21.501s-5 -15.5 -9 -23.5c-9.33301 -19.333 -23.833 -33.666 -43.5 -42.999s-40.167 -16 -61.5 -20c-8 -2 -15.667 -3.66699 -23 -5l-22 -4
c-1.33301 0 -2.5 -0.166992 -3.5 -0.5s-2.16699 -0.5 -3.5 -0.5v0z" />
    <glyph glyph-name="quotesingle" unicode="'" horiz-adv-x="301" 
d="M70 384l-20.999 13c19.333 32.667 35.666 66.5 48.999 101.5s25 70.833 35 107.5l100 26l13 -8l-176 -240v0z" />
    <glyph glyph-name="parenleft" unicode="(" horiz-adv-x="431" 
d="M272 -118c-2 -0.666992 -3.83789 -1.66797 -5.50488 -3.00098s-3.5 -2.66602 -5.5 -3.99902l-7.5 -5.5c-2.33301 -1.66699 -4.83301 -3.83398 -7.5 -6.50098l-32.5 45.5l-29.5 44.5c-21.333 34 -38.166 69.167 -50.499 105.5s-18.5 76.833 -18.5 121.5
c0 3.33301 0.166992 6.83301 0.5 10.5s0.833008 7.5 1.5 11.5v1.5v1.5c0 3.33301 0.166992 6.66602 0.5 9.99902s0.5 6.66602 0.5 9.99902c7.33301 83.333 37.333 155.833 90 217.5s110.334 116.834 173.001 165.501l3.5 -3.5c1 -1 1.83301 -2.16699 2.5 -3.5l2 -2l2 -2
c1.33301 -2 2.83301 -3.83301 4.5 -5.5l4.5 -4.5c-52 -53.333 -95.167 -116 -129.5 -188s-55.166 -145.667 -62.499 -221c-0.666992 -8 -1.16699 -16.167 -1.5 -24.5s-0.5 -16.833 -0.5 -25.5c0 -6.66699 0.166992 -13.667 0.5 -21s0.833008 -14.333 1.5 -21
c2.66699 -35.333 9.33398 -70.166 20.001 -104.499s25.334 -67.166 44.001 -98.499v-1z" />
    <glyph glyph-name="parenright" unicode=")" horiz-adv-x="337" 
d="M157 588l7.50098 5.49805l6.5 4.5c2 1.33301 4 2.83301 6 4.5s4 3.5 6 5.5l29 -41c9.33301 -13.333 18 -26.666 26 -39.999c23.333 -37.333 41.666 -75.166 54.999 -113.499s20 -80.5 20 -126.5c0 -3.33301 -0.166992 -6.66602 -0.5 -9.99902s-0.5 -7 -0.5 -11v-3v-4
c-0.666992 -2 -1 -4.16699 -1 -6.5v-7.5c-6.66699 -84.667 -36.167 -157.167 -88.5 -217.5s-109.833 -115.166 -172.5 -164.499c-1.33301 2 -2.83301 4 -4.5 6s-3.16699 3.66699 -4.5 5l-5.5 5.5l-4.5 4.5c50.667 53.333 93 115.833 127 187.5s54.667 145.167 62 220.5
c0.666992 8 1.16699 16.167 1.5 24.5s0.5 16.833 0.5 25.5c0 9.33301 -0.333008 18.666 -1 27.999l-2 28c-4 33.333 -11 66.166 -21 98.499s-23.667 62.833 -41 91.5v0z" />
    <glyph glyph-name="asterisk" unicode="*" horiz-adv-x="478" 
d="M217 425l-86.998 -93l-15 2c-2.66699 7.33301 -5.5 14.166 -8.5 20.499s-6.5 12.833 -10.5 19.5l-6 10l-6 10l7 13l110 45l-117 50v13l4 6l4 6c5.33301 6.66699 10 13.667 14 21s7.66699 15.333 11 24l14 3l89 -99l12 119l11 8c10.667 -4 21.667 -7.66699 33 -11
s22.666 -5.66602 33.999 -6.99902l8 -13l-68 -107l118 29l11 -11c0 -11.333 0.5 -22.5 1.5 -33.5s2.16699 -21.833 3.5 -32.5l-13 -12l-125 29l64 -100l-4 -13c-10.667 -4 -21.334 -8.5 -32.001 -13.5s-21 -10.833 -31 -17.5l-14 8l-12 127v0z" />
    <glyph glyph-name="plus" unicode="+" horiz-adv-x="533" 
d="M229 515h71v-222h217v-69h-217v-224h-71v224h-218v69h218v222v0z" />
    <glyph glyph-name="comma" unicode="," horiz-adv-x="310" 
d="M52 -144l-23 14.001c12 20 22.167 38.167 30.5 54.5s15.833 32.166 22.5 47.499c3.33301 8.66699 6.83301 17.167 10.5 25.5s7.16699 17.5 10.5 27.5l11 33c4 12 8 24.667 12 38l103 27l14 -10l-191 -257v0z" />
    <glyph glyph-name="hyphen" unicode="-" horiz-adv-x="395" 
d="M66 152l31 96h232l-31 -96h-232v0z" />
    <glyph glyph-name="period" unicode="." horiz-adv-x="263" 
d="M102 109c15.333 0 27.333 -5.16699 36 -15.5s14 -21.833 16 -34.5v-3v-4c0 -14 -4.33301 -26.5 -13 -37.5s-21.667 -16.5 -39 -16.5c-18 0 -31.333 5.5 -40 16.5s-13 23.5 -13 37.5v4v3c2 12.667 7.16699 24.167 15.5 34.5s20.833 15.5 37.5 15.5v0z" />
    <glyph glyph-name="slash" unicode="/" horiz-adv-x="496" 
d="M91 -78l256 710h47l-256 -710h-47v0z" />
    <glyph glyph-name="zero" unicode="0" horiz-adv-x="478" 
d="M173 -8c-48.667 4.66699 -82.166 24.8301 -100.499 60.4971s-27.5 75.5 -27.5 119.5c0 5.33301 0.166992 10.833 0.5 16.5s0.5 11.167 0.5 16.5c1.33301 18 3.5 35.667 6.5 53s6.16699 34 9.5 50c1.33301 4.66699 2.5 9.16699 3.5 13.5s1.83301 8.5 2.5 12.5
c2 8.66699 4.33301 17.5 7 26.5s5.66699 18.167 9 27.5c17.333 51.333 43.333 98.666 78 141.999s81.667 65 141 65h15c49.333 -2.66699 82.666 -21.667 99.999 -57s26 -74.666 26 -117.999c0 -5.33301 -0.166992 -10.666 -0.5 -15.999s-0.5 -10.666 -0.5 -15.999
c-1.33301 -16 -3.16602 -31.667 -5.49902 -47s-4.83301 -29.666 -7.5 -42.999c-0.666992 -4 -1.33398 -7.66699 -2.00098 -11l-2 -10l-11 -42.5c-4 -15 -9 -29.833 -15 -44.5c-18 -49.333 -44 -94.5 -78 -135.5s-78 -61.5 -132 -61.5l-17 -1v0zM144.001 95.9961
l-0.00390625 -7.49902c0 -2.33301 0.333008 -4.5 1 -6.5c0.666992 -13.333 3.83398 -25.666 9.50098 -36.999s15.167 -18.666 28.5 -21.999c0.666992 0 1.5 -0.166992 2.5 -0.5s2.16699 -0.5 3.5 -0.5c0.666992 0 1.5 -0.166992 2.5 -0.5s1.83301 -0.5 2.5 -0.5
c11.333 0 21.666 3.5 30.999 10.5s16.333 14.833 21 23.5c10 16.667 19 35.834 27 57.501s15.333 43.834 22 66.501c5.33301 19.333 10 38.333 14 57s8 35.667 12 51l2 11.5l2 11.5c3.33301 14.667 6.33301 29.667 9 45s5 30.666 7 45.999
c1.33301 11.333 2.33301 22.666 3 33.999s1 22.333 1 33v26v3.5v2.5c-1.33301 14 -5.16602 27.167 -11.499 39.5s-17.166 19.833 -32.499 22.5h-6c-10.667 0 -20.667 -3.33301 -30 -10s-16.666 -14 -21.999 -22c-9.33301 -14.667 -17.833 -32.167 -25.5 -52.5
s-14.5 -41.5 -20.5 -63.5c-5.33301 -17.333 -10 -34.5 -14 -51.5s-7.33301 -32.5 -10 -46.5c-1.33301 -6 -2.66602 -12.333 -3.99902 -19l-4 -20l-8.5 -47c-3 -16 -5.5 -32.333 -7.5 -49c-2 -12.667 -3.5 -25.334 -4.5 -38.001s-1.5 -25.334 -1.5 -38.001v-2
c0 -0.666992 0.333008 -1.33398 1 -2.00098v-3v-2v0z" />
    <glyph glyph-name="one" unicode="1" horiz-adv-x="506" 
d="M392 0l-151.999 1.99707l-151 -2l7 31h5.5c1.66699 0 3.5 -0.333008 5.5 -1h1.5h0.5c2.66699 0 5 -0.166992 7 -0.5s4 -0.5 6 -0.5c32 0 53.167 4.83301 63.5 14.5s18.5 25.5 24.5 47.5c0 1.33301 0.166992 2.83301 0.5 4.5s0.833008 3.16699 1.5 4.5l46 187l32 170
c0 1.33301 0.166992 2.83301 0.5 4.5s0.5 3.16699 0.5 4.5c0 2 0.166992 4 0.5 6s0.5 4 0.5 6v4.5c0 1.66699 -0.333008 3.16699 -1 4.5c-0.666992 4.66699 -2.33398 9 -5.00098 13s-6.66699 6 -12 6h-2c-5.33301 0 -12 -1.66699 -20 -5s-16.333 -7.33301 -25 -12
c-2 -1.33301 -3.83301 -2.33301 -5.5 -3s-3.16699 -1.66699 -4.5 -3c-8 -4 -15.5 -8 -22.5 -12s-12.5 -7 -16.5 -9l-11 40l58.5 27l63.5 28l31 13.5l30 13.5l35.5 17.5c11.667 5.66699 22.5 11.167 32.5 16.5l-76 -331l-37 -212
c-0.666992 -1.33301 -1.16699 -2.66602 -1.5 -3.99902s-0.5 -2.66602 -0.5 -3.99902c-0.666992 -2 -1.16699 -4 -1.5 -6s-0.5 -3.33301 -0.5 -4c0 -12 5.5 -19.667 16.5 -23s23.5 -5 37.5 -5h5h6c6 0 11.667 -0.166992 17 -0.5s10 -1.16602 14 -2.49902l-5 -26v0z" />
    <glyph glyph-name="two" unicode="2" horiz-adv-x="525" 
d="M55 0l7 25.9971l57.5 54.5l69.5 68.5c23.333 24.667 46.333 50.5 69 77.5s41.667 54.5 57 82.5c11.333 20 20.333 39.833 27 59.5s10 38.834 10 57.501v23c-3.33301 22 -13.666 38.333 -30.999 49s-36.333 16 -57 16h-3c-24.667 -1.33301 -45.167 -10.166 -61.5 -26.499
s-30.166 -34.166 -41.499 -53.499c-0.666992 -2 -1.66699 -3.83301 -3 -5.5s-2.33301 -3.5 -3 -5.5l-22 8l12.5 28c4.33301 9.33301 8.5 19 12.5 29l12.5 28.5c4.33301 9.66699 8.5 19.5 12.5 29.5c12.667 11.333 28.167 20.5 46.5 27.5s36.833 11.833 55.5 14.5
c5.33301 0.666992 10.333 1.16699 15 1.5s9.33398 0.5 14.001 0.5h2.5h2.5c27.333 -0.666992 53.5 -7.33398 78.5 -20.001s43.167 -32.334 54.5 -59.001c1.33301 -3.33301 2.5 -6.66602 3.5 -9.99902s1.83301 -7 2.5 -11c2 -6.66699 3.33301 -13.334 4 -20.001s1 -13 1 -19
c0 -37.333 -11.5 -73 -34.5 -107s-48.167 -65 -75.5 -93l-23 -23l-22 -21l-133 -121h35c7.33301 0 14.666 -0.166992 21.999 -0.5s14.666 -0.5 21.999 -0.5s14.833 -0.166992 22.5 -0.5s14.834 -0.5 21.501 -0.5s13.5 0.166992 20.5 0.5s13.833 0.833008 20.5 1.5
c12 0.666992 23.667 1.66699 35 3s22.333 3 33 5c11.333 2.66699 20.166 8.83398 26.499 18.501s11.166 19.834 14.499 30.501l4 14c1.33301 4.66699 2.33301 9 3 13h23c-3.33301 -14 -6.5 -28.167 -9.5 -42.5l-8.5 -42.5c-3.33301 -14 -6.5 -28.167 -9.5 -42.5
s-6.16699 -28.5 -9.5 -42.5h-39c-13.333 -0 -26.333 0.333008 -39 1h-20h-20c-19.333 0 -38.666 0.166992 -57.999 0.5s-38.666 0.5 -57.999 0.5h-42h-43c-10.667 -0.666992 -21.334 -1 -32.001 -1s-21.334 -0.333008 -32.001 -1v0z" />
    <glyph glyph-name="three" unicode="3" horiz-adv-x="525" 
d="M65 29l15.502 68.501c5 22.333 9.5 44.833 13.5 67.5l21 -3c0 -2.66699 -0.166992 -5.33398 -0.5 -8.00098s-0.5 -5 -0.5 -7c0 -2.66699 -0.166992 -5.33398 -0.5 -8.00098s-0.5 -5.33398 -0.5 -8.00098c0 -3.33301 0.166992 -6.66602 0.5 -9.99902s0.5 -7 0.5 -11
c1.33301 -12.667 4.66602 -25.167 9.99902 -37.5s13.666 -22.5 24.999 -30.5c8 -5.33301 16.5 -9.66602 25.5 -12.999s17.833 -5 26.5 -5h6c2 0 4.33301 0.333008 7 1c18.667 2.66699 36.667 10 54 22s30 26.667 38 44c6.66699 11.333 12.667 25.666 18 42.999
s8.66602 35.333 9.99902 54v6.5v6.5v4.5v4.5c-1.33301 16 -4.66602 31 -9.99902 45s-14 24.667 -26 32c-4.66699 3.33301 -10 5.83301 -16 7.5s-12 3.16699 -18 4.5c-3.33301 0 -6.83301 0.166992 -10.5 0.5s-7.16699 0.5 -10.5 0.5c-11.333 0 -22.5 -1 -33.5 -3
s-21.833 -4.33301 -32.5 -7l17 47h4.5c1.66699 0 3.5 -0.333008 5.5 -1h1h1c2 0 4 -0.166992 6 -0.5s3.66699 -0.5 5 -0.5h5.5h5.5c31.333 2 60.333 12.833 87 32.5s40 46.167 40 79.5v6.5v7.5c0 2.66699 -0.166992 5.16699 -0.5 7.5s-0.833008 4.5 -1.5 6.5
c-2.66699 16.667 -11.167 29.334 -25.5 38.001s-29.833 13.667 -46.5 15h-4.5h-4.5h-5c-22.667 -0.666992 -42 -8.5 -58 -23.5s-30.333 -31.5 -43 -49.5c0 -0.666992 -0.166992 -1.16699 -0.5 -1.5l-1.5 -1.5l-23 12c7.33301 11.333 14.166 23 20.499 35l18.5 36
c2 4 3.83301 8 5.5 12s3.5 8 5.5 12c14 8.66699 30.5 16.334 49.5 23.001s38.833 11 59.5 13c3.33301 0 6.83301 0.166992 10.5 0.5s7.16699 0.5 10.5 0.5h6h6c20.667 -1.33301 40.5 -5.83301 59.5 -13.5s34.5 -19.834 46.5 -36.501c2.66699 -4 5.16699 -8.33301 7.5 -13
s4.5 -9.33398 6.5 -14.001c2 -6 3.5 -11.667 4.5 -17s1.5 -10.666 1.5 -15.999c0 -27.333 -10.667 -52.833 -32 -76.5s-44.666 -43.5 -69.999 -59.5l-20 -11.5c-6.66699 -3.66699 -13 -6.83398 -19 -9.50098c30 -4 56.833 -12.667 80.5 -26s38.167 -36.666 43.5 -69.999
c0.666992 -2.66699 1.16699 -5.5 1.5 -8.5s0.5 -6.16699 0.5 -9.5v-7.5v-6.5c0 -56 -23.5 -103.167 -70.5 -141.5s-98.833 -60.5 -155.5 -66.5c-4.66699 -0.666992 -9.5 -1.16699 -14.5 -1.5s-10.167 -0.5 -15.5 -0.5c-22.667 0 -44.5 3.16699 -65.5 9.5
s-40.167 15.833 -57.5 28.5v0z" />
    <glyph glyph-name="four" unicode="4" horiz-adv-x="543" 
d="M133 0l6.00098 30.998c2.66699 0 5.16699 -0.166992 7.5 -0.5s4.83301 -0.5 7.5 -0.5c2 0 4.16699 -0.166992 6.5 -0.5s4.5 -0.5 6.5 -0.5c32.667 0 53.834 3.33301 63.501 10s17.167 22.334 22.5 47.001c2 8.66699 4 18.834 6 30.501s4.66699 24.834 8 39.501
c-36.667 0 -72.667 -0.166992 -108 -0.5s-70 -1.5 -104 -3.5c5.33301 33.333 17.666 65 36.999 95s40 58.667 62 86l23 27.5l21 26.5l69 88l72 87c17.333 5.33301 35 10.5 53 15.5l54 15.5l9 -8l-81 -363h25h25c8 0 16 0.166992 24 0.5s16.333 0.833008 25 1.5l-6 -18
l-6 -18c-1.33301 -6 -2.83301 -12 -4.5 -18s-3.16699 -12 -4.5 -18c-14.667 2 -29.334 3.16699 -44.001 3.5s-29.667 0.5 -45 0.5c-0.666992 -5.33301 -1.5 -10.333 -2.5 -15s-1.83301 -9.33398 -2.5 -14.001l-10 -41.5c-2.66699 -11 -4 -20.167 -4 -27.5
c0 -13.333 6.66699 -21.5 20 -24.5s38.333 -4.83301 75 -5.5l-3 -28h-303v0zM126.001 221.998h156l66 298l-222 -298v0z" />
    <glyph glyph-name="five" unicode="5" horiz-adv-x="545" 
d="M57 31c0.666992 4 1.33203 7.66504 1.99902 10.998s1.66699 7 3 11l4 21c1.33301 7.33301 3 14.333 5 21c2 10.667 3.83301 21.334 5.5 32.001s3.16699 21.334 4.5 32.001h21c1.33301 -33.333 7.66602 -63.833 18.999 -91.5s37.333 -41.5 78 -41.5
c31.333 0 56.666 11 75.999 33s33.666 46 42.999 72c2 6 3.66699 11.833 5 17.5l4 16.5c2 8.66699 3.33301 17 4 25s1 15.333 1 22c0 36 -9.33301 63.167 -28 81.5s-39.667 27.5 -63 27.5c-4 0 -7.83301 -0.333008 -11.5 -1l-11.5 -2
c-12.667 -3.33301 -25 -9.16602 -37 -17.499s-22 -18.833 -30 -31.5l-31 11c13.333 47.333 25.333 94.833 36 142.5s20.667 95.5 30 143.5l28 19l30 -2l31 -2c10 -0.666992 20 -1.16699 30 -1.5s20 -0.5 30 -0.5c11.333 0 22.833 0.166992 34.5 0.5s23.5 0.833008 35.5 1.5
c5.33301 0 11 0.166992 17 0.5s12 0.833008 18 1.5c8.66699 0 17.334 0.333008 26.001 1s17 1 25 1c-6.66699 -15.333 -13.834 -30.333 -21.501 -45s-16.167 -28.667 -25.5 -42c-19.333 -2 -39 -3.83301 -59 -5.5s-40 -3.16699 -60 -4.5
c-13.333 -0.666992 -26.666 -1.16699 -39.999 -1.5s-26.666 -0.5 -39.999 -0.5c-3.33301 0 -6.66602 0.166992 -9.99902 0.5s-6.33301 0.5 -9 0.5c-3.33301 0 -6.66602 0.166992 -9.99902 0.5s-6.66602 0.5 -9.99902 0.5l-36 -161c12 9.33301 25.667 17.166 41 23.499
s30.666 11.166 45.999 14.499l18 2c6 0.666992 12 1 18 1c38.667 0 73.5 -11.333 104.5 -34s46.5 -57.667 46.5 -105c0 -68.667 -25.667 -124.167 -77 -166.5s-108 -64.833 -170 -67.5h-5.5h-5.5c-22.667 0 -45 2.83301 -67 8.5s-42.667 14.834 -62 27.501v0z" />
    <glyph glyph-name="six" unicode="6" horiz-adv-x="543" 
d="M191 297c2 2 4 3.83008 6 5.49707s4 3.16699 6 4.5c17.333 14 35.333 26.333 54 37s40 16.334 64 17.001h5c29.333 0 55.666 -9.66699 78.999 -29s35.666 -44.666 36.999 -75.999v-19c0 -62 -22.333 -117.667 -67 -167s-98.334 -74 -161.001 -74
c-4 0 -8.16699 0.166992 -12.5 0.5s-8.5 0.5 -12.5 0.5l-12.5 2c-4.33301 0.666992 -8.5 1 -12.5 1c-36 7.33301 -61.333 25.833 -76 55.5s-22 61.5 -22 95.5c0 0.666992 0.166992 1.66699 0.5 3s0.5 2.66602 0.5 3.99902s0.166992 2.66602 0.5 3.99902s0.5 2.33301 0.5 3
c0 4 0.166992 8 0.5 12s0.833008 8 1.5 12c5.33301 61.333 20.333 120.833 45 178.5s60.334 106.834 107.001 147.501c19.333 16.667 41.833 32.334 67.5 47.001s52.167 24.334 79.5 29.001c6 1.33301 11.833 2.33301 17.5 3s11.5 1 17.5 1
c5.33301 0 10.666 -0.333008 15.999 -1s10.666 -1.66699 15.999 -3c7.33301 -1.33301 14.5 -3.33301 21.5 -6s13.833 -6 20.5 -10c-0.666992 -2 -1.5 -4.16699 -2.5 -6.5s-1.83301 -4.5 -2.5 -6.5c-4.66699 -10.667 -8.66699 -21.5 -12 -32.5
s-6.66602 -22.833 -9.99902 -35.5l-17 5l4 15c-5.33301 11.333 -13.666 20.166 -24.999 26.499s-23 10.166 -35 11.499c-2 0.666992 -4 1 -6 1h-6c-3.33301 0 -6.66602 -0.166992 -9.99902 -0.5s-6.66602 -0.833008 -9.99902 -1.5c-8 -1.33301 -16 -3.66602 -24 -6.99902
s-15 -7 -21 -11c-19.333 -14.667 -35.5 -34.667 -48.5 -60s-24.167 -51.666 -33.5 -78.999c-6 -17.333 -11.167 -34.333 -15.5 -51l-12.5 -46v0zM279 304.997l-13.001 0.000976562c-20.667 0 -37.334 -8.33301 -50.001 -25s-22.334 -35.334 -29.001 -56.001
c-2.66699 -8.66699 -4.83398 -17.167 -6.50098 -25.5s-2.83398 -16.166 -3.50098 -23.499c-1.33301 -5.33301 -2.5 -11 -3.5 -17s-1.83301 -12.333 -2.5 -19c0 -4 -0.166992 -7.83301 -0.5 -11.5s-0.5 -7.16699 -0.5 -10.5v-2v-2
c0.666992 -19.333 4.83398 -37.666 12.501 -54.999s21.834 -28 42.501 -32c1.33301 0 2.5 -0.166992 3.5 -0.5s2.16699 -0.5 3.5 -0.5h0.5h0.5c2 -0.666992 3.66699 -1.16699 5 -1.5s2.33301 -0.5 3 -0.5c20.667 0 37.834 8.66699 51.501 26s23.834 36.333 30.501 57
c2.66699 7.33301 4.83398 14.666 6.50098 21.999s3.16699 14.333 4.5 21c0 3.33301 0.333008 6.83301 1 10.5s1 7.16699 1 10.5l2 16c0.666992 5.33301 1 11 1 17v7.5v6.5c-1.33301 20.667 -6.33301 39.667 -15 57s-23.667 27.666 -45 30.999v0z" />
    <glyph glyph-name="seven" unicode="7" horiz-adv-x="553" 
d="M79 0l-4 9.99902l16.5 24.5c5.66699 8.33301 11.5 16.5 17.5 24.5l12 18l12 18l38.5 56.5l39.5 55.5l197 281h-168h-19.5h-17.5c-27.333 -0.666992 -47.166 -3 -59.499 -7s-23.166 -17 -32.499 -39c-2.66699 -6 -5.33398 -13 -8.00098 -21l-9 -27h-21
c9.33301 32.667 17.833 65.167 25.5 97.5s14.834 64.5 21.501 96.5c10 -0.666992 20.167 -1.16699 30.5 -1.5s20.5 -0.833008 30.5 -1.5c8 0 15.833 -0.333008 23.5 -1s15.5 -1 23.5 -1l53.5 -2c17.667 -0.666992 35.5 -1 53.5 -1c11.333 0 22.666 0.166992 33.999 0.5
s22.666 0.5 33.999 0.5c10 0.666992 20 1.16699 30 1.5s19.667 0.5 29 0.5c7.33301 0.666992 14.5 1.16699 21.5 1.5s13.833 0.5 20.5 0.5l-5 -36c-61.333 -87.333 -118.833 -177.166 -172.5 -269.499l-156.5 -279.5h-91v0z" />
    <glyph glyph-name="eight" unicode="8" horiz-adv-x="545" 
d="M216 290c-20.667 12 -37.0029 25.4941 -49.0029 40.4941s-20.333 30.167 -25 45.5c-1.33301 5.33301 -2.33301 10.333 -3 15s-1 9.33398 -1 14.001v6c0 2 0.333008 4 1 6c4 42 26.5 80.833 67.5 116.5s86.833 55.5 137.5 59.5h13h7.5c2.33301 0 4.83301 -0.333008 7.5 -1
c28 -2 53.5 -11 76.5 -27s34.5 -39 34.5 -69v-10c-2.66699 -30.667 -15 -56.834 -37 -78.501s-45.667 -41.167 -71 -58.5c-4.66699 -3.33301 -9.66699 -6.66602 -15 -9.99902s-10.333 -6.66602 -15 -9.99902c27.333 -15.333 49.833 -33.5 67.5 -54.5
s26.5 -46.167 26.5 -75.5c0 -4.66699 -0.166992 -9.66699 -0.5 -15s-1.16602 -11 -2.49902 -17c0 -1.33301 -0.166992 -2.66602 -0.5 -3.99902s-0.833008 -2.66602 -1.5 -3.99902c-12.667 -45.333 -39.834 -83.166 -81.501 -113.499s-86.5 -47.5 -134.5 -51.5
c-4 0 -8 -0.166992 -12 -0.5s-8 -0.5 -12 -0.5l-9 -1c-37.333 2 -67.166 13.5 -89.499 34.5s-33.5 47.167 -33.5 78.5c0 4 0.333008 8.5 1 13.5s1.66699 9.83301 3 14.5c0.666992 3.33301 1.33398 6.5 2.00098 9.5s1.33398 5.83301 2.00098 8.5c8 28 23.333 51.833 46 71.5
s46.667 36.834 72 51.501l14 8l14 8v0zM140.997 129.994l0.000976562 -2.00195c0 -0.666992 -0.333008 -1.33398 -1 -2.00098v0v0c0 -1.33301 -0.166992 -2.33301 -0.5 -3l-0.5 -1c0 -26 8.16699 -48.5 24.5 -67.5s39.166 -28.5 68.499 -28.5c31.333 0 58.333 11.333 81 34
s34 50.334 34 83.001c0 26.667 -8.66699 49 -26 67s-36.666 34 -57.999 48l-11.5 8l-11.5 8l-6.5 -4.5c-2.33301 -1.66699 -4.5 -3.5 -6.5 -5.5c-22.667 -17.333 -42.334 -36.166 -59.001 -56.499s-25.667 -46.166 -27 -77.499v0zM323.998 558.992
c-26.667 -1.33301 -49.332 -10.6631 -67.999 -27.9961s-29.334 -39.666 -32.001 -66.999c0 -0.666992 -0.166992 -1.33398 -0.5 -2.00098l-0.5 -1c0 -0.666992 -0.166992 -1.33398 -0.5 -2.00098s-0.5 -1.33398 -0.5 -2.00098c0 -24 8.16699 -44 24.5 -60
s34.166 -30.667 53.499 -44c3.33301 -1.33301 6.5 -3 9.5 -5s5.83301 -4 8.5 -6c21.333 15.333 41 33.166 59 53.499s28.333 44.166 31 71.499v9c0 24 -7.66699 43.833 -23 59.5s-35.666 23.5 -60.999 23.5v0z" />
    <glyph glyph-name="nine" unicode="9" horiz-adv-x="535" 
d="M75 3c-0.666992 8 -1.66406 15.665 -2.99707 22.998s-2.33301 14.666 -3 21.999c-0.666992 1.33301 -1.16699 2.66602 -1.5 3.99902s-0.5 3 -0.5 5c-0.666992 5.33301 -1.5 11 -2.5 17s-1.83301 12 -2.5 18l16 7c9.33301 -20.667 22.666 -37.667 39.999 -51
s37 -20 59 -20c2 0 4.16699 0.166992 6.5 0.5s4.83301 0.833008 7.5 1.5h1h1c2 0.666992 4 1.16699 6 1.5s3.66699 0.5 5 0.5c28 8 51.167 26.5 69.5 55.5s33.166 59.833 44.499 92.5c6 19.333 11.333 38.166 16 56.499s8.33398 34.5 11.001 48.5l-10 -8l-10 -8
c-16.667 -12.667 -34.167 -24.167 -52.5 -34.5s-37.833 -15.5 -58.5 -15.5l-3 1c-40.667 0 -69.834 13.833 -87.501 41.5s-26.5 58.834 -26.5 93.501c0 5.33301 0.166992 10.5 0.5 15.5s0.833008 10.167 1.5 15.5c2.66699 20 7.66699 39.333 15 58
s15.666 34.334 24.999 47.001c22 28.667 50 52.667 84 72s69.333 29.333 106 30h6c43.333 0 76.833 -13.667 100.5 -41s36.167 -62.333 37.5 -105v-21c0 -6 -0.166992 -12.167 -0.5 -18.5s-0.833008 -12.5 -1.5 -18.5c-3.33301 -43.333 -12.5 -86.166 -27.5 -128.499
s-33.833 -81.166 -56.5 -116.499c-27.333 -42 -62.333 -77.667 -105 -107s-88.667 -44 -138 -44c-5.33301 0 -11 0.333008 -17 1s-11.667 1.33398 -17 2.00098c-6 1.33301 -12 2.5 -18 3.5s-11.667 2.16699 -17 3.5v0zM313.003 557.998l-12.002 -0.00195312
c-26 0 -46.333 -10.333 -61 -31s-25.334 -43.667 -32.001 -69c-2.66699 -7.33301 -4.66699 -14.833 -6 -22.5s-2.33301 -15.167 -3 -22.5v-6.5v-7.5c-0.666992 -1.33301 -1 -2.5 -1 -3.5v-3.5v-4v-4c0 -3.33301 0.166992 -6.83301 0.5 -10.5s0.5 -7.16699 0.5 -10.5
c2 -20.667 8.16699 -39.667 18.5 -57s26.5 -26 48.5 -26l5 2c28 0.666992 48.333 11.334 61 32.001s21.334 43 26.001 67l4 23.5c1.33301 7.66699 2.33301 14.834 3 21.501v9.5c0 3 0.333008 6.16699 1 9.5v3.5v3.5v6.5v6.5v8v8c-1.33301 18 -5.66602 34.833 -12.999 50.5
s-20.666 24.5 -39.999 26.5v0z" />
    <glyph glyph-name="colon" unicode=":" horiz-adv-x="292" 
d="M117 8c-17.333 0 -30.667 5.50098 -40 16.501s-14.333 22.833 -15 35.5v1.5v1.5v4v3c2 13.333 7.5 25.333 16.5 36s21.833 16 38.5 16c15.333 0 27.333 -5.16699 36 -15.5s14 -21.833 16 -34.5v-3v-4c0 -14.667 -4.33301 -27.834 -13 -39.501s-21.667 -17.5 -39 -17.5v0z
M117.999 323.001c0 16.667 5 29.668 15 39.001s21.333 14.666 34 15.999h2.5h2.5h4h3c12.667 -2 24.167 -7.66699 34.5 -17s15.5 -22 15.5 -38c0 -18 -5.83301 -31.5 -17.5 -40.5s-24.5 -13.5 -38.5 -13.5h-1.5h-1.5c-12.667 0.666992 -24.5 5.5 -35.5 14.5
s-16.5 22.167 -16.5 39.5v0z" />
    <glyph glyph-name="semicolon" unicode=";" horiz-adv-x="386" 
d="M282 113l-190 -256.999l-24 14c12 20.667 22.333 39.167 31 55.5s16.334 32.166 23.001 47.499l10 24c3.33301 8 6.66602 16.667 9.99902 26c4 10.667 8 22 12 34l13 39l104 27l11 -10v0zM258 381.001c16.667 0 29.334 -5.66699 38.001 -17
s13.334 -23.666 14.001 -36.999v-1.5v-1.5v-1.5v-1.5c-0.666992 -12.667 -5.33398 -24.5 -14.001 -35.5s-21.334 -16.5 -38.001 -16.5s-29.667 5.5 -39 16.5s-14.333 22.833 -15 35.5v1.5v1.5v1.5v1.5c0.666992 13.333 5.66699 25.666 15 36.999s22.333 17 39 17v0z" />
    <glyph glyph-name="less" unicode="&#x3c;" horiz-adv-x="533" 
d="M512 498v-78l-394 -162l394 -161v-78l-497 206v68l497 205v0z" />
    <glyph glyph-name="equal" unicode="=" horiz-adv-x="517" 
d="M3 136v70h506v-70h-506v0zM3 381h506v-71h-506v71v0z" />
    <glyph glyph-name="greater" unicode="&#x3e;" horiz-adv-x="533" 
d="M15 498l497 -205v-68l-497 -206v78l395 161l-395 162v78v0z" />
    <glyph glyph-name="question" unicode="?" horiz-adv-x="433" 
d="M109 120c16.667 0 29.167 -5.66699 37.5 -17s12.833 -23.666 13.5 -36.999v-1.5v-1.5c0 -14.667 -4.16699 -27.834 -12.5 -39.501s-21.166 -17.5 -38.499 -17.5c-16.667 0 -29.834 5.83301 -39.501 17.5s-14.5 24.5 -14.5 38.5v4.5c0 1.66699 0.333008 3.16699 1 4.5
c2 12.667 7.5 24 16.5 34s21.167 15 36.5 15v0zM141 165c-4 3.33301 -7.66895 6.66992 -11.002 10.0029s-6.33301 6.66602 -9 9.99902c-5.33301 6.66699 -9.33301 13.5 -12 20.5s-4 13.5 -4 19.5c0 7.33301 1.16699 14.666 3.5 21.999s5.83301 14.666 10.5 21.999
c6.66699 12 15.334 24 26.001 36s21.667 23.667 33 35l43 45.5c13.333 14.333 22.333 27.833 27 40.5c2.66699 6.66699 4.33398 13.167 5.00098 19.5s1 12.5 1 18.5c0 19.333 -6 36 -18 50s-29.667 21 -53 21c-27.333 0 -48.166 -8.5 -62.499 -25.5
s-26.833 -36.167 -37.5 -57.5l-25 7c8.66699 17.333 16.167 34.833 22.5 52.5s11.833 35.834 16.5 54.501c10.667 6 21.5 11.333 32.5 16s22.167 8.33398 33.5 11.001c9.33301 2 18.5 3.66699 27.5 5s17.833 2 26.5 2c36.667 0 69.167 -9.83301 97.5 -29.5
s42.5 -46.167 42.5 -79.5c0 -6.66699 -0.833008 -13.834 -2.5 -21.501s-3.83398 -15.5 -6.50098 -23.5c-7.33301 -20 -19.5 -37.5 -36.5 -52.5s-35.167 -29.167 -54.5 -42.5c-2.66699 -2 -5.5 -4 -8.5 -6s-5.83301 -4 -8.5 -6c-14.667 -10.667 -28.5 -21.334 -41.5 -32.001
s-22.833 -22.667 -29.5 -36c-0.666992 -2 -1.5 -4.16699 -2.5 -6.5s-1.83301 -4.83301 -2.5 -7.5s-1.16699 -5.16699 -1.5 -7.5s-0.5 -4.5 -0.5 -6.5c0 -10.667 3 -20.5 9 -29.5s13.667 -16.5 23 -22.5l-53 -26v0z" />
    <glyph glyph-name="at" unicode="@" horiz-adv-x="880" 
d="M705 88c-8.66699 -6.66699 -17.9961 -12.6621 -27.9961 -17.9951s-20 -9.66602 -30 -12.999c-7.33301 -2 -14.5 -3.66699 -21.5 -5s-13.833 -2 -20.5 -2c-22 0 -41.667 7 -59 21s-27.666 36.333 -30.999 67c-14.667 -23.333 -32.334 -43.833 -53.001 -61.5
s-46 -26.5 -76 -26.5c-0.666992 0 -1.5 0.166992 -2.5 0.5s-1.83301 0.5 -2.5 0.5c-1.33301 0 -2.33301 0.166992 -3 0.5s-1.33398 0.5 -2.00098 0.5c-36.667 2.66699 -64.167 18 -82.5 46s-28.166 58.667 -29.499 92v2.5v3.5c0 1.33301 0.166992 2.83301 0.5 4.5
s0.5 3.16699 0.5 4.5s0.166992 2.83301 0.5 4.5s0.5 3.16699 0.5 4.5c4 45.333 21 86.166 51 122.499s62.333 62.166 97 77.499c10.667 4.66699 21.167 8.16699 31.5 10.5s20.166 3.5 29.499 3.5c21.333 0 40.666 -6.33301 57.999 -19s28.666 -33 33.999 -61l23 72h73
l-73 -261c0 -1.33301 -0.166992 -2.83301 -0.5 -4.5s-0.833008 -3.16699 -1.5 -4.5c-1.33301 -6 -2.5 -11.667 -3.5 -17s-1.5 -10.333 -1.5 -15c0 -12.667 3.16699 -22.834 9.5 -30.501s14.833 -11.5 25.5 -11.5c7.33301 0 16 1.83301 26 5.5s20.667 8.83398 32 15.501
c35.333 21.333 62.833 52.666 82.5 93.999s29.5 84.666 29.5 129.999v8.5v8.5c-3.33301 56 -23.666 108.5 -60.999 157.5s-95 78.833 -173 89.5c-3.33301 0.666992 -6.83301 1 -10.5 1s-7.16699 0.333008 -10.5 1c-7.33301 0 -14.5 0.166992 -21.5 0.5
s-13.833 0.5 -20.5 0.5c-104 0 -186.667 -34.667 -248 -104s-96.333 -145.333 -105 -228c-0.666992 -6.66699 -1.16699 -13.167 -1.5 -19.5s-0.5 -12.833 -0.5 -19.5v-4v-4c1.33301 -42 10.5 -83 27.5 -123s41.833 -73.333 74.5 -100s68 -46 106 -58s76.333 -18 115 -18
c10 0 20.167 0.333008 30.5 1s20.833 2 31.5 4c37.333 5.33301 74.333 15.166 111 29.499s70.667 32.166 102 53.499l15 -21c-33.333 -23.333 -70.666 -42.833 -111.999 -58.5s-83.333 -26.167 -126 -31.5c-10.667 -1.33301 -21.167 -2.33301 -31.5 -3s-20.5 -1 -30.5 -1h-6
h-6c-46.667 1.33301 -92.334 9.83301 -137.001 25.5s-84.667 40.167 -120 73.5c-34.667 30.667 -60.834 67.167 -78.501 109.5s-26.5 85.833 -26.5 130.5v13.5c0 4.33301 0.333008 8.5 1 12.5c3.33301 45.333 14.666 89.5 33.999 132.5s45.333 80.833 78 113.5
c40.667 40 87.167 70 139.5 90s105.833 30 160.5 30c6.66699 0 13.334 -0.166992 20.001 -0.5s13.667 -0.833008 21 -1.5l20 -2l20 -2c73.333 -12.667 132.5 -44.5 177.5 -95.5s67.5 -113.167 67.5 -186.5c0 -5.33301 -0.166992 -10.5 -0.5 -15.5s-0.5 -9.83301 -0.5 -14.5
c-4 -40 -14.833 -78.5 -32.5 -115.5s-42.834 -67.833 -75.501 -92.5v0zM476.004 404.005c-22 -3.33301 -41.498 -16.502 -58.498 -39.502s-30.833 -48.167 -41.5 -75.5c-6.66699 -15.333 -12.167 -30.5 -16.5 -45.5s-7.5 -28.167 -9.5 -39.5
c-0.666992 -4 -1.5 -8.66699 -2.5 -14s-1.83301 -10.666 -2.5 -15.999c0 -3.33301 -0.166992 -6.66602 -0.5 -9.99902s-0.5 -6.66602 -0.5 -9.99902c0 -11.333 1.66699 -22.333 5 -33s8.66602 -20.334 15.999 -29.001c4.66699 -4.66699 10 -8.5 16 -11.5
s12.333 -4.5 19 -4.5c2 0 4.16699 0.166992 6.5 0.5s4.83301 0.833008 7.5 1.5s5.16699 1.5 7.5 2.5s4.5 1.83301 6.5 2.5c0.666992 0 1.16699 0.166992 1.5 0.5s0.833008 0.5 1.5 0.5c19.333 10.667 38.166 31 56.499 61s32.166 62 41.499 96
c4.66699 14.667 8.16699 29 10.5 43s3.5 27.333 3.5 40c0 22 -4.66699 40.833 -14 56.5s-23.666 23.5 -42.999 23.5h-10v0z" />
    <glyph glyph-name="A" unicode="A" horiz-adv-x="637" 
d="M3 0l6.99805 31.0029c15.333 0 28.333 2 39 6s20.334 13.333 29.001 28l332 531h10h10c2.66699 -0.666992 5.66699 -1 9 -1h10h10c3.33301 0 6.66602 0.333008 9.99902 1h10h10l52 -479c0.666992 -4.66699 1.16699 -9.33398 1.5 -14.001s0.833008 -8.66699 1.5 -12
c2.66699 -26.667 7.83398 -43.167 15.501 -49.5s27.5 -9.83301 59.5 -10.5v-31c-10.667 0.666992 -21.5 1.16699 -32.5 1.5s-21.833 0.5 -32.5 0.5c-11.333 0.666992 -22.333 1 -33 1h-33c-22 0 -44 -0.166992 -66 -0.5s-43.667 -1.16602 -65 -2.49902l6 31h5h5
c22.667 0 38.334 1.5 47.001 4.5s13 14.5 13 34.5v24l-13 141h-188l-76 -135c-6.66699 -10.667 -11.834 -20.334 -15.501 -29.001s-5.5 -15.667 -5.5 -21c0 -8.66699 5.33301 -13.834 16 -15.501s26 -2.83398 46 -3.50098h3.5h3.5v-31c-5.33301 0.666992 -11 1 -17 1h-17
c-11.333 0.666992 -22.666 1 -33.999 1h-34h-32.5c-11 0 -22.167 -0.333008 -33.5 -1h-16.5c-5.66699 0 -11.167 -0.333008 -16.5 -1v0zM393.998 498.003l-141 -226h164l-23 226v0z" />
    <glyph glyph-name="B" unicode="B" horiz-adv-x="609" 
d="M41 0l6.00195 30.999c25.333 0.666992 41.833 4.16699 49.5 10.5s13.5 18.166 17.5 35.499c1.33301 4.66699 2.66602 10 3.99902 16s2.66602 12.667 3.99902 20l76 365c2.66699 13.333 4.66699 24.5 6 33.5s2 16.167 2 21.5c0 14 -5.5 22.333 -16.5 25s-31.5 4 -61.5 4
l5 31c6.66699 0 13.667 -0.333008 21 -1s14.666 -1 21.999 -1c1.33301 -0.666992 2.5 -1 3.5 -1h3.5c8.66699 -0.666992 17.167 -1.16699 25.5 -1.5s16.5 -0.5 24.5 -0.5c7.33301 0 14.5 0.166992 21.5 0.5s14.167 0.833008 21.5 1.5
c6.66699 0.666992 13.667 1.16699 21 1.5s14.333 0.5 21 0.5h17c6 0 12 0.333008 18 1h14h14h5.5h5.5h18.5c6.33301 0 12.5 -0.333008 18.5 -1c25.333 -1.33301 50 -4.66602 74 -9.99902s43.333 -14.666 58 -27.999c8.66699 -7.33301 15.5 -16.5 20.5 -27.5
s8.16699 -22.167 9.5 -33.5c0.666992 -2.66699 1 -5 1 -7v-6c0 -3.33301 -0.166992 -6.66602 -0.5 -9.99902s-0.833008 -6.66602 -1.5 -9.99902c-2 -12.667 -5.5 -24.834 -10.5 -36.501s-11.167 -22.167 -18.5 -31.5c-14 -18 -31 -32 -51 -42s-40.333 -17.667 -61 -23
c-6 -2 -11.833 -3.5 -17.5 -4.5s-11.167 -2.16699 -16.5 -3.5l14 -2l14 -2c20.667 -3.33301 40.334 -9.5 59.001 -18.5s33.334 -23.5 44.001 -43.5c2 -4.66699 4 -9.83398 6 -15.501s3.33301 -11.5 4 -17.5c1.33301 -4.66699 2.16602 -9.33398 2.49902 -14.001
s0.5 -9 0.5 -13c0 -3.33301 -0.166992 -6.83301 -0.5 -10.5s-0.833008 -7.5 -1.5 -11.5c-1.33301 -12 -4.33301 -23.833 -9 -35.5s-10 -22.167 -16 -31.5c-23.333 -33.333 -53 -57.666 -89 -72.999s-73 -25 -111 -29c-8 -0.666992 -15.833 -1.16699 -23.5 -1.5
s-15.5 -0.5 -23.5 -0.5c-13.333 0 -26.833 0.166992 -40.5 0.5s-27.167 0.5 -40.5 0.5c-14 0 -27.833 0.166992 -41.5 0.5s-27.167 0.5 -40.5 0.5c-6 0 -12 -0.166992 -18 -0.5s-12 -0.5 -18 -0.5h-2.5h-2.5c-6.66699 0 -13.5 -0.166992 -20.5 -0.5s-13.5 -0.5 -19.5 -0.5v0
zM217.002 51.999c3.33301 -0.666992 6.83105 -1.5 10.498 -2.5s7.16699 -1.83301 10.5 -2.5c10.667 -2.66699 21.167 -4.66699 31.5 -6s20.5 -2 30.5 -2c38 0 70.833 11 98.5 33s42.834 58.667 45.501 110v9c0 44 -14.167 72 -42.5 84s-60.166 18 -95.499 18h-40l-49 -241v0
zM480 464.999l0.000976562 7.99902c0 32.667 -10.833 54.334 -32.5 65.001s-45.5 16 -71.5 16h-1.5h-1.5h-12.5h-13.5c-4.66699 -0.666992 -9.16699 -1 -13.5 -1h-12.5l-47 -222c1.33301 0 2.66602 -0.166992 3.99902 -0.5s2.33301 -0.5 3 -0.5
c1.33301 0 2.66602 -0.166992 3.99902 -0.5s2.33301 -0.5 3 -0.5h1.5h1.5c46 0 88.333 8.16699 127 24.5s59.334 53.5 62.001 111.5v0z" />
    <glyph glyph-name="C" unicode="C" horiz-adv-x="580" 
d="M506 110l-12.001 -39.002c-31.333 -18.667 -65 -35.167 -101 -49.5s-72 -23.166 -108 -26.499c-6 -0.666992 -11.833 -1.16699 -17.5 -1.5s-11.167 -0.5 -16.5 -0.5c-4.66699 0 -9.33398 0.166992 -14.001 0.5s-9 0.5 -13 0.5l-14 2l-14 2
c-62.667 7.33301 -106.667 33 -132 77s-38 92.333 -38 145c0 6.66699 0.333008 13.5 1 20.5l2 21.5c0.666992 6 1.5 12.333 2.5 19s2.16699 13 3.5 19c0 2.66699 0.166992 5 0.5 7s0.833008 4 1.5 6c18 92.667 62.667 164.667 134 216s149.333 77 234 77
c10.667 0 21.667 -0.5 33 -1.5s22.666 -2.16699 33.999 -3.5c15.333 -2.66699 30.833 -6.16699 46.5 -10.5s30.834 -9.5 45.501 -15.5c-7.33301 -24 -13.833 -48.667 -19.5 -74l-16.5 -76l-27 1c0 4 0.166992 8.16699 0.5 12.5s0.5 8.5 0.5 12.5v24.5v25.5
c-14.667 18 -32.334 32 -53.001 42s-42.334 16.667 -65.001 20c-4 0 -8 0.166992 -12 0.5s-8 0.5 -12 0.5c-61.333 0 -107.166 -21.667 -137.499 -65s-51.5 -91 -63.5 -143l-4 -19.5c-1.33301 -6.33301 -2.33301 -12.5 -3 -18.5c-0.666992 -4 -1.16699 -8 -1.5 -12
s-0.833008 -8 -1.5 -12c-0.666992 -4.66699 -1.16699 -9.5 -1.5 -14.5s-0.833008 -10.167 -1.5 -15.5c-0.666992 -6 -1.16699 -12 -1.5 -18s-0.5 -11.667 -0.5 -17c0 -34.667 6.16699 -67.667 18.5 -99s34.833 -54.666 67.5 -69.999c8 -3.33301 16.167 -6.5 24.5 -9.5
s16.833 -5.16699 25.5 -6.5c4 -0.666992 8.16699 -1.16699 12.5 -1.5s8.5 -0.5 12.5 -0.5c6.66699 0 13.5 0.333008 20.5 1s14.167 1.66699 21.5 3c25.333 5.33301 50.333 14 75 26s47.334 24.667 68.001 38c0.666992 0.666992 1.33398 1.16699 2.00098 1.5
s1.33398 0.833008 2.00098 1.5l12 -3v0z" />
    <glyph glyph-name="D" unicode="D" horiz-adv-x="684" 
d="M37 0l4.00293 28.998c30 0 49 9.83301 57 29.5s13.667 42.167 17 67.5c0.666992 2 1 4 1 6s0.333008 4 1 6c0 1.33301 0.166992 2.66602 0.5 3.99902s0.5 2.66602 0.5 3.99902l65 303c3.33301 19.333 6.33301 35.666 9 48.999s4 24 4 32c0 14.667 -5.66699 23.667 -17 27
s-32.666 5 -63.999 5l7 31h49.5h49.5c16.667 -0.666992 33.334 -1 50.001 -1h50h24.5c8.33301 0 16.833 0.333008 25.5 1h25.5h24.5c7.33301 0 14.666 -0.166992 21.999 -0.5s14.666 -0.5 21.999 -0.5c36 -2.66699 70.667 -10.167 104 -22.5s60.333 -34.166 81 -65.499
c9.33301 -15.333 16.666 -32 21.999 -50s9 -36 11 -54c0 -4.66699 0.166992 -9.16699 0.5 -13.5s0.5 -8.83301 0.5 -13.5c0 -3.33301 -0.166992 -6.66602 -0.5 -9.99902s-0.5 -6.33301 -0.5 -9c0 -3.33301 -0.166992 -6.66602 -0.5 -9.99902s-0.5 -6.66602 -0.5 -9.99902
c-12.667 -88.667 -50 -166.167 -112 -232.5s-140.667 -100.166 -236 -101.499c-14 0 -28.333 0.166992 -43 0.5s-29.334 0.5 -44.001 0.5s-29.334 0.166992 -44.001 0.5s-29 0.5 -43 0.5c-10 0 -20.167 -0.166992 -30.5 -0.5s-20.5 -0.5 -30.5 -0.5h-10.5h-10.5
c-6.66699 -0.666992 -13.5 -1 -20.5 -1h-20.5v0zM314.003 547.998l-104.997 -494.998c7.33301 -0.666992 14.833 -1.5 22.5 -2.5s15.5 -2.16699 23.5 -3.5l10.5 -2c3.66699 -0.666992 7.5 -1 11.5 -1c9.33301 -1.33301 18.666 -2.5 27.999 -3.5s18.333 -1.5 27 -1.5
c4.66699 0 9.16699 0.166992 13.5 0.5s8.5 0.833008 12.5 1.5c9.33301 0.666992 18.333 2 27 4s17 4.33301 25 7c34 13.333 61.667 37.166 83 71.499s38 70.833 50 109.5c5.33301 17.333 9.66602 34.5 12.999 51.5s6 32.833 8 47.5c0.666992 5.33301 1.16699 11 1.5 17
s0.833008 12.333 1.5 19v9v9v10c0 3.33301 -0.333008 6.66602 -1 9.99902c-1.33301 24.667 -6.83301 48.5 -16.5 71.5s-25.834 41.167 -48.501 54.5c-10 5.33301 -21.833 9.33301 -35.5 12s-27.5 4.66699 -41.5 6c-5.33301 0 -10.5 0.166992 -15.5 0.5
s-9.83301 0.5 -14.5 0.5h-6h-6c-5.33301 0 -10.5 -0.166992 -15.5 -0.5s-9.83301 -0.5 -14.5 -0.5c-6.66699 -0.666992 -13.167 -1.16699 -19.5 -1.5s-12.5 -0.5 -18.5 -0.5v0z" />
    <glyph glyph-name="E" unicode="E" horiz-adv-x="572" 
d="M32 0l3.99805 29.0029h1.5h1.5c22.667 3.33301 37.667 7.66602 45 12.999s13 17.333 17 36l2 10.5l2 11.5l86 391l3.5 24.5c1 7 1.5 12.833 1.5 17.5c0 14.667 -5.16699 23.5 -15.5 26.5s-28.166 5.16699 -53.499 6.5h-4.5h-5.5l6 27c10 0 19.833 -0.333008 29.5 -1
s19.5 -1 29.5 -1l38.5 -2c13 -0.666992 25.833 -1 38.5 -1c13.333 0 26.666 0.166992 39.999 0.5s26.666 0.5 39.999 0.5c7.33301 0 14.333 0.166992 21 0.5s13.334 0.5 20.001 0.5c20 0.666992 40 1.16699 60 1.5s39.667 0.5 59 0.5h68
c-1.33301 -4.66699 -2.5 -9.33398 -3.5 -14.001s-2.16699 -9.33398 -3.5 -14.001c-4.66699 -18.667 -9 -37.5 -13 -56.5s-7 -37.833 -9 -56.5h-31c0.666992 4.66699 1.16699 9.66699 1.5 15s0.5 11 0.5 17v8v8v34c-12 5.33301 -25.833 9 -41.5 11s-31.5 3.33301 -47.5 4
c-4.66699 0.666992 -9.33398 1 -14.001 1h-14h-14h-14c-9.33301 -0.666992 -18.5 -1.16699 -27.5 -1.5s-17.5 -0.833008 -25.5 -1.5l-47 -214h13.5h13.5c4.66699 -0.666992 9.16699 -1 13.5 -1h13.5c12 0 24.333 0.166992 37 0.5s25.334 0.833008 38.001 1.5h7.5h7.5
c10.667 0.666992 21 1.16699 31 1.5s19.667 0.5 29 0.5l-13 -51c-25.333 1.33301 -51.333 2.5 -78 3.5s-53.667 1.83301 -81 2.5h-20h-20l-50 -240c9.33301 -0.666992 18.833 -1.5 28.5 -2.5s19.5 -1.83301 29.5 -2.5c6.66699 0 13.167 -0.166992 19.5 -0.5
s12.833 -0.5 19.5 -0.5c8 0 16.333 0.166992 25 0.5s17 0.833008 25 1.5c14 1.33301 28 3.16602 42 5.49902s27.667 5.16602 41 8.49902c8 14.667 15 29.334 21 44.001s11.333 30.334 16 47.001h31l-13.5 -56.5c-4.33301 -18.333 -8.16602 -36.5 -11.499 -54.5
c-0.666992 -6.66699 -1.5 -13 -2.5 -19s-2.16699 -12 -3.5 -18c-6 0 -12 -0.166992 -18 -0.5s-12 -0.5 -18 -0.5c-4.66699 0 -9.16699 -0.166992 -13.5 -0.5s-8.83301 -0.5 -13.5 -0.5c-8 -0.666992 -15.833 -1 -23.5 -1h-23.5h-35.5c-11.667 -0 -23.5 0.333008 -35.5 1
h-23.5h-23.5c-19.333 0.666992 -38.666 1.16699 -57.999 1.5s-38.333 0.5 -57 0.5h-24.5c-8.33301 0 -16.5 -0.333008 -24.5 -1c-8 0 -16.167 -0.166992 -24.5 -0.5s-16.5 -0.833008 -24.5 -1.5v0z" />
    <glyph glyph-name="F" unicode="F" horiz-adv-x="515" 
d="M32 0l5.00293 31.998c30.667 1.33301 50.667 4.66602 60 9.99902s16.333 18 21 38c2 5.33301 3.66699 11.5 5 18.5s3 14.833 5 23.5l68 324c0.666992 2 1.66699 5.5 3 10.5s2.66602 10.833 3.99902 17.5c0.666992 4 1.5 8 2.5 12s1.83301 8 2.5 12l2 16.5
c0.666992 5.66699 1 10.834 1 15.501v2v2c-0.666992 4 -1.33398 7.33301 -2.00098 10s-1.33398 4.33398 -2.00098 5.00098c-2.66699 4.66699 -7.83398 7.83398 -15.501 9.50098s-15.5 2.83398 -23.5 3.50098h-10h-9h-21l8 31c6 0 12.167 -0.166992 18.5 -0.5
s12.5 -0.5 18.5 -0.5c3.33301 0 6.5 -0.166992 9.5 -0.5s6.16699 -0.5 9.5 -0.5c9.33301 0 18.666 -0.166992 27.999 -0.5s18.666 -0.5 27.999 -0.5c15.333 0 30.666 0.166992 45.999 0.5s31 0.5 47 0.5c15.333 0 30.833 0.166992 46.5 0.5s30.834 0.5 45.501 0.5
c10.667 0 21.334 -0.166992 32.001 -0.5s21.667 -0.5 33 -0.5c10.667 -0.666992 21.334 -1.16699 32.001 -1.5s21.334 -0.833008 32.001 -1.5l-4 -22.5l-4 -23.5l-4 -24l-4 -24l-4 -23l-4 -24h-29v85c-9.33301 4.66699 -20 8.5 -32 11.5s-24 4.83301 -36 5.5
c-5.33301 0.666992 -10.833 1.16699 -16.5 1.5s-11.167 0.5 -16.5 0.5h-14c-4.66699 0 -9 -0.333008 -13 -1c-6 0 -11.833 -0.333008 -17.5 -1s-11.5 -1 -17.5 -1c-3.33301 -0.666992 -6.5 -1.16699 -9.5 -1.5s-6.16699 -0.5 -9.5 -0.5l-51 -243h51h50
c16.667 0.666992 33.5 1.16699 50.5 1.5s33.833 0.833008 50.5 1.5l-11 -50c-11.333 0.666992 -22.5 1.16699 -33.5 1.5s-22.167 0.833008 -33.5 1.5c-22 0.666992 -44.167 1.16699 -66.5 1.5s-44.833 0.5 -67.5 0.5l-31 -152c-0.666992 -2.66699 -1.16699 -5.5 -1.5 -8.5
s-0.833008 -5.83301 -1.5 -8.5c-1.33301 -6.66699 -2.5 -12.834 -3.5 -18.501s-1.5 -10.167 -1.5 -13.5c0 -14.667 5.66699 -23.167 17 -25.5s30.333 -3.5 57 -3.5h4.5h5.5l-3 -31c-10 0.666992 -20.167 1 -30.5 1s-20.5 0.333008 -30.5 1h-46h-45h-30.5h-31.5
c-10.667 0 -21.167 -0.166992 -31.5 -0.5s-20.5 -0.833008 -30.5 -1.5v0z" />
    <glyph glyph-name="G" unicode="G" horiz-adv-x="627" 
d="M603 222h-11.0059c-4 0 -8 -0.333008 -12 -1c-7.33301 -0.666992 -14.166 -2.5 -20.499 -5.5s-10.833 -7.83301 -13.5 -14.5c-4 -11.333 -7.5 -24.5 -10.5 -39.5s-5.5 -30.167 -7.5 -45.5c-2 -13.333 -3.66699 -26.333 -5 -39s-2.33301 -24.334 -3 -35.001
c-12.667 -2.66699 -24.667 -6 -36 -10l-33 -12c-0.666992 -0.666992 -1.5 -1.16699 -2.5 -1.5s-1.83301 -0.5 -2.5 -0.5c-2 -0.666992 -4 -1.5 -6 -2.5s-4 -1.83301 -6 -2.5c-11.333 -3.33301 -22.666 -6.33301 -33.999 -9s-22.666 -4.66699 -33.999 -6
c-15.333 -2.66699 -30.5 -4.66699 -45.5 -6s-29.833 -2 -44.5 -2c-75.333 0 -136.333 18.667 -183 56s-70 94.333 -70 171v2v2v0h1v3v1c2 86 28.667 163.167 80 231.5s119.333 113.833 204 136.5c10.667 3.33301 21.667 6 33 8s23 3.66699 35 5
c6.66699 0.666992 13.5 1.16699 20.5 1.5s13.833 0.5 20.5 0.5c8 0 16.167 -0.333008 24.5 -1l25.5 -2c20.667 -2.66699 41.5 -6.5 62.5 -11.5s41.167 -11.167 60.5 -18.5c-2.66699 -10 -5.5 -20 -8.5 -30s-5.5 -20.333 -7.5 -31c-4 -14.667 -7.5 -29.667 -10.5 -45
s-6.16699 -30.666 -9.5 -45.999h-29v70c-12 21.333 -29 37.5 -51 48.5s-44.667 17.833 -68 20.5c-5.33301 0.666992 -10.666 1.16699 -15.999 1.5s-10.666 0.5 -15.999 0.5c-44.667 0 -83 -12.5 -115 -37.5s-57.333 -57.5 -76 -97.5
c-9.33301 -21.333 -17.5 -45.5 -24.5 -72.5s-12.167 -54.5 -15.5 -82.5c-0.666992 -7.33301 -1.16699 -14.666 -1.5 -21.999s-0.5 -14.666 -0.5 -21.999c0 -53.333 12.667 -100.666 38 -141.999s70 -62 134 -62h19c7.33301 0 14.666 0.666992 21.999 2
c10.667 1.33301 21 4 31 8s17.333 10.333 22 19c4 7.33301 7.5 17.166 10.5 29.499s5.83301 25.166 8.5 38.499c2 11.333 3.66699 22.5 5 33.5s2.33301 20.5 3 28.5v3c0 13.333 -5.5 22.166 -16.5 26.499s-23.167 6.83301 -36.5 7.5h-2.5h-2.5h-32l8 29h32h32
c10.667 -0.666992 21.334 -1 32.001 -1h32h32c10.667 0 21.334 0.333008 32.001 1h32h32l-5 -29v0z" />
    <glyph glyph-name="H" unicode="H" horiz-adv-x="749" 
d="M36 0l4.99805 30.9951c29.333 0 48.5 2.16699 57.5 6.5s16.167 16.5 21.5 36.5l4 16.5c1.33301 5.66699 2.66602 11.834 3.99902 18.501l78 364l7 35c2 10 3 18 3 24c0 13.333 -5.66699 21.5 -17 24.5s-30.666 4.83301 -57.999 5.5l5 31
c9.33301 0 18.833 -0.333008 28.5 -1s19.167 -1 28.5 -1c1.33301 -0.666992 2.83301 -1 4.5 -1h5.5c10.667 -0.666992 21.667 -1.16699 33 -1.5s22.333 -0.5 33 -0.5c9.33301 0 18.833 0.166992 28.5 0.5s19.5 0.833008 29.5 1.5h9.5c3 0 6.16699 0.333008 9.5 1
c10 0 19.667 0.333008 29 1s18.666 1 27.999 1l-5 -31h-5.5h-5.5c-24 -0.666992 -40.167 -2.5 -48.5 -5.5s-14.833 -13.167 -19.5 -30.5l-4 -14.5c-1.33301 -5 -2.66602 -10.833 -3.99902 -17.5l-36 -157h247l32 144c0 2 0.166992 4 0.5 6s0.833008 4 1.5 6l3.5 19.5
c1 5.66699 1.5 10.834 1.5 15.501c0 15.333 -5.5 24.833 -16.5 28.5s-29.833 5.5 -56.5 5.5l4 31c9.33301 0 18.666 -0.333008 27.999 -1s19 -1 29 -1l37 -2c12.667 -0.666992 25.334 -1 38.001 -1c12 0 24.5 0.333008 37.5 1l38.5 2h2h2c8.66699 0 17.5 0.333008 26.5 1
s17.833 1 26.5 1l-5 -31h-21h-5.5h-5.5c-6 -0.666992 -11.667 -1.5 -17 -2.5s-9.66602 -3.16699 -12.999 -6.5c-5.33301 -4.66699 -9.83301 -12.167 -13.5 -22.5s-6.83398 -21.166 -9.50098 -32.499c-2.66699 -10 -4.83398 -19.667 -6.50098 -29
s-3.16699 -16.666 -4.5 -21.999l-66 -306c-0.666992 -2 -1.16699 -3.83301 -1.5 -5.5s-0.5 -3.5 -0.5 -5.5l-10.5 -41.5c-3 -11.667 -4.5 -21.167 -4.5 -28.5c0 -12 5.83301 -19.833 17.5 -23.5s31.834 -5.5 60.501 -5.5l-3 -31c-8.66699 0.666992 -17.667 1.16699 -27 1.5
s-18.666 0.5 -27.999 0.5c-13.333 0 -26.833 0.166992 -40.5 0.5s-27.167 0.5 -40.5 0.5h-33c-11.333 0 -22.333 -0.333008 -33 -1c-11.333 0 -22.5 -0.166992 -33.5 -0.5s-22.167 -0.833008 -33.5 -1.5l3 29c34 0.666992 55.833 4.33398 65.5 11.001
s16.834 20.667 21.501 42l4.5 22l5.5 27l36 164h-249l-36 -178c-0.666992 -2 -1.16699 -3.83301 -1.5 -5.5s-0.5 -3.5 -0.5 -5.5c-2 -10.667 -4 -20 -6 -28s-3 -14.667 -3 -20c0 -12.667 5.5 -20.667 16.5 -24s30.833 -5 59.5 -5l-5 -29
c-10.667 0.666992 -21.667 1.16699 -33 1.5s-22.333 0.5 -33 0.5h-33.5h-33.5h-66c-22 0 -43.667 -0.666992 -65 -2v0z" />
    <glyph glyph-name="I" unicode="I" horiz-adv-x="394" 
d="M34 0l2.99805 31c32 0 53 2.16699 63 6.5s18 17.833 24 40.5c1.33301 4.66699 2.5 9.5 3.5 14.5s2.16699 10.5 3.5 16.5l78 364c2.66699 13.333 4.66699 24.833 6 34.5s2 17.834 2 24.501c0 13.333 -5.5 21.666 -16.5 24.999s-31.5 5 -61.5 5l5 31
c10 0 19.833 -0.333008 29.5 -1s19.5 -1 29.5 -1l38 -2c12.667 -0.666992 25.334 -1 38.001 -1c11.333 0 22.666 0.166992 33.999 0.5s22.666 0.833008 33.999 1.5h4.5c1.66699 0 3.5 0.333008 5.5 1c10 0 19.833 0.333008 29.5 1s19.167 1 28.5 1l-5 -31h-2.5h-3.5
c-27.333 -0.666992 -45.5 -3 -54.5 -7s-16.167 -17 -21.5 -39l-2.5 -10c-1 -4 -1.83301 -8 -2.5 -12l-80 -377c-0.666992 -2 -1.16699 -3.83301 -1.5 -5.5s-0.5 -3.5 -0.5 -5.5c-2 -10.667 -4 -20 -6 -28s-3 -14.667 -3 -20c0 -14.667 6.33301 -23.167 19 -25.5
s34.334 -3.5 65.001 -3.5l-5 -29c-11.333 0.666992 -22.833 1.16699 -34.5 1.5s-23.167 0.5 -34.5 0.5c-12 0.666992 -23.833 1 -35.5 1h-34.5h-23h-23c-15.333 -0.666992 -30.666 -1.16699 -45.999 -1.5s-30.666 -0.833008 -45.999 -1.5v0z" />
    <glyph glyph-name="J" unicode="J" horiz-adv-x="357" 
d="M212 96c0 -1.33301 -0.166016 -2.66797 -0.499023 -4.00098s-0.833008 -3 -1.5 -5c-12.667 -56.667 -35.5 -108.667 -68.5 -156s-79.5 -71 -139.5 -71c-3.33301 0 -7.5 0.166992 -12.5 0.5s-9.83301 0.833008 -14.5 1.5c-3.33301 0.666992 -6.5 1.16699 -9.5 1.5
s-5.83301 0.833008 -8.5 1.5l-6 25c2.66699 0 5 -0.166992 7 -0.5s4 -0.5 6 -0.5c4.66699 -0.666992 9 -1 13 -1h11c32 0 54.833 13.167 68.5 39.5s24.167 54.833 31.5 85.5l4 20c1.33301 6.66699 2.66602 13 3.99902 19l87 429c0 2 0.166992 4.16699 0.5 6.5
s0.833008 4.5 1.5 6.5l3.5 22.5c1 6.33301 1.5 11.833 1.5 16.5c0 14 -5.5 22.333 -16.5 25s-29.833 4 -56.5 4h-8l4 31c8 0 15.833 -0.166992 23.5 -0.5s15.167 -0.5 22.5 -0.5c15.333 -0.666992 30.833 -1.16699 46.5 -1.5s30.834 -0.5 45.501 -0.5
c11.333 0 22.833 0.166992 34.5 0.5s23.5 0.5 35.5 0.5c4 0 8 0.166992 12 0.5s7.66699 0.5 11 0.5c8 0 16 0.166992 24 0.5s15.667 0.5 23 0.5l-7 -31c-32.667 -1.33301 -53.667 -4.66602 -63 -9.99902s-16 -18 -20 -38l-4.5 -24
c-1.66699 -8.66699 -3.83398 -18.667 -6.50098 -30l-78 -364v0z" />
    <glyph glyph-name="K" unicode="K" horiz-adv-x="702" 
d="M41 0l6.00684 31.0029c0.666992 0 1.66699 -0.166992 3 -0.5s2.66602 -0.5 3.99902 -0.5c0.666992 0 1.66699 -0.166992 3 -0.5s2.33301 -0.5 3 -0.5c24 0 40 3.16699 48 9.5s14.333 19.5 19 39.5c1.33301 4.66699 2.66602 10 3.99902 16s2.66602 12.333 3.99902 19
l71 339c4 18.667 7.66699 34.5 11 47.5s5 23.833 5 32.5c0 11.333 -5.5 19.166 -16.5 23.499s-31.5 6.5 -61.5 6.5l5 31c6.66699 0 13.334 -0.166992 20.001 -0.5s13.334 -0.5 20.001 -0.5c3.33301 0 6.66602 -0.166992 9.99902 -0.5s6.66602 -0.5 9.99902 -0.5
c10 0 20 -0.166992 30 -0.5s20 -0.5 30 -0.5h18.5h18.5c10 0.666992 20.167 1 30.5 1s20.5 0.333008 30.5 1c8 0 16 0.166992 24 0.5s16 0.5 24 0.5v-31c-32.667 0 -53.834 -2 -63.501 -6s-17.5 -17.667 -23.5 -41c-0.666992 -4.66699 -1.66699 -9.83398 -3 -15.501
s-2.66602 -11.834 -3.99902 -18.501l-39 -181c16.667 11.333 35 25 55 41l61 51l25.5 22l24.5 22c20 18.667 38.667 37 56 55s32.333 34.333 45 49c7.33301 7.33301 12.833 15.333 16.5 24s5.5 18 5.5 28c4.66699 0 9.66699 -0.166992 15 -0.5s10.666 -0.833008 15.999 -1.5
c4.66699 -0.666992 9.66699 -1.16699 15 -1.5s10.333 -0.5 15 -0.5c6 0 12.333 0.166992 19 0.5s13.334 0.833008 20.001 1.5h2.5c1 0 2.16699 0.333008 3.5 1c5.33301 0 10.833 0.333008 16.5 1s11.167 1 16.5 1l-5 -29c-28.667 0 -54.334 -7.83301 -77.001 -23.5
s-44.334 -32.834 -65.001 -51.501l-14 -14c-4.66699 -4.66699 -9.33398 -9 -14.001 -13l-146 -131l170 -258c4.66699 -6 8.66699 -11.333 12 -16s6.66602 -8.66699 9.99902 -12c6 -5.33301 12.5 -9.16602 19.5 -11.499s17.5 -3.83301 31.5 -4.5l-3 -29
c-6.66699 0.666992 -13.334 1.16699 -20.001 1.5s-13.334 0.5 -20.001 0.5h-20h-20h-38c-12.667 0 -25.667 -0.666992 -39 -2c-10 20 -21 39.333 -33 58l-36 54c-1.33301 2.66699 -2.83301 5 -4.5 7s-3.16699 4.33301 -4.5 7c-2 2.66699 -4 5.5 -6 8.5s-4 5.83301 -6 8.5
l-48.5 75c-16.333 24.667 -34.166 48.667 -53.499 72l-43 -206c0 -1.33301 -0.166992 -2.66602 -0.5 -3.99902s-0.833008 -3 -1.5 -5c-0.666992 -2.66699 -1.16699 -5.33398 -1.5 -8.00098s-0.5 -5 -0.5 -7c0 -14.667 4.83301 -23.667 14.5 -27s21.834 -5 36.501 -5h5.5
c2.33301 0 4.83301 0.333008 7.5 1h1h1h6.5h5.5l-6 -29c-10.667 0.666992 -21.667 1.16699 -33 1.5s-22.333 0.5 -33 0.5h-33.5h-33.5h-66c-22 0 -43.667 -0.666992 -65 -2v0z" />
    <glyph glyph-name="L" unicode="L" horiz-adv-x="543" 
d="M41 0l5.99902 29c1.33301 0 2.66602 0.166992 3.99902 0.5s2.66602 0.5 3.99902 0.5c2.66699 0.666992 5.5 1.16699 8.5 1.5s6.16699 0.833008 9.5 1.5c6 1.33301 11.833 3.16602 17.5 5.49902s10.167 5.83301 13.5 10.5c2.66699 3.33301 5.5 9.66602 8.5 18.999
s5.5 19.333 7.5 30c2 8.66699 3.83301 17.167 5.5 25.5s3.16699 14.833 4.5 19.5l60 282c0 2.66699 0.833008 8 2.5 16l5.5 27l2 10.5l2 10.5c1.33301 8 2.5 15.833 3.5 23.5s1.5 14.5 1.5 20.5v1.5v1.5c0 4.66699 -0.333008 9 -1 13s-1.66699 6.33301 -3 7
c-3.33301 2 -8 3.33301 -14 4s-12.333 1.33398 -19 2.00098h-5h-6h-29l8 31c6.66699 0 13.334 -0.166992 20.001 -0.5s13.667 -0.5 21 -0.5c6.66699 -0.666992 13.334 -1 20.001 -1h21c6.66699 -0.666992 13.5 -1 20.5 -1h20.5c12.667 0 25.5 0.166992 38.5 0.5
s25.833 0.5 38.5 0.5c4.66699 0 9 0.166992 13 0.5s8.33301 0.5 13 0.5c8.66699 0 17.334 0.166992 26.001 0.5s17 0.5 25 0.5l-7 -31h-45c-14 0 -24 -2.66699 -30 -8s-11.333 -17.666 -16 -36.999c-0.666992 -2 -1.16699 -4.33301 -1.5 -7
s-0.833008 -5.33398 -1.5 -8.00098l-94 -453c4 0 8.16699 -0.166992 12.5 -0.5s8.5 -0.833008 12.5 -1.5h4h4l33.5 -2c11 -0.666992 21.833 -1 32.5 -1h11.5h11.5c19.333 1.33301 38.5 3.33301 57.5 6s37.167 6.66699 54.5 12c8 15.333 15.333 30.833 22 46.5
s12.667 31.834 18 48.501h31c-1.33301 -4 -2.5 -8.16699 -3.5 -12.5s-2.16699 -8.5 -3.5 -12.5l-15.5 -64c-5 -21.333 -9.5 -43 -13.5 -65c-10 0 -20.167 -0.166992 -30.5 -0.5s-20.833 -0.5 -31.5 -0.5c-10.667 -0.666992 -21.167 -1.16699 -31.5 -1.5
s-20.5 -0.5 -30.5 -0.5h-34c-11.333 -0 -22.333 0.333008 -33 1h-17.5h-16.5c-17.333 0 -34.333 0.166992 -51 0.5s-33 0.5 -49 0.5h-20.5h-20.5c-14 0 -27.833 -0.166992 -41.5 -0.5s-27.167 -0.833008 -40.5 -1.5v0z" />
    <glyph glyph-name="M" unicode="M" horiz-adv-x="917" 
d="M45 0l4.99609 30.998h11c4 0 8.33301 0.333008 13 1c6.66699 0.666992 12.834 2 18.501 4s9.83398 5 12.501 9l6.5 11c2.33301 4 4.5 8.66699 6.5 14c3.33301 8 6.66602 16.833 9.99902 26.5l10 30.5c4.66699 15.333 9 30.333 13 45s7 26 9 34l64 225
c6.66699 23.333 12 43 16 59s6 28.333 6 37c0 13.333 -6.16699 22.5 -18.5 27.5s-34.166 7.5 -65.499 7.5l5 31c5.33301 0 10.666 -0.166992 15.999 -0.5s10.666 -0.5 15.999 -0.5c2.66699 0 5.33398 -0.166992 8.00098 -0.5s5.33398 -0.5 8.00098 -0.5
c8 0 16 -0.166992 24 -0.5s16 -0.5 24 -0.5c8.66699 0 17.5 0.166992 26.5 0.5s18.167 0.833008 27.5 1.5c6.66699 0 13.5 0.333008 20.5 1l20.5 2l110 -446l175 305l21 35l20 35l19.5 34l19.5 35c6.66699 0 13.334 -0.333008 20.001 -1s13.334 -1 20.001 -1
c1.33301 -0.666992 2.5 -1 3.5 -1h3.5c8 -0.666992 15.833 -1.16699 23.5 -1.5s15.5 -0.5 23.5 -0.5c8.66699 0 17.667 0.333008 27 1l28 2h1.5h1.5c6.66699 0 13.167 0.333008 19.5 1s12.833 1 19.5 1v-32h-23c-30 0 -49 -4.83301 -57 -14.5s-12.667 -33.5 -14 -71.5
l-26 -365v-4v-4c-0.666992 -1.33301 -1 -2.66602 -1 -3.99902v-4c0 -28.667 3.66699 -46.334 11 -53.001s28.333 -10.667 63 -12v-29c-23.333 1.33301 -46.333 2.16602 -69 2.49902s-45 0.5 -67 0.5s-44.333 -0.166992 -67 -0.5s-45.667 -1.16602 -69 -2.49902v31
c40.667 2 65.334 6.66699 74.001 14s14 27.333 16 60c0.666992 4 1.16699 8 1.5 12s0.5 8.33301 0.5 13l33 379l-161 -280l-13.5 -24l-13.5 -24c-1.33301 -2 -2.5 -4 -3.5 -6s-2.16699 -4 -3.5 -6l-50 -90l-49 -88l-26 -1l-123 488l-73 -274l-6 -18.5
c-3.33301 -10.333 -7 -22.833 -11 -37.5c-1.33301 -4 -2.5 -8.33301 -3.5 -13s-2.16699 -9 -3.5 -13c-2.66699 -12 -5 -23.667 -7 -35s-3 -21 -3 -29c0 -4.66699 0.666992 -8.66699 2 -12s3 -5.66602 5 -6.99902c3.33301 -3.33301 8.16602 -5.83301 14.499 -7.5
s12.833 -2.5 19.5 -2.5h2.5h2.5h22l-5 -29c-8.66699 0.666992 -17.5 1.16699 -26.5 1.5s-18.167 0.5 -27.5 0.5c-6.66699 0.666992 -13.5 1 -20.5 1h-20.5c-15.333 0 -30.833 -0.166992 -46.5 -0.5s-31.167 -1.16602 -46.5 -2.49902v0z" />
    <glyph glyph-name="N" unicode="N" horiz-adv-x="739" 
d="M42 0l3.00488 29.0039c2 0 4.16699 0.166992 6.5 0.5s4.83301 0.5 7.5 0.5h2h3c6 0.666992 12.167 1.5 18.5 2.5s11.833 3.16699 16.5 6.5c6 4.66699 11.5 13.5 16.5 26.5s9.16699 26.833 12.5 41.5c4 14.667 7.33301 28.667 10 42s4.66699 22 6 26l78 347
c-2 4 -4.16699 7.5 -6.5 10.5s-4.5 5.5 -6.5 7.5c-8.66699 10 -17.667 16 -27 18s-20.666 3.33301 -33.999 4c-4.66699 0 -9.5 0.166992 -14.5 0.5s-10.167 0.833008 -15.5 1.5l7 29h23.5h22.5c7.33301 -0.666992 14.833 -1 22.5 -1h23.5h23.5
c7.66699 0 15.5 0.333008 23.5 1h22.5h23.5l248 -467l53 255c0.666992 4 2.33398 11.5 5.00098 22.5s5.33398 23.5 8.00098 37.5c0.666992 4 1.5 8.16699 2.5 12.5s1.83301 8.5 2.5 12.5l5.5 36c1.66699 11.333 2.5 21.333 2.5 30v11.5c0 3.66699 -0.666992 6.16699 -2 7.5
c-2 4 -6.5 6.66699 -13.5 8s-14.5 2.33301 -22.5 3c-3.33301 0 -6.5 0.166992 -9.5 0.5s-6.16699 0.5 -9.5 0.5c-2.66699 0 -5 0.166992 -7 0.5s-4 0.5 -6 0.5l7 29c7.33301 0 14.666 -0.333008 21.999 -1s14.666 -1 21.999 -1l28 -2c9.33301 -0.666992 18.666 -1 27.999 -1
s18.833 0.333008 28.5 1l29.5 2h4.5h5.5c5.33301 0.666992 11 1.16699 17 1.5s11.667 0.5 17 0.5l-5 -29c-2 0 -4.33301 -0.166992 -7 -0.5s-5.33398 -0.5 -8.00098 -0.5h-5.5h-5.5c-8 -0.666992 -15.5 -1.83398 -22.5 -3.50098s-12.833 -5.16699 -17.5 -10.5
s-9.16699 -14.333 -13.5 -27s-8.16602 -26.334 -11.499 -41.001c-2.66699 -12 -5 -23.5 -7 -34.5s-3.66699 -19.833 -5 -26.5l-49 -208c-2 -8 -3.83301 -16 -5.5 -24s-3.5 -16.333 -5.5 -25c-6.66699 -28 -12.834 -56.167 -18.501 -84.5s-9.83398 -55.833 -12.501 -82.5
c-2 0 -4.16699 0.166992 -6.5 0.5s-4.5 0.833008 -6.5 1.5c-4.66699 0 -9.16699 0.166992 -13.5 0.5s-8.5 0.5 -12.5 0.5c-5.33301 0 -11.166 -0.333008 -17.499 -1l-19.5 -2l-248 472l-44 -201c-0.666992 -4 -2.83398 -14.167 -6.50098 -30.5s-7.5 -34.833 -11.5 -55.5
c-1.33301 -4 -2.33301 -8.16699 -3 -12.5s-1.66699 -8.83301 -3 -13.5c-3.33301 -18.667 -6.33301 -36.834 -9 -54.501s-4 -31.834 -4 -42.501v-1.5v-1.5c0 -2.66699 0.333008 -5 1 -7s1.33398 -3.33301 2.00098 -4c2.66699 -4 7.5 -7 14.5 -9s14.5 -3.33301 22.5 -4
c4 0 7.66699 -0.166992 11 -0.5s6.66602 -0.5 9.99902 -0.5c2.66699 0 5 -0.166992 7 -0.5s3.66699 -0.5 5 -0.5l-5 -29c-4.66699 0 -9.33398 0.166992 -14.001 0.5s-9.33398 0.5 -14.001 0.5c-14 0.666992 -27.833 1 -41.5 1h-40.5h-44
c-14.667 0 -29.334 -0.666992 -44.001 -2v0z" />
    <glyph glyph-name="O" unicode="O" horiz-adv-x="684" 
d="M45 342c23.333 83.333 64.165 148.17 122.498 194.503s129.833 69.5 214.5 69.5h22c81.333 -2.66699 141.833 -26.834 181.5 -72.501s59.5 -101.834 59.5 -168.501c0 -16.667 -1.16699 -34 -3.5 -52s-6.16602 -36.333 -11.499 -55
c-22.667 -82.667 -65.167 -147.834 -127.5 -195.501s-135.166 -71.5 -218.499 -71.5l-30 -1c-80 5.33301 -137.5 30.5 -172.5 75.5s-52.5 98.167 -52.5 159.5c0 12 0.666992 24.5 2 37.5s3.33301 26.167 6 39.5l4 20l4 20v0zM393.999 569.004
c-2 0 -4.16406 0.166992 -6.49707 0.5s-4.83301 0.5 -7.5 0.5s-5.16699 0.166992 -7.5 0.5s-4.5 0.5 -6.5 0.5c-60 0 -105.333 -22.667 -136 -68s-52 -95.333 -64 -150l-2 -8l-2 -8c-2.66699 -13.333 -5.33398 -27.666 -8.00098 -42.999s-4.66699 -31 -6 -47
c-0.666992 -6.66699 -1.16699 -13.334 -1.5 -20.001s-0.5 -13.334 -0.5 -20.001c0 -40.667 8.16699 -78.667 24.5 -114s47.5 -57.666 93.5 -66.999c1.33301 0 3 -0.166992 5 -0.5s3.66699 -0.833008 5 -1.5c1.33301 0 2.66602 -0.166992 3.99902 -0.5
s2.66602 -0.5 3.99902 -0.5c4 -0.666992 8 -1.16699 12 -1.5s7.66699 -0.5 11 -0.5c55.333 0 98.666 21.333 129.999 64s54 89.667 68 141c2.66699 10 5 20.167 7 30.5s3.66699 20.5 5 30.5c2.66699 15.333 4.83398 31.5 6.50098 48.5s2.5 33.833 2.5 50.5
c0 43.333 -8.66699 83.333 -26 120s-52 57.667 -104 63v0z" />
    <glyph glyph-name="P" unicode="P" horiz-adv-x="580" 
d="M36 0l4.99902 31.998c32 0 52.833 2.33301 62.5 7s17.5 18 23.5 40c1.33301 5.33301 2.66602 11.5 3.99902 18.5s3 14.5 5 22.5l71 329c0.666992 2 1.16699 4.16699 1.5 6.5s0.5 4.5 0.5 6.5c3.33301 16 6.33301 29.5 9 40.5s4 20.167 4 27.5
c0 14 -6.33301 23.167 -19 27.5s-36 6.5 -70 6.5l6 29h11.5h11.5h17h17c9.33301 -0.666992 18.666 -1 27.999 -1h27h39.5c13 0 26.5 0.333008 40.5 1c13.333 0 26.666 0.166992 39.999 0.5s26.333 0.833008 39 1.5h31h13.5c4.33301 0 8.83301 -0.333008 13.5 -1
c32.667 -2 63.334 -9.66699 92.001 -23s46.667 -39 54 -77c0.666992 -3.33301 1.16699 -6.66602 1.5 -9.99902s0.833008 -6.66602 1.5 -9.99902c0 -3.33301 0.166992 -6.66602 0.5 -9.99902s0.5 -6.66602 0.5 -9.99902c0 -55.333 -23 -104.166 -69 -146.499
s-96.333 -63.833 -151 -64.5h-1.5h-1.5c-6 0 -12 0.333008 -18 1s-12 2 -18 4c-7.33301 1.33301 -14.666 3.33301 -21.999 6s-14.333 5.66699 -21 9l-2 32c10 -3.33301 19.667 -6 29 -8s18.333 -3 27 -3c35.333 0 65.333 13.5 90 40.5s39.334 60.5 44.001 100.5v4.5
c0 1.66699 0.333008 3.16699 1 4.5v2.5v2.5c0 2 0.166992 4.16699 0.5 6.5s0.5 4.5 0.5 6.5c0 36 -10.667 62.667 -32 80s-47 26 -77 26c-8.66699 0 -18.167 -0.833008 -28.5 -2.5s-20.833 -3.83398 -31.5 -6.50098l-86 -393l-2 -10.5
c-0.666992 -3.66699 -1.33398 -6.83398 -2.00098 -9.50098c-3.33301 -16.667 -6.5 -30.834 -9.5 -42.501s-4.5 -21.167 -4.5 -28.5c0 -12.667 5.33301 -21.334 16 -26.001s29.667 -7 57 -7h17l-5 -32c-9.33301 0.666992 -18.833 1.16699 -28.5 1.5s-19.5 0.5 -29.5 0.5
c-14.667 0 -29.167 0.166992 -43.5 0.5s-28.166 0.5 -41.499 0.5c-22.667 0 -45.667 -0.166992 -69 -0.5s-46.666 -1.16602 -69.999 -2.49902v0z" />
    <glyph glyph-name="Q" unicode="Q" horiz-adv-x="684" 
d="M606 191c-30 -68 -74.334 -117.998 -133.001 -149.998s-123.334 -48 -194.001 -48l-36 -1c12.667 -2.66699 24.834 -6 36.501 -10s23.167 -8.33301 34.5 -13l11.5 -5.5c3.66699 -1.66699 7.5 -3.16699 11.5 -4.5l81 -40l11.5 -4c3.66699 -1.33301 7.5 -3 11.5 -5
c13.333 -4.66699 26.5 -8.83398 39.5 -12.501s25.167 -5.5 36.5 -5.5c18 0 34 5.66699 48 17s24 31.333 30 60l27 -10c-9.33301 -45.333 -25 -81 -47 -107s-49.333 -39 -82 -39c-14 0 -29 2.5 -45 7.5s-33.667 12.833 -53 23.5l-81 44
c-4.66699 3.33301 -9.66699 6.33301 -15 9s-10.666 5.66699 -15.999 9l-17.5 8l-16.5 8c-12 5.33301 -24 9.83301 -36 13.5s-23 5.5 -33 5.5c-16.667 0 -31 -6.33301 -43 -19s-18.667 -34.334 -20 -65.001l-25 7v2.5v3.5h-1v0v3v2c0 38.667 11 68.5 33 89.5
s53.667 31.5 95 31.5c-62.667 9.33301 -110.167 35 -142.5 77s-48.5 91.667 -48.5 149c0 4 0.166992 8.16699 0.5 12.5s0.833008 8.83301 1.5 13.5v2.5v2.5c0.666992 4 1.16699 7.66699 1.5 11s0.5 6.66602 0.5 9.99902c13.333 98 49.5 177.833 108.5 239.5
s139.167 92.5 240.5 92.5h23c84 -2.66699 145.167 -27.5 183.5 -74.5s57.5 -102.167 57.5 -165.5c0 -20.667 -2 -42 -6 -64s-9.66699 -44 -17 -66c-2 -8 -4.33301 -15.667 -7 -23s-5.66699 -14.666 -9 -21.999v0zM161.999 337.002
c-2.66699 -13.333 -5.33105 -27.666 -7.99805 -42.999s-4.66699 -31 -6 -47c-0.666992 -6.66699 -1.16699 -13.334 -1.5 -20.001s-0.5 -13.334 -0.5 -20.001c0 -40.667 8.16699 -78.667 24.5 -114s47.5 -57.666 93.5 -66.999c1.33301 0 3 -0.166992 5 -0.5
s3.66699 -0.833008 5 -1.5c1.33301 0 2.66602 -0.166992 3.99902 -0.5s2.66602 -0.5 3.99902 -0.5c4 -0.666992 8 -1.16699 12 -1.5s7.66699 -0.5 11 -0.5c55.333 0 98.666 21.333 129.999 64s54 89.667 68 141c2.66699 10 5 20.167 7 30.5s3.66699 20.5 5 30.5
c2.66699 15.333 4.83398 31.5 6.50098 48.5s2.5 33.833 2.5 50.5c0 43.333 -8.66699 83.333 -26 120s-52 57.667 -104 63c-2 0 -4.16699 0.166992 -6.5 0.5s-4.83301 0.5 -7.5 0.5s-5.16699 0.166992 -7.5 0.5s-4.5 0.5 -6.5 0.5c-60 0 -105.333 -22.667 -136 -68
s-52 -95.333 -64 -150l-2 -8l-2 -8v0z" />
    <glyph glyph-name="R" unicode="R" horiz-adv-x="647" 
d="M32 0l5 30.9971c30 0.666992 49.5 3.33398 58.5 8.00098s16.167 18 21.5 40c1.33301 4 2.33301 8.33301 3 13s1.66699 9.66699 3 15l81 384c1.33301 8 2.16602 15.667 2.49902 23s0.5 13.333 0.5 18c0 12 -3.66699 20 -11 24s-19.333 6 -36 6h-27l5 31
c6.66699 0 13.5 -0.333008 20.5 -1s14.167 -1 21.5 -1c0.666992 -0.666992 1.66699 -1 3 -1h4c8 -0.666992 16 -1.16699 24 -1.5s16 -0.5 24 -0.5c6.66699 0 13.334 0.166992 20.001 0.5s13.667 0.833008 21 1.5c6.66699 0.666992 13.334 1.16699 20.001 1.5
s13.334 0.5 20.001 0.5c7.33301 0 15 0.166992 23 0.5s16.333 0.833008 25 1.5c9.33301 0 18.666 0.166992 27.999 0.5s19 0.5 29 0.5h11.5h10.5c24 -1.33301 47 -4 69 -8s40 -10.667 54 -20c12 -8 21.333 -18.333 28 -31s11 -26 13 -40c0 -2.66699 0.166992 -5.5 0.5 -8.5
s0.5 -6.16699 0.5 -9.5c0 -4 -0.166992 -8.33301 -0.5 -13s-1.16602 -9.33398 -2.49902 -14.001c-0.666992 -6 -2 -11.667 -4 -17l-6 -16c-16.667 -32.667 -40.5 -56.667 -71.5 -72s-63.5 -26.333 -97.5 -33l114 -209c0.666992 -1.33301 1.33398 -2.83301 2.00098 -4.5
s1.33398 -3.16699 2.00098 -4.5c8.66699 -18 18.667 -33.5 30 -46.5s28.666 -19.5 51.999 -19.5v-29c-6.66699 0.666992 -13.334 1.16699 -20.001 1.5s-13.334 0.5 -20.001 0.5h-20h-20h-20h-19c-6.66699 0 -13.334 -0.166992 -20.001 -0.5s-13.334 -0.833008 -20.001 -1.5
l-8 17.5l-8 17.5l-70.5 137.5c-24.333 45.667 -50.833 90.167 -79.5 133.5l5 18h4.5h4.5c6 0.666992 12 1.16699 18 1.5s12 0.5 18 0.5c15.333 1.33301 30.5 3.83301 45.5 7.5s28.833 9.83398 41.5 18.501c15.333 10.667 27.666 24.667 36.999 42s15.333 35 18 53
c0 3.33301 0.166992 6.83301 0.5 10.5s0.5 7.16699 0.5 10.5v7c-1.33301 31.333 -12.333 53 -33 65s-43.667 18 -69 18c-3.33301 0 -7 -0.166992 -11 -0.5s-7.66699 -0.5 -11 -0.5c-7.33301 -0.666992 -14.666 -1.66699 -21.999 -3s-14.666 -3 -21.999 -5l-85 -387
c0 -1.33301 -0.833008 -6.33301 -2.5 -15l-5.5 -29l-2 -8c-0.666992 -2.66699 -1.33398 -5.66699 -2.00098 -9c-1.33301 -8.66699 -2.5 -17 -3.5 -25s-1.5 -15 -1.5 -21c0 -2.66699 0.333008 -5.16699 1 -7.5s1.33398 -4.16602 2.00098 -5.49902
c4 -4 9.66699 -6.83301 17 -8.5s15 -2.5 23 -2.5c2.66699 -0.666992 5.66699 -1 9 -1h9c3.33301 0 6.33301 -0.166992 9 -0.5s5 -0.5 7 -0.5l-4 -29c-8.66699 0.666992 -17.5 1.16699 -26.5 1.5s-17.833 0.5 -26.5 0.5c-14 0 -27.667 0.166992 -41 0.5s-26.333 0.5 -39 0.5
c-22 0 -44 -0.166992 -66 -0.5s-44 -1.16602 -66 -2.49902v0z" />
    <glyph glyph-name="S" unicode="S" horiz-adv-x="486" 
d="M26 23c6.66699 24 12.668 48.1709 18.001 72.5039s10 48.833 14 73.5h26c0 -3.33301 -0.333008 -6.83301 -1 -10.5s-1 -7.5 -1 -11.5c-0.666992 -1.33301 -1 -2.5 -1 -3.5v-2.5c-0.666992 -3.33301 -1.16699 -6.5 -1.5 -9.5s-0.5 -5.83301 -0.5 -8.5
s0.166992 -5.16699 0.5 -7.5s0.833008 -4.83301 1.5 -7.5c1.33301 -6 3.33301 -11.833 6 -17.5s6 -10.5 10 -14.5c13.333 -12.667 28.833 -22.834 46.5 -30.501s35.834 -12.167 54.501 -13.5h4.5h4.5h5.5h5.5c26.667 2 51.667 11 75 27s38.666 38.333 45.999 67
c0 2 0.166992 4 0.5 6s0.5 3.66699 0.5 5c0.666992 2 1 4.16699 1 6.5s0.333008 4.5 1 6.5v3v4c0 16.667 -4.16699 31.5 -12.5 44.5s-22.166 23.167 -41.499 30.5c-6 2.66699 -12.333 5 -19 7l-21 6l-14.5 4l-15.5 4c-21.333 6.66699 -41.833 15 -61.5 25s-34.5 25 -44.5 45
c-4 7.33301 -7.33301 15.333 -10 24s-4.33398 17.667 -5.00098 27c-0.666992 2 -1 4.16699 -1 6.5v6.5c0 5.33301 0.333008 10.666 1 15.999l2 16c2.66699 12 6.16699 24 10.5 36s8.83301 23 13.5 33c22.667 38 53.334 67 92.001 87s79 30.333 121 31h2.5h3.5
c6 0 12.333 -0.166992 19 -0.5s13 -1.16602 19 -2.49902c15.333 -2 30.333 -5.16699 45 -9.5s28.667 -9.83301 42 -16.5c-4.66699 -16.667 -8.83398 -33.667 -12.501 -51l-11.5 -52c-0.666992 -6 -1.66699 -11.833 -3 -17.5l-4 -17.5h-26c0 4 0.166992 7.83301 0.5 11.5
s0.833008 7.5 1.5 11.5c0 4 0.166992 8 0.5 12s0.5 8 0.5 12c0 2 -0.166992 4.16699 -0.5 6.5s-0.5 4.83301 -0.5 7.5c-0.666992 4.66699 -2 9.16699 -4 13.5s-4.66699 8.16602 -8 11.499c-9.33301 8 -20.166 14.833 -32.499 20.5s-24.833 9.83398 -37.5 12.501
c-4.66699 1.33301 -9.5 2.16602 -14.5 2.49902s-9.83301 0.5 -14.5 0.5h-4c-31.333 0 -57.333 -9.83301 -78 -29.5s-33.667 -41.5 -39 -65.5c-1.33301 -4 -2.16602 -8 -2.49902 -12s-0.5 -8 -0.5 -12c0 -2.66699 0.166992 -5.16699 0.5 -7.5s0.5 -4.5 0.5 -6.5
c2 -9.33301 5 -18.166 9 -26.499s9.66699 -15.166 17 -20.499c11.333 -9.33301 24.666 -16.666 39.999 -21.999s31.666 -10.333 48.999 -15c2.66699 -0.666992 5.5 -1.33398 8.5 -2.00098s5.83301 -1.33398 8.5 -2.00098c16.667 -4.66699 32.667 -9.83398 48 -15.501
s29.333 -13.5 42 -23.5c13.333 -9.33301 22.666 -21.333 27.999 -36s8 -29.667 8 -45c0 -4.66699 -0.166992 -9.33398 -0.5 -14.001s-1.16602 -9.33398 -2.49902 -14.001c-1.33301 -11.333 -3.83301 -22.166 -7.5 -32.499s-7.83398 -19.833 -12.501 -28.5
c-22.667 -42.667 -56 -76.167 -100 -100.5s-90 -37.833 -138 -40.5h-7h-8c-23.333 0 -46.5 2.66699 -69.5 8s-44.5 13.666 -64.5 24.999v0z" />
    <glyph glyph-name="T" unicode="T" horiz-adv-x="515" 
d="M57 0l6.00391 31c2 0 4 -0.166992 6 -0.5s4.33301 -0.5 7 -0.5c1.33301 0 2.83301 -0.166992 4.5 -0.5s3.16699 -0.5 4.5 -0.5h3h3h6h6c8 0.666992 15.5 2.16699 22.5 4.5s12.167 5.83301 15.5 10.5c3.33301 5.33301 6.33301 12.666 9 21.999l8 29
c2 9.33301 3.66699 18.333 5 27s2.66602 15.667 3.99902 21l86 403h-62h-18.5c-6.33301 0 -12.833 -0.333008 -19.5 -1s-13.167 -1.16699 -19.5 -1.5s-12.5 -1.16602 -18.5 -2.49902c-10.667 -1.33301 -18.834 -7.66602 -24.501 -18.999s-10.167 -23.666 -13.5 -36.999
c-2 -6 -3.66699 -11.833 -5 -17.5s-2.33301 -11.167 -3 -16.5c-0.666992 -1.33301 -1.16699 -2.83301 -1.5 -4.5s-0.833008 -3.16699 -1.5 -4.5l-32 2c0.666992 3.33301 1.5 6.83301 2.5 10.5s1.83301 7.16699 2.5 10.5l6 27c2 8.66699 3.66699 17.667 5 27
c2.66699 12 5.16699 24.167 7.5 36.5s4.16602 24.833 5.49902 37.5c18 0 36 -0.333008 54 -1s36.333 -1 55 -1c10 -0.666992 20.167 -1.16699 30.5 -1.5s20.5 -0.5 30.5 -0.5c14 0 28.167 -0.166992 42.5 -0.5s28.5 -0.5 42.5 -0.5c21.333 0 42.5 0.166992 63.5 0.5
s42.167 0.833008 63.5 1.5h9.5c3 0 5.83301 0.333008 8.5 1c18.667 0 37 0.333008 55 1s36 1 54 1c-1.33301 -7.33301 -2.83301 -14.5 -4.5 -21.5s-3.5 -14.167 -5.5 -21.5l-12 -54c-4 -18 -7.33301 -36 -10 -54h-31c0.666992 4 1.16699 8.16699 1.5 12.5s0.5 8.5 0.5 12.5
c0 3.33301 0.166992 6.66602 0.5 9.99902s0.5 6.66602 0.5 9.99902c0.666992 5.33301 1 10.5 1 15.5s0.333008 9.83301 1 14.5c0 5.33301 -0.666992 9.5 -2 12.5s-4.66602 5.16699 -9.99902 6.5c-6.66699 3.33301 -15.667 5.66602 -27 6.99902s-23.333 2.33301 -36 3h-14.5
h-14.5h-44l-84 -387c-0.666992 -2 -1.83398 -6.33301 -3.50098 -13s-3.5 -14.667 -5.5 -24l-2 -10.5l-2 -10.5c-1.33301 -7.33301 -2.5 -14.666 -3.5 -21.999s-1.5 -13.666 -1.5 -18.999c0 -2.66699 0.333008 -5.5 1 -8.5s1.33398 -5.16699 2.00098 -6.5
c0.666992 -0.666992 1.16699 -1.33398 1.5 -2.00098l0.5 -1c3.33301 -3.33301 8.66602 -6 15.999 -8s15.333 -3.33301 24 -4c4 0 8 -0.166992 12 -0.5s7.66699 -0.5 11 -0.5h2.5c1 0 1.83301 0.333008 2.5 1h2h1c1.33301 0 2.66602 0.166992 3.99902 0.5s2.33301 0.5 3 0.5
l-7 -31c-12 0.666992 -23.833 1.16699 -35.5 1.5s-23.5 0.5 -35.5 0.5h-35.5h-35.5h-70.5c-23.667 0 -47.167 -0.666992 -70.5 -2v0z" />
    <glyph glyph-name="U" unicode="U" horiz-adv-x="665" 
d="M574 0c-5.33301 0.666992 -10.833 1 -16.5 1h-16.5c-11.333 0.666992 -22.5 1 -33.5 1h-32.5h-16.5h-16.5c-10.667 0 -21.5 -0.166992 -32.5 -0.5s-22.167 -0.833008 -33.5 -1.5l26 107c-31.333 -32.667 -65.5 -60.167 -102.5 -82.5s-79.167 -33.5 -126.5 -33.5l-26 -1
c-40.667 4.66699 -68.5 18.5 -83.5 41.5s-22.5 49.833 -22.5 80.5c0 8.66699 0.5 17.5 1.5 26.5s2.5 18.167 4.5 27.5l2 13.5l2 12.5l2 10l2 10l47 221c0.666992 5.33301 1.66699 11.5 3 18.5s3 14.5 5 22.5c0 2 0.333008 4 1 6s1 4 1 6c2 8.66699 3.5 17 4.5 25
s1.5 15 1.5 21v9c-0.666992 6 -5.16699 10.5 -13.5 13.5s-17.166 5.16699 -26.499 6.5c-6.66699 0.666992 -13 1 -19 1h-15l6 31c8 0 15.833 -0.333008 23.5 -1s15.5 -1 23.5 -1l32 -2c10.667 -0.666992 21 -1 31 -1c6 0 12 0.166992 18 0.5s12.333 0.5 19 0.5
c1.33301 0.666992 2.83301 1 4.5 1h4.5c7.33301 0.666992 14.833 1.16699 22.5 1.5s15.167 0.5 22.5 0.5c-6.66699 -21.333 -12.667 -42.5 -18 -63.5s-9.66602 -42.167 -12.999 -63.5l-55 -249l-2 -12l-2 -12c0 -2 -0.166992 -3.66699 -0.5 -5s-0.5 -2.66602 -0.5 -3.99902
c-1.33301 -7.33301 -2.33301 -14.333 -3 -21s-1 -13 -1 -19c0 -19.333 5 -36.833 15 -52.5s28.667 -25.167 56 -28.5c1.33301 0 2.66602 -0.166992 3.99902 -0.5s2.66602 -0.5 3.99902 -0.5s2.66602 -0.166992 3.99902 -0.5s2.66602 -0.5 3.99902 -0.5
c32 0 61.833 10 89.5 30s51.167 42 70.5 66c1.33301 1.33301 2.33301 2.5 3 3.5s1.33398 1.83301 2.00098 2.5l65 316c2.66699 11.333 4.66699 21.166 6 29.499s2 15.166 2 20.499c0 14 -5.16699 23.167 -15.5 27.5s-29.5 6.5 -57.5 6.5l4 31
c9.33301 0 18.833 -0.333008 28.5 -1s19.5 -1 29.5 -1l38 -2c12.667 -0.666992 25.334 -1 38.001 -1s25.334 0.333008 38.001 1l38 2c10 0 19.833 0.333008 29.5 1s19.5 1 29.5 1l-5 -31h-7.5h-8.5h-7.5h-7.5c-6 -0.666992 -11.833 -1.66699 -17.5 -3
s-10.5 -3.33301 -14.5 -6c-5.33301 -4 -10.333 -12.167 -15 -24.5s-8.33398 -25.166 -11.001 -38.499c-3.33301 -12.667 -6 -24.667 -8 -36s-3.66699 -19.666 -5 -24.999l-55 -259c-0.666992 -4 -2 -10.167 -4 -18.5s-4 -17.5 -6 -27.5
c-0.666992 -2.66699 -1.16699 -5.33398 -1.5 -8.00098s-0.833008 -5.33398 -1.5 -8.00098c-2 -8.66699 -3.66699 -17.167 -5 -25.5s-2 -15.833 -2 -22.5v-2.5c0 -1 0.333008 -1.83301 1 -2.5v-1.5c0 -0.333008 0.333008 -0.833008 1 -1.5c0 -1.33301 0.166992 -2.5 0.5 -3.5
s0.5 -2.16699 0.5 -3.5c1.33301 -4 5.83301 -7.16699 13.5 -9.5s16.167 -4.16602 25.5 -5.49902c4 0 8.33301 -0.166992 13 -0.5s8.66699 -0.5 12 -0.5c0.666992 0 1.5 0.166992 2.5 0.5s2.16699 0.5 3.5 0.5h0.5h0.5c1.33301 0 2.5 0.166992 3.5 0.5s1.83301 0.5 2.5 0.5
l-5 -31v0z" />
    <glyph glyph-name="V" unicode="V" horiz-adv-x="553" 
d="M240 -5l-73.0029 0.00292969l-2 23.5l-2 23.5l-2 22.5l-2 23.5l-47 376c-1.33301 8.66699 -2.16602 16.5 -2.49902 23.5s-0.833008 13.5 -1.5 19.5c-2 22 -6.33301 36.333 -13 43s-26 10.667 -58 12l4 31c5.33301 0 10.5 -0.166992 15.5 -0.5s9.83301 -0.5 14.5 -0.5
c10 -0.666992 20.167 -1.16699 30.5 -1.5s20.166 -0.5 29.499 -0.5c19.333 0 39.166 0.333008 59.499 1l60.5 2c7.33301 0.666992 14.333 1.16699 21 1.5s13.334 0.5 20.001 0.5l-7 -29c-26.667 0 -44.667 -2.66699 -54 -8s-14 -16.333 -14 -33
c0 -2.66699 0.166992 -5.33398 0.5 -8.00098s0.833008 -5.66699 1.5 -9c0 -3.33301 0.166992 -6.66602 0.5 -9.99902s0.5 -6.66602 0.5 -9.99902l43 -366l132 225c4 6 10.5 16.833 19.5 32.5l29.5 51.5c1.33301 2.66699 2.83301 5.5 4.5 8.5s3.16699 5.83301 4.5 8.5
c11.333 21.333 21.333 41.5 30 60.5s13 32.167 13 39.5c0 5.33301 -4.16699 9.16602 -12.5 11.499s-17.166 4.16602 -26.499 5.49902c-5.33301 0.666992 -10.333 1 -15 1h-13h-8l7 27c6 0 11.833 -0.166992 17.5 -0.5s11.5 -0.5 17.5 -0.5c2.66699 0 5.5 -0.166992 8.5 -0.5
s5.83301 -0.5 8.5 -0.5c8.66699 0 17.334 -0.166992 26.001 -0.5s17.334 -0.5 26.001 -0.5c8 0 16 0.166992 24 0.5s16.333 0.5 25 0.5c1.33301 0 2.66602 0.166992 3.99902 0.5s2.66602 0.5 3.99902 0.5c5.33301 0 10.333 0.166992 15 0.5s9.33398 0.5 14.001 0.5l-5 -31
c-16 -1.33301 -27.667 -3.5 -35 -6.5s-13.666 -8.16699 -18.999 -15.5c-2.66699 -3.33301 -5.5 -7.5 -8.5 -12.5s-6.5 -10.5 -10.5 -16.5l-255 -432c-5.33301 -8.66699 -10.5 -17.834 -15.5 -27.501s-10.167 -19.167 -15.5 -28.5
c-2 -4.66699 -4.16699 -9.33398 -6.5 -14.001s-4.83301 -9 -7.5 -13v-1z" />
    <glyph glyph-name="W" unicode="W" horiz-adv-x="833" 
d="M452 413l-63.5049 -147.496l-60.5 -149.5l-23.5 -59l-22.5 -59l-63 -1l-14.5 70l-14.5 70c-5.33301 23.333 -10.333 46.666 -15 69.999s-9.66699 46.666 -15 69.999c-4 17.333 -8 36.333 -12 57s-8.33301 41.667 -13 63c-5.33301 24 -11 47.5 -17 70.5
s-12.333 43.833 -19 62.5c-4.66699 11.333 -11.5 18.5 -20.5 21.5s-18.833 5.16699 -29.5 6.5c-0.666992 0 -1.66699 0.166992 -3 0.5s-2.66602 0.5 -3.99902 0.5v34c6.66699 0 13.5 -0.166992 20.5 -0.5s13.833 -0.5 20.5 -0.5c14 -0.666992 27.833 -1.16699 41.5 -1.5
s27.167 -0.5 40.5 -0.5c12 0 24.5 0.166992 37.5 0.5s25.833 0.833008 38.5 1.5h4h5c6.66699 0 13.667 0.166992 21 0.5s14.333 0.5 21 0.5v-34h-18h-2.5h-2.5c-10 -0.666992 -19 -2.83398 -27 -6.50098s-12 -10.5 -12 -20.5l2 -4c0.666992 -18.667 2.66699 -37.167 6 -55.5
s7.33301 -36.5 12 -54.5c0.666992 -4.66699 1.66699 -9.16699 3 -13.5s2.33301 -8.83301 3 -13.5c3.33301 -13.333 6.33301 -26.5 9 -39.5l8 -39.5l14.5 -65l15.5 -65l67.5 155l62.5 157l20 52l20 52h41c23.333 -69.333 48.666 -138.5 75.999 -207.5s56 -137.167 86 -204.5
l8 31l8 30c2 5.33301 3.66699 10.5 5 15.5l4 15.5l12 46c4 15.333 7.66699 30.666 11 45.999l7 27c2.66699 10.667 5.33398 22 8.00098 34c0.666992 3.33301 1.5 6.83301 2.5 10.5s1.83301 7.5 2.5 11.5c3.33301 16 6.33301 31.5 9 46.5s4 27.167 4 36.5
c0 7.33301 -3.33301 12.666 -10 15.999s-14 5.33301 -22 6c-2.66699 0.666992 -5.33398 1 -8.00098 1h-7h-18v36c8.66699 -0.666992 17.334 -1.16699 26.001 -1.5s17.667 -0.5 27 -0.5c8.66699 -0.666992 17.334 -1 26.001 -1h26h19c6.66699 0 13.334 0.333008 20.001 1h19
h19v-34h-12c-12 0 -20.667 -2.16699 -26 -6.5s-10 -11.166 -14 -20.499c-0.666992 -3.33301 -1.66699 -6.5 -3 -9.5s-2.66602 -6.5 -3.99902 -10.5c-20 -64 -38.5 -128.167 -55.5 -192.5l-49.5 -193.5l-15.5 -64.5c-5 -21.667 -10.167 -42.834 -15.5 -63.501l-65 -1
c-2.66699 8 -5.5 15.833 -8.5 23.5l-8.5 22.5l-14 37l-14 36l-56 149.5c-19.333 49.667 -39.666 98.834 -60.999 147.501v0z" />
    <glyph glyph-name="X" unicode="X" horiz-adv-x="721" 
d="M34 0l6.99805 31.002c15.333 0 27.833 1.16699 37.5 3.5s18.834 6.5 27.501 12.5c4.66699 3.33301 9.66699 7.33301 15 12s11 10.334 17 17.001l197 211l-95 204l-12.5 24.5c-3.66699 7 -7.16699 13.167 -10.5 18.5c-8 12 -17.333 19.667 -28 23s-28.334 5 -53.001 5
l5 31c9.33301 0 18.833 -0.166992 28.5 -0.5s19.5 -0.5 29.5 -0.5c9.33301 -0.666992 18.833 -1.16699 28.5 -1.5s19.167 -0.5 28.5 -0.5c13.333 0 26.5 0.166992 39.5 0.5s26.5 0.833008 40.5 1.5c13.333 0 26.666 0.166992 39.999 0.5s26.333 0.5 39 0.5l-8 -31h-26
c-12.667 0 -22.667 -1.33301 -30 -4s-11 -8.33398 -11 -17.001c0 -4 1.16699 -9.16699 3.5 -15.5s5.5 -14.166 9.5 -23.499l64 -136l95 104l40 44c11.333 12 17 21.667 17 29c0 5.33301 -5.5 9.83301 -16.5 13.5s-29.167 5.5 -54.5 5.5l4 31
c8.66699 0 17.5 -0.166992 26.5 -0.5s17.833 -0.5 26.5 -0.5h7.5h6.5c11.333 -0.666992 22.5 -1.16699 33.5 -1.5s21.833 -0.5 32.5 -0.5c8 0 16 0.166992 24 0.5s16 0.833008 24 1.5c8 0 16 0.166992 24 0.5s16 0.5 24 0.5l-8 -31c-19.333 0 -35.666 -2.66699 -48.999 -8
s-26 -13 -38 -23c-6 -4.66699 -12.333 -10.167 -19 -16.5l-21 -20.5l-160 -163l120 -256c0 -0.666992 0.166992 -1.33398 0.5 -2.00098s0.833008 -1.33398 1.5 -2.00098c8.66699 -19.333 18.334 -30.666 29.001 -33.999s26 -5.33301 46 -6h3.5h2.5l-7 -31
c-6.66699 0.666992 -13.667 1 -21 1s-14.333 0.333008 -21 1c-14.667 0 -29 0.166992 -43 0.5s-27.667 0.5 -41 0.5h-35.5c-11.667 0 -23.5 -0.333008 -35.5 -1c-12 0 -24 -0.166992 -36 -0.5s-24 -0.833008 -36 -1.5l7 31c21.333 0 38 0.833008 50 2.5
s18 7.83398 18 18.501c0 4 -1.16699 9.83301 -3.5 17.5s-5.5 16.5 -9.5 26.5l-70 150l-125 -134c-13.333 -14.667 -23.666 -27.334 -30.999 -38.001s-11 -18.667 -11 -24c0 -6.66699 6.83301 -11.334 20.5 -14.001s33.834 -4.33398 60.501 -5.00098l-6 -31
c-10 0.666992 -20.333 1.16699 -31 1.5s-21.334 0.5 -32.001 0.5h-33h-31h-17h-17c-12 0 -23.667 -0.166992 -35 -0.5s-22.333 -0.833008 -33 -1.5v0z" />
    <glyph glyph-name="Y" unicode="Y" horiz-adv-x="562" 
d="M125 0l4.99707 27.9961c3.33301 0 6.66602 0.166992 9.99902 0.5s6.33301 0.5 9 0.5c24 0.666992 40.167 2.83398 48.5 6.50098s15.166 14.167 20.499 31.5c1.33301 4.66699 2.66602 9.83398 3.99902 15.501s3 12.167 5 19.5l21 96c-1.33301 16.667 -4 37.334 -8 62.001
s-8.66699 50.334 -14 77.001c-7.33301 32 -16.166 62.833 -26.499 92.5s-22.166 51.834 -35.499 66.501c-6 5.33301 -12.667 9.83301 -20 13.5s-15 6.16699 -23 7.5c-2.66699 0.666992 -5.66699 1.16699 -9 1.5s-6.66602 0.5 -9.99902 0.5h-6.5
c-2.33301 0 -4.83301 -0.333008 -7.5 -1c-6.66699 -0.666992 -13.334 -1.66699 -20.001 -3s-13 -2.66602 -19 -3.99902l-2 19c8 6 16.167 11.833 24.5 17.5l24.5 16.5c8.66699 5.33301 17.167 10.833 25.5 16.5l25.5 17.5h13c25.333 0 47.5 -5 66.5 -15
s35.5 -27.667 49.5 -53c10.667 -20 19.667 -43 27 -69s13.333 -52.667 18 -80c4 -20.667 7.33301 -41 10 -61s5.33398 -38.667 8.00098 -56c8 18.667 17.833 40 29.5 64s24.834 48.667 39.501 74c26 43.333 55.5 84 88.5 122s67.5 62 103.5 72l3 -4
c0 -6 -0.166992 -11.833 -0.5 -17.5s-0.5 -11.167 -0.5 -16.5c-0.666992 -6 -1.16699 -11.833 -1.5 -17.5s-0.5 -11.167 -0.5 -16.5l-7 -9c-30.667 -10 -58.834 -27.833 -84.501 -53.5s-48.167 -52.834 -67.5 -81.501c-6.66699 -9.33301 -12.667 -18.5 -18 -27.5
s-10.333 -17.833 -15 -26.5c-20.667 -37.333 -36.334 -75.833 -47.001 -115.5s-19.667 -80.167 -27 -121.5c-0.666992 -1.33301 -1.16699 -2.83301 -1.5 -4.5s-0.833008 -3.5 -1.5 -5.5c-0.666992 -1.33301 -1.16699 -2.83301 -1.5 -4.5s-0.5 -3.16699 -0.5 -4.5
c-0.666992 -2 -1.16699 -4 -1.5 -6s-0.5 -4 -0.5 -6c0 -4 1.16699 -7.83301 3.5 -11.5s5.16602 -6.16699 8.49902 -7.5c3.33301 -2 7.33301 -3.83301 12 -5.5s9.66699 -2.83398 15 -3.50098c2.66699 0 5.33398 -0.166992 8.00098 -0.5s5.33398 -0.5 8.00098 -0.5
s5.33398 0.166992 8.00098 0.5s5.66699 0.5 9 0.5c2.66699 0 5.33398 0.166992 8.00098 0.5s5.33398 0.5 8.00098 0.5l-5 -31c-12 0.666992 -23.833 1.16699 -35.5 1.5s-23.5 0.5 -35.5 0.5c-12 0.666992 -24 1 -36 1h-36h-35.5c-11.667 0 -23.5 -0.333008 -35.5 -1
c-12 0 -23.833 -0.166992 -35.5 -0.5s-23.5 -0.833008 -35.5 -1.5v0z" />
    <glyph glyph-name="Z" unicode="Z" horiz-adv-x="647" 
d="M42 0l-0.00292969 28.999l24.5 26l25.5 27l12.5 14l12.5 14l361 435h-25.5c-9 0 -18.5 0.333008 -28.5 1h-16h-16h-13.5h-13.5h-4.5h-5.5c-25.333 0 -50 -0.666992 -74 -2s-45.333 -4 -64 -8c-10.667 -1.33301 -19 -7.16602 -25 -17.499s-11 -21.5 -15 -33.5
c-2 -7.33301 -3.83301 -14.5 -5.5 -21.5s-3.16699 -12.833 -4.5 -17.5h-26c2.66699 12 5.16699 24 7.5 36l7.5 37c2 12 4.16699 24.167 6.5 36.5s4.83301 24.5 7.5 36.5h12c4 0 8.33301 0.333008 13 1h12h12c11.333 0 22.833 -0.333008 34.5 -1s23.5 -1 35.5 -1
c1.33301 -0.666992 2.66602 -1 3.99902 -1h4c10.667 -0.666992 21.334 -1.16699 32.001 -1.5s21 -0.5 31 -0.5h16.5h17.5c5.33301 -0.666992 10.833 -1 16.5 -1h17.5c17.333 0 34.5 0.166992 51.5 0.5s34.167 0.833008 51.5 1.5l52 2l51 2v-31
c-12 -11.333 -23.667 -23.333 -35 -36l-33 -38l-17 -19.5l-17 -19.5l-331 -400c6.66699 0 13.334 -0.166992 20.001 -0.5s13.667 -0.5 21 -0.5c6.66699 0 13.334 -0.166992 20.001 -0.5s13.334 -0.5 20.001 -0.5c14.667 0 29.5 0.166992 44.5 0.5s30.167 0.833008 45.5 1.5
c18.667 0.666992 37.334 1.5 56.001 2.5s37 2.16699 55 3.5c22 3.33301 37.167 13.333 45.5 30s15.166 34.667 20.499 54c1.33301 4 2.5 7.83301 3.5 11.5s2.16699 7.5 3.5 11.5h32c-8 -26.667 -15.333 -53.5 -22 -80.5s-12.667 -54.167 -18 -81.5
c-12 0 -24.167 0.166992 -36.5 0.5s-24.5 0.833008 -36.5 1.5c-20.667 0 -41.167 0.333008 -61.5 1s-40.833 1 -61.5 1c-16 0.666992 -32.167 1 -48.5 1h-49.5c-20 0 -40 -0.166992 -60 -0.5s-40.333 -0.833008 -61 -1.5c-15.333 0 -30.5 -0.333008 -45.5 -1l-45.5 -2v0z
" />
    <glyph glyph-name="bracketleft" unicode="[" horiz-adv-x="488" 
d="M122 -118l77.501 354.504l71.5 356.5h24h24c8 -0.666992 15.833 -1 23.5 -1h23.5h24c8 0 16.333 0.333008 25 1h25h24l-7 -31h-29h-8.5h-8.5c-10 -0.666992 -19.333 -1.5 -28 -2.5s-14.334 -3.16699 -17.001 -6.5c-4.66699 -4.66699 -10.667 -20.834 -18 -48.501
s-15.333 -59.5 -24 -95.5c-1.33301 -6.66699 -2.83301 -13.5 -4.5 -20.5s-3.16699 -13.833 -4.5 -20.5c-10 -44 -18.833 -84.833 -26.5 -122.5s-11.834 -58.834 -12.501 -63.501c-0.666992 -1.33301 -3.16699 -11.333 -7.5 -30l-14.5 -65
c-1.33301 -6 -2.5 -11.833 -3.5 -17.5s-2.16699 -11.167 -3.5 -16.5c-4 -21.333 -7.5 -41.833 -10.5 -61.5s-4.5 -35.5 -4.5 -47.5v-2v-2c0 -4 0.333008 -7.33301 1 -10s1.33398 -4.33398 2.00098 -5.00098c3.33301 -4.66699 9.83301 -7.83398 19.5 -9.50098
s20.167 -2.5 31.5 -2.5h3.5h3.5l39 -1l-8 -32c-12 0.666992 -24 1.16699 -36 1.5s-24 0.5 -36 0.5c-12 0.666992 -24 1.16699 -36 1.5s-24 0.5 -36 0.5h-14.5c-5 0 -9.83301 -0.333008 -14.5 -1h-15h-14v-1z" />
    <glyph glyph-name="backslash" unicode="\" horiz-adv-x="348" 
d="M88 632h48l105 -710h-48l-105 710v0z" />
    <glyph glyph-name="bracketright" unicode="]" horiz-adv-x="498" 
d="M368 592l-40.001 -178.004l-39 -178l-37 -177.5l-36 -177.5c-6 0 -12 0.166992 -18 0.5s-12 0.5 -18 0.5h-2.5h-2.5c-6.66699 0.666992 -13.5 1.16699 -20.5 1.5s-13.5 0.5 -19.5 0.5c-8.66699 0 -17.667 -0.166992 -27 -0.5s-18.333 -0.833008 -27 -1.5
c-9.33301 0 -18.5 -0.166992 -27.5 -0.5s-18.167 -0.5 -27.5 -0.5l6 31h39c2 0.666992 3.83301 1 5.5 1h5.5c9.33301 0.666992 17.833 1.66699 25.5 3s12.834 3.33301 15.501 6c4 5.33301 9.83301 21.833 17.5 49.5s15.834 59.5 24.501 95.5
c1.33301 6 2.66602 12.333 3.99902 19s2.66602 13 3.99902 19c10 44 18.833 84.667 26.5 122s11.834 58.333 12.501 63c0 2 2.33301 13 7 33s9.66699 43 15 69c0.666992 4.66699 1.5 9.33398 2.5 14.001s2.16699 9.33398 3.5 14.001c4 22 7.66699 43.167 11 63.5
s5 36.5 5 48.5v11c0 3.33301 -0.666992 5.33301 -2 6c-2.66699 4.66699 -8.66699 7.83398 -18 9.50098s-19.333 2.83398 -30 3.50098h-12h-11h-26l7 31c34 -0.666992 68 -1 102 -1h102v0z" />
    <glyph glyph-name="asciicircum" unicode="^" horiz-adv-x="592" 
d="M246 618h89l213 -239h-44l-214 167l-214 -167h-45l215 239v0z" />
    <glyph glyph-name="underscore" unicode="_" horiz-adv-x="441" 
d="M3 -130h433v-73h-433v73v0z" />
    <glyph glyph-name="grave" unicode="`" horiz-adv-x="301" 
d="M70 384l-20.999 13c19.333 32.667 35.666 66.5 48.999 101.5s25 70.833 35 107.5l100 26l13 -8l-176 -240v0z" />
    <glyph glyph-name="a" unicode="a" horiz-adv-x="460" 
d="M297 203l-25.4971 -40.4932c-9.66699 -15 -20.5 -30.167 -32.5 -45.5c-21.333 -28 -44.833 -54 -70.5 -78s-51.834 -38.667 -78.501 -44c-3.33301 -0.666992 -6.66602 -1.16699 -9.99902 -1.5s-6.66602 -0.5 -9.99902 -0.5c-12.667 0 -22.834 3 -30.501 9
s-12.167 15 -13.5 27c0 2 -0.166992 4.16699 -0.5 6.5s-0.5 4.5 -0.5 6.5s-0.166992 4.16699 -0.5 6.5s-0.5 4.5 -0.5 6.5c0 8 0.333008 16 1 24s1.66699 16 3 24c2.66699 17.333 6.5 34.666 11.5 51.999s10.167 33.666 15.5 48.999c14.667 46.667 37.334 85.667 68.001 117
s68 57.333 112 78c4.66699 2 9.33398 3.66699 14.001 5l14 4c4 0.666992 8.33301 1.16699 13 1.5s9.33398 0.5 14.001 0.5c4 0 8 -0.166992 12 -0.5s7.66699 -0.833008 11 -1.5c10.667 -1.33301 21 -3.33301 31 -6s20 -5.66699 30 -9
c1.33301 0 2.66602 -0.166992 3.99902 -0.5s2.66602 -0.833008 3.99902 -1.5l38 24l13 -11c-14.667 -44.667 -28.834 -90.167 -42.501 -136.5s-24.5 -92.833 -32.5 -139.5c-2 -8 -3.5 -15.833 -4.5 -23.5s-2.16699 -15.5 -3.5 -23.5
c0 -0.666992 -0.166992 -1.33398 -0.5 -2.00098s-0.5 -1.33398 -0.5 -2.00098s-0.166992 -1.33398 -0.5 -2.00098s-0.5 -1.33398 -0.5 -2.00098c0 -4 1 -6.83301 3 -8.5s4.33301 -2.5 7 -2.5c3.33301 0 7.66602 1 12.999 3s10.666 4.66699 15.999 8l6 4l6 4l14.5 11
c4.33301 3.33301 7.5 5.66602 9.5 6.99902l10 -28c-4 -2.66699 -8 -5.5 -12 -8.5s-8 -5.83301 -12 -8.5s-8 -5.5 -12 -8.5s-8 -5.83301 -12 -8.5c-19.333 -12.667 -38 -23.667 -56 -33s-33 -14 -45 -14c-8.66699 0 -15.834 2.66699 -21.501 8s-8.5 15.333 -8.5 30
c0 7.33301 1.16699 15.833 3.5 25.5l7.5 32.5c0 2 0.166992 3.83301 0.5 5.5s0.833008 3.5 1.5 5.5l30 106v0zM167.003 75.0068c35.333 28 64.666 62.334 87.999 103.001s42 82.667 56 126c2.66699 7.33301 5 14.666 7 21.999l6 22c-8 3.33301 -16.667 6.5 -26 9.5
s-18.666 5.16699 -27.999 6.5c-3.33301 0.666992 -6.5 1.16699 -9.5 1.5s-6.16699 0.5 -9.5 0.5c-8.66699 0 -17.167 -1.33301 -25.5 -4s-15.833 -7.66699 -22.5 -15c-12 -14 -23.167 -34 -33.5 -60s-19.166 -53.333 -26.499 -82c-6 -22 -10.667 -43.5 -14 -64.5
s-5.33301 -39.167 -6 -54.5c0 -8 1.16699 -14 3.5 -18s5.5 -6 9.5 -6c2.66699 0 5.66699 0.666992 9 2s6.66602 3 9.99902 5c0.666992 0 1.16699 0.166992 1.5 0.5s0.833008 0.5 1.5 0.5c2 1.33301 3.66699 2.33301 5 3l4 2v0z" />
    <glyph glyph-name="b" unicode="b" horiz-adv-x="451" 
d="M34 120l75.001 361.001c0.666992 2.66699 1.16699 5 1.5 7s0.5 4 0.5 6l5 27.5c1.33301 7.66699 2 13.834 2 18.501c0 10.667 -4.5 17.667 -13.5 21s-26.5 5.33301 -52.5 6l6 25c25.333 2 49.666 5.5 72.999 10.5s46.666 11.5 69.999 19.5
c4.66699 1.33301 9.33398 2.83301 14.001 4.5s9.33398 3.5 14.001 5.5l11 -6l-84 -344c15.333 20.667 32.666 40 51.999 58s40.333 33.333 63 46c2 1.33301 4 2.5 6 3.5s4 1.83301 6 2.5l23 10c8 3.33301 16.333 6 25 8c6 1.33301 11.833 2.5 17.5 3.5s11.167 1.5 16.5 1.5
h4c1.33301 0 2.66602 -0.333008 3.99902 -1h0.5h0.5c1.33301 0 2.83301 -0.166992 4.5 -0.5s2.83398 -0.5 3.50098 -0.5c12 -2.66699 20.833 -9.5 26.5 -20.5s9.5 -22.5 11.5 -34.5c1.33301 -6.66699 2.16602 -12.834 2.49902 -18.501s0.5 -11.167 0.5 -16.5
c0 -34.667 -4.5 -68.834 -13.5 -102.501s-22.167 -65.167 -39.5 -94.5c-16.667 -26.667 -41.334 -51.667 -74.001 -75s-67 -40.333 -103 -51c-10.667 -3.33301 -21.5 -5.83301 -32.5 -7.5s-21.833 -2.5 -32.5 -2.5c-3.33301 0 -7.16602 0.166992 -11.499 0.5
s-8.5 0.5 -12.5 0.5c-2 0.666992 -4 1 -6 1s-4 0.333008 -6 1c-21.333 4.66699 -37.333 15.5 -48 32.5s-16 35.5 -16 55.5c0 2.66699 0.166992 5.66699 0.5 9s0.833008 7 1.5 11l2 10c0.666992 3.33301 1.33398 6.33301 2.00098 9v0zM147.001 207.001
c-1.33301 -3.33301 -2.83496 -7.49805 -4.50195 -12.498s-3.5 -10.167 -5.5 -15.5c-2 -8 -4.16699 -16.167 -6.5 -24.5s-4.16602 -17.166 -5.49902 -26.499c-0.666992 -4.66699 -1.16699 -9.33398 -1.5 -14.001s-0.5 -9.33398 -0.5 -14.001c0 -16 3.66699 -30.667 11 -44
s19.333 -21.666 36 -24.999c0.666992 0 1.5 -0.166992 2.5 -0.5s1.83301 -0.5 2.5 -0.5s1.5 -0.166992 2.5 -0.5s1.83301 -0.5 2.5 -0.5c26.667 0 51.167 16.667 73.5 50s39.5 70 51.5 110c6 18 10.5 35.667 13.5 53s4.5 33.333 4.5 48c0 14 -1.33301 26.5 -4 37.5
s-7.33398 18.5 -14.001 22.5c-1.33301 0.666992 -2.66602 1.16699 -3.99902 1.5s-2.66602 0.5 -3.99902 0.5c-2 0.666992 -3.66699 1 -5 1h-4c-2 0 -4.33301 -0.166992 -7 -0.5s-5.33398 -1.16602 -8.00098 -2.49902c-3.33301 -0.666992 -6.83301 -1.83398 -10.5 -3.50098
s-7.16699 -3.5 -10.5 -5.5c-1.33301 -0.666992 -2.5 -1.33398 -3.5 -2.00098s-1.83301 -1.33398 -2.5 -2.00098c-23.333 -15.333 -43.166 -34 -59.499 -56s-29.5 -46.667 -39.5 -74v0z" />
    <glyph glyph-name="c" unicode="c" horiz-adv-x="404" 
d="M319 63c-3.33301 -2 -6.66797 -4.1748 -10.001 -6.50781s-6.66602 -4.83301 -9.99902 -7.5c-17.333 -11.333 -36.333 -22.166 -57 -32.499s-41.334 -17.833 -62.001 -22.5c-7.33301 -2 -14.833 -3.5 -22.5 -4.5s-15.167 -1.5 -22.5 -1.5l-17 -1
c-34.667 4.66699 -58.667 19.167 -72 43.5s-20 50.833 -20 79.5c0 4 0.166992 8.16699 0.5 12.5s0.833008 8.83301 1.5 13.5c0.666992 7.33301 1.5 14.5 2.5 21.5s2.16699 13.833 3.5 20.5c1.33301 4 2.33301 8 3 12s1.33398 7.66699 2.00098 11
c13.333 56.667 43.833 105.667 91.5 147s100.167 62 157.5 62c6.66699 0 13.5 -0.333008 20.5 -1s14.167 -1.66699 21.5 -3c6.66699 -1.33301 13.5 -3 20.5 -5s13.833 -4.33301 20.5 -7l-29 -123h-23v19c0 14.667 -2 27.834 -6 39.501s-15 20.834 -33 27.501
c-2.66699 0.666992 -5.16699 1.33398 -7.5 2.00098s-4.83301 1.33398 -7.5 2.00098c-4.66699 0.666992 -9.16699 1.16699 -13.5 1.5s-8.16602 0.5 -11.499 0.5c-18 0 -34.333 -5.33301 -49 -16s-26 -25.334 -34 -44.001c-2 -4 -4 -9 -6 -15s-4 -12.333 -6 -19
c-3.33301 -11.333 -6.83301 -24.166 -10.5 -38.499s-6.5 -28.833 -8.5 -43.5l-2 -22c-0.666992 -7.33301 -1 -14.666 -1 -21.999c0 -18.667 2.66699 -36.167 8 -52.5s14 -28.166 26 -35.499c3.33301 -2 7 -3.66699 11 -5l12 -4c3.33301 -0.666992 6.5 -1.16699 9.5 -1.5
s5.83301 -0.5 8.5 -0.5c6 0 12.167 0.666992 18.5 2s12.5 3 18.5 5c9.33301 2.66699 18.666 6.33398 27.999 11.001l27 14l16.5 9.5l14.5 8.5c-0.666992 -2.66699 -1 -5 -1 -7s-0.333008 -4 -1 -6v-8.5v-9.5v0z" />
    <glyph glyph-name="d" unicode="d" horiz-adv-x="496" 
d="M298 191c-12.667 -22 -26.499 -43.3311 -41.499 -63.998s-31.833 -40.334 -50.5 -59.001c-4 -3.33301 -8 -7 -12 -11s-8 -7.66699 -12 -11c-13.333 -12 -27.666 -23 -42.999 -33s-31.333 -16.667 -48 -20l-16 -1c-18.667 0.666992 -31.667 8.33398 -39 23.001
s-11.333 31.334 -12 50.001v2.5v2.5c0 2 0.166992 4.16699 0.5 6.5s0.5 4.83301 0.5 7.5c0 0.666992 0.166992 1.66699 0.5 3s0.5 2.66602 0.5 3.99902c0.666992 3.33301 1.16699 6.5 1.5 9.5s0.5 5.83301 0.5 8.5c0.666992 6.66699 1.5 13.5 2.5 20.5
s2.16699 14.167 3.5 21.5c4.66699 23.333 11.167 46.333 19.5 69s18.166 44.334 29.499 65.001c14.667 28 37.834 52.833 69.501 74.5s64.834 36.167 99.501 43.5c8 2 15.667 3.33301 23 4s14.666 1 21.999 1h10c3.33301 0 6.66602 -0.333008 9.99902 -1
c4.66699 0 9.16699 -0.333008 13.5 -1s8.16602 -1.33398 11.499 -2.00098l21 116c1.33301 5.33301 2 10.166 2 14.499v10.5c0 9.33301 -3.16699 15.666 -9.5 18.999s-15.166 5 -26.499 5h-31l5 26c30 2.66699 59.333 6.83398 88 12.501s57 13.834 85 24.501l10 -6l-58 -232
c-2 -8.66699 -6.33301 -26 -13 -52l-22 -86c-0.666992 -4 -1.5 -7.83301 -2.5 -11.5s-2.16699 -7.5 -3.5 -11.5c-8 -32.667 -15 -63.5 -21 -92.5s-9 -49.833 -9 -62.5v-0.5v-1.5v-0.5c0 -0.333008 0.333008 -0.5 1 -0.5v-1.5v-0.5c0 -3.33301 1 -6 3 -8s4.33301 -3 7 -3
c3.33301 0 7.5 1 12.5 3s9.83301 4.66699 14.5 8c2.66699 1.33301 5 2.66602 7 3.99902l6 4l14.5 11c4.33301 3.33301 7.16602 5.66602 8.49902 6.99902l10 -24l-14 -10.5l-14 -10.5c-5.33301 -4.66699 -11 -9 -17 -13l-18 -12c-16 -10 -31.667 -18.5 -47 -25.5
s-28.333 -10.5 -39 -10.5c-8.66699 0 -16 2.83301 -22 8.5s-9 15.834 -9 30.501c0 7.33301 1.16699 16.666 3.5 27.999l7.5 36l26 95v0zM177.001 78.002c1.33301 1.33301 2.83105 2.66992 4.49805 4.00293s3.5 2.66602 5.5 3.99902c19.333 17.333 38.5 39.833 57.5 67.5
s35.5 56.5 49.5 86.5c8.66699 20 16.167 39.667 22.5 59s10.5 37 12.5 53c-2.66699 0.666992 -5.66699 1.5 -9 2.5s-6.66602 2.16699 -9.99902 3.5l-14.5 4c-5 1.33301 -10.167 2.33301 -15.5 3c-4 0.666992 -8.33301 1.33398 -13 2.00098s-9 1 -13 1h-4h-5
c-6.66699 -0.666992 -13.5 -2.33398 -20.5 -5.00098s-13.167 -6.33398 -18.5 -11.001c-11.333 -11.333 -22.166 -30 -32.499 -56s-19.5 -53.333 -27.5 -82c-6.66699 -24.667 -12.167 -48.5 -16.5 -71.5s-6.83301 -41.167 -7.5 -54.5c0 -10.667 1.5 -18.334 4.5 -23.001
s6.83301 -7 11.5 -7c2.66699 0 6 1 10 3s8.33301 4.33301 13 7c0.666992 0 1.66699 0.333008 3 1s2.33301 1.66699 3 3c2 0.666992 3.83301 1.66699 5.5 3s3.16699 2.33301 4.5 3v0z" />
    <glyph glyph-name="e" unicode="e" horiz-adv-x="386" 
d="M332 78l-23.002 -15.4971l-27 -17.5c-14 -8.66699 -28.667 -17 -44 -25s-30.666 -14.667 -45.999 -20c-11.333 -3.33301 -22.666 -6.16602 -33.999 -8.49902s-22.333 -3.5 -33 -3.5c-11.333 0 -22.5 1.66699 -33.5 5s-20.833 7.66602 -29.5 12.999
c-14 11.333 -24 25.166 -30 41.499s-9 33.5 -9 51.5c0 5.33301 0.166992 10.666 0.5 15.999s0.833008 10.666 1.5 15.999c1.33301 9.33301 3 18.833 5 28.5s4.33301 18.834 7 27.501c0.666992 3.33301 1.5 6.66602 2.5 9.99902s1.83301 6.66602 2.5 9.99902
c10 38.667 24.833 71.167 44.5 97.5s45.834 49.5 78.501 69.5c1.33301 0.666992 2.66602 1.5 3.99902 2.5s2.66602 1.83301 3.99902 2.5c9.33301 5.33301 19.833 10.333 31.5 15s23.5 8.33398 35.5 11.001c7.33301 2.66699 14.833 4.5 22.5 5.5s14.834 1.5 21.501 1.5
c18.667 0 35.167 -5 49.5 -15s21.5 -27.667 21.5 -53v-15c-4 -40.667 -22 -71.5 -54 -92.5s-66.667 -36.833 -104 -47.5c-12 -3.33301 -24 -6.33301 -36 -9s-23.667 -5 -35 -7c-1.33301 -9.33301 -2.33301 -18.333 -3 -27s-1 -16.667 -1 -24c0 -28 5.5 -47.833 16.5 -59.5
s25.5 -17.5 43.5 -17.5c14 0 30 3.16699 48 9.5s36.667 14.5 56 24.5l18.5 10c6.33301 3.33301 12.5 7 18.5 11l9 -22v0zM266.998 361.003c-2 3.33301 -4.83301 5.83008 -8.5 7.49707s-7.16699 2.83398 -10.5 3.50098c-2 0.666992 -3.83301 1 -5.5 1h-4.5
c-3.33301 0 -6.83301 -0.333008 -10.5 -1s-7.16699 -2 -10.5 -4c-9.33301 -3.33301 -18.333 -8.83301 -27 -16.5s-15.334 -16.167 -20.001 -25.5c-6.66699 -13.333 -12.667 -27.666 -18 -42.999s-9.66602 -30.666 -12.999 -45.999l-4 -19.5l-4 -19.5
c4 0.666992 8 1.5 12 2.5s8 2.16699 12 3.5c17.333 4 34.166 9.83301 50.499 17.5s30.5 18.5 42.5 32.5c1.33301 1.33301 2.5 2.83301 3.5 4.5s1.83301 3.16699 2.5 4.5c4 6.66699 7.83301 13.667 11.5 21s6.5 15 8.5 23c0.666992 3.33301 1.33398 7 2.00098 11
s1 7.66699 1 11v4.5c0 1.66699 -0.333008 3.5 -1 5.5c-0.666992 4 -1.66699 8 -3 12s-3.33301 7.33301 -6 10v0z" />
    <glyph glyph-name="f" unicode="f" horiz-adv-x="394" 
d="M-41 -211l25.0029 65.001h8c2 -0.666992 3.83301 -2 5.5 -4s3.5 -3.66699 5.5 -5c3.33301 -3.33301 7 -6.16602 11 -8.49902s8 -4.5 12 -6.5c2.66699 -1.33301 5.16699 -2.33301 7.5 -3s4.83301 -1 7.5 -1c1.33301 0 2.83301 0.166992 4.5 0.5s3.16699 0.833008 4.5 1.5
l4 2l4 2c6.66699 6.66699 12.5 19.334 17.5 38.001s9.16699 38.667 12.5 60c3.33301 19.333 6 37.666 8 54.999s3.33301 30 4 38l51 337c-12.667 0 -25.667 -0.5 -39 -1.5s-27 -2.16699 -41 -3.5l5 24l21 6c6.66699 2 13.667 4.33301 21 7c6.66699 2 13.5 4.33301 20.5 7
l20.5 8c10 36 20.833 64.667 32.5 86s26.834 41.333 45.501 60c9.33301 8.66699 19.5 17.5 30.5 26.5l37.5 29.5c8 6 16.667 11.167 26 15.5s18.666 7.16602 27.999 8.49902c2 0.666992 4 1 6 1h6c4 0 8.16699 -0.333008 12.5 -1l12.5 -2
c4 -1.33301 8.16699 -2.83301 12.5 -4.5s8.5 -3.5 12.5 -5.5l-32 -93l-8 -4c-6.66699 12 -16 22.833 -28 32.5s-25.333 14.5 -40 14.5h-2c-12.667 -0.666992 -21.834 -5.83398 -27.501 -15.501s-9.5 -20.167 -11.5 -31.5c-0.666992 -4 -1.16699 -8 -1.5 -12
s-0.833008 -7.66699 -1.5 -11l-16 -101c8.66699 0 17.5 0.166992 26.5 0.5s18.167 0.833008 27.5 1.5c5.33301 0.666992 10.833 1.16699 16.5 1.5s11.167 0.833008 16.5 1.5c3.33301 0.666992 6.83301 1.16699 10.5 1.5s7.16699 0.5 10.5 0.5l-8 -55
c-6 0 -11.833 0.166992 -17.5 0.5s-11.5 0.5 -17.5 0.5c-12 0.666992 -24 1.16699 -36 1.5s-24 0.5 -36 0.5l-40 -216l-11 -59c-4 -20.667 -8.66699 -41.334 -14 -62.001c-11.333 -42.667 -26.833 -84.167 -46.5 -124.5s-46.834 -73.166 -81.501 -98.499
c-8.66699 -6.66699 -17.334 -11.5 -26.001 -14.5s-17.667 -4.5 -27 -4.5c-2.66699 0 -6 0.166992 -10 0.5s-8.33301 0.833008 -13 1.5l-6 2l-6 2l-6 7v0z" />
    <glyph glyph-name="g" unicode="g" horiz-adv-x="498" 
d="M144 16c-6.66699 7.33301 -11.9961 14.502 -15.9961 21.502s-6 12.833 -6 17.5c0 11.333 5.83301 21.666 17.5 30.999s24.834 18.333 39.501 27c3.33301 2 6.5 4 9.5 6s6.16699 4 9.5 6h-14c-4.66699 0 -9.33398 0.333008 -14.001 1
c-16 1.33301 -31.833 4.66602 -47.5 9.99902s-27.834 15 -36.501 29c-4 6.66699 -7.33301 13.667 -10 21s-4.66699 15 -6 23c-0.666992 2.66699 -1.16699 5.66699 -1.5 9s-0.5 6.33301 -0.5 9c0 2 0.166992 4.33301 0.5 7s0.833008 5.33398 1.5 8.00098
c0 2 0.166992 4.33301 0.5 7s0.5 5 0.5 7c8 45.333 31 81.333 69 108s79 41.667 123 45c3.33301 0.666992 6.5 1 9.5 1h9.5h19c5.33301 -0.666992 10.833 -1.66699 16.5 -3l16.5 -4c0.666992 0 1.16699 -0.166992 1.5 -0.5s0.833008 -0.5 1.5 -0.5
c7.33301 -2 15 -3.83301 23 -5.5s16 -2.5 24 -2.5c1.33301 0 2.66602 -0.166992 3.99902 -0.5s2.66602 -0.5 3.99902 -0.5s2.66602 -0.166992 3.99902 -0.5s2.66602 -0.5 3.99902 -0.5c5.33301 0 11 0.166992 17 0.5s12 0.833008 18 1.5h2
c0.666992 0 1.33398 0.333008 2.00098 1c6.66699 0 13.334 0.333008 20.001 1s13 1 19 1l-8 -49h-81l2 -6c0.666992 -2 1.33398 -4.33301 2.00098 -7c2.66699 -8 4.5 -16.167 5.5 -24.5s1.5 -16.166 1.5 -23.499c0 -42 -16.833 -77.167 -50.5 -105.5
s-72.834 -46.833 -117.501 -55.5c-2 -2 -3.66699 -4 -5 -6s-2.66602 -4.33301 -3.99902 -7c-2 -2.66699 -3.5 -5.5 -4.5 -8.5s-1.5 -5.5 -1.5 -7.5c0 -10.667 5.83301 -20.5 17.5 -29.5s24.5 -17.5 38.5 -25.5l18 -10c6 -3.33301 11.667 -6.33301 17 -9
c0.666992 -0.666992 1.5 -1.33398 2.5 -2.00098s2.16699 -1.33398 3.5 -2.00098c16 -11.333 30.833 -23.833 44.5 -37.5s21.167 -31.5 22.5 -53.5v-9c0 -22 -7.5 -42.167 -22.5 -60.5s-31.833 -32.833 -50.5 -43.5c-15.333 -9.33301 -35.5 -18 -60.5 -26
s-51.167 -13.333 -78.5 -16c-6 -0.666992 -12 -1.16699 -18 -1.5s-12 -0.5 -18 -0.5c-34 0 -65.5 6.33301 -94.5 19s-47.833 34 -56.5 64c-0.666992 2 -1.33398 4.16699 -2.00098 6.5s-1 4.83301 -1 7.5c-0.666992 2.66699 -1 5.5 -1 8.5v7.5c0 26.667 10.667 48.5 32 65.5
s44.666 31.167 69.999 42.5c11.333 5.33301 22.5 9.83301 33.5 13.5l30.5 10.5v0zM164.004 -197.998l5.99805 0.00488281c31.333 0.666992 58.833 9.16699 82.5 25.5s35.5 35.166 35.5 56.499c0 5.33301 -0.833008 10.666 -2.5 15.999s-4.16699 10.666 -7.5 15.999
c-3.33301 6 -7.66602 11.667 -12.999 17s-11.666 10.666 -18.999 15.999l-84 51c-4 -0.666992 -7.83301 -1.66699 -11.5 -3s-7.5 -3 -11.5 -5c-21.333 -8.66699 -41 -20.834 -59 -36.501s-27 -36.167 -27 -61.5c0 -28 9.83301 -48.833 29.5 -62.5s41.167 -22.5 64.5 -26.5
c2.66699 -0.666992 5.5 -1.16699 8.5 -1.5s5.83301 -0.5 8.5 -0.5v-1zM162.002 277.007c0 -1.33301 -0.165039 -2.83203 -0.498047 -4.49902s-0.833008 -3.16699 -1.5 -4.5c0 -2.66699 -0.166992 -5.16699 -0.5 -7.5s-0.833008 -4.83301 -1.5 -7.5
c0 -3.33301 -0.166992 -6.5 -0.5 -9.5s-0.5 -5.83301 -0.5 -8.5c0 -19.333 4.33301 -36.833 13 -52.5s24.334 -24.167 47.001 -25.5l2 -1c23.333 0 41.833 8.33301 55.5 25s23.5 35.334 29.5 56.001c1.33301 4.66699 2.5 9.16699 3.5 13.5s1.83301 8.83301 2.5 13.5
c0 2 0.166992 4.16699 0.5 6.5s0.5 4.5 0.5 6.5c0.666992 2.66699 1 5.16699 1 7.5v7.5c0.666992 2 1 4.33301 1 7v7v3.5v3.5c-0.666992 15.333 -4.33398 29.666 -11.001 42.999s-18.334 21.666 -35.001 24.999h-3c-1.33301 0 -3 0.333008 -5 1h-0.5h-0.5h-3.5h-3.5
c-21.333 0 -38.833 -8.33301 -52.5 -25s-23.834 -34.667 -30.501 -54c-1.33301 -4.66699 -2.5 -9.16699 -3.5 -13.5s-1.83301 -8.5 -2.5 -12.5v0z" />
    <glyph glyph-name="h" unicode="h" horiz-adv-x="496" 
d="M42 -6l-7.99707 6.00293c7.33301 22 14.166 44.5 20.499 67.5s12.166 46.167 17.499 69.5c3.33301 12 6.33301 23.833 9 35.5l8 34.5l65 300c1.33301 7.33301 2.16602 14.333 2.49902 21s0.5 12.334 0.5 17.001c0 10.667 -3 17.667 -9 21s-16.333 5 -31 5h-23l5 24
l17.5 2l17.5 2c23.333 3.33301 46.5 7.5 69.5 12.5s45.5 11.833 67.5 20.5l6 -6l-35.5 -133.5l-33.5 -134.5l-16 -66.5c-5.33301 -22.333 -10.333 -44.833 -15 -67.5c19.333 29.333 41 56.666 65 81.999s50.333 48 79 68l7 4.5c2.66699 1.66699 5.33398 3.5 8.00098 5.5
c8.66699 6 18.167 11.5 28.5 16.5s20.833 8.83301 31.5 11.5c3.33301 0.666992 7 1.33398 11 2.00098s7.66699 1 11 1h10c10 -0.666992 16.833 -4.5 20.5 -11.5s5.83398 -14.5 6.50098 -22.5v-1.5v-1.5c0 -2.66699 -0.166992 -5.66699 -0.5 -9s-0.833008 -6.33301 -1.5 -9
c0 -4 -0.5 -7.83301 -1.5 -11.5s-1.83301 -7.16699 -2.5 -10.5c-0.666992 -4 -1.5 -7.66699 -2.5 -11s-1.83301 -6.33301 -2.5 -9l-47 -153c0 -1.33301 -1.16699 -5.5 -3.5 -12.5s-4.5 -15.167 -6.5 -24.5c-0.666992 -2.66699 -1.33398 -5 -2.00098 -7l-2 -6
c-2 -8 -3.66699 -15.5 -5 -22.5s-2 -12.833 -2 -17.5c0 -3.33301 0.666992 -6.33301 2 -9s2.66602 -4 3.99902 -4c0.666992 0 1.16699 -0.166992 1.5 -0.5s0.833008 -0.5 1.5 -0.5s1.16699 -0.166992 1.5 -0.5l0.5 -0.5c4 0 8.5 1.16699 13.5 3.5
s9.83301 5.16602 14.5 8.49902c2 0.666992 4 1.66699 6 3s3.66699 2.66602 5 3.99902c5.33301 3.33301 10.166 6.66602 14.499 9.99902s7.83301 5.66602 10.5 6.99902l11 -21l-16.5 -12.5c-5.66699 -4.33301 -11.5 -8.5 -17.5 -12.5l-18 -12.5
c-6 -4.33301 -12.333 -8.16602 -19 -11.499c-16.667 -10.667 -32.667 -19.334 -48 -26.001s-28.666 -10 -39.999 -10c-8.66699 0 -15.667 2.5 -21 7.5s-8 14.5 -8 28.5c0 8 1.33301 18.167 4 30.5s6 25.833 10 40.5l43 144c0 2.66699 0.833008 6.66699 2.5 12l5.5 17
c0.666992 2.66699 1.33398 5.16699 2.00098 7.5s1.33398 4.83301 2.00098 7.5c1.33301 4 2.33301 8.16699 3 12.5s1 8.5 1 12.5c0 6.66699 -1.33301 12.334 -4 17.001s-7.33398 7 -14.001 7h-5c-28.667 -7.33301 -56.334 -28.833 -83.001 -64.5s-49.667 -74.167 -69 -115.5
c-12.667 -28.667 -23 -56.334 -31 -83.001s-12.333 -48.667 -13 -66c-14.667 0 -29.167 -1 -43.5 -3s-28.5 -4.33301 -42.5 -7v-1z" />
    <glyph glyph-name="i" unicode="i" horiz-adv-x="301" 
d="M254 76l-11.9961 -8.00293l-12 -8c-2.66699 -2 -5.33398 -3.83301 -8.00098 -5.5s-5.33398 -3.5 -8.00098 -5.5c-24.667 -15.333 -48.167 -29 -70.5 -41s-40.833 -18 -55.5 -18c-8.66699 0 -15.834 3.16699 -21.501 9.5s-8.5 16.833 -8.5 31.5
c0 9.33301 1.66699 21.333 5 36s7.33301 31.334 12 50.001l38 131c4.66699 15.333 8.33398 28.833 11.001 40.5s4 20.834 4 27.501c0 5.33301 -1 9.16602 -3 11.499s-4.66699 3.5 -8 3.5c-6 0 -15.333 -3.66699 -28 -11s-28.334 -18.333 -47.001 -33l-10 24l27.5 21l32.5 24
c4.66699 4 9.66699 7.83301 15 11.5l16 10.5c16.667 10.667 32.667 19.834 48 27.501s28.666 11.5 39.999 11.5c8 0 14.5 -3.16699 19.5 -9.5s7.5 -16.166 7.5 -29.499c0 -7.33301 -0.833008 -16.333 -2.5 -27s-4.5 -23 -8.5 -37l-49 -157
c-0.666992 -1.33301 -1.16699 -2.83301 -1.5 -4.5s-0.5 -3.16699 -0.5 -4.5c-4.66699 -15.333 -8.66699 -29 -12 -41s-5 -21.333 -5 -28c0 -4.66699 0.833008 -8.66699 2.5 -12s4.5 -5 8.5 -5c6 0 15.5 3.33301 28.5 10s27.833 16 44.5 28l11 -24v0zM180.004 550.997
c0 18.667 5.66699 32.5 17 41.5s24 13.5 38 13.5h1.5h1.5c13.333 -0.666992 25.666 -5.5 36.999 -14.5s17 -22.5 17 -40.5c0 -16.667 -5.66699 -29.5 -17 -38.5s-23.666 -13.833 -36.999 -14.5h-1.5h-1.5c-14 0 -26.667 4.66699 -38 14s-17 22.333 -17 39v0z" />
    <glyph glyph-name="j" unicode="j" horiz-adv-x="348" 
d="M-41 -227l-3.00293 13.002c7.33301 12.667 13.833 25.334 19.5 38.001s10.834 25.667 15.501 39l9 1c0.666992 -0.666992 1.16699 -1.83398 1.5 -3.50098s0.833008 -3.16699 1.5 -4.5c4 -8 9.83301 -15.667 17.5 -23s15.5 -12.333 23.5 -15
c2 -1.33301 4.16699 -2.16602 6.5 -2.49902s4.5 -0.5 6.5 -0.5c1.33301 0 2.66602 0.166992 3.99902 0.5s3 0.5 5 0.5c4 1.33301 8 3.83301 12 7.5s7.33301 8.83398 10 15.501c6 14.667 11.167 29.834 15.5 45.501s8.16602 31.167 11.499 46.5
c0.666992 4 1.5 7.83301 2.5 11.5s1.83301 7.5 2.5 11.5c1.33301 7.33301 2.83301 14.666 4.5 21.999s3.5 14.666 5.5 21.999l50 206l13.5 65.5c3.66699 18.333 5.5 31.833 5.5 40.5c0 4.66699 -0.666992 8.5 -2 11.5s-3.66602 4.5 -6.99902 4.5
c-6 0 -15.667 -3.33301 -29 -10s-30.666 -17.334 -51.999 -32.001l-12 24c6.66699 5.33301 16.334 12.666 29.001 21.999l41 29l16.5 10.5l16.5 10.5c17.333 10 34 18.667 50 26s29.333 11 40 11h3c7.33301 -0.666992 12.5 -4.33398 15.5 -11.001s4.5 -14.667 4.5 -24
c0 -4.66699 -0.333008 -9.83398 -1 -15.501s-1.66699 -11.167 -3 -16.5c-0.666992 -4 -1.5 -8 -2.5 -12s-1.83301 -8 -2.5 -12l-5.5 -19c-1.66699 -6 -2.83398 -10.667 -3.50098 -14l-31 -118l-18.5 -70.5c-6.33301 -25 -13.5 -50.5 -21.5 -76.5
c-14.667 -46 -33 -90.667 -55 -134s-50.667 -78.333 -86 -105c-6.66699 -4.66699 -13.5 -8.83398 -20.5 -12.501s-13.833 -6.5 -20.5 -8.5c-6 -1.33301 -11.833 -2.5 -17.5 -3.5s-11.167 -1.5 -16.5 -1.5s-11.166 0.5 -17.499 1.5s-13.166 2.83301 -20.499 5.5
c-1.33301 0.666992 -2.83301 1.33398 -4.5 2.00098s-3.5 1.33398 -5.5 2.00098zM307.997 613.002c15.333 0 27.168 -5.33398 35.501 -16.001s13.166 -22.667 14.499 -36v-3v-4v-1.5v-1.5c-0.666992 -12.667 -5 -24.5 -13 -35.5s-20.333 -16.5 -37 -16.5
c-18.667 0 -32.5 5.83301 -41.5 17.5s-13.5 24.834 -13.5 39.501v4v3c2 12.667 7.5 24.167 16.5 34.5s21.833 15.5 38.5 15.5v0z" />
    <glyph glyph-name="k" unicode="k" horiz-adv-x="488" 
d="M21 0c6.66699 18 12.833 36.3369 18.5 55.0039l16.5 56l11.5 45.5l10.5 44.5l47 216c1.33301 4.66699 3 10.834 5 18.501s4 16.167 6 25.5c0.666992 4 1.5 8 2.5 12s1.83301 8 2.5 12c2.66699 10 4.66699 19.833 6 29.5s2 18.167 2 25.5v3
c0 1.33301 -0.333008 2.33301 -1 3v1.5v1.5c0 1.33301 -0.166992 2.66602 -0.5 3.99902s-0.5 2.33301 -0.5 3c-0.666992 2.66699 -4.16699 4.66699 -10.5 6s-13.166 2 -20.499 2h-3.5h-3.5h-31l8 28c30 3.33301 59.5 7.83301 88.5 13.5s57.167 14.5 84.5 26.5l8 -10
l-10.5 -42.5l-10.5 -42.5l-42 -170.5c-14 -57 -27.333 -114.5 -40 -172.5c23.333 31.333 47.833 61.333 73.5 90s53.5 55.667 83.5 81c17.333 13.333 35.333 24.666 54 33.999s39 14 61 14h5h6l1 -1h1h5.5h4.5l3 -8c-2 -4.66699 -3.66699 -9.5 -5 -14.5l-4 -14.5
c-0.666992 -2.66699 -1.16699 -5.16699 -1.5 -7.5s-0.833008 -4.83301 -1.5 -7.5s-1.33398 -5.16699 -2.00098 -7.5s-1.33398 -4.83301 -2.00098 -7.5l-8 -5c-2 0.666992 -4 1 -6 1s-4 0.333008 -6 1c-4.66699 0.666992 -9 1.16699 -13 1.5s-7.66699 0.5 -11 0.5
c-24.667 0 -47.667 -6 -69 -18s-41 -27.667 -59 -47c3.33301 -10.667 7.66602 -25.334 12.999 -44.001s11.666 -38.667 18.999 -60l14 -38c4.66699 -12.667 9.33398 -24 14.001 -34c4 -8.66699 8 -16.167 12 -22.5s7.66699 -11.5 11 -15.5l1.5 -1.5
c0.333008 -0.333008 1.16602 -0.833008 2.49902 -1.5c0.666992 -0.666992 1.5 -1.33398 2.5 -2.00098s2.16699 -1 3.5 -1c0.666992 -0.666992 1.66699 -1.16699 3 -1.5s2.33301 -0.5 3 -0.5c3.33301 0 7.16602 0.666992 11.499 2s8.5 3 12.5 5
c2.66699 1.33301 5.33398 2.83301 8.00098 4.5s5.33398 3.16699 8.00098 4.5l11 7.5c3.33301 2.33301 6.33301 4.16602 9 5.49902l9 -24l-21 -14.5c-8 -5.66699 -16.667 -11.5 -26 -17.5l-12.5 -8.5c-4.33301 -3 -8.83301 -5.83301 -13.5 -8.5
c-12.667 -7.33301 -25 -13.333 -37 -18s-22.333 -7 -31 -7c-10.667 0 -19.667 5 -27 15s-13.333 21.333 -18 34c-3.33301 8 -6.16602 15.667 -8.49902 23s-4.5 13.333 -6.5 18l-40 121c-22.667 -19.333 -39.667 -43 -51 -71s-18.666 -56.667 -21.999 -86l-2 -18
c-0.666992 -6 -1 -12 -1 -18c-8 0 -16 -0.5 -24 -1.5s-16 -1.83301 -24 -2.5l-24 -4c-8 -1.33301 -16 -3 -24 -5l-8 7v0z" />
    <glyph glyph-name="l" unicode="l" horiz-adv-x="282" 
d="M261 632l10 -9.99609c-6.66699 -19.333 -12.834 -38.833 -18.501 -58.5s-10.834 -39.5 -15.501 -59.5c-2 -6.66699 -3.83301 -13.334 -5.5 -20.001s-3.16699 -13.334 -4.5 -20.001l-58 -223c-0.666992 -2 -2.83398 -9.5 -6.50098 -22.5s-7.5 -27.833 -11.5 -44.5
c-0.666992 -3.33301 -1.5 -6.66602 -2.5 -9.99902s-1.83301 -6.66602 -2.5 -9.99902c-3.33301 -14.667 -6.33301 -28.834 -9 -42.501s-4 -24.5 -4 -32.5c0 -2 0.166992 -3.83301 0.5 -5.5s0.833008 -3.16699 1.5 -4.5c0 -0.666992 0.166992 -1.16699 0.5 -1.5
s0.5 -0.833008 0.5 -1.5c0.666992 0 1.33398 -0.166992 2.00098 -0.5s1.33398 -0.5 2.00098 -0.5c0 -0.666992 0.333008 -1.16699 1 -1.5s1.33398 -0.5 2.00098 -0.5c4 0 9 1.16699 15 3.5s12.333 5.16602 19 8.49902c2 1.33301 4.16699 2.66602 6.5 3.99902
s4.5 2.66602 6.5 3.99902l16.5 9.5c5 3 8.5 5.5 10.5 7.5l10 -22l-24.5 -17l-33.5 -23c-6 -4 -12 -7.66699 -18 -11l-18 -10c-12.667 -7.33301 -25.334 -13.166 -38.001 -17.499s-23.667 -6.5 -33 -6.5c-2 0 -4.16699 0.166992 -6.5 0.5s-4.5 0.833008 -6.5 1.5
c-0.666992 0 -1.5 0.166992 -2.5 0.5s-1.83301 0.5 -2.5 0.5c-6 2.66699 -10.167 7.5 -12.5 14.5s-3.5 14.833 -3.5 23.5c0 6 0.5 12.667 1.5 20s2.16699 14.666 3.5 21.999c0.666992 5.33301 1.83398 10.833 3.50098 16.5s3.16699 11.167 4.5 16.5c2 8.66699 4 16.5 6 23.5
s3.66699 12.5 5 16.5l70 266c0.666992 5.33301 2.16699 13.166 4.5 23.499l7.5 33.5c0.666992 2 1.16699 3.83301 1.5 5.5s0.833008 3.16699 1.5 4.5c2.66699 12.667 5 24.5 7 35.5s3 20.167 3 27.5v6c0 6 -3.16699 10.333 -9.5 13s-13.5 4.33398 -21.5 5.00098h-5.5h-5.5
c-2.66699 0 -5.33398 -0.166992 -8.00098 -0.5s-5.33398 -0.5 -8.00098 -0.5c-2 0 -4 -0.166992 -6 -0.5s-3.66699 -0.5 -5 -0.5l5 26c30.667 3.33301 60.834 8.5 90.501 15.5s58.834 14.833 87.501 23.5v0z" />
    <glyph glyph-name="m" unicode="m" horiz-adv-x="739" 
d="M45 0c3.33301 8 8.66895 22.8291 16.002 44.4961s14.666 46.167 21.999 73.5l6 20l6 20c8 30.667 15.167 60 21.5 88s9.5 48.667 9.5 62v11c-0.666992 2.66699 -1.83398 4.66699 -3.50098 6s-3.5 2.33301 -5.5 3c-0.666992 0.666992 -1.5 1 -2.5 1h-2.5
c-3.33301 0 -7.16602 -1 -11.499 -3s-8.83301 -4.66699 -13.5 -8l-6.5 -4.5l-6.5 -4.5l-13 -11c-4 -3.33301 -7 -6 -9 -8l-13 18l25.5 21l33.5 27l13.5 10c4.33301 3.33301 8.83301 6.33301 13.5 9c14.667 10.667 29.167 19.834 43.5 27.501s26.166 11.834 35.499 12.501v-2
c8 0 14.167 -3 18.5 -9s6.5 -13.333 6.5 -22c0 -4 -0.333008 -8 -1 -12s-1.33398 -8.33301 -2.00098 -13c-0.666992 -4 -1.5 -8 -2.5 -12s-2.16699 -7.66699 -3.5 -11c-1.33301 -5.33301 -2.83301 -10.166 -4.5 -14.499s-2.83398 -7.5 -3.50098 -9.5l-32 -122
c17.333 31.333 36.5 60.333 57.5 87s44.5 51.667 70.5 75c2 2 4 3.83301 6 5.5s4 3.5 6 5.5c14.667 12.667 30.334 24.334 47.001 35.001s33.667 17 51 19h5c10.667 0 18.334 -3.83301 23.001 -11.5s7.33398 -15.834 8.00098 -24.501v-1.5v-1.5
c0 -3.33301 -0.166992 -7 -0.5 -11s-0.833008 -8 -1.5 -12s-1.5 -7.83301 -2.5 -11.5s-1.83301 -7.16699 -2.5 -10.5c-1.33301 -4.66699 -2.5 -9.16699 -3.5 -13.5s-1.83301 -8.16602 -2.5 -11.499l-34 -115c15.333 28.667 32.5 55.834 51.5 81.501
s40.833 48.834 65.5 69.501c3.33301 2.66699 6.66602 5.5 9.99902 8.5l11 9.5c14.667 11.333 30.834 22 48.501 32s35.5 16.667 53.5 20c1.33301 0 2.66602 0.166992 3.99902 0.5s2.66602 0.5 3.99902 0.5l1 -1c12.667 0 21.5 -4.16699 26.5 -12.5s7.5 -17.833 7.5 -28.5
c0 -4 -0.166992 -8.16699 -0.5 -12.5s-1.16602 -8.83301 -2.49902 -13.5c-0.666992 -5.33301 -1.5 -10.5 -2.5 -15.5s-2.16699 -9.83301 -3.5 -14.5l-4 -12c-1.33301 -4 -2.33301 -7.33301 -3 -10l-34 -113l-5 -17l-6 -21c-0.666992 -2.66699 -1.5 -5.5 -2.5 -8.5
s-1.83301 -5.83301 -2.5 -8.5c-2 -8.66699 -3.83301 -17 -5.5 -25s-2.5 -15.333 -2.5 -22c0 -0.666992 0.166992 -1.5 0.5 -2.5s0.5 -2.16699 0.5 -3.5v-0.5v-1.5c0.666992 -0.666992 1 -1.33398 1 -2.00098v-2c0 -2 0.833008 -3.83301 2.5 -5.5s3.5 -2.5 5.5 -2.5
c3.33301 0 7.83301 1.33301 13.5 4s11.167 5.66699 16.5 9c2 1.33301 3.83301 2.5 5.5 3.5s3.16699 1.83301 4.5 2.5c6 4 11.5 7.83301 16.5 11.5s8.16699 6.16699 9.5 7.5l13 -21l-22 -17l-27 -20l-20.5 -14c-7 -4.66699 -14.167 -9 -21.5 -13
c-12.667 -6.66699 -24.834 -12.167 -36.501 -16.5s-22.5 -6.5 -32.5 -6.5l-12 -1c-8 2 -14 6.33301 -18 13s-6 14.334 -6 23.001c0 3.33301 0.166992 6.83301 0.5 10.5s1.16602 7.5 2.49902 11.5l2 10c0.666992 3.33301 1.66699 6.66602 3 9.99902
c1.33301 5.33301 2.66602 10.333 3.99902 15s2.33301 8.33398 3 11.001l42 142c0 2 0.833008 5.5 2.5 10.5s3.16699 10.5 4.5 16.5c0.666992 2.66699 1.33398 5.5 2.00098 8.5s1.33398 5.83301 2.00098 8.5l2 13.5c0.666992 4.33301 1 8.5 1 12.5
c0 6.66699 -1.16699 12.334 -3.5 17.001s-5.83301 7 -10.5 7h-2.5h-3.5c-0.666992 0 -1.33398 -0.166992 -2.00098 -0.5s-1.33398 -0.5 -2.00098 -0.5c-18.667 -8 -36.5 -20.667 -53.5 -38s-32.167 -35.666 -45.5 -54.999c-5.33301 -8 -10.333 -16 -15 -24l-13 -23
c-14.667 -28 -27.167 -57.833 -37.5 -89.5s-18.166 -63.834 -23.499 -96.501c-14.667 0 -29.167 -0.833008 -43.5 -2.5s-29.166 -4.83398 -44.499 -9.50098l-11 9c14 36.667 26.667 73.667 38 111s22 75.333 32 114c0.666992 4 1.5 8.16699 2.5 12.5s2.16699 8.5 3.5 12.5
l2 10l2 10c2 7.33301 3.5 14.666 4.5 21.999s1.5 14.666 1.5 21.999c0 3.33301 -0.833008 6.33301 -2.5 9s-4.16699 4.66699 -7.5 6h-1.5c-1 0 -2.16699 0.333008 -3.5 1v0v0h-3h-2c-4.66699 0 -9.83398 -1.66699 -15.501 -5s-11.5 -7.33301 -17.5 -12
c-4 -3.33301 -8.16699 -7.16602 -12.5 -11.499s-8.16602 -8.5 -11.499 -12.5c-7.33301 -8 -13.666 -15.5 -18.999 -22.5s-9 -12.167 -11 -15.5c-28.667 -36.667 -51 -75.834 -67 -117.501s-27.667 -85.167 -35 -130.5c-10.667 -0 -21.167 -0.166992 -31.5 -0.5
s-20.5 -1.5 -30.5 -3.5l-15.5 -4l-15.5 -4l-8 12v0z" />
    <glyph glyph-name="n" unicode="n" horiz-adv-x="496" 
d="M49 -6l-14.998 7.99805l15.5 39.5l17.5 47.5l12 36.5c4 12.333 7.66699 24.5 11 36.5c8.66699 28.667 16 56.167 22 82.5s9.33301 49.166 10 68.499h-2c0 5.33301 -1 9.33301 -3 12s-4.33301 4 -7 4c-3.33301 0 -7.33301 -1.16699 -12 -3.5l-15 -7.5
c-2 -1.33301 -3.83301 -2.66602 -5.5 -3.99902s-3.5 -2.66602 -5.5 -3.99902c-4.66699 -3.33301 -9 -6.66602 -13 -9.99902s-7 -5.66602 -9 -6.99902l-11 23c43.333 33.333 78.666 57.666 105.999 72.999s47 23 59 23c6.66699 0 11.834 -2.33301 15.501 -7
s5.5 -11.667 5.5 -21c0 -16 -4.16699 -39.167 -12.5 -69.5l-30.5 -107.5c16 28 34.167 54.333 54.5 79s43.5 47 69.5 67l13.5 11c5 4 10.5 8 16.5 12c6.66699 4.66699 13.834 9.33398 21.501 14.001s15.5 9 23.5 13c7.33301 3.33301 14.833 6.16602 22.5 8.49902
s14.834 3.5 21.501 3.5h4c11.333 0 18.833 -4.33301 22.5 -13s5.5 -18.334 5.5 -29.001c0 -3.33301 -0.166992 -6.83301 -0.5 -10.5s-0.833008 -7.16699 -1.5 -10.5c-0.666992 -4.66699 -1.5 -9 -2.5 -13s-1.83301 -8 -2.5 -12l-3.5 -14l-2.5 -10l-42 -131
c-1.33301 -4 -2.5 -8 -3.5 -12s-2.16699 -8 -3.5 -12l-13 -42.5c-4 -13 -6 -23.167 -6 -30.5c0 -4.66699 1.16699 -8.66699 3.5 -12s5.5 -5 9.5 -5c5.33301 0 13.5 3.16699 24.5 9.5s24.833 15.166 41.5 26.499l9 -24l-22.5 -16l-34.5 -24l-17 -10.5
c-6 -3.66699 -12.333 -7.16699 -19 -10.5c-12 -6 -23.667 -11 -35 -15s-21.666 -6 -30.999 -6c-4.66699 0 -9.33398 0.833008 -14.001 2.5s-8.33398 4.16699 -11.001 7.5c-1.33301 2 -2.66602 5.16699 -3.99902 9.5s-2 8.83301 -2 13.5c0 12 2 26.333 6 43s8.66699 34 14 52
l4.5 15c1.66699 5.33301 3.5 10.333 5.5 15l17 51.5c5.33301 15.667 9 27.167 11 34.5c0.666992 2 1.66699 5.33301 3 10s2.66602 10.334 3.99902 17.001c1.33301 2.66699 2.33301 5.66699 3 9l2 10l2 14c0.666992 4.66699 1 9 1 13c0 6.66699 -1 12.334 -3 17.001
s-6 7 -12 7c-0.666992 0 -1.83398 -0.166992 -3.50098 -0.5s-3.16699 -0.833008 -4.5 -1.5c-0.666992 0 -1.5 -0.166992 -2.5 -0.5s-1.83301 -0.5 -2.5 -0.5c-16.667 -8 -31.834 -19.333 -45.501 -34s-26.167 -30 -37.5 -46l-11.5 -17.5l-10.5 -16.5
c-20.667 -32.667 -37.167 -66.167 -49.5 -100.5s-21.833 -69.833 -28.5 -106.5c-10 0 -19.833 -0.5 -29.5 -1.5s-19.167 -2.16699 -28.5 -3.5c-5.33301 -0.666992 -10.333 -1.5 -15 -2.5s-9.33398 -1.83301 -14.001 -2.5v-1z" />
    <glyph glyph-name="o" unicode="o" horiz-adv-x="441" 
d="M26 169c10.667 67.333 39.666 125.167 86.999 173.5s107.333 72.5 180 72.5c47.333 0 79.833 -13.5 97.5 -40.5s26.5 -58.5 26.5 -94.5c0 -7.33301 -0.333008 -14.833 -1 -22.5l-2 -22.5l-4 -22.5c-1.33301 -7.66699 -3 -15.167 -5 -22.5
c-16 -59.333 -48.167 -107.833 -96.5 -145.5s-104.166 -56.5 -167.499 -56.5c-46 0 -77.5 12.833 -94.5 38.5s-25.5 56.167 -25.5 91.5c0 5.33301 0.333008 10.833 1 16.5l2 17.5v2v2c0.666992 2 1.16699 4.16699 1.5 6.5s0.5 4.5 0.5 6.5v0zM305.999 182.001
c0.666992 2.66699 1.16699 5.66602 1.5 8.99902s0.833008 6.66602 1.5 9.99902c1.33301 9.33301 2.66602 19.333 3.99902 30s2.33301 21.667 3 33v6v6v6v6c-1.33301 20.667 -6 40 -14 58s-22.333 28.667 -43 32h-18c-26.667 0 -47.667 -10.667 -63 -32s-27 -45 -35 -71
c-4 -11.333 -7.16699 -22.333 -9.5 -33s-4.16602 -20.667 -5.49902 -30c-0.666992 -4.66699 -1.5 -10.167 -2.5 -16.5s-2.16699 -12.833 -3.5 -19.5c-0.666992 -4 -1.5 -8.33301 -2.5 -13s-1.83301 -9.33398 -2.5 -14.001c-0.666992 -5.33301 -1.16699 -10.666 -1.5 -15.999
s-0.5 -10.666 -0.5 -15.999c0 -22 4.5 -42 13.5 -60s25.167 -28.333 48.5 -31c0.666992 0 1.5 -0.166992 2.5 -0.5s2.16699 -0.5 3.5 -0.5c0.666992 0 1.5 -0.166992 2.5 -0.5s1.83301 -0.5 2.5 -0.5c29.333 0 52.333 11.333 69 34s29 47.334 37 74.001
c2.66699 8.66699 5 17.167 7 25.5s3.66699 16.5 5 24.5v0z" />
    <glyph glyph-name="p" unicode="p" horiz-adv-x="498" 
d="M-15 -225c6 17.333 11.3301 34.168 15.9971 50.501l14 48.5c5.33301 16.667 10.166 33.167 14.499 49.5s8.5 32.833 12.5 49.5l65 249l10.5 50.5c3 15 4.5 26.833 4.5 35.5c0 6.66699 -1 11.834 -3 15.501s-5 5.5 -9 5.5c-5.33301 0 -13 -2.83301 -23 -8.5
s-22.667 -14.167 -38 -25.5l-12 23c4.66699 3.33301 13 9.66602 25 18.999s25.667 19 41 29c4 3.33301 8.33301 6.33301 13 9s9 5.33398 13 8.00098c15.333 9.33301 29.833 17.333 43.5 24s25.167 10 34.5 10h2h2c2.66699 -0.666992 5.33398 -1.83398 8.00098 -3.50098
s4.66699 -3.5 6 -5.5c1.33301 -1.33301 2.33301 -3.83301 3 -7.5s1 -7.5 1 -11.5c0 -9.33301 -1.16699 -20.166 -3.5 -32.499s-5.5 -25.166 -9.5 -38.499c-0.666992 -4 -1.66699 -8.33301 -3 -13s-2.66602 -9 -3.99902 -13
c-3.33301 -12.667 -6.66602 -24.167 -9.99902 -34.5l-8 -24.5c2 2.66699 4 5.5 6 8.5s4 6.16699 6 9.5c24 35.333 52.833 68.666 86.5 99.999s71.834 52 114.501 62c1.33301 0 2.5 0.166992 3.5 0.5s2.5 0.5 4.5 0.5h0.5h0.5c1.33301 0.666992 2.66602 1 3.99902 1h3
c16.667 0 28 -6.83301 34 -20.5s9.66699 -28.834 11 -45.501v-7v-8c-0.666992 -72.667 -15.167 -134.334 -43.5 -185.001s-74.166 -94 -137.499 -130c-8.66699 -4 -17.167 -7.66699 -25.5 -11s-16.5 -6 -24.5 -8c-8.66699 -1.33301 -17.167 -2.5 -25.5 -3.5
s-16.833 -1.5 -25.5 -1.5c-4.66699 0 -9.83398 0.166992 -15.501 0.5s-11.5 0.833008 -17.5 1.5c-1.33301 0 -3 0.166992 -5 0.5s-4 0.5 -6 0.5l-24 -89l-6 -22.5l-6 -22.5l-8 -39c-2.66699 -12.667 -5 -26 -7 -40c-15.333 -1.33301 -30.666 -3.5 -45.999 -6.5
s-30 -6.16699 -44 -9.5l-13 6v0zM299.997 326.002c-22.667 -16.667 -42.3311 -36.6641 -58.998 -59.9971s-31.667 -47.666 -45 -72.999c-8 -17.333 -14.833 -35 -20.5 -53s-10.834 -36.333 -15.501 -55l-4 -14.5l-4 -15.5c0.666992 -0.666992 1.5 -1.16699 2.5 -1.5
s1.83301 -0.833008 2.5 -1.5l19.5 -8.5c7 -3 14.167 -5.5 21.5 -7.5c4.66699 -1.33301 9.16699 -2.33301 13.5 -3s8.83301 -1 13.5 -1c3.33301 0 6.66602 0.333008 9.99902 1l10 2c4.66699 1.33301 9.5 3 14.5 5s9.83301 4.33301 14.5 7c16 11.333 30.333 30.666 43 57.999
s23 56.333 31 87c6.66699 23.333 11.667 46.166 15 68.499s5 40.833 5 55.5c0 9.33301 -2.33301 16.333 -7 21s-10 7 -16 7c-3.33301 0 -6.83301 -0.5 -10.5 -1.5s-7.5 -2.5 -11.5 -4.5l-8 -4l-8 -4c-1.33301 -0.666992 -2.5 -1.33398 -3.5 -2.00098
s-2.16699 -1.33398 -3.5 -2.00098v0z" />
    <glyph glyph-name="q" unicode="q" horiz-adv-x="451" 
d="M285 172c-6.66699 -9.33301 -15.668 -21.0029 -27.001 -35.0029s-24 -28.333 -38 -43c-12.667 -12.667 -25.834 -25.167 -39.501 -37.5s-27.5 -23.166 -41.5 -32.499c-13.333 -9.33301 -26.5 -16.5 -39.5 -21.5s-25.5 -7.5 -37.5 -7.5l-12 -1
c-10.667 2 -18.667 8.66699 -24 20s-8 24.333 -8 39c0 10 0.833008 20.833 2.5 32.5s3.5 23.5 5.5 35.5c2.66699 10 5.16699 19.833 7.5 29.5s4.83301 19.167 7.5 28.5c4 14.667 8 27.5 12 38.5s7 18.833 9 23.5c16 40.667 43.667 77.334 83 110.001s81.333 52.667 126 60
c5.33301 0.666992 10.5 1.16699 15.5 1.5s9.83301 0.5 14.5 0.5h20c8 -0.666992 14.833 -1.83398 20.5 -3.50098s10.5 -3.16699 14.5 -4.5c5.33301 -2 9.66602 -4 12.999 -6s6.33301 -3.33301 9 -4h1.5h1.5c3.33301 0 8.66602 1.83301 15.999 5.5s17 9.5 29 17.5l13 -10
l-19.5 -65.5c-6.33301 -22.333 -12.166 -45.166 -17.499 -68.499l-71 -280c-4.66699 -16.667 -9 -33.5 -13 -50.5l-12 -51.5l-10 -51.5c-3.33301 -17 -6.33301 -34.167 -9 -51.5c-9.33301 -1.33301 -18.666 -2.5 -27.999 -3.5s-18.666 -2.5 -27.999 -4.5
c-9.33301 -1.33301 -18.666 -3.16602 -27.999 -5.49902s-18.666 -4.83301 -27.999 -7.5l-3 12c1.33301 2.66699 2.5 5.16699 3.5 7.5s1.83301 4.5 2.5 6.5c5.33301 10.667 10.166 21.5 14.499 32.5s7.83301 22.833 10.5 35.5l82 310v0zM153.999 67.9971
c5.33301 3.33301 10.998 7.33105 16.998 11.998s11.667 9.66699 17 15c6.66699 6 13.334 12.5 20.001 19.5s13 14.167 19 21.5l21 26l18 24c16 25.333 28.5 52 37.5 80s16.5 56.667 22.5 86c-6.66699 2.66699 -14 5.33398 -22 8.00098s-16 5 -24 7l-14 2
c-4.66699 0.666992 -9 1 -13 1c-2 0 -4.16699 -0.166992 -6.5 -0.5s-4.83301 -0.5 -7.5 -0.5c-5.33301 -0.666992 -10.666 -2 -15.999 -4s-10 -4.33301 -14 -7c-14 -10.667 -26.5 -28.167 -37.5 -52.5s-20.167 -49.833 -27.5 -76.5c-6 -20.667 -11 -41 -15 -61
s-7 -36.667 -9 -50c0 -1.33301 -0.166992 -3.16602 -0.5 -5.49902s-0.5 -4.83301 -0.5 -7.5c-0.666992 0 -1 -0.333008 -1 -1v-1c0 -2 -0.166992 -4 -0.5 -6s-0.5 -4 -0.5 -6v-1.5v-1.5c0 -6.66699 1.33301 -13 4 -19s6.66699 -9 12 -9c2 0 4.16699 0.5 6.5 1.5
s4.83301 2.16699 7.5 3.5c1.33301 0.666992 2.5 1.16699 3.5 1.5s2.16699 0.833008 3.5 1.5v0z" />
    <glyph glyph-name="r" unicode="r" horiz-adv-x="395" 
d="M42 0c3.33301 10 8.50293 26.332 15.5029 48.999s14.167 48 21.5 76c2 5.33301 3.66699 10.833 5 16.5s3 11.167 5 16.5c8 31.333 15.167 61.166 21.5 89.499s9.5 49.5 9.5 63.5v8c-0.666992 4 -2.5 7 -5.5 9s-6.16699 3 -9.5 3s-7.33301 -1 -12 -3
s-9.33398 -4.33301 -14.001 -7l-6 -4l-6 -4l-13 -9.5c-4 -3 -7 -5.16699 -9 -6.5l-11 19l23 19l27 22l15 10.5c5.33301 3.66699 10.333 7.5 15 11.5c12.667 8.66699 25.167 16.334 37.5 23.001s23.5 11 33.5 13h8c8 0 14 -3.16699 18 -9.5s6 -13.5 6 -21.5
c0 -3.33301 -0.166992 -6.66602 -0.5 -9.99902s-0.833008 -7 -1.5 -11c-0.666992 -2 -1.16699 -4.16699 -1.5 -6.5s-0.833008 -4.5 -1.5 -6.5c-1.33301 -4.66699 -2.33301 -8.66699 -3 -12s-1.33398 -6.33301 -2.00098 -9l-30 -125
c5.33301 11.333 10.833 23.666 16.5 36.999s12.167 27 19.5 41c16 32.667 35.833 62.5 59.5 89.5s53.167 40.5 88.5 40.5h12c-4.66699 -19.333 -8.66699 -38.833 -12 -58.5s-6.33301 -39.834 -9 -60.501l-10 -3c-4.66699 2.66699 -9.83398 4.83398 -15.501 6.50098
s-11.5 2.83398 -17.5 3.50098c-1.33301 0.666992 -3 1 -5 1h-6c-2 0 -4.16699 -0.166992 -6.5 -0.5s-4.5 -0.5 -6.5 -0.5c-4.66699 -0.666992 -9.16699 -1.83398 -13.5 -3.50098s-8.5 -3.83398 -12.5 -6.50098c-17.333 -12 -33 -32.5 -47 -61.5s-26.333 -59.5 -37 -91.5
c-7.33301 -25.333 -13.833 -49.666 -19.5 -72.999s-9.83398 -42.666 -12.501 -57.999c-5.33301 0 -10.666 -0.166992 -15.999 -0.5s-10.333 -0.833008 -15 -1.5c-10.667 -1.33301 -21.167 -3 -31.5 -5s-20.5 -4.66699 -30.5 -8l-8 9v0z" />
    <glyph glyph-name="s" unicode="s" horiz-adv-x="376" 
d="M24 10l20.999 115.994h18c1.33301 -28.667 11.833 -51.167 31.5 -67.5s43.834 -24.5 72.501 -24.5c1.33301 0 2.66602 0.166992 3.99902 0.5s2.66602 0.5 3.99902 0.5s2.66602 0.166992 3.99902 0.5s2.66602 0.5 3.99902 0.5c20.667 1.33301 37 8.16602 49 20.499
s18 25.833 18 40.5c0 2 -0.166992 4.16699 -0.5 6.5s-0.833008 4.5 -1.5 6.5c-2 8.66699 -6.66699 17 -14 25s-16.666 13.667 -27.999 17c-6.66699 2.66699 -13.667 4.83398 -21 6.50098s-14.666 3.16699 -21.999 4.5c-0.666992 0.666992 -1.33398 1 -2.00098 1h-2
c-13.333 2.66699 -26.166 6 -38.499 10s-22.833 10.667 -31.5 20c-6.66699 8.66699 -12.167 18 -16.5 28s-6.5 20.333 -6.5 31c0 4 0.333008 8.33301 1 13s1.66699 9.33398 3 14.001c2 8.66699 5 17 9 25s8 15 12 21c19.333 26.667 43.833 47.334 73.5 62.001
s60.5 22.667 92.5 24h3.5h3.5c5.33301 0 11 -0.333008 17 -1l18 -2c8.66699 -1.33301 17.334 -3.33301 26.001 -6s17 -5.66699 25 -9l-19 -109h-20c0 24 -9 43.5 -27 58.5s-37.667 23.167 -59 24.5h-3.5h-2.5h-6c-2 0 -4 -0.333008 -6 -1c-4 -0.666992 -8 -1.5 -12 -2.5
s-8 -2.16699 -12 -3.5c-11.333 -4 -21.166 -11.167 -29.499 -21.5s-13.166 -21.166 -14.499 -32.499v-2v-2c0 -1.33301 0.166992 -3 0.5 -5s0.833008 -3.66699 1.5 -5v-1.5c0 -0.333008 0.333008 -0.5 1 -0.5c0 -2 0.333008 -3.66699 1 -5s1 -2.66602 1 -3.99902
c4 -9.33301 11.667 -17 23 -23s23.666 -10.667 36.999 -14c8.66699 -2.66699 17 -4.66699 25 -6s15 -2.66602 21 -3.99902c27.333 -7.33301 47 -19 59 -35s18 -33 18 -51c0 -4.66699 -0.333008 -9.5 -1 -14.5s-2 -9.83301 -4 -14.5c-4 -14 -10.5 -27.5 -19.5 -40.5
s-20.167 -24.833 -33.5 -35.5c-16.667 -13.333 -35.5 -24.333 -56.5 -33s-42.5 -14.667 -64.5 -18c-6 -1.33301 -12 -2.16602 -18 -2.49902s-12 -0.5 -18 -0.5c-15.333 0 -30.5 1.66699 -45.5 5s-29.167 8.33301 -42.5 15v0z" />
    <glyph glyph-name="t" unicode="t" horiz-adv-x="366" 
d="M269 88c-7.33301 -5.33301 -15.167 -11.3311 -23.5 -17.998l-26.5 -21l-32 -22c-10.667 -7.33301 -21.667 -14 -33 -20c-11.333 -5.33301 -22.833 -9.83301 -34.5 -13.5s-22.834 -5.5 -33.501 -5.5c-12.667 0 -23 3 -31 9s-12.667 15 -14 27v2.5
c0 1 -0.333008 1.83301 -1 2.5v1.5v0.5c0 1.33301 -0.166992 2.5 -0.5 3.5s-0.5 1.83301 -0.5 2.5c0 9.33301 0.666992 18.666 2 27.999s3.33301 18.666 6 27.999c1.33301 7.33301 3.16602 14.5 5.49902 21.5s4.5 13.833 6.5 20.5c2.66699 8.66699 5.16699 17.167 7.5 25.5
s4.5 16.5 6.5 24.5l40 163c-2.66699 0 -5.5 0.166992 -8.5 0.5s-5.83301 0.5 -8.5 0.5c-3.33301 0 -6.5 0.166992 -9.5 0.5s-5.83301 0.5 -8.5 0.5h-10c-3.33301 0 -6.66602 -0.333008 -9.99902 -1h-2h-2c-4 0 -8 -0.166992 -12 -0.5s-7.66699 -0.5 -11 -0.5l3 22
c16 4 31.667 9 47 15s30.333 12.333 45 19c4.66699 19.333 8.5 38.5 11.5 57.5s5.83301 38.167 8.5 57.5l105 34l8 -8l-11.5 -37.5c-3.66699 -12.333 -7.16699 -24.833 -10.5 -37.5c-4 -12.667 -7.5 -25.167 -10.5 -37.5l-9.5 -37.5h40c13.333 0 26.666 0.333008 39.999 1
c6.66699 0 13.334 0.166992 20.001 0.5s13.334 0.5 20.001 0.5c-2.66699 -8 -5.16699 -16.333 -7.5 -25s-4.16602 -17.667 -5.49902 -27c-7.33301 0 -14.666 0.166992 -21.999 0.5s-14.666 0.5 -21.999 0.5h-3c-0.666992 0 -1.66699 0.333008 -3 1
c-8.66699 0 -17 0.166992 -25 0.5s-16 0.5 -24 0.5h-21l-39 -154c-0.666992 -3.33301 -1.33398 -6.5 -2.00098 -9.5s-1.33398 -6.16699 -2.00098 -9.5l-14 -54.5c-4 -16.333 -6 -29.5 -6 -39.5c0 -7.33301 1.5 -13 4.5 -17s7.5 -6 13.5 -6c8 0 20.167 4.16699 36.5 12.5
s37.166 20.5 62.499 36.5l11 -19v0z" />
    <glyph glyph-name="u" unicode="u" horiz-adv-x="488" 
d="M311 191c-6.66699 -11.333 -15.166 -24.3242 -25.499 -38.9912s-21.833 -29.667 -34.5 -45c-15.333 -18.667 -32 -36.834 -50 -54.501s-36.333 -32.5 -55 -44.5c-9.33301 -5.33301 -18.666 -9.66602 -27.999 -12.999s-18.333 -5.66602 -27 -6.99902l-7 -1
c-13.333 0.666992 -22.833 5.5 -28.5 14.5s-8.5 19.833 -8.5 32.5c0 4 0.166992 8 0.5 12s0.833008 8 1.5 12c0.666992 4.66699 1.5 9.5 2.5 14.5s2.16699 9.83301 3.5 14.5c1.33301 5.33301 2.66602 10.166 3.99902 14.499s2.33301 8.16602 3 11.499l29 104l15 57
c4.66699 17.333 7 30.666 7 39.999c0 5.33301 -1.33301 9.66602 -4 12.999s-6 5 -10 5c-4.66699 0 -12.167 -2.16699 -22.5 -6.5s-22.833 -11.833 -37.5 -22.5l-8 23c7.33301 4.66699 15.5 10.334 24.5 17.001l28.5 21c6.66699 4 13.5 8.33301 20.5 13s13.833 9 20.5 13
c12 6.66699 23.833 12.167 35.5 16.5s22.5 6.5 32.5 6.5h11c6.66699 -0.666992 11 -4.16699 13 -10.5s3 -13.5 3 -21.5c0 -4.66699 -0.333008 -9.83398 -1 -15.501s-1.66699 -11.5 -3 -17.5c-0.666992 -4 -1.5 -8.16699 -2.5 -12.5s-2.16699 -8.5 -3.5 -12.5
c-2 -8.66699 -3.83301 -16 -5.5 -22s-2.83398 -10.333 -3.50098 -13l-36 -123c0 -2 -1 -5.83301 -3 -11.5s-4 -12.167 -6 -19.5c-1.33301 -2.66699 -2.33301 -5.16699 -3 -7.5s-1.33398 -4.5 -2.00098 -6.5c-1.33301 -6 -2.5 -11.667 -3.5 -17s-1.5 -10.333 -1.5 -15
c0 -6 1.16699 -11.167 3.5 -15.5s5.83301 -6.5 10.5 -6.5l5 2c5.33301 0.666992 11 2.83398 17 6.50098s12.333 8.16699 19 13.5c6 5.33301 12.333 11.5 19 18.5s12.667 13.833 18 20.5c8 10 15.167 19.667 21.5 29s11.166 16.666 14.499 21.999
c21.333 34 38.333 69.167 51 105.5s23.334 73.166 32.001 110.499c9.33301 1.33301 18.666 2.83301 27.999 4.5s18.333 3.5 27 5.5c6.66699 1.33301 13 2.83301 19 4.5s12 3.16699 18 4.5l6 -6l-14 -41.5l-14 -43.5l-14 -42.5c-4.66699 -14.333 -9 -28.833 -13 -43.5
c-7.33301 -25.333 -14.166 -50.166 -20.499 -74.499s-11.166 -47.833 -14.499 -70.5v-2c0 -0.666992 -0.333008 -1.33398 -1 -2.00098v0v0c0 -1.33301 -0.166992 -2.33301 -0.5 -3l-0.5 -1c0 -4.66699 1.16699 -8.66699 3.5 -12s4.83301 -5 7.5 -5
c4 0 8.66699 1.16699 14 3.5s10.666 5.16602 15.999 8.49902c1.33301 0.666992 2.83301 1.5 4.5 2.5s3.16699 1.83301 4.5 2.5l17 11c5.33301 3.33301 9 5.33301 11 6l6 -22l-21 -17c-8 -6.66699 -16.667 -13.334 -26 -20.001l-23 -16.5c-8 -5.66699 -16 -10.5 -24 -14.5
c-9.33301 -5.33301 -18.666 -9.5 -27.999 -12.5s-18.333 -4.5 -27 -4.5l-8 -1c-8.66699 1.33301 -15.167 4.66602 -19.5 9.99902s-6.5 12.333 -6.5 21c0 4.66699 0.5 9.66699 1.5 15s2.5 11 4.5 17c0.666992 3.33301 1.5 6.66602 2.5 9.99902s2.16699 6.66602 3.5 9.99902
c2 6 4 11.5 6 16.5l5 12.5l24 87v0z" />
    <glyph glyph-name="v" unicode="v" horiz-adv-x="478" 
d="M225 358c-15.333 -4.66699 -31.0039 -7.66504 -47.0039 -8.99805s-32.333 -2 -49 -2c-6 -0.666992 -12.167 -1 -18.5 -1s-12.5 -0.333008 -18.5 -1c-9.33301 -1.33301 -16.666 -5.5 -21.999 -12.5s-9.66602 -14.5 -12.999 -22.5c-2 -4 -3.5 -7.66699 -4.5 -11
s-2.16699 -6.33301 -3.5 -9l-23 3l10 24.5c3.33301 8.33301 6.33301 16.5 9 24.5c3.33301 8 6.33301 16.167 9 24.5l8 24.5c1.33301 8 4.5 13.167 9.5 15.5s11.5 3.5 19.5 3.5l1 -0.5c0.666992 -0.333008 1.33398 -0.5 2.00098 -0.5s1.33398 -0.166992 2.00098 -0.5l1 -0.5
c7.33301 0 15.333 -0.166992 24 -0.5s17.667 -0.5 27 -0.5c2.66699 -0.666992 5.33398 -1 8.00098 -1h8c6.66699 0 13.5 -0.166992 20.5 -0.5s13.5 -0.5 19.5 -0.5c14 0 27.5 1.16699 40.5 3.5s23.833 5.16602 32.5 8.49902l10 -12c-1.33301 -2 -2.5 -3.83301 -3.5 -5.5
s-2.16699 -3.16699 -3.5 -4.5c-27.333 -40.667 -51.833 -82 -73.5 -124s-33.167 -88.667 -34.5 -140c0 -0.666992 -0.166992 -1.5 -0.5 -2.5s-0.5 -1.83301 -0.5 -2.5c0 -1.33301 -0.166992 -2.5 -0.5 -3.5s-0.5 -1.83301 -0.5 -2.5c0 -19.333 4.33301 -37.166 13 -53.499
s22.334 -24.5 41.001 -24.5c2.66699 0 6 0.5 10 1.5s8 2.16699 12 3.5c0.666992 0.666992 1.5 1.16699 2.5 1.5s1.83301 0.5 2.5 0.5c26.667 10 49 28.833 67 56.5s32.333 57.167 43 88.5c5.33301 15.333 9.66602 30.666 12.999 45.999s5.66602 29.333 6.99902 42v15
c0 17.333 -4.16699 31.833 -12.5 43.5s-21.5 20.834 -39.5 27.501l10.5 11l10.5 12l10.5 11l10.5 11h7c19.333 0 35 -3.83301 47 -11.5s19.333 -22.167 22 -43.5c0 -2 0.166992 -4.16699 0.5 -6.5s0.5 -4.5 0.5 -6.5c0 -2.66699 0.166992 -5.16699 0.5 -7.5
s0.5 -4.5 0.5 -6.5c0 -13.333 -1.33301 -27 -4 -41s-6.33398 -28 -11.001 -42c-12.667 -35.333 -30 -69.5 -52 -102.5s-45.333 -61.833 -70 -86.5c-6.66699 -6.66699 -13.5 -13 -20.5 -19l-20.5 -17c-9.33301 -6.66699 -19.166 -12.334 -29.499 -17.001
s-20.5 -8.33398 -30.5 -11.001c-6.66699 -1.33301 -13.5 -2.5 -20.5 -3.5s-13.833 -1.5 -20.5 -1.5c-26 0 -48.333 8.16699 -67 24.5s-28 42.833 -28 79.5c0 49.333 13.5 94 40.5 134s56.833 76.667 89.5 110l10 10l10 10v0z" />
    <glyph glyph-name="w" unicode="w" horiz-adv-x="721" 
d="M227 358c-16 -4.66699 -32.0029 -7.67285 -48.0029 -9.00586s-32 -2 -48 -2c-6 -0.666992 -12.167 -1 -18.5 -1s-12.5 -0.333008 -18.5 -1c-9.33301 -1.33301 -16.833 -5.5 -22.5 -12.5s-10.167 -14.5 -13.5 -22.5c-1.33301 -4 -2.66602 -7.66699 -3.99902 -11
s-2.66602 -6.33301 -3.99902 -9l-22 3c6.66699 15.333 12.834 30.833 18.501 46.5s10.834 31.5 15.501 47.5c1.33301 6 3.5 11 6.5 15s7.83301 6.66699 14.5 8h26c7.33301 0 15.166 -0.333008 23.499 -1s17.166 -1 26.499 -1c2.66699 -0.666992 5.5 -1 8.5 -1
s5.83301 -0.333008 8.5 -1c6 0 12 -0.166992 18 -0.5s11.667 -0.5 17 -0.5c6 0 12.333 0.333008 19 1s13.667 1.66699 21 3l16.5 4l16.5 4l8 -13c-27.333 -34.667 -51.666 -70.5 -72.999 -107.5s-36.666 -77.5 -45.999 -121.5c0 -3.33301 -0.5 -7.16602 -1.5 -11.499
s-1.83301 -9.16602 -2.5 -14.499l-2 -14c-0.666992 -4.66699 -1.33398 -9.66699 -2.00098 -15v-3.5v-3.5v-2v-1c0.666992 -14.667 3.83398 -28.167 9.50098 -40.5s15.5 -19.833 29.5 -22.5h2c0.666992 0 1.33398 -0.333008 2.00098 -1v0v0
c1.33301 0 2.33301 -0.166992 3 -0.5l1 -0.5c15.333 0 30.333 7.33301 45 22s27.667 30.667 39 48c8 12 15 23.333 21 34s10.667 19.334 14 26.001c11.333 28 21 56.5 29 85.5s15.333 58.167 22 87.5c1.33301 7.33301 2.83301 14.666 4.5 21.999s3.16699 14.666 4.5 21.999
c15.333 2.66699 30.5 5.83398 45.5 9.50098s29.833 8.83398 44.5 15.501l8 -10l-29 -99c-2 -8 -4.5 -17.333 -7.5 -28l-9.5 -35c-2.66699 -9.33301 -5.16699 -18.833 -7.5 -28.5s-4.5 -19.167 -6.5 -28.5c-2 -12.667 -3.83301 -25.167 -5.5 -37.5s-2.5 -24.166 -2.5 -35.499
c0 -9.33301 1 -18.333 3 -27s4.33301 -16.334 7 -23.001c3.33301 -6.66699 7.33301 -12 12 -16s9.66699 -6.33301 15 -7c0.666992 -0.666992 1.66699 -1 3 -1h3c4 0 8.33301 0.833008 13 2.5s9.33398 3.5 14.001 5.5c6.66699 4 13 8.33301 19 13s11.667 9.66699 17 15
c6 5.33301 11.167 10.5 15.5 15.5l10.5 12.5l10 14.5c3.33301 5 6.66602 10.5 9.99902 16.5c7.33301 12.667 14.666 26.5 21.999 41.5s13.333 30.5 18 46.5c2.66699 9.33301 4.83398 18.833 6.50098 28.5s2.5 18.834 2.5 27.501c0 18 -3.83301 35 -11.5 51
s-20.834 28.333 -39.501 37c3.33301 3.33301 6.66602 7 9.99902 11l10 12l10.5 11c3.66699 4 7.5 7.66699 11.5 11c17.333 0 32.666 -2.66699 45.999 -8s22.333 -17.666 27 -36.999l2 -10.5c0.666992 -3.66699 1 -7.16699 1 -10.5c0.666992 -3.33301 1 -6.83301 1 -10.5
v-10.5c0 -9.33301 -0.666992 -19 -2 -29s-3.33301 -20 -6 -30c-8 -28.667 -19.833 -56.667 -35.5 -84s-32.167 -52 -49.5 -74c-3.33301 -4.66699 -6.66602 -9 -9.99902 -13l-10 -12l-18 -18c-6.66699 -6.66699 -14.334 -13.334 -23.001 -20.001
c-11.333 -9.33301 -23.833 -18.5 -37.5 -27.5s-27.5 -15.833 -41.5 -20.5c-8 -3.33301 -15.667 -5.83301 -23 -7.5s-14.666 -2.5 -21.999 -2.5c-8.66699 0 -17.167 1.33301 -25.5 4s-16.166 6.33398 -23.499 11.001c-8.66699 7.33301 -15.334 16.166 -20.001 26.499
s-7.33398 21.166 -8.00098 32.499c-0.666992 2 -1 4.16699 -1 6.5v6.5c0 4.66699 0.333008 9.5 1 14.5l2 14.5c0 2.66699 0.333008 5.16699 1 7.5s1 4.83301 1 7.5c1.33301 5.33301 2.33301 10.5 3 15.5l2 14.5c-14 -24.667 -28.833 -48.334 -44.5 -71.001
s-35.167 -42.667 -58.5 -60c-7.33301 -6 -16 -11.167 -26 -15.5s-20 -7.83301 -30 -10.5c-5.33301 -1.33301 -10.666 -2.33301 -15.999 -3s-10.333 -1 -15 -1c-12 0 -23.5 2.33301 -34.5 7s-20.167 12.334 -27.5 23.001c-6.66699 10.667 -11.834 22.334 -15.501 35.001
s-5.5 25.334 -5.5 38.001c0 6 0.333008 12.167 1 18.5s1.66699 12.833 3 19.5c2.66699 15.333 6.83398 30.5 12.501 45.5s11.5 28.167 17.5 39.5c13.333 24.667 29.5 47.834 48.5 69.501s38.833 42.167 59.5 61.5l6.5 6.5c2.33301 2.33301 4.83301 4.5 7.5 6.5v0z" />
    <glyph glyph-name="x" unicode="x" horiz-adv-x="496" 
d="M26 -3c0.666992 5.33301 1.49023 10.6758 2.49023 16.0088s2.16699 10.666 3.5 15.999c0.666992 5.33301 1.5 10.666 2.5 15.999s1.83301 11 2.5 17l5 3c2 -0.666992 3.83301 -1.33398 5.5 -2.00098s3.5 -1.33398 5.5 -2.00098c4 -1.33301 7.83301 -2.33301 11.5 -3
s7.16699 -1 10.5 -1c21.333 0 41 8 59 24s34.333 33.333 49 52l15 21l13 19c-0.666992 8 -1.66699 18.667 -3 32s-3 27 -5 41c-2.66699 18 -6.16699 34.833 -10.5 50.5s-10.166 26.5 -17.499 32.5c-2 1.33301 -4 2.5 -6 3.5s-4.33301 1.5 -7 1.5
c-2 0.666992 -3.83301 1 -5.5 1h-4.5c-2 0 -3.83301 -0.166992 -5.5 -0.5s-3.16699 -0.5 -4.5 -0.5c-7.33301 -2 -14.666 -5 -21.999 -9s-13.666 -8.66699 -18.999 -14c-2.66699 -2 -5 -3.83301 -7 -5.5s-4 -3.5 -6 -5.5l-17 8c10.667 13.333 20.334 27.166 29.001 41.499
s16.334 29.166 23.001 44.499c6 4 13.333 7.66699 22 11s17.667 5.66602 27 6.99902c2.66699 0 5.33398 0.166992 8.00098 0.5s5.33398 0.5 8.00098 0.5h6.5c2.33301 0 4.5 -0.333008 6.5 -1c6 -0.666992 11.667 -1.83398 17 -3.50098s10 -3.83398 14 -6.50098
c14 -10 24.167 -23.167 30.5 -39.5s10.833 -33.166 13.5 -50.499c1.33301 -6.66699 2.5 -13.334 3.5 -20.001s1.83301 -13 2.5 -19c0.666992 -2.66699 1.16699 -5.16699 1.5 -7.5s0.5 -4.5 0.5 -6.5l19 28.5l21 32.5c16 22.667 33.833 43.334 53.5 62.001
s41.834 28 66.501 28c2 0 4.16699 -0.166992 6.5 -0.5s4.83301 -0.5 7.5 -0.5c0.666992 0 1.5 -0.166992 2.5 -0.5s1.83301 -0.5 2.5 -0.5c1.33301 0 2.83301 -0.166992 4.5 -0.5s3.16699 -0.5 4.5 -0.5c-0.666992 -2.66699 -1.33398 -5.16699 -2.00098 -7.5
s-1.33398 -4.83301 -2.00098 -7.5c-3.33301 -12 -6.5 -24.167 -9.5 -36.5s-5.5 -24.833 -7.5 -37.5l-9 1c-2.66699 2 -5.5 3.83301 -8.5 5.5s-5.83301 3.16699 -8.5 4.5c-3.33301 0.666992 -6.5 1.33398 -9.5 2.00098s-5.83301 1 -8.5 1c-16 0 -31.167 -6.33301 -45.5 -19
s-27.166 -26.667 -38.499 -42l-18.5 -25l-14.5 -21c0.666992 -6.66699 2 -17.334 4 -32.001s4.33301 -30.334 7 -47.001c3.33301 -17.333 7.33301 -33.833 12 -49.5s10 -26.167 16 -31.5c2.66699 -2.66699 5.5 -4.66699 8.5 -6s6.16699 -2 9.5 -2c4 0 8 0.666992 12 2
s8 3 12 5s8 4.16699 12 6.5l11 6.5l13 9.5c4 3 7.66699 5.5 11 7.5l11 -18l-12.5 -13c-4.33301 -4.66699 -9.16602 -9 -14.499 -13c-12.667 -12 -26.5 -23.167 -41.5 -33.5s-30.5 -17.833 -46.5 -22.5c-5.33301 -2 -10.666 -3.5 -15.999 -4.5s-10.666 -1.5 -15.999 -1.5
c-16.667 0 -29.167 8.33301 -37.5 25s-14.166 35 -17.499 55c-2 10.667 -3.66699 21.167 -5 31.5s-2.33301 19.5 -3 27.5c-0.666992 2 -1 4 -1 6s-0.333008 4 -1 6l-15.5 -22l-15.5 -22c-11.333 -16.667 -23.333 -32.667 -36 -48s-26.334 -29.333 -41.001 -42
c-4 -2.66699 -8 -5 -12 -7s-8 -3.66699 -12 -5c-4.66699 -1.33301 -9 -2.5 -13 -3.5s-8 -1.5 -12 -1.5c-2.66699 0 -5.5 0.166992 -8.5 0.5s-5.83301 0.833008 -8.5 1.5c-2.66699 1.33301 -5.5 2.5 -8.5 3.5s-5.83301 2.5 -8.5 4.5v-1z" />
    <glyph glyph-name="y" unicode="y" horiz-adv-x="486" 
d="M310 149c-5.33301 -8.66699 -12.6719 -18.9961 -22.0049 -30.9961l-30 -37l-33 -34c-11.333 -11.333 -23 -21.333 -35 -30c-10.667 -7.33301 -21 -13.166 -31 -17.499s-19.667 -6.5 -29 -6.5c-15.333 0 -26 5.83301 -32 17.5s-9.33301 24.5 -10 38.5v4v4v2.5v3.5
c0 2 0.166992 4.16699 0.5 6.5s0.833008 4.5 1.5 6.5c0 3.33301 0.166992 6.33301 0.5 9s0.5 5 0.5 7c1.33301 17.333 3.5 34.833 6.5 52.5s5.83301 35.167 8.5 52.5l8 46.5c2.66699 15.667 4.66699 31.167 6 46.5v18v4c0 1.33301 -0.333008 3 -1 5
c-0.666992 2.66699 -1.5 5.5 -2.5 8.5s-2.5 5.16699 -4.5 6.5c-0.666992 0.666992 -1.5 1.16699 -2.5 1.5s-2.16699 0.5 -3.5 0.5h-2h-2c-4 0 -8.66699 -1 -14 -3s-10.666 -4.66699 -15.999 -8c-2.66699 -0.666992 -5 -1.66699 -7 -3l-6 -4
c-5.33301 -3.33301 -10.166 -6.5 -14.499 -9.5s-7.83301 -5.16699 -10.5 -6.5l-8 19l23.5 19c9 7.33301 18.5 14.666 28.5 21.999c4 3.33301 8.33301 6.66602 13 9.99902l14 10c13.333 9.33301 26.5 17.333 39.5 24s24.167 10.334 33.5 11.001h4
c11.333 0 19.666 -4.66699 24.999 -14s8.33301 -19.333 9 -30v-1.5v-1.5c0 -2.66699 -0.166992 -5.33398 -0.5 -8.00098s-0.5 -5.33398 -0.5 -8.00098c0 -2 -0.166992 -4.16699 -0.5 -6.5s-0.833008 -4.5 -1.5 -6.5c0 -4 -0.333008 -7.5 -1 -10.5s-1 -5.5 -1 -7.5l-20 -135
c0 -0.666992 -0.5 -3.83398 -1.5 -9.50098l-3.5 -20.5c-1.33301 -4 -2.33301 -8.5 -3 -13.5l-2 -15.5c0 -3.33301 -0.166992 -7 -0.5 -11s-0.5 -7.66699 -0.5 -11c0 -10.667 1.5 -19.834 4.5 -27.501s7.5 -11.5 13.5 -11.5l5 2c2 0.666992 4.16699 1.5 6.5 2.5
s4.83301 2.16699 7.5 3.5c6.66699 4 13.334 9.5 20.001 16.5s13 14.5 19 22.5c4.66699 6 9 11.833 13 17.5l11 15.5c23.333 35.333 42 73.166 56 113.499s27 81.166 39 122.499c0.666992 2 1.16699 3.83301 1.5 5.5s0.833008 3.16699 1.5 4.5c16 2.66699 31.833 6 47.5 10
s31.167 8.33301 46.5 13l6 -10c-0.666992 -3.33301 -1.66699 -6.5 -3 -9.5s-2.33301 -6.16699 -3 -9.5c-0.666992 -0.666992 -1 -1.33398 -1 -2.00098s-0.333008 -1.33398 -1 -2.00098l-6 -16.5c-2 -5.66699 -3.66699 -11.5 -5 -17.5l-72 -235
c-14.667 -48.667 -33.334 -96.167 -56.001 -142.5s-52.667 -88.166 -90 -125.499c-2.66699 -2 -5.16699 -4.16699 -7.5 -6.5l-7.5 -7.5c-17.333 -15.333 -36.833 -29.5 -58.5 -42.5s-44.5 -19.833 -68.5 -20.5c-26 0 -46.667 7 -62 21s-25.666 33.333 -30.999 58l24 22.5
c8 7.66699 15.667 15.5 23 23.5c2.66699 2.66699 5.16699 5.33398 7.5 8.00098s4.83301 5.33398 7.5 8.00098h8c0.666992 -4 1.33398 -8.66699 2.00098 -14l2 -16c3.33301 -16.667 9.33301 -31.834 18 -45.501s21.334 -20.5 38.001 -20.5h7
c2.66699 0 5.33398 0.333008 8.00098 1c0.666992 0 1.5 0.166992 2.5 0.5s1.83301 0.5 2.5 0.5c20.667 6 38 19.833 52 41.5s25.667 44.834 35 69.501c6 16.667 11.333 32.834 16 48.501s8.66699 28.5 12 38.5l39 136v0z" />
    <glyph glyph-name="z" unicode="z" horiz-adv-x="460" 
d="M34 -6l-9.99805 21.001l308 316c-12.667 -4 -25.334 -7.16699 -38.001 -9.5s-24.667 -3.5 -36 -3.5h-6h-6c-7.33301 0.666992 -14.333 1.5 -21 2.5s-13.667 1.83301 -21 2.5c-4 0.666992 -8 1.16699 -12 1.5s-8 0.833008 -12 1.5h-3.5h-3.5
c-4 0.666992 -8.16699 1 -12.5 1h-11.5c-9.33301 0 -16.666 -1.66699 -21.999 -5s-10.333 -9.33301 -15 -18c-2 -4 -4 -8.5 -6 -13.5s-4.33301 -10.5 -7 -16.5h-24c0.666992 2.66699 3.5 10.5 8.5 23.5l16.5 42.5l17 46l8 21c2.66699 3.33301 7.66699 5.5 15 6.5
s15.333 1.5 24 1.5h2.5h2.5c2.66699 0 5.16699 -0.166992 7.5 -0.5s4.5 -0.5 6.5 -0.5c3.33301 0 6.16602 -0.166992 8.49902 -0.5s4.5 -0.5 6.5 -0.5c12 -1.33301 23.333 -3.33301 34 -6s21 -5.66699 31 -9l38 -11c12 -3.33301 24 -5 36 -5
c13.333 0 27.166 2.66699 41.499 8s29.166 13.666 44.499 24.999l8 -23l-24 -25.5c-8 -8.33301 -16.333 -16.5 -25 -24.5l-259 -266c14.667 6 28.334 10.167 41.001 12.5s24.334 3.5 35.001 3.5h3.5h2.5c11.333 -0.666992 22.666 -1.83398 33.999 -3.50098l38 -5.5
c2.66699 0 5.33398 -0.166992 8.00098 -0.5s5.33398 -0.833008 8.00098 -1.5c2.66699 0 5.16699 -0.166992 7.5 -0.5s4.5 -0.5 6.5 -0.5c2 -0.666992 3.83301 -1.16699 5.5 -1.5s3.5 -0.5 5.5 -0.5c14 0 24.333 2.83301 31 8.5s13 15.5 19 29.5l4 10.5
c1.33301 3.66699 2.66602 7.83398 3.99902 12.501l21 -11c-2.66699 -10.667 -5.5 -21.167 -8.5 -31.5l-9.5 -31.5c-4 -10.667 -7.5 -21.334 -10.5 -32.001s-5.83301 -21.667 -8.5 -33c-2.66699 0 -5.16699 -0.166992 -7.5 -0.5s-4.83301 -0.833008 -7.5 -1.5
c-8 -1.33301 -15.667 -2.16602 -23 -2.49902s-14.333 -0.5 -21 -0.5c-18 0 -34.833 1.66699 -50.5 5s-30.834 7 -45.501 11l-43.5 11.5c-13.667 3.66699 -27.5 5.5 -41.5 5.5c-2.66699 0 -5.5 -0.166992 -8.5 -0.5s-5.83301 -0.5 -8.5 -0.5
c-10.667 -2 -21.667 -5.66699 -33 -11s-23.333 -12.333 -36 -21v-1z" />
    <glyph glyph-name="braceleft" unicode="{" horiz-adv-x="423" 
d="M381 642l-0.000976562 -25.999c-44 -1.33301 -71 -12.333 -81 -33s-15 -47.667 -15 -81c0 -2 0.166992 -4 0.5 -6s0.5 -4.33301 0.5 -7c0 -2 0.166992 -4.16699 0.5 -6.5s0.5 -4.5 0.5 -6.5v-43c0 -42.667 -5.66699 -77.334 -17 -104.001s-43 -46.667 -95 -60
c52 -12.667 83.667 -32.834 95 -60.501s17 -62.5 17 -104.5v-42v-6.5c0 -2.33301 -0.333008 -4.5 -1 -6.5v-4v-3c0 -3.33301 -0.166992 -6.66602 -0.5 -9.99902s-0.5 -6.33301 -0.5 -9c0 -30.667 5.33301 -54.667 16 -72s37.334 -26.666 80.001 -27.999v-23
c-80.667 1.33301 -129 15 -145 41s-24 74.333 -24 145v23c0 45.333 -5.33301 79.166 -16 101.499s-43.667 36.833 -99 43.5v30c55.333 7.33301 88.333 21.5 99 42.5s16 54.833 16 101.5v24c0 72 8 121 24 147s64.333 40.333 145 43v0z" />
    <glyph glyph-name="bar" unicode="|" horiz-adv-x="300" 
d="M110 661h76v-864h-76v864v0z" />
    <glyph glyph-name="braceright" unicode="}" horiz-adv-x="431" 
d="M29 642c79.333 -2.66699 127.333 -17.0049 144 -43.0049s25 -75 25 -147v-6c0 -2 -0.333008 -4 -1 -6v-2v-2c0 -2.66699 -0.166992 -5.33398 -0.5 -8.00098s-0.5 -5 -0.5 -7c0 -43.333 6 -75.166 18 -95.499s45.333 -34.166 100 -41.499v-30
c-54.667 -6.66699 -88 -20.667 -100 -42s-18 -53.666 -18 -96.999c0 -2 0.166992 -4.16699 0.5 -6.5s0.5 -4.83301 0.5 -7.5c0 -1.33301 0.166992 -2.5 0.5 -3.5s0.5 -2.16699 0.5 -3.5v-4v-4c0 -70.667 -8 -119 -24 -145s-64.333 -39.333 -145 -40v21
c44 2 70.667 12.333 80 31s14 43.667 14 75v34v12v12c-0.666992 4 -1 7.83301 -1 11.5v11.5c0 40.667 5.83301 74.334 17.5 101.001s43.5 46.334 95.5 59.001c-52 13.333 -83.833 33.333 -95.5 60s-17.5 61.334 -17.5 104.001v10.5c0 3.66699 0.333008 7.16699 1 10.5v2v3
v8.5v8.5v26c0 33.333 -4.66699 60.333 -14 81s-36 31.667 -80 33v26v0z" />
    <glyph glyph-name="asciitilde" unicode="~" horiz-adv-x="637" 
d="M598 332l0.00195312 -78.001c-28.667 -18 -55 -32.167 -79 -42.5s-47.333 -16.166 -70 -17.499h-5.5h-4.5c-18.667 0 -38.334 3 -59.001 9s-43.667 13.333 -69 22c-23.333 8 -44.833 14.167 -64.5 18.5s-37.5 6.5 -53.5 6.5c-8 0 -15.833 -0.5 -23.5 -1.5
s-15.5 -2.5 -23.5 -4.5c-18 -4 -36.333 -11 -55 -21s-39.667 -22.667 -63 -38v78c20.667 13.333 40.5 24.333 59.5 33s37.5 15 55.5 19c8.66699 2 17.167 3.5 25.5 4.5s16.833 1.5 25.5 1.5c18 0 37.167 -2 57.5 -6s41.166 -9.66699 62.499 -17
c26 -9.33301 49.5 -16.833 70.5 -22.5s39.833 -8.5 56.5 -8.5c4 0 7.83301 0.166992 11.5 0.5s7.5 0.833008 11.5 1.5c20 2.66699 40.5 9.16699 61.5 19.5s45.167 24.833 72.5 43.5v0z" />
    <glyph glyph-name="space" 
 />
    <glyph glyph-name="F" 
 />
    <glyph glyph-name="F" unicode="&#x402;" 
 />
    <glyph glyph-name="asciitilde" 
 />
    <glyph glyph-name="asciitilde" unicode="&#x403;" 
 />
    <glyph glyph-name="D" 
 />
    <glyph glyph-name="D" unicode="&#x40c;" 
 />
    <glyph glyph-name="N" 
 />
    <glyph glyph-name="N" unicode="&#x40b;" 
 />
    <glyph glyph-name="bullet" 
 />
    <glyph glyph-name="bullet" unicode="&#x40f;" 
 />
    <glyph glyph-name="guilsinglleft" 
 />
    <glyph glyph-name="guilsinglleft" unicode="&#x452;" 
 />
    <glyph glyph-name="Ydieresis" 
 />
    <glyph glyph-name="Ydieresis" unicode="&#x45c;" 
 />
    <glyph glyph-name="tilde" 
 />
    <glyph glyph-name="tilde" unicode="&#x45b;" 
 />
    <glyph glyph-name="greater" unicode="&#xa0;" 
 />
    <glyph glyph-name="Z" unicode="&#xa1;" 
 />
    <glyph glyph-name="Z" unicode="&#x40e;" 
 />
    <glyph glyph-name="slash" unicode="&#xa2;" 
 />
    <glyph glyph-name="slash" unicode="&#x45e;" 
 />
    <glyph glyph-name="endash" unicode="&#xa3;" 
 />
    <glyph glyph-name="endash" unicode="&#x408;" 
 />
    <glyph glyph-name="quotedblleft" unicode="&#xa4;" 
 />
    <glyph glyph-name="emdash" unicode="&#xa5;" 
 />
    <glyph glyph-name="emdash" unicode="&#x490;" 
 />
    <glyph glyph-name="circumflex" unicode="&#xa6;" 
 />
    <glyph glyph-name="scaron" unicode="&#xa7;" horiz-adv-x="498" 
d="M182 470c8 37.333 23.9971 66.168 47.9971 86.501s49.667 33.166 77 38.499c5.33301 1.33301 10.5 2.16602 15.5 2.49902s9.83301 0.5 14.5 0.5c27.333 0 51.666 -7.66699 72.999 -23s32 -36.666 32 -63.999c0 -4.66699 -0.166992 -9.16699 -0.5 -13.5
s-1.16602 -8.5 -2.49902 -12.5c-2 -10.667 -6.33301 -19.334 -13 -26.001s-13.667 -11 -21 -13c-2 -0.666992 -3.83301 -1.16699 -5.5 -1.5s-3.5 -0.5 -5.5 -0.5c-7.33301 0 -13.833 2.5 -19.5 7.5s-8.5 11.833 -8.5 20.5c0 0.666992 0.166992 1.5 0.5 2.5
s0.5 2.16699 0.5 3.5v0.5v1.5c0.666992 0.666992 1 1.5 1 2.5v2.5c0.666992 2 1.33398 4.33301 2.00098 7l2 8c0.666992 2.66699 1.16699 5.33398 1.5 8.00098s0.833008 5.66699 1.5 9c0 2 0.166992 4.16699 0.5 6.5s0.5 4.5 0.5 6.5v1.5v1.5
c-0.666992 8.66699 -4.16699 16.834 -10.5 24.501s-17.833 11.5 -34.5 11.5c-2.66699 0 -5.5 -0.166992 -8.5 -0.5s-6.16699 -1.16602 -9.5 -2.49902c-12.667 -4 -24.5 -11.5 -35.5 -22.5s-18.167 -24.833 -21.5 -41.5c0 -0.666992 -0.166992 -1.66699 -0.5 -3
s-0.833008 -2.33301 -1.5 -3c0 -1.33301 -0.166992 -2.66602 -0.5 -3.99902s-0.5 -2.33301 -0.5 -3c-0.666992 -2.66699 -1.16699 -5.16699 -1.5 -7.5s-0.5 -4.5 -0.5 -6.5c0 -22.667 6.66699 -42.167 20 -58.5s28.333 -32.166 45 -47.499l4 -4
c1.33301 -1.33301 2.66602 -2.33301 3.99902 -3c18 -16.667 34.667 -34.334 50 -53.001s23 -41.334 23 -68.001c0 -2.66699 -0.166992 -6 -0.5 -10s-0.833008 -8 -1.5 -12v-2v-3c0 -1.33301 -0.166992 -2.5 -0.5 -3.5s-0.5 -2.16699 -0.5 -3.5
c-0.666992 -1.33301 -1.16699 -2.83301 -1.5 -4.5s-0.5 -3.16699 -0.5 -4.5c-7.33301 -24.667 -19.166 -49 -35.499 -73s-36.833 -44.667 -61.5 -62c6.66699 -8.66699 11.834 -18.5 15.501 -29.5s5.5 -22.833 5.5 -35.5c0 -4 -0.166992 -8.16699 -0.5 -12.5
s-0.833008 -8.83301 -1.5 -13.5c-0.666992 -2 -1.16699 -4.16699 -1.5 -6.5s-0.833008 -4.5 -1.5 -6.5c-8 -36.667 -24 -65.167 -48 -85.5s-49.667 -33.166 -77 -38.499c-6 -1.33301 -11.833 -2.33301 -17.5 -3s-11.167 -1 -16.5 -1c-27.333 0 -51.333 7.66699 -72 23
s-31 36.666 -31 63.999c0 2 0.166992 4.16699 0.5 6.5s0.833008 4.5 1.5 6.5v1.5v1.5c0.666992 1.33301 1.16699 3 1.5 5s0.5 3.66699 0.5 5c2 9.33301 5.83301 17.166 11.5 23.499s11.5 11.166 17.5 14.499l8 2c2.66699 0.666992 5 1 7 1c7.33301 0 14 -2.83301 20 -8.5
s9 -13.167 9 -22.5v-12c0 -2 -0.5 -4.5 -1.5 -7.5s-1.83301 -6.5 -2.5 -10.5l-2 -6c-0.666992 -2 -1 -4.33301 -1 -7c-0.666992 -2 -1.16699 -4.33301 -1.5 -7s-0.5 -5 -0.5 -7v-1.5v-1.5c0.666992 -8.66699 4.33398 -16.834 11.001 -24.501s18.667 -11.5 36 -11.5
c3.33301 0 6.83301 0.5 10.5 1.5s7.5 2.16699 11.5 3.5c10.667 5.33301 20.834 13.333 30.501 24s16.5 23.334 20.5 38.001c0 2 0.166992 3.83301 0.5 5.5s0.5 3.5 0.5 5.5v8v7c0 21.333 -6.16699 39.833 -18.5 55.5s-26.5 30.834 -42.5 45.501
c-1.33301 1.33301 -2.83301 2.66602 -4.5 3.99902s-3.5 3 -5.5 5c-18 16 -34.333 33.333 -49 52s-22 41.667 -22 69c0 2.66699 0.166992 5.83398 0.5 9.50098s0.833008 7.5 1.5 11.5c0.666992 2 1.16699 4.33301 1.5 7s0.5 5 0.5 7l2 8
c0.666992 2.66699 1.66699 5.33398 3 8.00098c7.33301 24 18.833 47 34.5 69s35.167 41.333 58.5 58c-6.66699 9.33301 -11.834 19.833 -15.501 31.5s-5.5 24.167 -5.5 37.5c0 3.33301 0.166992 7 0.5 11s0.833008 8 1.5 12c0 1.33301 0.166992 2.66602 0.5 3.99902
s0.5 2.66602 0.5 3.99902c0.666992 1.33301 1.16699 3 1.5 5s0.5 3.66699 0.5 5v0zM281.997 84.002c10.667 7.33301 20.498 16.334 29.498 27.001s14.833 22.667 17.5 36c1.33301 4.66699 2 9.16699 2 13.5v11.5c0 23.333 -7.5 44.333 -22.5 63s-31.833 36.667 -50.5 54
l-2 2l-2 2l-23.5 22.5c-7.66699 7.66699 -14.834 15.5 -21.501 23.5c-9.33301 -8 -18.166 -17 -26.499 -27s-14.166 -21.667 -17.499 -35c0 -2 -0.333008 -3.83301 -1 -5.5s-1 -3.5 -1 -5.5c-0.666992 -0.666992 -1 -1.16699 -1 -1.5v-1.5
c-0.666992 -2 -1.16699 -4.16699 -1.5 -6.5s-0.5 -4.5 -0.5 -6.5c0 -22 6.5 -41.5 19.5 -58.5s28.167 -33.5 45.5 -49.5c2 -2 4 -3.83301 6 -5.5s4 -3.5 6 -5.5l23.5 -22.5c7.66699 -7.66699 14.834 -15.834 21.501 -24.501v0z" />
    <glyph glyph-name="H" unicode="&#xa8;" 
 />
    <glyph glyph-name="H" unicode="&#x401;" 
 />
    <glyph glyph-name="I" unicode="&#xa9;" horiz-adv-x="833" 
d="M412 528c91.333 0 170.333 -33 237 -99s100 -144.667 100 -236s-33.333 -168.833 -100 -232.5s-145.667 -95.5 -237 -95.5s-170.333 31.833 -237 95.5s-100 141.167 -100 232.5s33.333 170 100 236s145.667 99 237 99v0zM147 193c0 -74 25.667 -135.5 77 -184.5
s114 -73.5 188 -73.5c73.333 0 135.666 24.5 186.999 73.5s77 110.5 77 184.5c0 73.333 -25.667 135.666 -77 186.999s-113.666 77 -186.999 77c-74 0 -136.667 -25.667 -188 -77s-77 -113.666 -77 -186.999v0zM481 99l43 -33.998
c-12.667 -15.333 -27.334 -27.833 -44.001 -37.5s-33.667 -15.834 -51 -18.501c-2.66699 0 -5.5 -0.166992 -8.5 -0.5s-5.83301 -0.5 -8.5 -0.5s-5.5 0.166992 -8.5 0.5s-6.16699 0.5 -9.5 0.5c-33.333 6 -64.166 25.667 -92.499 59s-42.5 75 -42.5 125
c0 49.333 14.167 90.833 42.5 124.5s59.166 53.5 92.499 59.5c3.33301 0 6.5 0.166992 9.5 0.5s5.83301 0.5 8.5 0.5s5.5 -0.166992 8.5 -0.5s5.83301 -0.5 8.5 -0.5c17.333 -2.66699 34.333 -9 51 -19s31.334 -23 44.001 -39l-39 -31
c-8.66699 13.333 -18.667 23.5 -30 30.5s-25.666 10.5 -42.999 10.5c-28.667 0 -50 -10.167 -64 -30.5s-21 -55.5 -21 -105.5c0 -50.667 7 -86.334 21 -107.001s35.333 -31 64 -31c17.333 0 31.166 4.16699 41.499 12.5s19.5 18.833 27.5 31.5v0z" />
    <glyph glyph-name="J" unicode="&#xaa;" 
 />
    <glyph glyph-name="J" unicode="&#x404;" 
 />
    <glyph glyph-name="ampersand" unicode="&#xab;" horiz-adv-x="357" 
d="M243 373l-130 -170l52 -169l-24 -24l-115 183l3 19l203 183l11 -22v0zM323 342l-93 -139l26 -140l-19 -18l-78 148l3 19l151 148l10 -18v0z" />
    <glyph glyph-name="quotesingle" unicode="&#xac;" 
 />
    <glyph glyph-name="daggerdbl" unicode="&#xad;" 
 />
    <glyph glyph-name="dagger" unicode="&#xae;" horiz-adv-x="833" 
d="M762 193c0 -91.333 -34.5 -168.833 -103.5 -232.5s-151.167 -95.5 -246.5 -95.5c-96 0 -178.333 31.833 -247 95.5s-103 141.167 -103 232.5s34.333 170 103 236s151 99 247 99c95.333 0 177.5 -33 246.5 -99s103.5 -144.667 103.5 -236v0zM687 193
c0 73.333 -26.833 135.666 -80.5 186.999s-118.5 77 -194.5 77c-76.667 0 -141.834 -25.667 -195.501 -77s-80.5 -113.666 -80.5 -186.999c0 -74 26.833 -135.5 80.5 -184.5s118.834 -73.5 195.501 -73.5c76 0 140.833 24.5 194.5 73.5s80.5 110.5 80.5 184.5v0zM347 151
v-145h-62v368h143c36.667 0 64.167 -10.667 82.5 -32s27.5 -45 27.5 -71s-9.16699 -49.833 -27.5 -71.5s-45.833 -32.5 -82.5 -32.5h-16l168 -161h-92l-141 145v0zM412 327l-65.002 -0.000976562v-111h66c18 0 31.667 5.66699 41 17s14 24 14 38v2.5v2.5
c-1.33301 12.667 -6.66602 24.334 -15.999 35.001s-22.666 16 -39.999 16v0z" />
    <glyph glyph-name="macron" unicode="&#xaf;" 
 />
    <glyph glyph-name="macron" unicode="&#x407;" 
 />
    <glyph glyph-name="zero" unicode="&#xb0;" horiz-adv-x="376" 
d="M178 606c26 0 48.833 -9.66699 68.5 -29s29.5 -42.666 29.5 -69.999c0 -26 -9.83301 -48.667 -29.5 -68s-42.5 -29 -68.5 -29s-48.667 9.66699 -68 29s-29 42 -29 68c0 27.333 9.66699 50.666 29 69.999s42 29 68 29v0zM113 507c0 -15.333 6.5 -29.5 19.5 -42.5
s27.167 -19.833 42.5 -20.5h1.5h1.5c16.667 0 31.667 6.5 45 19.5s20 27.5 20 43.5c0 16.667 -6.66699 31.667 -20 45s-28.333 20 -45 20h-1.5h-1.5c-15.333 -0.666992 -29.5 -7.66699 -42.5 -21s-19.5 -28 -19.5 -44v0z" />
    <glyph glyph-name="at" unicode="&#xb1;" 
 />
    <glyph glyph-name="P" unicode="&#xb2;" 
 />
    <glyph glyph-name="P" unicode="&#x406;" 
 />
    <glyph glyph-name="S" unicode="&#xb3;" 
 />
    <glyph glyph-name="S" unicode="&#x456;" 
 />
    <glyph glyph-name="T" unicode="&#xb4;" 
 />
    <glyph glyph-name="T" unicode="&#x491;" 
 />
    <glyph glyph-name="U" unicode="&#xb5;" 
 />
    <glyph glyph-name="V" unicode="&#xb6;" horiz-adv-x="506" 
d="M298 -173h-66v478c-53.333 0 -93.666 16.5 -120.999 49.5s-41 69.5 -41 109.5v2.5v3.5c1.33301 38.667 15.666 74 42.999 106s67 48 119 48h66v-797v0zM426 -173h-69v797h69v-797v0z" />
    <glyph glyph-name="quoteleft" unicode="&#xb8;" 
 />
    <glyph glyph-name="quoteleft" unicode="&#x451;" 
 />
    <glyph glyph-name="one" unicode="&#xb9;" 
 />
    <glyph glyph-name="one" unicode="&#x2116;" 
 />
    <glyph glyph-name="G" unicode="&#xba;" 
 />
    <glyph glyph-name="G" unicode="&#x454;" 
 />
    <glyph glyph-name="bracketleft" unicode="&#xbb;" 
 />
    <glyph glyph-name="w" unicode="&#xbc;" 
 />
    <glyph glyph-name="w" unicode="&#x458;" 
 />
    <glyph glyph-name="bracketright" unicode="&#xbd;" 
 />
    <glyph glyph-name="bracketright" unicode="&#x405;" 
 />
    <glyph glyph-name="R" unicode="&#xbe;" 
 />
    <glyph glyph-name="R" unicode="&#x455;" 
 />
    <glyph glyph-name="underscore" unicode="&#xbf;" 
 />
    <glyph glyph-name="underscore" unicode="&#x457;" 
 />
    <glyph glyph-name="grave" unicode="&#xc0;" horiz-adv-x="637" 
d="M3 0l6.99805 31.0029c15.333 0 28.333 2 39 6s20.334 13.333 29.001 28l332 531h10h10c2.66699 -0.666992 5.66699 -1 9 -1h10h10c3.33301 0 6.66602 0.333008 9.99902 1h10h10l52 -479c0.666992 -4.66699 1.16699 -9.33398 1.5 -14.001s0.833008 -8.66699 1.5 -12
c2.66699 -26.667 7.83398 -43.167 15.501 -49.5s27.5 -9.83301 59.5 -10.5v-31c-10.667 0.666992 -21.5 1.16699 -32.5 1.5s-21.833 0.5 -32.5 0.5c-11.333 0.666992 -22.333 1 -33 1h-33c-22 0 -44 -0.166992 -66 -0.5s-43.667 -1.16602 -65 -2.49902l6 31h5h5
c22.667 0 38.334 1.5 47.001 4.5s13 14.5 13 34.5v24l-13 141h-188l-76 -135c-6.66699 -10.667 -11.834 -20.334 -15.501 -29.001s-5.5 -15.667 -5.5 -21c0 -8.66699 5.33301 -13.834 16 -15.501s26 -2.83398 46 -3.50098h3.5h3.5v-31c-5.33301 0.666992 -11 1 -17 1h-17
c-11.333 0.666992 -22.666 1 -33.999 1h-34h-32.5c-11 0 -22.167 -0.333008 -33.5 -1h-16.5c-5.66699 0 -11.167 -0.333008 -16.5 -1v0zM393.998 498.003l-141 -226h164l-23 226v0z" />
    <glyph glyph-name="grave" unicode="&#x410;" horiz-adv-x="637" 
d="M3 0l6.99805 31.0029c15.333 0 28.333 2 39 6s20.334 13.333 29.001 28l332 531h10h10c2.66699 -0.666992 5.66699 -1 9 -1h10h10c3.33301 0 6.66602 0.333008 9.99902 1h10h10l52 -479c0.666992 -4.66699 1.16699 -9.33398 1.5 -14.001s0.833008 -8.66699 1.5 -12
c2.66699 -26.667 7.83398 -43.167 15.501 -49.5s27.5 -9.83301 59.5 -10.5v-31c-10.667 0.666992 -21.5 1.16699 -32.5 1.5s-21.833 0.5 -32.5 0.5c-11.333 0.666992 -22.333 1 -33 1h-33c-22 0 -44 -0.166992 -66 -0.5s-43.667 -1.16602 -65 -2.49902l6 31h5h5
c22.667 0 38.334 1.5 47.001 4.5s13 14.5 13 34.5v24l-13 141h-188l-76 -135c-6.66699 -10.667 -11.834 -20.334 -15.501 -29.001s-5.5 -15.667 -5.5 -21c0 -8.66699 5.33301 -13.834 16 -15.501s26 -2.83398 46 -3.50098h3.5h3.5v-31c-5.33301 0.666992 -11 1 -17 1h-17
c-11.333 0.666992 -22.666 1 -33.999 1h-34h-32.5c-11 0 -22.167 -0.333008 -33.5 -1h-16.5c-5.66699 0 -11.167 -0.333008 -16.5 -1v0zM393.998 498.003l-141 -226h164l-23 226v0z" />
    <glyph glyph-name="a" unicode="&#xc1;" horiz-adv-x="590" 
d="M183 446c0.666992 2 1.50586 5.66699 2.50586 11s1.83301 11.666 2.5 18.999l2 10.5c0.666992 3.66699 1 7.5 1 11.5c1.33301 6 2.16602 12 2.49902 18s0.5 11.333 0.5 16v3v3v7c0 2 -0.333008 3.33301 -1 4c-2.66699 4.66699 -7.83398 7.83398 -15.501 9.50098
s-15.834 2.83398 -24.501 3.50098h-8.5h-8.5h-21l7 31c6 0 12 -0.166992 18 -0.5s12 -0.5 18 -0.5c6 -0.666992 12.167 -1 18.5 -1h19.5c6 -0.666992 12.167 -1 18.5 -1h18.5c15.333 0 30.666 0.166992 45.999 0.5s31 0.5 47 0.5c15.333 0 30.833 0.166992 46.5 0.5
s30.834 0.5 45.501 0.5c10.667 0 21.5 -0.166992 32.5 -0.5s21.833 -0.5 32.5 -0.5c11.333 -0.666992 22.333 -1.16699 33 -1.5s21.334 -0.833008 32.001 -1.5c-3.33301 -14.667 -6.5 -30 -9.5 -46s-5.5 -32 -7.5 -48c-1.33301 -7.33301 -2.5 -15 -3.5 -23
s-2.16699 -16 -3.5 -24h-30v85c-10.667 5.33301 -22.667 9.5 -36 12.5s-27 4.83301 -41 5.5c-4 0.666992 -7.83301 1 -11.5 1h-11.5h-12.5c-4.33301 0 -8.83301 -0.333008 -13.5 -1c-6 0 -12.333 -0.333008 -19 -1s-13 -1 -19 -1
c-3.33301 -0.666992 -6.5 -1.16699 -9.5 -1.5s-6.16699 -0.5 -9.5 -0.5l-55 -253l-49 -241c3.33301 -0.666992 6.83301 -1.5 10.5 -2.5s7.16699 -1.83301 10.5 -2.5c10.667 -2.66699 21.167 -4.66699 31.5 -6s20.5 -2 30.5 -2c38 0 70.833 11 98.5 33
s42.834 58.667 45.501 110v8c0 44.667 -14.333 73 -43 85s-60.667 18 -96 18h-31l21 39h7.5h7.5c12.667 -0.666992 26 -1.33398 40 -2.00098s28 -1.66699 42 -3c30.667 -3.33301 60.167 -10.166 88.5 -20.499s50.166 -28.166 65.499 -53.499
c2.66699 -4.66699 4.83398 -9.83398 6.50098 -15.501s3.16699 -11.5 4.5 -17.5c0.666992 -4.66699 1.16699 -9.33398 1.5 -14.001s0.5 -9 0.5 -13c0 -3.33301 -0.166992 -6.83301 -0.5 -10.5s-0.833008 -7.5 -1.5 -11.5c-1.33301 -12 -4.33301 -23.833 -9 -35.5
s-10 -22.167 -16 -31.5c-22 -32.667 -50.333 -56.667 -85 -72s-70.667 -25 -108 -29c-8.66699 -1.33301 -17.5 -2.16602 -26.5 -2.49902s-17.833 -0.5 -26.5 -0.5h-35c-12 0 -24 0.333008 -36 1h-5h-6c-14 0 -27.833 0.166992 -41.5 0.5s-27.167 0.5 -40.5 0.5
c-6.66699 0 -13.334 -0.166992 -20.001 -0.5s-13.334 -0.5 -20.001 -0.5c-7.33301 0 -14.333 -0.166992 -21 -0.5s-13.334 -0.5 -20.001 -0.5l6 31c25.333 0.666992 41.833 4.16699 49.5 10.5s13.5 18.166 17.5 35.499c1.33301 4.66699 2.66602 10 3.99902 16
s2.66602 12.667 3.99902 20l71 333v0z" />
    <glyph glyph-name="a" unicode="&#x411;" horiz-adv-x="590" 
d="M183 446c0.666992 2 1.50586 5.66699 2.50586 11s1.83301 11.666 2.5 18.999l2 10.5c0.666992 3.66699 1 7.5 1 11.5c1.33301 6 2.16602 12 2.49902 18s0.5 11.333 0.5 16v3v3v7c0 2 -0.333008 3.33301 -1 4c-2.66699 4.66699 -7.83398 7.83398 -15.501 9.50098
s-15.834 2.83398 -24.501 3.50098h-8.5h-8.5h-21l7 31c6 0 12 -0.166992 18 -0.5s12 -0.5 18 -0.5c6 -0.666992 12.167 -1 18.5 -1h19.5c6 -0.666992 12.167 -1 18.5 -1h18.5c15.333 0 30.666 0.166992 45.999 0.5s31 0.5 47 0.5c15.333 0 30.833 0.166992 46.5 0.5
s30.834 0.5 45.501 0.5c10.667 0 21.5 -0.166992 32.5 -0.5s21.833 -0.5 32.5 -0.5c11.333 -0.666992 22.333 -1.16699 33 -1.5s21.334 -0.833008 32.001 -1.5c-3.33301 -14.667 -6.5 -30 -9.5 -46s-5.5 -32 -7.5 -48c-1.33301 -7.33301 -2.5 -15 -3.5 -23
s-2.16699 -16 -3.5 -24h-30v85c-10.667 5.33301 -22.667 9.5 -36 12.5s-27 4.83301 -41 5.5c-4 0.666992 -7.83301 1 -11.5 1h-11.5h-12.5c-4.33301 0 -8.83301 -0.333008 -13.5 -1c-6 0 -12.333 -0.333008 -19 -1s-13 -1 -19 -1
c-3.33301 -0.666992 -6.5 -1.16699 -9.5 -1.5s-6.16699 -0.5 -9.5 -0.5l-55 -253l-49 -241c3.33301 -0.666992 6.83301 -1.5 10.5 -2.5s7.16699 -1.83301 10.5 -2.5c10.667 -2.66699 21.167 -4.66699 31.5 -6s20.5 -2 30.5 -2c38 0 70.833 11 98.5 33
s42.834 58.667 45.501 110v8c0 44.667 -14.333 73 -43 85s-60.667 18 -96 18h-31l21 39h7.5h7.5c12.667 -0.666992 26 -1.33398 40 -2.00098s28 -1.66699 42 -3c30.667 -3.33301 60.167 -10.166 88.5 -20.499s50.166 -28.166 65.499 -53.499
c2.66699 -4.66699 4.83398 -9.83398 6.50098 -15.501s3.16699 -11.5 4.5 -17.5c0.666992 -4.66699 1.16699 -9.33398 1.5 -14.001s0.5 -9 0.5 -13c0 -3.33301 -0.166992 -6.83301 -0.5 -10.5s-0.833008 -7.5 -1.5 -11.5c-1.33301 -12 -4.33301 -23.833 -9 -35.5
s-10 -22.167 -16 -31.5c-22 -32.667 -50.333 -56.667 -85 -72s-70.667 -25 -108 -29c-8.66699 -1.33301 -17.5 -2.16602 -26.5 -2.49902s-17.833 -0.5 -26.5 -0.5h-35c-12 0 -24 0.333008 -36 1h-5h-6c-14 0 -27.833 0.166992 -41.5 0.5s-27.167 0.5 -40.5 0.5
c-6.66699 0 -13.334 -0.166992 -20.001 -0.5s-13.334 -0.5 -20.001 -0.5c-7.33301 0 -14.333 -0.166992 -21 -0.5s-13.334 -0.5 -20.001 -0.5l6 31c25.333 0.666992 41.833 4.16699 49.5 10.5s13.5 18.166 17.5 35.499c1.33301 4.66699 2.66602 10 3.99902 16
s2.66602 12.667 3.99902 20l71 333v0z" />
    <glyph glyph-name="b" unicode="&#xc2;" horiz-adv-x="609" 
d="M31 0l6.00293 30.999c25.333 0.666992 41.833 4.16699 49.5 10.5s13.5 18.166 17.5 35.499c1.33301 4.66699 2.66602 10 3.99902 16s2.66602 12.667 3.99902 20l76 365c2.66699 13.333 4.66699 24.5 6 33.5s2 16.167 2 21.5c0 14 -5.5 22.333 -16.5 25s-31.5 4 -61.5 4
l5 31c7.33301 0 14.5 -0.333008 21.5 -1s14.167 -1 21.5 -1c1.33301 -0.666992 2.66602 -1 3.99902 -1h4c8 -0.666992 16.333 -1.16699 25 -1.5s17 -0.5 25 -0.5c6.66699 0 13.5 0.166992 20.5 0.5s14.167 0.833008 21.5 1.5c2 0 4.16699 0.166992 6.5 0.5
s4.83301 0.5 7.5 0.5c4.66699 0 9.33398 0.166992 14.001 0.5s9.33398 0.5 14.001 0.5h17c6 0 12.333 0.333008 19 1h7h8h11.5h11.5h18.5c6.33301 0 12.5 -0.333008 18.5 -1c25.333 -1.33301 50 -4.66602 74 -9.99902s43.333 -14.666 58 -27.999
c8.66699 -7.33301 15.5 -16.5 20.5 -27.5s8.16699 -22.167 9.5 -33.5c0.666992 -2.66699 1 -5 1 -7v-6c0 -3.33301 -0.166992 -6.66602 -0.5 -9.99902s-0.833008 -6.66602 -1.5 -9.99902c-2 -12.667 -5.5 -24.834 -10.5 -36.501s-11.167 -22.167 -18.5 -31.5
c-14 -18 -31 -32 -51 -42s-40.333 -17.667 -61 -23c-6 -2 -11.833 -3.5 -17.5 -4.5s-11.167 -2.16699 -16.5 -3.5l14.5 -2l15.5 -2c20 -4 39.333 -10.333 58 -19s33 -23 43 -43c2.66699 -4.66699 4.83398 -9.83398 6.50098 -15.501s3.16699 -11.5 4.5 -17.5
c0.666992 -4.66699 1.16699 -9.33398 1.5 -14.001s0.5 -9 0.5 -13c0 -3.33301 -0.166992 -6.83301 -0.5 -10.5s-0.833008 -7.5 -1.5 -11.5c-1.33301 -12 -4.33301 -23.833 -9 -35.5s-10 -22.167 -16 -31.5c-22 -32.667 -50.333 -56.667 -85 -72s-70.667 -25 -108 -29
c-8.66699 -1.33301 -17.5 -2.16602 -26.5 -2.49902s-17.833 -0.5 -26.5 -0.5h-35c-12 -0 -24 0.333008 -36 1h-5h-6c-14 0 -27.833 0.166992 -41.5 0.5s-27.167 0.5 -40.5 0.5c-6.66699 0 -13.334 -0.166992 -20.001 -0.5s-13.334 -0.5 -20.001 -0.5
c-7.33301 0 -14.333 -0.166992 -21 -0.5s-13.334 -0.5 -20.001 -0.5v0zM207.003 51.999c3.33301 -0.666992 6.83203 -1.5 10.499 -2.5s7.16699 -1.83301 10.5 -2.5c10.667 -2.66699 21.167 -4.66699 31.5 -6s20.5 -2 30.5 -2c38 0 70.833 11 98.5 33
s42.834 58.667 45.501 110v9c0 44 -14.167 72 -42.5 84s-59.833 18 -94.5 18h-41l-49 -241v0zM470.002 464.999l0.00195312 8.00195c0 33.333 -11 55.166 -33 65.499s-46.667 15.5 -74 15.5h-12.5h-13.5c-4.66699 -0.666992 -9.16699 -1 -13.5 -1h-12.5l-47 -222
c1.33301 0 2.66602 -0.166992 3.99902 -0.5s2.66602 -0.5 3.99902 -0.5c0.666992 0 1.66699 -0.166992 3 -0.5s2.66602 -0.5 3.99902 -0.5h3.5h2.5c45.333 0.666992 86.833 9.16699 124.5 25.5s57.834 53.166 60.501 110.499v0z" />
    <glyph glyph-name="b" unicode="&#x412;" horiz-adv-x="609" 
d="M31 0l6.00293 30.999c25.333 0.666992 41.833 4.16699 49.5 10.5s13.5 18.166 17.5 35.499c1.33301 4.66699 2.66602 10 3.99902 16s2.66602 12.667 3.99902 20l76 365c2.66699 13.333 4.66699 24.5 6 33.5s2 16.167 2 21.5c0 14 -5.5 22.333 -16.5 25s-31.5 4 -61.5 4
l5 31c7.33301 0 14.5 -0.333008 21.5 -1s14.167 -1 21.5 -1c1.33301 -0.666992 2.66602 -1 3.99902 -1h4c8 -0.666992 16.333 -1.16699 25 -1.5s17 -0.5 25 -0.5c6.66699 0 13.5 0.166992 20.5 0.5s14.167 0.833008 21.5 1.5c2 0 4.16699 0.166992 6.5 0.5
s4.83301 0.5 7.5 0.5c4.66699 0 9.33398 0.166992 14.001 0.5s9.33398 0.5 14.001 0.5h17c6 0 12.333 0.333008 19 1h7h8h11.5h11.5h18.5c6.33301 0 12.5 -0.333008 18.5 -1c25.333 -1.33301 50 -4.66602 74 -9.99902s43.333 -14.666 58 -27.999
c8.66699 -7.33301 15.5 -16.5 20.5 -27.5s8.16699 -22.167 9.5 -33.5c0.666992 -2.66699 1 -5 1 -7v-6c0 -3.33301 -0.166992 -6.66602 -0.5 -9.99902s-0.833008 -6.66602 -1.5 -9.99902c-2 -12.667 -5.5 -24.834 -10.5 -36.501s-11.167 -22.167 -18.5 -31.5
c-14 -18 -31 -32 -51 -42s-40.333 -17.667 -61 -23c-6 -2 -11.833 -3.5 -17.5 -4.5s-11.167 -2.16699 -16.5 -3.5l14.5 -2l15.5 -2c20 -4 39.333 -10.333 58 -19s33 -23 43 -43c2.66699 -4.66699 4.83398 -9.83398 6.50098 -15.501s3.16699 -11.5 4.5 -17.5
c0.666992 -4.66699 1.16699 -9.33398 1.5 -14.001s0.5 -9 0.5 -13c0 -3.33301 -0.166992 -6.83301 -0.5 -10.5s-0.833008 -7.5 -1.5 -11.5c-1.33301 -12 -4.33301 -23.833 -9 -35.5s-10 -22.167 -16 -31.5c-22 -32.667 -50.333 -56.667 -85 -72s-70.667 -25 -108 -29
c-8.66699 -1.33301 -17.5 -2.16602 -26.5 -2.49902s-17.833 -0.5 -26.5 -0.5h-35c-12 -0 -24 0.333008 -36 1h-5h-6c-14 0 -27.833 0.166992 -41.5 0.5s-27.167 0.5 -40.5 0.5c-6.66699 0 -13.334 -0.166992 -20.001 -0.5s-13.334 -0.5 -20.001 -0.5
c-7.33301 0 -14.333 -0.166992 -21 -0.5s-13.334 -0.5 -20.001 -0.5v0zM207.003 51.999c3.33301 -0.666992 6.83203 -1.5 10.499 -2.5s7.16699 -1.83301 10.5 -2.5c10.667 -2.66699 21.167 -4.66699 31.5 -6s20.5 -2 30.5 -2c38 0 70.833 11 98.5 33
s42.834 58.667 45.501 110v9c0 44 -14.167 72 -42.5 84s-59.833 18 -94.5 18h-41l-49 -241v0zM470.002 464.999l0.00195312 8.00195c0 33.333 -11 55.166 -33 65.499s-46.667 15.5 -74 15.5h-12.5h-13.5c-4.66699 -0.666992 -9.16699 -1 -13.5 -1h-12.5l-47 -222
c1.33301 0 2.66602 -0.166992 3.99902 -0.5s2.66602 -0.5 3.99902 -0.5c0.666992 0 1.66699 -0.166992 3 -0.5s2.66602 -0.5 3.99902 -0.5h3.5h2.5c45.333 0.666992 86.833 9.16699 124.5 25.5s57.834 53.166 60.501 110.499v0z" />
    <glyph glyph-name="c" unicode="&#xc3;" horiz-adv-x="515" 
d="M32 0l5.00293 31.998c30.667 1.33301 50.667 4.66602 60 9.99902s16.333 18 21 38c2 5.33301 3.66699 11.5 5 18.5s3 14.833 5 23.5l68 324c0.666992 2 1.66699 5.5 3 10.5s2.66602 10.833 3.99902 17.5c0.666992 4 1.5 8 2.5 12s1.83301 8 2.5 12l2 16.5
c0.666992 5.66699 1 10.834 1 15.501v2v2c-0.666992 4 -1.33398 7.33301 -2.00098 10s-1.33398 4.33398 -2.00098 5.00098c-2.66699 4.66699 -7.83398 7.83398 -15.501 9.50098s-15.5 2.83398 -23.5 3.50098h-10h-9h-21l8 31c6 0 12.167 -0.166992 18.5 -0.5
s12.5 -0.5 18.5 -0.5c3.33301 0 6.5 -0.166992 9.5 -0.5s6.16699 -0.5 9.5 -0.5c9.33301 0 18.666 -0.166992 27.999 -0.5s18.666 -0.5 27.999 -0.5c15.333 0 30.666 0.166992 45.999 0.5s31 0.5 47 0.5c15.333 0 30.833 0.166992 46.5 0.5s30.834 0.5 45.501 0.5
c10.667 0 21.334 -0.166992 32.001 -0.5s21.667 -0.5 33 -0.5c10.667 -0.666992 21.334 -1.16699 32.001 -1.5s21.334 -0.833008 32.001 -1.5l-4 -22.5l-4 -23.5l-4 -24l-4 -24l-4 -23l-4 -24h-29v85c-9.33301 4.66699 -20 8.5 -32 11.5s-24 4.83301 -36 5.5
c-5.33301 0.666992 -10.833 1.16699 -16.5 1.5s-11.167 0.5 -16.5 0.5h-14c-4.66699 0 -9 -0.333008 -13 -1c-6 0 -11.833 -0.333008 -17.5 -1s-11.5 -1 -17.5 -1c-3.33301 -0.666992 -6.5 -1.16699 -9.5 -1.5s-6.16699 -0.5 -9.5 -0.5l-61 -285l-31 -152
c-0.666992 -2.66699 -1.16699 -5.5 -1.5 -8.5s-0.833008 -5.83301 -1.5 -8.5c-1.33301 -6.66699 -2.5 -12.834 -3.5 -18.501s-1.5 -10.167 -1.5 -13.5c0 -14.667 5.66699 -23.167 17 -25.5s30.333 -3.5 57 -3.5h4.5h5.5l-3 -31c-10 0.666992 -20.167 1 -30.5 1
s-20.5 0.333008 -30.5 1h-46h-45h-30.5h-31.5c-10.667 0 -21.167 -0.166992 -31.5 -0.5s-20.5 -0.833008 -30.5 -1.5v0z" />
    <glyph glyph-name="c" unicode="&#x413;" horiz-adv-x="515" 
d="M32 0l5.00293 31.998c30.667 1.33301 50.667 4.66602 60 9.99902s16.333 18 21 38c2 5.33301 3.66699 11.5 5 18.5s3 14.833 5 23.5l68 324c0.666992 2 1.66699 5.5 3 10.5s2.66602 10.833 3.99902 17.5c0.666992 4 1.5 8 2.5 12s1.83301 8 2.5 12l2 16.5
c0.666992 5.66699 1 10.834 1 15.501v2v2c-0.666992 4 -1.33398 7.33301 -2.00098 10s-1.33398 4.33398 -2.00098 5.00098c-2.66699 4.66699 -7.83398 7.83398 -15.501 9.50098s-15.5 2.83398 -23.5 3.50098h-10h-9h-21l8 31c6 0 12.167 -0.166992 18.5 -0.5
s12.5 -0.5 18.5 -0.5c3.33301 0 6.5 -0.166992 9.5 -0.5s6.16699 -0.5 9.5 -0.5c9.33301 0 18.666 -0.166992 27.999 -0.5s18.666 -0.5 27.999 -0.5c15.333 0 30.666 0.166992 45.999 0.5s31 0.5 47 0.5c15.333 0 30.833 0.166992 46.5 0.5s30.834 0.5 45.501 0.5
c10.667 0 21.334 -0.166992 32.001 -0.5s21.667 -0.5 33 -0.5c10.667 -0.666992 21.334 -1.16699 32.001 -1.5s21.334 -0.833008 32.001 -1.5l-4 -22.5l-4 -23.5l-4 -24l-4 -24l-4 -23l-4 -24h-29v85c-9.33301 4.66699 -20 8.5 -32 11.5s-24 4.83301 -36 5.5
c-5.33301 0.666992 -10.833 1.16699 -16.5 1.5s-11.167 0.5 -16.5 0.5h-14c-4.66699 0 -9 -0.333008 -13 -1c-6 0 -11.833 -0.333008 -17.5 -1s-11.5 -1 -17.5 -1c-3.33301 -0.666992 -6.5 -1.16699 -9.5 -1.5s-6.16699 -0.5 -9.5 -0.5l-61 -285l-31 -152
c-0.666992 -2.66699 -1.16699 -5.5 -1.5 -8.5s-0.833008 -5.83301 -1.5 -8.5c-1.33301 -6.66699 -2.5 -12.834 -3.5 -18.501s-1.5 -10.167 -1.5 -13.5c0 -14.667 5.66699 -23.167 17 -25.5s30.333 -3.5 57 -3.5h4.5h5.5l-3 -31c-10 0.666992 -20.167 1 -30.5 1
s-20.5 0.333008 -30.5 1h-46h-45h-30.5h-31.5c-10.667 0 -21.167 -0.166992 -31.5 -0.5s-20.5 -0.833008 -30.5 -1.5v0z" />
    <glyph glyph-name="d" unicode="&#xc4;" horiz-adv-x="656" 
d="M485 0l-330.996 -0.00292969c-2 0 -5.5 -0.166992 -10.5 -0.5s-10.5 -1.5 -16.5 -3.5c-4.66699 -2 -9.33398 -5 -14.001 -9s-8.33398 -9 -11.001 -15l-4 -12.5l-4 -12.5c-2.66699 -10.667 -4.66699 -21.167 -6 -31.5s-2 -20.166 -2 -29.499c0 -11.333 0.666992 -22 2 -32
s3 -18.667 5 -26c1.33301 -5.33301 2.5 -9.66602 3.5 -12.999s1.83301 -5 2.5 -5l-39 -16c0 0.666992 -2.5 4.66699 -7.5 12s-10.5 17.666 -16.5 30.999c-6.66699 14 -12.5 30.333 -17.5 49s-7.5 39.667 -7.5 63c0 5.33301 0.333008 11 1 17s1.66699 12.333 3 19
c0 0.666992 0.166992 1.66699 0.5 3s0.5 2.66602 0.5 3.99902c0.666992 2 1.16699 3.83301 1.5 5.5s0.5 3.16699 0.5 4.5l6 34c6.66699 1.33301 12.5 2.83301 17.5 4.5s9.83301 3.83398 14.5 6.50098s9.83398 6.33398 15.501 11.001s12.5 10.667 20.5 18
c15.333 9.33301 34.666 29.666 57.999 60.999s47.666 66.666 72.999 105.999c6 10.667 12.333 21.334 19 32.001l20 32c22 36.667 42.167 72.167 60.5 106.5s32.833 62.833 43.5 85.5v7c0 3.33301 -0.333008 7.16602 -1 11.499s-2.33398 8.83301 -5.00098 13.5
c-2 6 -5.33301 11.5 -10 16.5s-10.667 8.83301 -18 11.5h-3c-2 0 -4.66699 -0.5 -8 -1.5s-6.66602 -2.16699 -9.99902 -3.5c-0.666992 0 -1.33398 -0.166992 -2.00098 -0.5s-1.33398 -0.5 -2.00098 -0.5c-2.66699 -1.33301 -5.5 -2.33301 -8.5 -3s-5.83301 -1 -8.5 -1l-2 2
l4 37l84 15h21c14 0 27.167 -1.5 39.5 -4.5s20.833 -6.83301 25.5 -11.5c4 -5.33301 7.83301 -12.5 11.5 -21.5s6.83398 -18.5 9.50098 -28.5l6 -18c2 -6 3.66699 -11.667 5 -17l78 -400l4 -13.5c1.33301 -4.33301 2.66602 -8.16602 3.99902 -11.499
c3.33301 -12.667 8 -23 14 -31s17 -12.667 33 -14l-5 -30c-5.33301 -26 -13.666 -50.333 -24.999 -73s-23 -42.667 -35 -60c-16.667 -23.333 -31.834 -41.5 -45.501 -54.5l-20.5 -19.5l-32 14c0 0.666992 3.16699 6 9.5 16s13.5 22.667 21.5 38c6 13.333 11.833 28 17.5 44
s9.5 32.333 11.5 49c0 2.66699 0.166992 5.33398 0.5 8.00098s0.5 5.33398 0.5 8.00098c0 7.33301 -2.16699 13 -6.5 17s-9.16602 7 -14.499 9c-4 1.33301 -7.66699 2 -11 2h-8v0zM460.004 41.9971c0 4.66699 -0.5 9.33105 -1.5 13.998s-2.16699 9.33398 -3.5 14.001l-2 8
l-2 8l-65 368h-2l-36 -65l-83 -143l-11.5 -19l-11.5 -19c-24 -38.667 -47 -73.667 -69 -105s-39.667 -51.666 -53 -60.999h340v0z" />
    <glyph glyph-name="d" unicode="&#x414;" horiz-adv-x="656" 
d="M485 0l-330.996 -0.00292969c-2 0 -5.5 -0.166992 -10.5 -0.5s-10.5 -1.5 -16.5 -3.5c-4.66699 -2 -9.33398 -5 -14.001 -9s-8.33398 -9 -11.001 -15l-4 -12.5l-4 -12.5c-2.66699 -10.667 -4.66699 -21.167 -6 -31.5s-2 -20.166 -2 -29.499c0 -11.333 0.666992 -22 2 -32
s3 -18.667 5 -26c1.33301 -5.33301 2.5 -9.66602 3.5 -12.999s1.83301 -5 2.5 -5l-39 -16c0 0.666992 -2.5 4.66699 -7.5 12s-10.5 17.666 -16.5 30.999c-6.66699 14 -12.5 30.333 -17.5 49s-7.5 39.667 -7.5 63c0 5.33301 0.333008 11 1 17s1.66699 12.333 3 19
c0 0.666992 0.166992 1.66699 0.5 3s0.5 2.66602 0.5 3.99902c0.666992 2 1.16699 3.83301 1.5 5.5s0.5 3.16699 0.5 4.5l6 34c6.66699 1.33301 12.5 2.83301 17.5 4.5s9.83301 3.83398 14.5 6.50098s9.83398 6.33398 15.501 11.001s12.5 10.667 20.5 18
c15.333 9.33301 34.666 29.666 57.999 60.999s47.666 66.666 72.999 105.999c6 10.667 12.333 21.334 19 32.001l20 32c22 36.667 42.167 72.167 60.5 106.5s32.833 62.833 43.5 85.5v7c0 3.33301 -0.333008 7.16602 -1 11.499s-2.33398 8.83301 -5.00098 13.5
c-2 6 -5.33301 11.5 -10 16.5s-10.667 8.83301 -18 11.5h-3c-2 0 -4.66699 -0.5 -8 -1.5s-6.66602 -2.16699 -9.99902 -3.5c-0.666992 0 -1.33398 -0.166992 -2.00098 -0.5s-1.33398 -0.5 -2.00098 -0.5c-2.66699 -1.33301 -5.5 -2.33301 -8.5 -3s-5.83301 -1 -8.5 -1l-2 2
l4 37l84 15h21c14 0 27.167 -1.5 39.5 -4.5s20.833 -6.83301 25.5 -11.5c4 -5.33301 7.83301 -12.5 11.5 -21.5s6.83398 -18.5 9.50098 -28.5l6 -18c2 -6 3.66699 -11.667 5 -17l78 -400l4 -13.5c1.33301 -4.33301 2.66602 -8.16602 3.99902 -11.499
c3.33301 -12.667 8 -23 14 -31s17 -12.667 33 -14l-5 -30c-5.33301 -26 -13.666 -50.333 -24.999 -73s-23 -42.667 -35 -60c-16.667 -23.333 -31.834 -41.5 -45.501 -54.5l-20.5 -19.5l-32 14c0 0.666992 3.16699 6 9.5 16s13.5 22.667 21.5 38c6 13.333 11.833 28 17.5 44
s9.5 32.333 11.5 49c0 2.66699 0.166992 5.33398 0.5 8.00098s0.5 5.33398 0.5 8.00098c0 7.33301 -2.16699 13 -6.5 17s-9.16602 7 -14.499 9c-4 1.33301 -7.66699 2 -11 2h-8v0zM460.004 41.9971c0 4.66699 -0.5 9.33105 -1.5 13.998s-2.16699 9.33398 -3.5 14.001l-2 8
l-2 8l-65 368h-2l-36 -65l-83 -143l-11.5 -19l-11.5 -19c-24 -38.667 -47 -73.667 -69 -105s-39.667 -51.666 -53 -60.999h340v0z" />
    <glyph glyph-name="e" unicode="&#xc5;" horiz-adv-x="572" 
d="M32 0l3.99902 29.0029h1.5h1.5c22.667 3.33301 37.667 7.66602 45 12.999s13 17.333 17 36l2 10.5l2 11.5l86 391l3.5 24.5c1 7 1.5 12.833 1.5 17.5c0 14.667 -5.16699 23.5 -15.5 26.5s-28.166 5.16699 -53.499 6.5h-4.5h-5.5l6 27c8 0 15.833 -0.166992 23.5 -0.5
s15.167 -0.833008 22.5 -1.5h7h6l40 -2c13.333 -0.666992 26.333 -1 39 -1c16 0 32 0.166992 48 0.5s31.667 0.5 47 0.5c4 0.666992 8 1 12 1h12c20 0.666992 40 1.16699 60 1.5s39.667 0.5 59 0.5h68c-1.33301 -4.66699 -2.5 -9.33398 -3.5 -14.001
s-2.16699 -9.33398 -3.5 -14.001c-4.66699 -18.667 -9 -37.5 -13 -56.5s-7 -37.833 -9 -56.5h-31c0.666992 4.66699 1.16699 9.66699 1.5 15s0.5 11 0.5 17v8v8v34c-12 5.33301 -25.833 9 -41.5 11s-31.5 3.33301 -47.5 4c-4.66699 0.666992 -9.33398 1 -14.001 1h-14h-14
h-14c-9.33301 -0.666992 -18.5 -1.16699 -27.5 -1.5s-17.5 -0.833008 -25.5 -1.5l-47 -214h13.5h13.5c4.66699 -0.666992 9.16699 -1 13.5 -1h13.5c12 0 24.333 0.166992 37 0.5s25.334 0.833008 38.001 1.5h7.5h7.5c10.667 0.666992 21 1.16699 31 1.5s19.667 0.5 29 0.5
l-13 -51c-25.333 1.33301 -51.333 2.5 -78 3.5s-53.667 1.83301 -81 2.5h-20h-20l-50 -240c9.33301 -0.666992 18.833 -1.5 28.5 -2.5s19.5 -1.83301 29.5 -2.5c6.66699 0 13.167 -0.166992 19.5 -0.5s12.833 -0.5 19.5 -0.5c8 0 16.333 0.166992 25 0.5s17 0.833008 25 1.5
c14 1.33301 28 3.16602 42 5.49902s27.667 5.16602 41 8.49902c8 14.667 15 29.334 21 44.001s11.333 30.334 16 47.001h31l-13.5 -56.5c-4.33301 -18.333 -8.16602 -36.5 -11.499 -54.5c-0.666992 -6.66699 -1.5 -13 -2.5 -19s-2.16699 -12 -3.5 -18l-31 -2
c-10.667 -0.666992 -21.334 -1 -32.001 -1h-23.5h-23.5c-18.667 0 -37.834 0.166992 -57.501 0.5s-39.167 0.833008 -58.5 1.5c-20 0 -39.667 0.166992 -59 0.5s-38.666 0.5 -57.999 0.5h-12.5h-12.5c-12.667 0 -25.167 -0.333008 -37.5 -1l-35.5 -2v0z" />
    <glyph glyph-name="e" unicode="&#x415;" horiz-adv-x="572" 
d="M32 0l3.99902 29.0029h1.5h1.5c22.667 3.33301 37.667 7.66602 45 12.999s13 17.333 17 36l2 10.5l2 11.5l86 391l3.5 24.5c1 7 1.5 12.833 1.5 17.5c0 14.667 -5.16699 23.5 -15.5 26.5s-28.166 5.16699 -53.499 6.5h-4.5h-5.5l6 27c8 0 15.833 -0.166992 23.5 -0.5
s15.167 -0.833008 22.5 -1.5h7h6l40 -2c13.333 -0.666992 26.333 -1 39 -1c16 0 32 0.166992 48 0.5s31.667 0.5 47 0.5c4 0.666992 8 1 12 1h12c20 0.666992 40 1.16699 60 1.5s39.667 0.5 59 0.5h68c-1.33301 -4.66699 -2.5 -9.33398 -3.5 -14.001
s-2.16699 -9.33398 -3.5 -14.001c-4.66699 -18.667 -9 -37.5 -13 -56.5s-7 -37.833 -9 -56.5h-31c0.666992 4.66699 1.16699 9.66699 1.5 15s0.5 11 0.5 17v8v8v34c-12 5.33301 -25.833 9 -41.5 11s-31.5 3.33301 -47.5 4c-4.66699 0.666992 -9.33398 1 -14.001 1h-14h-14
h-14c-9.33301 -0.666992 -18.5 -1.16699 -27.5 -1.5s-17.5 -0.833008 -25.5 -1.5l-47 -214h13.5h13.5c4.66699 -0.666992 9.16699 -1 13.5 -1h13.5c12 0 24.333 0.166992 37 0.5s25.334 0.833008 38.001 1.5h7.5h7.5c10.667 0.666992 21 1.16699 31 1.5s19.667 0.5 29 0.5
l-13 -51c-25.333 1.33301 -51.333 2.5 -78 3.5s-53.667 1.83301 -81 2.5h-20h-20l-50 -240c9.33301 -0.666992 18.833 -1.5 28.5 -2.5s19.5 -1.83301 29.5 -2.5c6.66699 0 13.167 -0.166992 19.5 -0.5s12.833 -0.5 19.5 -0.5c8 0 16.333 0.166992 25 0.5s17 0.833008 25 1.5
c14 1.33301 28 3.16602 42 5.49902s27.667 5.16602 41 8.49902c8 14.667 15 29.334 21 44.001s11.333 30.334 16 47.001h31l-13.5 -56.5c-4.33301 -18.333 -8.16602 -36.5 -11.499 -54.5c-0.666992 -6.66699 -1.5 -13 -2.5 -19s-2.16699 -12 -3.5 -18l-31 -2
c-10.667 -0.666992 -21.334 -1 -32.001 -1h-23.5h-23.5c-18.667 0 -37.834 0.166992 -57.501 0.5s-39.167 0.833008 -58.5 1.5c-20 0 -39.667 0.166992 -59 0.5s-38.666 0.5 -57.999 0.5h-12.5h-12.5c-12.667 0 -25.167 -0.333008 -37.5 -1l-35.5 -2v0z" />
    <glyph glyph-name="f" unicode="&#xc6;" horiz-adv-x="908" 
d="M421 284l-10.999 -0.000976562l-102 -111l-100 -115l-24.5 -29.5l-24.5 -28.5c-2.66699 0 -5.5 0.166992 -8.5 0.5s-5.83301 0.5 -8.5 0.5c-8.66699 0.666992 -17.334 1 -26.001 1h-25h-19h-20c-4.66699 -0.666992 -9.5 -1 -14.5 -1s-9.83301 -0.333008 -14.5 -1l6 36
c2 0 4.16699 0.166992 6.5 0.5s4.83301 0.833008 7.5 1.5c6 1.33301 11.833 3.5 17.5 6.5s10.834 7.16699 15.501 12.5c34.667 31.333 68.167 65.166 100.5 101.499l95.5 109.5l36 44l36 43c-2 2.66699 -3.83301 5.5 -5.5 8.5s-3.5 5.83301 -5.5 8.5l-8 13.5
c-2.66699 4.33301 -5.66699 8.83301 -9 13.5l-45.5 71.5c-15.667 23.667 -32.834 45.5 -51.501 65.5c-8 9.33301 -17.167 15.333 -27.5 18s-21.833 4.33398 -34.5 5.00098l7 34h16h16c4.66699 -0.666992 9.66699 -1 15 -1h16h16c5.33301 0 10.666 0.333008 15.999 1h15h16
l-2 -14c-0.666992 -4.66699 -1 -8.66699 -1 -12c0 -4 0.333008 -7.5 1 -10.5s1.66699 -6.16699 3 -9.5c1.33301 -4.66699 3.33301 -9.33398 6 -14.001s5.33398 -10 8.00098 -16c18.667 -35.333 38.334 -69.833 59.001 -103.5l64 -100.5l34 160l7 35c2 10 3 18 3 24
c0 11.333 -4.33301 18.666 -13 21.999s-24 5 -46 5l7 34c8 0 16.167 -0.166992 24.5 -0.5s16.5 -0.5 24.5 -0.5c8.66699 -0.666992 17.167 -1.16699 25.5 -1.5s16.833 -0.5 25.5 -0.5c11.333 0 23 0.166992 35 0.5s24 0.833008 36 1.5h5.5h4.5
c10.667 0 21.167 0.166992 31.5 0.5s20.5 0.5 30.5 0.5l-7 -34c-28 -0.666992 -46.333 -3.33398 -55 -8.00098s-15.667 -17.667 -21 -39c-1.33301 -5.33301 -2.66602 -11.166 -3.99902 -17.499s-2.66602 -13.5 -3.99902 -21.5l-34 -160l105.5 100.5l103.5 103.5l15.5 16
c4.33301 4.66699 8.16602 9 11.499 13c4.66699 6.66699 8.5 13.5 11.5 20.5s5.83301 15.833 8.5 26.5h16h15c5.33301 -0.666992 10.666 -1 15.999 -1h15h15c5.33301 0 10.666 0.333008 15.999 1h5h6h10.5h10.5l-7 -34c-8 0 -16 -0.666992 -24 -2s-16 -3.66602 -24 -6.99902
l-12 -6c-4 -2 -8 -4.66699 -12 -8c-26.667 -20 -52.834 -41.833 -78.501 -65.5l-75.5 -71.5c-2.66699 -2 -5.16699 -4.16699 -7.5 -6.5l-6.5 -6.5c-5.33301 -5.33301 -10.833 -10.5 -16.5 -15.5s-11.167 -10.167 -16.5 -15.5c2.66699 -5.33301 5.16699 -10.833 7.5 -16.5
s4.5 -11.167 6.5 -16.5l15.5 -36l15.5 -36c14 -33.333 28.833 -66.333 44.5 -99s32.834 -64 51.501 -94c4.66699 -7.33301 10.167 -12.666 16.5 -15.999s13.5 -5 21.5 -5l-6 -36c-6 0.666992 -11.833 1.16699 -17.5 1.5s-11.167 0.5 -16.5 0.5h-16.5h-17.5h-17.5h-16.5
c-5.33301 0 -10.833 -0.166992 -16.5 -0.5s-11.5 -0.833008 -17.5 -1.5c-4.66699 9.33301 -9.16699 18.833 -13.5 28.5s-8.5 19.5 -12.5 29.5l-10 22.5l-10 22.5l-41 92.5c-14 30.333 -28.667 59.833 -44 88.5h-13l-34 -162l-7 -36.5c-2 -10.333 -3 -18.166 -3 -23.499
c0 -10.667 4.16699 -17.5 12.5 -20.5s23.166 -4.83301 44.499 -5.5l-7 -36c-7.33301 0.666992 -14.833 1 -22.5 1s-15.5 0.333008 -23.5 1h-38h-37h-39.5c-13.667 0 -27.167 -0.333008 -40.5 -1h-20c-6.66699 0 -13.334 -0.333008 -20.001 -1l6 36
c28.667 1.33301 47.334 4.33301 56.001 9s15.334 17 20.001 37c1.33301 5.33301 2.5 11.333 3.5 18s2.5 14 4.5 22l34 162v0z" />
    <glyph glyph-name="f" unicode="&#x416;" horiz-adv-x="908" 
d="M421 284l-10.999 -0.000976562l-102 -111l-100 -115l-24.5 -29.5l-24.5 -28.5c-2.66699 0 -5.5 0.166992 -8.5 0.5s-5.83301 0.5 -8.5 0.5c-8.66699 0.666992 -17.334 1 -26.001 1h-25h-19h-20c-4.66699 -0.666992 -9.5 -1 -14.5 -1s-9.83301 -0.333008 -14.5 -1l6 36
c2 0 4.16699 0.166992 6.5 0.5s4.83301 0.833008 7.5 1.5c6 1.33301 11.833 3.5 17.5 6.5s10.834 7.16699 15.501 12.5c34.667 31.333 68.167 65.166 100.5 101.499l95.5 109.5l36 44l36 43c-2 2.66699 -3.83301 5.5 -5.5 8.5s-3.5 5.83301 -5.5 8.5l-8 13.5
c-2.66699 4.33301 -5.66699 8.83301 -9 13.5l-45.5 71.5c-15.667 23.667 -32.834 45.5 -51.501 65.5c-8 9.33301 -17.167 15.333 -27.5 18s-21.833 4.33398 -34.5 5.00098l7 34h16h16c4.66699 -0.666992 9.66699 -1 15 -1h16h16c5.33301 0 10.666 0.333008 15.999 1h15h16
l-2 -14c-0.666992 -4.66699 -1 -8.66699 -1 -12c0 -4 0.333008 -7.5 1 -10.5s1.66699 -6.16699 3 -9.5c1.33301 -4.66699 3.33301 -9.33398 6 -14.001s5.33398 -10 8.00098 -16c18.667 -35.333 38.334 -69.833 59.001 -103.5l64 -100.5l34 160l7 35c2 10 3 18 3 24
c0 11.333 -4.33301 18.666 -13 21.999s-24 5 -46 5l7 34c8 0 16.167 -0.166992 24.5 -0.5s16.5 -0.5 24.5 -0.5c8.66699 -0.666992 17.167 -1.16699 25.5 -1.5s16.833 -0.5 25.5 -0.5c11.333 0 23 0.166992 35 0.5s24 0.833008 36 1.5h5.5h4.5
c10.667 0 21.167 0.166992 31.5 0.5s20.5 0.5 30.5 0.5l-7 -34c-28 -0.666992 -46.333 -3.33398 -55 -8.00098s-15.667 -17.667 -21 -39c-1.33301 -5.33301 -2.66602 -11.166 -3.99902 -17.499s-2.66602 -13.5 -3.99902 -21.5l-34 -160l105.5 100.5l103.5 103.5l15.5 16
c4.33301 4.66699 8.16602 9 11.499 13c4.66699 6.66699 8.5 13.5 11.5 20.5s5.83301 15.833 8.5 26.5h16h15c5.33301 -0.666992 10.666 -1 15.999 -1h15h15c5.33301 0 10.666 0.333008 15.999 1h5h6h10.5h10.5l-7 -34c-8 0 -16 -0.666992 -24 -2s-16 -3.66602 -24 -6.99902
l-12 -6c-4 -2 -8 -4.66699 -12 -8c-26.667 -20 -52.834 -41.833 -78.501 -65.5l-75.5 -71.5c-2.66699 -2 -5.16699 -4.16699 -7.5 -6.5l-6.5 -6.5c-5.33301 -5.33301 -10.833 -10.5 -16.5 -15.5s-11.167 -10.167 -16.5 -15.5c2.66699 -5.33301 5.16699 -10.833 7.5 -16.5
s4.5 -11.167 6.5 -16.5l15.5 -36l15.5 -36c14 -33.333 28.833 -66.333 44.5 -99s32.834 -64 51.501 -94c4.66699 -7.33301 10.167 -12.666 16.5 -15.999s13.5 -5 21.5 -5l-6 -36c-6 0.666992 -11.833 1.16699 -17.5 1.5s-11.167 0.5 -16.5 0.5h-16.5h-17.5h-17.5h-16.5
c-5.33301 0 -10.833 -0.166992 -16.5 -0.5s-11.5 -0.833008 -17.5 -1.5c-4.66699 9.33301 -9.16699 18.833 -13.5 28.5s-8.5 19.5 -12.5 29.5l-10 22.5l-10 22.5l-41 92.5c-14 30.333 -28.667 59.833 -44 88.5h-13l-34 -162l-7 -36.5c-2 -10.333 -3 -18.166 -3 -23.499
c0 -10.667 4.16699 -17.5 12.5 -20.5s23.166 -4.83301 44.499 -5.5l-7 -36c-7.33301 0.666992 -14.833 1 -22.5 1s-15.5 0.333008 -23.5 1h-38h-37h-39.5c-13.667 0 -27.167 -0.333008 -40.5 -1h-20c-6.66699 0 -13.334 -0.333008 -20.001 -1l6 36
c28.667 1.33301 47.334 4.33301 56.001 9s15.334 17 20.001 37c1.33301 5.33301 2.5 11.333 3.5 18s2.5 14 4.5 22l34 162v0z" />
    <glyph glyph-name="g" unicode="&#xc7;" horiz-adv-x="562" 
d="M293 561c-50 -8.66699 -82.833 -22.8311 -98.5 -42.498s-27.834 -48.834 -36.501 -87.501c0 -1.33301 -0.166992 -2.5 -0.5 -3.5s-0.5 -1.83301 -0.5 -2.5h-32l2 14.5l2 14.5c2.66699 18.667 4.83398 37.667 6.50098 57s2.83398 39.333 3.50098 60l57.5 14
c19.667 4.66699 39.5 8.66699 59.5 12c14.667 2.66699 29.334 4.66699 44.001 6s29.334 2 44.001 2h9.5h9.5c27.333 -1.33301 54.166 -5.83301 80.499 -13.5s49.833 -20.167 70.5 -37.5c8 -6 14.167 -15 18.5 -27s7.16602 -24.667 8.49902 -38v-4.5v-4.5
c0 -3.33301 -0.166992 -6.66602 -0.5 -9.99902s-0.5 -6.66602 -0.5 -9.99902c-2 -12.667 -5 -24.834 -9 -36.501s-9.66699 -22.167 -17 -31.5c-14 -18 -31 -32 -51 -42s-40.333 -17.667 -61 -23c-6 -2 -11.833 -3.5 -17.5 -4.5s-11.167 -2.16699 -16.5 -3.5l14 -2l14 -2
c20.667 -3.33301 40.334 -9.5 59.001 -18.5s33.334 -23.5 44.001 -43.5c2 -4.66699 4 -9.83398 6 -15.501s3.33301 -11.5 4 -17.5c1.33301 -4.66699 2.16602 -9.33398 2.49902 -14.001s0.5 -9 0.5 -13c0 -3.33301 -0.166992 -6.83301 -0.5 -10.5s-0.833008 -7.5 -1.5 -11.5
c-1.33301 -12 -4.33301 -23.833 -9 -35.5s-10 -22.167 -16 -31.5c-25.333 -36.667 -59.666 -64.834 -102.999 -84.501s-88.333 -30.834 -135 -33.501h-8.5h-8.5c-32.667 0 -64.5 4.16699 -95.5 12.5s-59.167 20.833 -84.5 37.5c-0.666992 2 -1.33398 3.83301 -2.00098 5.5
s-1.33398 3.5 -2.00098 5.5c-0.666992 0.666992 -1 1.16699 -1 1.5s-0.333008 0.833008 -1 1.5l-6 14.5c-2 5 -4.33301 9.5 -7 13.5l13 10c11.333 -6.66699 22.5 -12.834 33.5 -18.501s22.833 -10.5 35.5 -14.5c9.33301 -3.33301 19.333 -6.16602 30 -8.49902
s21.667 -4.16602 33 -5.49902c5.33301 -0.666992 10.833 -1.16699 16.5 -1.5s11.167 -0.5 16.5 -0.5h4.5h4.5c44 1.33301 84.5 13.333 121.5 36s56.167 58.334 57.5 107.001v4c0 45.333 -14.333 74.5 -43 87.5s-60.667 19.5 -96 19.5h-39l8 38
c1.33301 0 2.66602 -0.166992 3.99902 -0.5s2.33301 -0.5 3 -0.5c1.33301 0 2.66602 -0.166992 3.99902 -0.5s2.33301 -0.5 3 -0.5h1.5h1.5c46 0 88.333 8.16699 127 24.5s59.334 53.5 62.001 111.5v10c0 32.667 -11.167 55 -33.5 67s-46.833 18.333 -73.5 19h-4h-4h-25v0z
" />
    <glyph glyph-name="g" unicode="&#x417;" horiz-adv-x="562" 
d="M293 561c-50 -8.66699 -82.833 -22.8311 -98.5 -42.498s-27.834 -48.834 -36.501 -87.501c0 -1.33301 -0.166992 -2.5 -0.5 -3.5s-0.5 -1.83301 -0.5 -2.5h-32l2 14.5l2 14.5c2.66699 18.667 4.83398 37.667 6.50098 57s2.83398 39.333 3.50098 60l57.5 14
c19.667 4.66699 39.5 8.66699 59.5 12c14.667 2.66699 29.334 4.66699 44.001 6s29.334 2 44.001 2h9.5h9.5c27.333 -1.33301 54.166 -5.83301 80.499 -13.5s49.833 -20.167 70.5 -37.5c8 -6 14.167 -15 18.5 -27s7.16602 -24.667 8.49902 -38v-4.5v-4.5
c0 -3.33301 -0.166992 -6.66602 -0.5 -9.99902s-0.5 -6.66602 -0.5 -9.99902c-2 -12.667 -5 -24.834 -9 -36.501s-9.66699 -22.167 -17 -31.5c-14 -18 -31 -32 -51 -42s-40.333 -17.667 -61 -23c-6 -2 -11.833 -3.5 -17.5 -4.5s-11.167 -2.16699 -16.5 -3.5l14 -2l14 -2
c20.667 -3.33301 40.334 -9.5 59.001 -18.5s33.334 -23.5 44.001 -43.5c2 -4.66699 4 -9.83398 6 -15.501s3.33301 -11.5 4 -17.5c1.33301 -4.66699 2.16602 -9.33398 2.49902 -14.001s0.5 -9 0.5 -13c0 -3.33301 -0.166992 -6.83301 -0.5 -10.5s-0.833008 -7.5 -1.5 -11.5
c-1.33301 -12 -4.33301 -23.833 -9 -35.5s-10 -22.167 -16 -31.5c-25.333 -36.667 -59.666 -64.834 -102.999 -84.501s-88.333 -30.834 -135 -33.501h-8.5h-8.5c-32.667 0 -64.5 4.16699 -95.5 12.5s-59.167 20.833 -84.5 37.5c-0.666992 2 -1.33398 3.83301 -2.00098 5.5
s-1.33398 3.5 -2.00098 5.5c-0.666992 0.666992 -1 1.16699 -1 1.5s-0.333008 0.833008 -1 1.5l-6 14.5c-2 5 -4.33301 9.5 -7 13.5l13 10c11.333 -6.66699 22.5 -12.834 33.5 -18.501s22.833 -10.5 35.5 -14.5c9.33301 -3.33301 19.333 -6.16602 30 -8.49902
s21.667 -4.16602 33 -5.49902c5.33301 -0.666992 10.833 -1.16699 16.5 -1.5s11.167 -0.5 16.5 -0.5h4.5h4.5c44 1.33301 84.5 13.333 121.5 36s56.167 58.334 57.5 107.001v4c0 45.333 -14.333 74.5 -43 87.5s-60.667 19.5 -96 19.5h-39l8 38
c1.33301 0 2.66602 -0.166992 3.99902 -0.5s2.33301 -0.5 3 -0.5c1.33301 0 2.66602 -0.166992 3.99902 -0.5s2.33301 -0.5 3 -0.5h1.5h1.5c46 0 88.333 8.16699 127 24.5s59.334 53.5 62.001 111.5v10c0 32.667 -11.167 55 -33.5 67s-46.833 18.333 -73.5 19h-4h-4h-25v0z
" />
    <glyph glyph-name="h" unicode="&#xc8;" horiz-adv-x="749" 
d="M36 0l4.99902 30.9941c29.333 0 48.5 2.16699 57.5 6.5s16.167 16.5 21.5 36.5l4 16.5c1.33301 5.66699 2.66602 11.834 3.99902 18.501l78 364l7 35c2 10 3 18 3 24c0 13.333 -5.66699 21.5 -17 24.5s-30.666 4.83301 -57.999 5.5l5 31
c9.33301 0 18.833 -0.333008 28.5 -1s19.167 -1 28.5 -1c1.33301 -0.666992 2.83301 -1 4.5 -1h5.5c10.667 -0.666992 21.667 -1.16699 33 -1.5s22.333 -0.5 33 -0.5c9.33301 0 18.833 0.166992 28.5 0.5s19.5 0.833008 29.5 1.5h9.5c3 0 6.16699 0.333008 9.5 1
c10 0 19.667 0.333008 29 1s18.666 1 27.999 1l-5 -31h-5.5h-5.5c-24 -0.666992 -40.167 -2.5 -48.5 -5.5s-14.833 -13.167 -19.5 -30.5l-4 -14.5c-1.33301 -5 -2.66602 -10.833 -3.99902 -17.5l-68 -312l311 299c0 2 0.166992 4 0.5 6s0.833008 4 1.5 6l3.5 19.5
c1 5.66699 1.5 10.834 1.5 15.501c0 15.333 -5.5 24.833 -16.5 28.5s-29.833 5.5 -56.5 5.5l4 31c9.33301 0 18.666 -0.333008 27.999 -1s19 -1 29 -1l37 -2c12.667 -0.666992 25.334 -1 38.001 -1c12 0 24.5 0.333008 37.5 1l38.5 2h2h2c8.66699 0 17.5 0.333008 26.5 1
s17.833 1 26.5 1l-5 -31h-21h-3.5h-2.5c-6.66699 0 -13.167 -0.666992 -19.5 -2s-11.5 -3.66602 -15.5 -6.99902c-5.33301 -4.66699 -9.83301 -12.167 -13.5 -22.5s-6.83398 -21.166 -9.50098 -32.499c-2.66699 -10 -4.83398 -19.667 -6.50098 -29
s-3.16699 -16.666 -4.5 -21.999l-66 -306c-0.666992 -2 -1.16699 -3.83301 -1.5 -5.5s-0.5 -3.5 -0.5 -5.5l-10.5 -41.5c-3 -11.667 -4.5 -21.167 -4.5 -28.5c0 -12 5.83301 -19.833 17.5 -23.5s31.834 -5.5 60.501 -5.5l-3 -31c-8.66699 0.666992 -17.667 1.16699 -27 1.5
s-18.666 0.5 -27.999 0.5c-13.333 0 -26.833 0.166992 -40.5 0.5s-27.167 0.5 -40.5 0.5h-33c-11.333 0 -22.333 -0.333008 -33 -1c-11.333 0 -22.5 -0.166992 -33.5 -0.5s-22.167 -0.833008 -33.5 -1.5l3 29c34 0.666992 55.833 4.33398 65.5 11.001
s16.834 20.667 21.501 42l4.5 22l5.5 27l62 282l-311 -296c-0.666992 -2 -1.16699 -3.83301 -1.5 -5.5s-0.5 -3.5 -0.5 -5.5c-2 -10.667 -4 -20 -6 -28s-3 -14.667 -3 -20c0 -12.667 5.5 -20.667 16.5 -24s30.833 -5 59.5 -5l-5 -29
c-10.667 0.666992 -21.667 1.16699 -33 1.5s-22.333 0.5 -33 0.5h-33.5h-33.5h-66c-22 0 -43.667 -0.666992 -65 -2v0z" />
    <glyph glyph-name="h" unicode="&#x418;" horiz-adv-x="749" 
d="M36 0l4.99902 30.9941c29.333 0 48.5 2.16699 57.5 6.5s16.167 16.5 21.5 36.5l4 16.5c1.33301 5.66699 2.66602 11.834 3.99902 18.501l78 364l7 35c2 10 3 18 3 24c0 13.333 -5.66699 21.5 -17 24.5s-30.666 4.83301 -57.999 5.5l5 31
c9.33301 0 18.833 -0.333008 28.5 -1s19.167 -1 28.5 -1c1.33301 -0.666992 2.83301 -1 4.5 -1h5.5c10.667 -0.666992 21.667 -1.16699 33 -1.5s22.333 -0.5 33 -0.5c9.33301 0 18.833 0.166992 28.5 0.5s19.5 0.833008 29.5 1.5h9.5c3 0 6.16699 0.333008 9.5 1
c10 0 19.667 0.333008 29 1s18.666 1 27.999 1l-5 -31h-5.5h-5.5c-24 -0.666992 -40.167 -2.5 -48.5 -5.5s-14.833 -13.167 -19.5 -30.5l-4 -14.5c-1.33301 -5 -2.66602 -10.833 -3.99902 -17.5l-68 -312l311 299c0 2 0.166992 4 0.5 6s0.833008 4 1.5 6l3.5 19.5
c1 5.66699 1.5 10.834 1.5 15.501c0 15.333 -5.5 24.833 -16.5 28.5s-29.833 5.5 -56.5 5.5l4 31c9.33301 0 18.666 -0.333008 27.999 -1s19 -1 29 -1l37 -2c12.667 -0.666992 25.334 -1 38.001 -1c12 0 24.5 0.333008 37.5 1l38.5 2h2h2c8.66699 0 17.5 0.333008 26.5 1
s17.833 1 26.5 1l-5 -31h-21h-3.5h-2.5c-6.66699 0 -13.167 -0.666992 -19.5 -2s-11.5 -3.66602 -15.5 -6.99902c-5.33301 -4.66699 -9.83301 -12.167 -13.5 -22.5s-6.83398 -21.166 -9.50098 -32.499c-2.66699 -10 -4.83398 -19.667 -6.50098 -29
s-3.16699 -16.666 -4.5 -21.999l-66 -306c-0.666992 -2 -1.16699 -3.83301 -1.5 -5.5s-0.5 -3.5 -0.5 -5.5l-10.5 -41.5c-3 -11.667 -4.5 -21.167 -4.5 -28.5c0 -12 5.83301 -19.833 17.5 -23.5s31.834 -5.5 60.501 -5.5l-3 -31c-8.66699 0.666992 -17.667 1.16699 -27 1.5
s-18.666 0.5 -27.999 0.5c-13.333 0 -26.833 0.166992 -40.5 0.5s-27.167 0.5 -40.5 0.5h-33c-11.333 0 -22.333 -0.333008 -33 -1c-11.333 0 -22.5 -0.166992 -33.5 -0.5s-22.167 -0.833008 -33.5 -1.5l3 29c34 0.666992 55.833 4.33398 65.5 11.001
s16.834 20.667 21.501 42l4.5 22l5.5 27l62 282l-311 -296c-0.666992 -2 -1.16699 -3.83301 -1.5 -5.5s-0.5 -3.5 -0.5 -5.5c-2 -10.667 -4 -20 -6 -28s-3 -14.667 -3 -20c0 -12.667 5.5 -20.667 16.5 -24s30.833 -5 59.5 -5l-5 -29
c-10.667 0.666992 -21.667 1.16699 -33 1.5s-22.333 0.5 -33 0.5h-33.5h-33.5h-66c-22 0 -43.667 -0.666992 -65 -2v0z" />
    <glyph glyph-name="i" unicode="&#xc9;" horiz-adv-x="749" 
d="M41 31c29.333 0 48.498 2.16211 57.498 6.49512s16.167 16.5 21.5 36.5l4 16.5c1.33301 5.66699 2.66602 11.834 3.99902 18.501l78 364l7 35c2 10 3 18 3 24c0 13.333 -5.66699 21.5 -17 24.5s-30.666 4.83301 -57.999 5.5l5 31c9.33301 0 18.833 -0.333008 28.5 -1
s19.167 -1 28.5 -1c1.33301 -0.666992 2.83301 -1 4.5 -1h5.5c10.667 -0.666992 21.667 -1.16699 33 -1.5s22.333 -0.5 33 -0.5c9.33301 0 18.833 0.166992 28.5 0.5s19.5 0.833008 29.5 1.5h9.5c3 0 6.16699 0.333008 9.5 1c10 0 19.667 0.333008 29 1s18.666 1 27.999 1
l-5 -31h-5.5h-5.5c-24 -0.666992 -40.167 -2.5 -48.5 -5.5s-14.833 -13.167 -19.5 -30.5l-4 -14.5c-1.33301 -5 -2.66602 -10.833 -3.99902 -17.5l-68 -312l311 299c0 2 0.166992 4 0.5 6s0.833008 4 1.5 6l3.5 19.5c1 5.66699 1.5 10.834 1.5 15.501
c0 15.333 -5.5 24.833 -16.5 28.5s-29.833 5.5 -56.5 5.5l4 31c9.33301 0 18.666 -0.333008 27.999 -1s19 -1 29 -1l37 -2c12.667 -0.666992 25.334 -1 38.001 -1c12 0 24.5 0.333008 37.5 1l38.5 2h2h2c8.66699 0 17.5 0.333008 26.5 1s17.833 1 26.5 1l-5 -31h-21h-5.5
h-5.5c-6 -0.666992 -11.667 -1.5 -17 -2.5s-9.66602 -3.16699 -12.999 -6.5c-5.33301 -4.66699 -9.83301 -12.167 -13.5 -22.5s-6.83398 -21.166 -9.50098 -32.499c-2.66699 -10 -4.83398 -19.667 -6.50098 -29s-3.16699 -16.666 -4.5 -21.999l-66 -306
c-0.666992 -2 -1.16699 -3.83301 -1.5 -5.5s-0.5 -3.5 -0.5 -5.5l-10.5 -41.5c-3 -11.667 -4.5 -21.167 -4.5 -28.5c0 -12 5.83301 -19.833 17.5 -23.5s31.834 -5.5 60.501 -5.5l-3 -31c-8.66699 0.666992 -17.667 1.16699 -27 1.5s-18.666 0.5 -27.999 0.5
c-13.333 0 -26.833 0.166992 -40.5 0.5s-27.167 0.5 -40.5 0.5h-33c-11.333 0 -22.333 -0.333008 -33 -1c-11.333 0 -22.5 -0.166992 -33.5 -0.5s-22.167 -0.833008 -33.5 -1.5l3 29c34 0.666992 55.833 4.33398 65.5 11.001s16.834 20.667 21.501 42l4.5 22l5.5 27l62 282
l-311 -296c-0.666992 -2 -1.16699 -3.83301 -1.5 -5.5s-0.5 -3.5 -0.5 -5.5c-2 -10.667 -4 -20 -6 -28s-3 -14.667 -3 -20c0 -12.667 5.5 -20.667 16.5 -24s30.833 -5 59.5 -5l-5 -29c-10.667 0.666992 -21.667 1.16699 -33 1.5s-22.333 0.5 -33 0.5h-33.5h-33.5h-66
c-22 0 -43.667 -0.666992 -65 -2l5 31v0zM488.998 688.995c-6 0 -12.4951 0.168945 -19.4951 0.501953s-14.167 1.16602 -21.5 2.49902c-16 3.33301 -30.833 11.166 -44.5 23.499s-21.834 34.166 -24.501 65.499c0 3.33301 0.666992 7.66602 2 12.999
s3.33301 10.666 6 15.999c4 9.33301 9.66699 17.666 17 24.999s15.333 11 24 11c8 0 14.333 -2.83301 19 -8.5s7 -12.5 7 -20.5c0 -1.33301 -0.166992 -3.16602 -0.5 -5.49902s-0.833008 -4.83301 -1.5 -7.5c0 -1.33301 -0.166992 -2.66602 -0.5 -3.99902
s-0.5 -2.66602 -0.5 -3.99902c-0.666992 -1.33301 -1.33398 -2.83301 -2.00098 -4.5s-1 -3.5 -1 -5.5c-1.33301 -3.33301 -2.33301 -6.83301 -3 -10.5s-1 -6.5 -1 -8.5c0 -11.333 3.66699 -19.833 11 -25.5s15.666 -9.5 24.999 -11.5
c3.33301 -0.666992 6.83301 -1.16699 10.5 -1.5s7.16699 -0.5 10.5 -0.5c4 0 8.16699 0.333008 12.5 1s8.83301 1.66699 13.5 3c11.333 3.33301 21.666 10 30.999 20s14.666 24.667 15.999 44c0 14.667 4.5 26.667 13.5 36s19.167 14 30.5 14c8 0 14 -3.5 18 -10.5
s6.33301 -14.833 7 -23.5v-1.5v-1.5v-3v-3c0 -4 -0.333008 -8 -1 -12s-1.66699 -7.33301 -3 -10c-10 -21.333 -21 -38 -33 -50s-24.333 -21 -37 -27c-14.667 -7.33301 -29 -11.666 -43 -12.999s-26.333 -2 -37 -2v0z" />
    <glyph glyph-name="i" unicode="&#x419;" horiz-adv-x="749" 
d="M41 31c29.333 0 48.498 2.16211 57.498 6.49512s16.167 16.5 21.5 36.5l4 16.5c1.33301 5.66699 2.66602 11.834 3.99902 18.501l78 364l7 35c2 10 3 18 3 24c0 13.333 -5.66699 21.5 -17 24.5s-30.666 4.83301 -57.999 5.5l5 31c9.33301 0 18.833 -0.333008 28.5 -1
s19.167 -1 28.5 -1c1.33301 -0.666992 2.83301 -1 4.5 -1h5.5c10.667 -0.666992 21.667 -1.16699 33 -1.5s22.333 -0.5 33 -0.5c9.33301 0 18.833 0.166992 28.5 0.5s19.5 0.833008 29.5 1.5h9.5c3 0 6.16699 0.333008 9.5 1c10 0 19.667 0.333008 29 1s18.666 1 27.999 1
l-5 -31h-5.5h-5.5c-24 -0.666992 -40.167 -2.5 -48.5 -5.5s-14.833 -13.167 -19.5 -30.5l-4 -14.5c-1.33301 -5 -2.66602 -10.833 -3.99902 -17.5l-68 -312l311 299c0 2 0.166992 4 0.5 6s0.833008 4 1.5 6l3.5 19.5c1 5.66699 1.5 10.834 1.5 15.501
c0 15.333 -5.5 24.833 -16.5 28.5s-29.833 5.5 -56.5 5.5l4 31c9.33301 0 18.666 -0.333008 27.999 -1s19 -1 29 -1l37 -2c12.667 -0.666992 25.334 -1 38.001 -1c12 0 24.5 0.333008 37.5 1l38.5 2h2h2c8.66699 0 17.5 0.333008 26.5 1s17.833 1 26.5 1l-5 -31h-21h-5.5
h-5.5c-6 -0.666992 -11.667 -1.5 -17 -2.5s-9.66602 -3.16699 -12.999 -6.5c-5.33301 -4.66699 -9.83301 -12.167 -13.5 -22.5s-6.83398 -21.166 -9.50098 -32.499c-2.66699 -10 -4.83398 -19.667 -6.50098 -29s-3.16699 -16.666 -4.5 -21.999l-66 -306
c-0.666992 -2 -1.16699 -3.83301 -1.5 -5.5s-0.5 -3.5 -0.5 -5.5l-10.5 -41.5c-3 -11.667 -4.5 -21.167 -4.5 -28.5c0 -12 5.83301 -19.833 17.5 -23.5s31.834 -5.5 60.501 -5.5l-3 -31c-8.66699 0.666992 -17.667 1.16699 -27 1.5s-18.666 0.5 -27.999 0.5
c-13.333 0 -26.833 0.166992 -40.5 0.5s-27.167 0.5 -40.5 0.5h-33c-11.333 0 -22.333 -0.333008 -33 -1c-11.333 0 -22.5 -0.166992 -33.5 -0.5s-22.167 -0.833008 -33.5 -1.5l3 29c34 0.666992 55.833 4.33398 65.5 11.001s16.834 20.667 21.501 42l4.5 22l5.5 27l62 282
l-311 -296c-0.666992 -2 -1.16699 -3.83301 -1.5 -5.5s-0.5 -3.5 -0.5 -5.5c-2 -10.667 -4 -20 -6 -28s-3 -14.667 -3 -20c0 -12.667 5.5 -20.667 16.5 -24s30.833 -5 59.5 -5l-5 -29c-10.667 0.666992 -21.667 1.16699 -33 1.5s-22.333 0.5 -33 0.5h-33.5h-33.5h-66
c-22 0 -43.667 -0.666992 -65 -2l5 31v0zM488.998 688.995c-6 0 -12.4951 0.168945 -19.4951 0.501953s-14.167 1.16602 -21.5 2.49902c-16 3.33301 -30.833 11.166 -44.5 23.499s-21.834 34.166 -24.501 65.499c0 3.33301 0.666992 7.66602 2 12.999
s3.33301 10.666 6 15.999c4 9.33301 9.66699 17.666 17 24.999s15.333 11 24 11c8 0 14.333 -2.83301 19 -8.5s7 -12.5 7 -20.5c0 -1.33301 -0.166992 -3.16602 -0.5 -5.49902s-0.833008 -4.83301 -1.5 -7.5c0 -1.33301 -0.166992 -2.66602 -0.5 -3.99902
s-0.5 -2.66602 -0.5 -3.99902c-0.666992 -1.33301 -1.33398 -2.83301 -2.00098 -4.5s-1 -3.5 -1 -5.5c-1.33301 -3.33301 -2.33301 -6.83301 -3 -10.5s-1 -6.5 -1 -8.5c0 -11.333 3.66699 -19.833 11 -25.5s15.666 -9.5 24.999 -11.5
c3.33301 -0.666992 6.83301 -1.16699 10.5 -1.5s7.16699 -0.5 10.5 -0.5c4 0 8.16699 0.333008 12.5 1s8.83301 1.66699 13.5 3c11.333 3.33301 21.666 10 30.999 20s14.666 24.667 15.999 44c0 14.667 4.5 26.667 13.5 36s19.167 14 30.5 14c8 0 14 -3.5 18 -10.5
s6.33301 -14.833 7 -23.5v-1.5v-1.5v-3v-3c0 -4 -0.333008 -8 -1 -12s-1.66699 -7.33301 -3 -10c-10 -21.333 -21 -38 -33 -50s-24.333 -21 -37 -27c-14.667 -7.33301 -29 -11.666 -43 -12.999s-26.333 -2 -37 -2v0z" />
    <glyph glyph-name="j" unicode="&#xca;" horiz-adv-x="702" 
d="M41 0l6.00684 31.0029c0.666992 0 1.66699 -0.166992 3 -0.5s2.66602 -0.5 3.99902 -0.5c0.666992 0 1.66699 -0.166992 3 -0.5s2.33301 -0.5 3 -0.5c24 0 40 3.16699 48 9.5s14.333 19.5 19 39.5c1.33301 4.66699 2.66602 10 3.99902 16s2.66602 12.333 3.99902 19
l71 339c4 18.667 7.66699 34.5 11 47.5s5 23.833 5 32.5c0 11.333 -5.5 19.166 -16.5 23.499s-31.5 6.5 -61.5 6.5l5 31c6.66699 0 13.334 -0.166992 20.001 -0.5s13.334 -0.5 20.001 -0.5c3.33301 0 6.66602 -0.166992 9.99902 -0.5s6.66602 -0.5 9.99902 -0.5
c10 0 20 -0.166992 30 -0.5s20 -0.5 30 -0.5h18.5h18.5c10 0.666992 20.167 1 30.5 1s20.5 0.333008 30.5 1c8 0 16 0.166992 24 0.5s16 0.5 24 0.5v-31c-32.667 0 -53.834 -2 -63.501 -6s-17.5 -17.667 -23.5 -41c-0.666992 -4.66699 -1.66699 -9.83398 -3 -15.501
s-2.66602 -11.834 -3.99902 -18.501l-39 -181c16.667 11.333 35 25 55 41l61 51l25.5 22l24.5 22c20 18.667 38.667 37 56 55s32.333 34.333 45 49c7.33301 7.33301 12.833 15.333 16.5 24s5.5 18 5.5 28c4.66699 0 9.66699 -0.166992 15 -0.5s10.666 -0.833008 15.999 -1.5
c4.66699 -0.666992 9.66699 -1.16699 15 -1.5s10.333 -0.5 15 -0.5c6 0 12.333 0.166992 19 0.5s13.334 0.833008 20.001 1.5h2.5c1 0 2.16699 0.333008 3.5 1c5.33301 0 10.833 0.333008 16.5 1s11.167 1 16.5 1l-5 -29c-28.667 0 -54.334 -7.83301 -77.001 -23.5
s-44.334 -32.834 -65.001 -51.501l-14 -14c-4.66699 -4.66699 -9.33398 -9 -14.001 -13l-146 -131l170 -258c4.66699 -6 8.66699 -11.333 12 -16s6.66602 -8.66699 9.99902 -12c6 -5.33301 12.5 -9.16602 19.5 -11.499s17.5 -3.83301 31.5 -4.5l-3 -29
c-6.66699 0.666992 -13.334 1.16699 -20.001 1.5s-13.334 0.5 -20.001 0.5h-20h-20h-38c-12.667 0 -25.667 -0.666992 -39 -2c-10 20 -21 39.333 -33 58l-36 54c-1.33301 2.66699 -2.83301 5 -4.5 7s-3.16699 4.33301 -4.5 7c-2 2.66699 -4 5.5 -6 8.5s-4 5.83301 -6 8.5
l-48.5 75c-16.333 24.667 -34.166 48.667 -53.499 72l-43 -206c0 -1.33301 -0.166992 -2.66602 -0.5 -3.99902s-0.833008 -3 -1.5 -5c-0.666992 -2.66699 -1.16699 -5.33398 -1.5 -8.00098s-0.5 -5 -0.5 -7c0 -14.667 4.83301 -23.667 14.5 -27s21.834 -5 36.501 -5h5.5
c2.33301 0 4.83301 0.333008 7.5 1h1h1h6.5h5.5l-6 -29c-10.667 0.666992 -21.667 1.16699 -33 1.5s-22.333 0.5 -33 0.5h-33.5h-33.5h-66c-22 0 -43.667 -0.666992 -65 -2v0z" />
    </font>
</defs>
</svg>
